<svg id="reg" width="488" height="489.05" enable-background="new 0 0 24 24" version="1.1" viewBox="0 0 22.875 22.924" xmlns="http://www.w3.org/2000/svg">
 <g transform="translate(-.56296 -.49997)">
  <path transform="scale(.046875)" d="m73.002 10.666c-33.749 0-61.014 27.308-60.992 61.143v366.78c0 33.621 27.243 61.121 60.992 61.121h172.33v-153.05h-64v-80h64v-74.666c0-53.12 53.546-96 106.67-96h64v80h-32c-17.707 0-32-1.7067-32 16v74.666h80l-21.334 80h-58.666v153.05h87.02c33.536 0 60.99-27.5 60.99-61.121v-366.78c0-33.835-27.454-61.143-61.012-61.143z" />
 </g>
</svg>
