<svg width="490.68" height="403.26" version="1.1" viewBox="0 0 490.68 403.26" xml:space="preserve" xmlns="http://www.w3.org/2000/svg" xmlns:cc="http://creativecommons.org/ns#" xmlns:dc="http://purl.org/dc/elements/1.1/" xmlns:rdf="http://www.w3.org/1999/02/22-rdf-syntax-ns#">
  <metadata>
    <rdf:RDF>
      <cc:Work rdf:about="">
        <dc:format>image/svg+xml</dc:format>
        <dc:type rdf:resource="http://purl.org/dc/dcmitype/StillImage"/>
        
      </cc:Work>
    </rdf:RDF>
  </metadata>
  <path d="m487.86 49.229c-3.262-3.567-8.514-4.494-12.8-2.261-4.406 2.002-8.964 3.65-13.632 4.928 7.28-9.316 12.777-19.897 16.213-31.211 1.513-5.693-1.876-11.535-7.569-13.048-3.04-0.808-6.281-0.233-8.857 1.571-16.219 8.777-33.458 15.52-51.328 20.075-36.787-34.722-92.823-39.05-134.51-10.389-32.109 21.71-49.786 59.232-46.08 97.813-69.603-5.931-133.64-40.422-176.9-95.275-2.222-2.688-5.584-4.168-9.067-3.989-3.532 0.212-6.728 2.162-8.533 5.205-14.68 23.997-18.933 52.944-11.776 80.149 3.67 13.978 9.961 27.132 18.539 38.763-3.864-1.892-7.5-4.218-10.837-6.933-4.575-3.711-11.292-3.011-15.004 1.564-1.54 1.899-2.382 4.269-2.383 6.714 0.634 39.467 22.306 75.588 56.832 94.72-4.658-0.572-9.256-1.557-13.739-2.944-5.641-1.697-11.59 1.5-13.287 7.141-0.74 2.461-0.567 5.107 0.487 7.451 14.985 33.566 44.943 58.084 80.811 66.133-34.173 19.28-73.523 27.381-112.53 23.168-5.058-0.646-9.85 2.429-11.371 7.296-1.568 4.829 0.484 10.093 4.907 12.587 47.765 28.38 102.1 43.82 157.65 44.8 53.294-0.195 105.34-16.113 149.63-45.76 84.544-56.107 137.24-156.84 129.9-246.98 18.077-13.381 33.758-29.725 46.379-48.341 2.593-4.081 2.121-9.394-1.153-12.951z"/>
  
</svg>
