<?xml version="1.0" encoding="UTF-8"?>
<svg width="121.31px" height="122.88px" enable-background="new 0 0 121.31 122.876" version="1.1" viewBox="0 0 121.31 122.88" xml:space="preserve" xmlns="http://www.w3.org/2000/svg" xmlns:cc="http://creativecommons.org/ns#" xmlns:dc="http://purl.org/dc/elements/1.1/" xmlns:rdf="http://www.w3.org/1999/02/22-rdf-syntax-ns#"><metadata><rdf:RDF><cc:Work rdf:about=""><dc:format>image/svg+xml</dc:format><dc:type rdf:resource="http://purl.org/dc/dcmitype/StillImage"/><dc:title/></cc:Work></rdf:RDF></metadata><g fill="#f00"><path d="m90.914 5.296c6.927-7.034 18.188-7.065 25.154-0.068 6.961 6.995 6.991 18.369 0.068 25.397l-30.393 30.827 30.425 30.855c6.866 6.978 6.773 18.28-0.208 25.247-6.983 6.964-18.21 6.946-25.074-0.031l-30.217-30.642-30.274 30.699c-6.927 7.034-18.188 7.065-25.154 0.068-6.961-6.995-6.992-18.369-0.068-25.397l30.393-30.827-30.424-30.856c-6.867-6.978-6.773-18.28 0.208-25.247 6.983-6.963 18.21-6.946 25.074 0.031l30.217 30.643z" clip-rule="evenodd" color="#000000" color-rendering="auto" dominant-baseline="auto" enable-background="accumulate" fill="#f00" fill-rule="evenodd" image-rendering="auto" shape-rendering="auto" solid-color="#000000" stop-color="#000000" style="font-feature-settings:normal;font-variant-alternates:normal;font-variant-caps:normal;font-variant-east-asian:normal;font-variant-ligatures:normal;font-variant-numeric:normal;font-variant-position:normal;font-variation-settings:normal;inline-size:0;isolation:auto;mix-blend-mode:normal;shape-margin:0;shape-padding:0;text-decoration-color:#000000;text-decoration-line:none;text-decoration-style:solid;text-indent:0;text-orientation:mixed;text-transform:none;white-space:normal"/></g></svg>
