<svg width="2611.4" height="2512.2" version="1.1" viewBox="0 0 2611.4 2512.2" xml:space="preserve" xmlns="http://www.w3.org/2000/svg">
<style type="text/css">
	.st0{fill-rule:evenodd;clip-rule:evenodd;fill:#060509;}
	.st1{fill-rule:evenodd;clip-rule:evenodd;fill:#4A55A5;}
	.st2{fill-rule:evenodd;clip-rule:evenodd;fill:#B9A14C;}
	.st3{fill-rule:evenodd;clip-rule:evenodd;fill:#525152;}
	.st4{fill-rule:evenodd;clip-rule:evenodd;fill:#FFFFFF;}
</style>
<path class="st0" d="m465.89 2160.8c18.57 15.92 51.6 45.85 71.67 63.38 188.75 165.12 419.05 288.03 764.93 288.03 326.19 0 583.75-126.34 764.93-283.32 22.24-19.27 49.71-49.52 71.65-68.08h472.35l-230.37-383.63c123.31-348.79 23.35-719.32-137.4-947.73-158.05-228.01-395.6-386.8-700.35-451.48l-230.68-377.97-228.61 375.66c-269.56 51.66-509.31 188.39-670.07 382.9-196.38 237.59-303.52 630.38-178.59 1012.3l-235.35 389.79z"/>
<path class="st1" d="m1269.5 2332.8c-0.78-3.69-4.01-8.21-5.95-12.74-29.75-0.65-62.5-8.44-80.84-14.23-84.03-25.58-126.62-78.25-167.75-145h-265.31c133.43 82.8 297.53 153.35 519.85 171.97z"/>
<path class="st1" d="m1590.5 1884.2c-7.41-2.46-25.28-18.16-33.03-4.7 14.74 36.24-57.68 20.84-70.84 4.7-35.71 24.1-67.22 52.43-118.04 61.41 2.88 11.26 0.59 28.07 2.13 28.07h148.76c17.24-37.86 48.75-56.66 71.02-89.48z"/>
<path class="st1" d="m1793 2198.5c-53.32 11.28-91.77-18.46-104.08-37.72h-121.92c-40.66 108.97-127.03 147.27-250.35 171.96 155.34-2.11 288.78-38.71 391.91-84.99 28.25-12.67 60.34-30.28 84.44-49.25z"/>
<path class="st1" d="m2048.6 1973.7c47.81-62.38 91.51-119.13 122.72-198.07l-752.17-1233.3c-12.85-2.06-19.42-3.16-33.88-4.97l54.15 90.85c-18.68 14.36-46.22 20.06-73.57 25.69 4.07 18.52 8.31 31.7 7.51 54.57 132 47.44 227.93 130.9 226.62 311.66-11.1-0.09-13.89 8.13-28.34 4.74-0.21 25.41 22.19 28.16 23.63 51.93-6.22 9.52-15.5 15.96-28.33 18.89-21.9-9.58-21.26-41.71-28.34-66.11-52.52-40.36-112.78-87.64-112.78-169.02-14.55-13.07-27.62-25.84-60.59-32.67 3.21 45.7-2.38 95.05-6.06 130.88 157.46 7.92 209.55 236.1 47.22 283.28-3.56 16.13 19.18 6.02 14.14 23.63-1.78 20.25-35.23 8.81-37.73 28.33 71.36 26.17 152.58 42.53 165.25 127.48 14.87 2.29 10.67-14.48 28.34-9.44 8.13 2.88-0.39 22.4 9.44 23.63 11.47-18.43 20.03-39.77 37.78-51.97 14.82-2.24 12.45 12.71 23.58 14.19 19.23-34.72 38.93-87.37 75.56-89.74 21.39-30.53 31.89-71.99 61.4-94.44 22.16 12.5 19.06 50.19 28.3 75.56 7.88 10.21 12.71-18.76 28.33-4.71 5.76 21.01 5.17 48.37 4.75 75.56 24.52 3.76 38.8 17.87 56.67 28.33-3.01 37.69 20.7 55.9 47.22 75.51 5.12 38.97 34.17 53.96 33.03 99.19 20.29 12.75 50.02 16.09 51.96 47.21-4.91 10.81-33.7-2.24-37.77 9.45 13.04 8.97 42.01 2.03 47.21 18.89-22.74 29.22-53.66 50.23-99.18 56.67-13.34 7.41 10.67 25.28-4.7 33.03-23.55 6.39-50.4 9.44-80.3 9.44-12.58 16.05 20.58 17.87 18.89 37.78-14.19 15.21-68.65 11.65-89.7 4.74-3.05 18.76 12.49 18.98 9.44 37.74-5.97 11.35-37.22-2.58-42.48 9.48 11.18 2.58 19.57 18.26 9.44 28.3 69.41 14.02 103.75 51.45 120.77 117.81h162.57z"/>
<path class="st2" d="m447.49 2117.8c-5.5-12.39-84.35-116.55-113.49-168.7l97.49-154.94c40.54 88.99 146.35 268.42 290.21 359.04 141.31 103.8 329.04 175.83 548.27 189.41 16.17 16.17 27.23 24.11 46.56 37.51 3.23-12.93 4.53-23.93 9.59-33.21 234.4-12.67 400.4-72.68 552.23-186.15h239.24c-12.27 15.32-20.02 23.48-26.55 30.34-183.56 170.54-435.91 294.55-744.86 308.57-398.55 18.1-705.31-173.31-898.69-381.87z"/>
<path class="st3" d="m342.65 1987.2c16.52 33.9 93.1 131.92 114.66 161.42h-434.43l939.67-1558.2c66.24-21.85 132.52-43.76 212.47-51.93l-876.7 1448.7z"/>
<path class="st3" d="m1682 2148.9h-107.35c19.94-54.08 50.74-118.31 81.28-161.71h651.79l-23-21.2c27-43.88 72.49-109.4 87.82-171.75l214.3 354.66h-835.9c-18.12-8.64-32.3-44.73-37.43-62.68-29.74 14.36-31.79 46.14-31.51 62.68z"/>
<path class="st2" d="m2308.2 968.19c145.52 291.96 164.71 733.88-49.54 1005.5h-187.1c18.4-21.46 27.3-36.8 43.05-61.14 48.07-74.25 87.96-167.45 112.27-270.58 4.48-22.24 8.76-36.79 12.12-59.75 23.5-137.68 18.75-289.05-29.94-434.61-88.31-263.97-294-452.46-533.57-552.42l-119.19-198.05c317.32 56.52 612.36 290.97 751.9 571.07z"/>
<path class="st1" d="m1685 614.06c332.65 136.53 590.39 466.97 549.86 892.69z"/>
<path class="st2" d="m1412.4 529.95c-10.23-0.6-16.25-3.61-33.11-5.42l-72.83-116.17-72.85 112.5c-260.53 10.96-449.27 119.2-601.57 263.15-160.55 151.79-298.53 387.17-278.58 708.27 1.19 19.48 5.2 54.04 2.15 76.44l-115.48 187.99c-210.27-779.96 337.48-1381.8 1070.6-1392.3z"/>
<path class="st3" d="m1320 347.68-15.08-25.21-15.56 26.3c-57.21 2.52-124.98 8.34-183.64 21.38l206.22-346.33 921.76 1512.4c-15.49 87.02-24.55 131.44-55.35 223.85z"/>
<path class="st3" d="m1366.1 1987.2 148.84 0.87c-26.15 66.89-52.22 109.83-85.96 160.84h-59.81c-1.53-20.34-10.95-48.04-24.54-64.82 15.33-30.67 22.74-56.28 21.47-96.89z"/>
<path class="st2" d="m1277.2 1359.1c-0.43-18.08-1.74-58.89-4.72-83.73 12.79-6.1 36.62-18.01 57.63-15.9-7.95 79.49-8.94 142.09 0.99 204.69-19.7 4.47-38.81 9.73-61.61 14.9 2-24.83 8.41-83.29 7.71-119.96z"/>
<path class="st1" d="m1369.2 2160.8h42.84c-19.8 13.93-27.26 19.77-48.18 25.6 1.12-11.03 3.39-16.55 5.34-25.6z"/>
<path class="st2" d="m1305.8 429.42 114.7 194.04c-59.62 32.1-176.13 30.24-231.35-4.71z"/>
<path class="st2" d="m1345 651.79c14.91 7.12 14.44 29.61 14.15 51.97-36.26-4.07-71.19-5.25-103.89 4.7-12.45-14.27 4.2-39.64 4.75-56.67 25.41-0.08 62.47 12.92 84.99 0z"/>
<path class="st2" d="m1354.4 1950.3c7.07 41.85-5.75 100.08-23.63 132.22 65.81 95.16-32.43 168.76-23.58 278.58-49.22-47.44-93-195.03-33.09-264.4-18.04-37.05-32.06-78.13-28.33-136.96 33-3.25 84.37-13.12 108.63-9.44z"/>
<path class="st2" d="m1354.4 821.78c2.17 101.35-16.72 181.6-14.18 283.32-20.89 9.03-39.05 20.76-70.81 18.89 1.74-100.92-5.21-193.12-18.89-278.58 19.52-22.94 57.94-27.01 103.88-23.63z"/>
<path class="st2" d="m1344.8 1611.8c5.58 63.22 5.02 125.14 11.07 180.77-31.44 9.67-68.94 16.33-110.08 24.29 3.01-59.97 13.63-115.76 14.18-178.14 22.12-6.4 57.89-20.74 84.83-26.92z"/>
<path class="st1" d="m1260 1081.5v47.22c-62.47 19.94-133.4 31.04-169.99 80.3-59.12 79.49-5.63 202.05 94.43 212.47-6.26 33.03 23.43 30.07 42.49 37.78-3.86 26.04-44.98 14.82-47.22 42.48-23.63-17.28-34.73-47.09-66.11-56.66-17.58-5-7.46 17.75-23.59 14.19-5.17-10.59-7.84-23.67-14.19-33.07-23.71-4.83-10.21 27.56-28.34 28.33-9.78-21.68-21.6-41.34-33.03-61.36-42.56 3.13-58.23-73.1-108.58-61.37 0.21-26.85-15.58-35.83-33.07-33.07-13.25-33.93-24.02-70.43-51.92-89.7-20.29 11.22-17.84 45.15-23.63 70.81-11.35 1.94-10.26-8.6-23.59-4.71-18.04 18.17-18.84 53.53-23.63 85-39.39 21.97-59.08 63.65-75.56 108.58h-18.89c-5.16 25.92-33.25 44.68-18.89 75.55-51.03 10.21-50.15 58.36-66.07 94.45 1.31 20.7 44.04 0 51.92 14.15 24.31 4.11-16.26 11.69-14.19 23.63 17.92 19.86 48.28 27.27 85 28.33 0.84 16.56-15.93 15.5-18.89 28.34 11.65 24.56 62.05 10.37 94.44 14.14 5 20.71-15.97 15.5-14.15 33.07 10.85 17.58 53.92 16.98 75.56 9.45 2.29 14.86-8.52 16.64-4.75 33.03 24.82 13.59 55.43-3.05 85 0 1.22 13.8-10.67 14.52-9.45 28.33 5.98 5.42 37.23 9.48 42.53 0 13.8 3.98-2.84 15.21 0 23.59 9.95 19.94 46.97 12.83 75.51 14.19 16.22-2.17-4.36 32.1 28.33 23.59-11.94 21.09-24.6 36.07-32.57 61.14h-458.55c-32.21-41.4-80.19-117.37-117.96-193.33l755.5-1241.8h28.33l-49.72 83.77c15.79 15.7 48.78 23.94 73.31 29.52-3.5 22.1-6.99 36.92-4.71 61.41-95.84 25.88-162.57 101.25-146.4 217.22 12.28 87.7 89.1 124.62 165.29 151.05z"/>
<path class="st3" d="m1236 1987.2c0.83 39.99 12.86 79.21 25.72 105.92-9.89 21.76-16.81 36.6-20.77 55.8h-507.4c-59.35-43.93-120.67-98.33-169.13-161.71h671.58z"/>
<path class="st1" d="m1236.2 2160.8c-0.97 11-1.62 14.57-1.3 20.09-11.68-8.11-17.53-12.01-32.78-20.09z"/>
<path class="st1" d="m367.24 1552.4c-37.36-501.97 230.84-794.23 571.67-952.5z"/>
<path class="st4" d="m1260 2309.2c-11.18-34.52-27.95-63.36-23.63-113.33-20.53-15.4-39.43-29.34-60.43-35.05h-142.63c41.42 84.53 110.52 138.59 226.69 148.38z"/>
<path class="st4" d="m1463 1888.9c73.52-77.12 29.59-214.01-104.71-209.48 5.57 48.28 3.02 79.22 9.18 117.99-85.37 34.39-305.95 31.26-335.72 176.22h147.23c20.03-4.4 37.92-17.1 62.1-23.38 93.47-24.09 178.09-15.36 221.92-61.35z"/>
<path class="st1" d="m1675.9 1973.7h113.49c-12.27-29.13-90.49-30.67-113.49 0z"/>
<path class="st4" d="m1695.6 2133.9c0.49 55.45 117.41 73.31 147.65 26.88h-57.42c-40.02 0.06-71.1-10.79-74.13-42.94-3.15-33.52-16.19 6.19-16.1 16.06z"/>
<path class="st4" d="m1798.3 1577.3v-14.14c-14.82-2.25-19.31 5.89-23.59 14.14h23.59z"/>
<path class="st4" d="m1968.3 1624.5c22.15 3.05 37.06 13.34 61.37 14.19-28.42 29.81-67.08 49.38-122.78 51.92 0.81-28.71-60.98-16.05-51.92-37.77-36.67 5.03-104.18-10.21-132.21-51.93-8.81 3.77-17.28 7.88-28.34 9.44 61.08 52.26 181.13 45.54 236.1 103.89-100.06 41.71-203.4-14.52-231.35-89.74-21.93-6.61-38.71 4.57-51.97 18.89 76.66 36.68 151.24 75.43 217.22 122.78-37.06 25.79-95.76-3.69-127.47-14.15 16.6 19.57 43.75 28.63 47.21 61.36-32.47-7.74-58.74-21.68-81.86-38.75-6.06-8.26-13-16.05-22.02-22.61-5-3.64-10.26-6.82-15.71-9.7-26.26-25.16-50.35-52.39-78.73-75.31-17.36 1.53-32.4 5.39-42.52 14.15 31.59 34.73 81.77 40.19 121.25 61.16 11.94 11.39 24.3 22.4 37.73 32.31 16.56 22.58 26.39 48.61 53.53 62.34-91.9 13.21-149.33-48.95-193.63-99.14 19.35 63.27 79.58 56.49 99.18 118.04-27.57 0.08-48.61-6.44-65.68-16.9-0.17-0.68-0.29-1.31-0.43-1.99-1.44-0.3-2.84-0.59-4.24-0.98-57-38.83-69.12-122.56-146.87-140.64 20.97-8.98 12.62-47.22 14.15-75.55 5.26 10.5 8.34 23.12 23.63 23.58-8.25-16.89 12.84-14.86 9.44-33.03-0.08-11.09-12.87 1.74-9.44 9.45-20.33-3.05 6.1-30.45 14.15-18.9-9.15-15.62 7.24-30.79 19.35-32.9 1.02 0.42 2.41 0.42 4.28-0.17-1.31-0.17-2.76-0.08-4.28 0.17-5.84-2.21-0.55-16.9-5.16-9.61-7.29 2.33 22.36-39.72 18.89-18.89 16.3-10.98 9.4-91.78 42.48-113.33 11.86 128.32-58.95 174.01-99.14 250.29 78.48 28.07 49.34-92.29 84.99-122.78 6.31 0.93 8.77 19.62 9.45 0 20.45 6.7-1.99 25.92-4.75 37.78 30.2-20.76 3.85-43.57 18.89-75.55-4.57 0.12-3.64 5.75-4.7 9.44-10.59-53.11 20.16-105.71 56.67-127.48 9.23 50.53-28.55 114.31-18.9 165.26-21.34 36.89-60.98 55.52-75.55 99.14 23.93 1.82 72.76-12.16 85-37.78-16.73-133.15 22.78-221.03 80.24-302.17 70.09 110.32-52.55 216.92-66.11 302.17 92.58 5.34 47.01-103.12 70.85-136.92 11.94 12.29-6.65 34.05 0 56.66 6.18-19.73 12.74-50.94 4.71-70.85 14.9 18.55 5.89-3.76 4.74-18.88 5.51 0.76 3.98 8.64 4.71 14.19 7.66-11.22 9.19-28.59 14.19-42.52-2.21 0.08-3.14 1.39-3.69 3.21 3.98-31.63-15.11-64.96-10.5-97.62 5.71-40.7 51.41-66.28 56.67-103.89 65.85 93.68-30.84 125.27-42.48 231.36-4.37 39.34-16.06 73.18-18.89 122.77 39.89-22.66 22.91-85.71 28.34-132.21 6.94-59.71 31.51-100.46 70.8-127.48-1.22-13.85 10.67-14.52 9.45-28.34 18.59 17.84 3.21 60.44 9.44 80.26 5.04 7.8 14.31-12.07 28.33 0 0.43 12.88-7.88 9.53 0 18.89 1.95 6.81 27.62-16.65 33.03 4.74 0.8 10.2-16.73 2.12-23.59 4.71 0.72 8.72 15.97 2.88 18.9 9.44-45.83 65.17-56.88 61.32-89.7 122.77 37.22-11.61 51.2-87.24 103.84-99.14-0.59 8.47 5.8 9.95 4.75 18.84-20.62-2.66-16.26 30.79-42.52 18.88 20.88 34.48 54.97-43.11 70.85 0-8.56 9.32-44.13 33.34-70.85 23.63-2.93 4.83-2.84 16.26-23.59 14.15 7.88 12.92 22.74-8.09 28.33 9.44 4.67 25.54-14.1-1.9-9.44 23.63-29.69-6.22-33.62 14.36-61.36 23.59-0.21 8.09 3.47 12.24 9.4 14.19-14.95 8.47-32.48-1.23-56.62-4.75-6.06 18.64 13.72 11.43 14.15 23.63 94.53 3.98 177.74-69.2 250.24-4.74-52.93 12.32-93.59 50.47-151.1 47.21-52.26-2.96-89.15-32.1-136.92-51.92 53.14 55.48 169.14 78.01 236.09 33.07z"/>
<path class="st4" d="m1958.8 1530c1.44 11.14 16.39 8.81 14.15 23.63-9.45 11.82-21.94-18.42-23.59 9.45-14.62-16.26-32.87-0.98-51.97-14.19 3.47-23.29 44.93-8.6 61.41-18.89z"/>
<path class="st4" d="m1958.8 1501.7v18.89c-8.93 13.85-20.92-19.86-18.88 9.44-19.02-10.37-43.25-3.13-56.67-9.44 16.6-16.56 47.68-27.15 75.55-18.89z"/>
<path class="st4" d="m1888 1544.2c-0.38 6.7-0.76 13.39 4.75 14.15-2.63 18.25-18.3-6.06-14.19 18.88-24.22-13.55-41.04 17.96-61.37 4.75 17.74-18.47 41.71-30.67 70.81-37.78z"/>
<path class="st4" d="m1872.2 1973.7h-61.39c-42.97-52.09-106.24-38.27-139.95-13.93-79.66 57.56-93.78 232.58-188.88 302.22-44.08 34.68-95.16 40.11-160.55 51.92-0.89-23.41 25.34-66.17 33.07-113.29 161.36-23.82 133.87-320.25 354.14-339.99 58.78-5.3 142.07 27.21 163.56 113.07z"/>
<path class="st4" d="m1732.5 1433.9c0.25-1.52 0.39-3.17 0.72-4.53-0.12 1.52-0.38 3-0.72 4.53z"/>
<path class="st4" d="m1670.8 1846.5c3.69-10.89 29.22-4.62 23.59 9.4-15.03 4.06-17.91-4.12-23.59-9.4z"/>
<path class="st4" d="m1685 1544.2c25.08 28.97-4.49 62-33.03 66.11 6.17-26.89 21.22-44.89 33.03-66.11z"/>
<path class="st4" d="m1666.1 1638.7c14.7-7.11 32.9-5.55 33.07 14.15-11.68-4.06-32.69 1.22-33.07-14.15z"/>
<path class="st4" d="m1680.3 1752c9.02 6.57 15.96 14.35 22.02 22.61-13.43-9.91-25.79-20.92-37.73-32.31 5.46 2.88 10.71 6.06 15.71 9.7z"/>
<path class="st4" d="m1633 1860.6c1.43 12.45-9.87 12.2-18.9 14.15v-18.89c4.2 3.69 10.64 5.09 18.9 4.74z"/>
<path class="st4" d="m1566.9 1681.2c4.01 16.48 23.24 17.67 37.77 23.63-6.65-19.1-15.88-31.21-37.77-23.63z"/>
<path class="st4" d="m1604.7 1591.5c29.77 26.35-15.33 56.16-42.52 56.66 8.18-24.9 33.29-32.85 42.52-56.66z"/>
<path class="st4" d="m1595.7 1839c2.5 12.41 6.61 23.26 9.02 35.79-19.86-5.16-55.77-14.62-51.96-28.29-4.2 3.64-10.67 5.03-18.9 4.7 5.68-5.42 1.87-11.98 0-4.7-3.6-21.4-13.29-27.62-23.58-51.97 57.47 60.4-10.12-28.97-18.9-61.36 39.99 27.53 45.74 89.31 99.65 102.86 1.52 1.01 3.1 2.03 4.67 2.97z"/>
<path class="st4" d="m1595.3 1837c0.13 0.68 0.25 1.31 0.43 1.99-1.56-0.93-3.14-1.95-4.66-2.97 1.39 0.39 2.79 0.69 4.23 0.98z"/>
<path class="st4" d="m1581.1 1067.3c-2.45 13.52-6.98-7.62-9.44-9.44-10.2-0.8-2.11 16.73-4.7 23.59-14.62-37.35-26.22-77.62-47.22-108.58 27.99 23.96 36.97 66.9 61.36 94.43z"/>
<path class="st4" d="m1531.4 822.99c42.68 55.13 53.2 111.7 56.91 187.63-59.12-6.98-61.26-68.73-101.7-94.39 3.93 21.3 22.44 68.77 42.52 89.74-36.98-11.9-79.54-80.72-86.71-106.52-5.11-14.81-2.07-27.52-4.46-40.1-37.35-64.41-226.46-77.33-211.04 33.29 2.7 19.49 13.69 37.06 28.33 47.22 2.26 51.2 4.93 89.43 4.75 132.17-82.52-34.74-167.88-68.53-155.86-203.03 16.43-104.71 119.9-165.13 231.41-155.8 74.11 6.18 151.56 60.79 195.85 109.79z"/>
<path class="st4" d="m1548 1888.9c-22.44 1.94-38.62-2.29-51.96-9.44 3.3-14.53 3.3-9.07 0-23.63 13.63 12.65 2.11-21.22 9.44-37.78 18.8 19.02 27.31 48.24 42.52 70.85z"/>
<path class="st4" d="m1399 1372.4c-14.48 13.47-39.18 11.62-58.72 16.03 23.42 25.74 41.91 30.46 63.04 43.93-26.15 16.02-39.43 20.61-62.32 28.78-7.95-64.59-11.92-124.21-0.99-199.72 25.83-7.42 40.69-4.51 66.38-0.51-15.68 12.02-42.18 17.62-61.37 28.34 16.98 10.38 41.19 11.3 57.71 23.07-20.33 16.1-54.77 19.98-69.43 31.38 24.69 16.67 42.71 21.35 65.7 28.7z"/>
<path class="st4" d="m1347.8 1344.8c22.82-6.46 50.06-13.76 68.06-27.27 59.58 12.84 98.21 46.63 122.77 94.44 23.55 202.99-193.08 165.76-306.91 231.36 5.11 9.47 14.18 13.7 19.63 16.12-2.42 41.72-8.47 90.71-10.18 134.99-91.81-18.47-168.26-72.25-155.85-169.99 18.17-142.55 211.96-109.23 339.47-192.01-10.01-10.68-44.72-24.5-56.74-35.38 16.69-2.67 30.71-11.35 47.82-22.86-9.54-10.37-52.7-24.87-68.07-29.4z"/>
<path class="st4" d="m1515.4 1568c1.53-0.25 2.97-0.35 4.28-0.17-1.87 0.59-3.26 0.59-4.28 0.17z"/>
<path class="st4" d="m1515 1624.5c16.69 21.64-6.43 43.75-23.59 47.22-10.88-15.79 19.1-31.08 23.59-47.22z"/>
<path class="st4" d="m1491.4 1567.8c5.55 31.17-68.57 63.35-84.99 103.89h-23.59c-1.48-23.46 0.72-43.33 4.7-61.37 10.08-8.59 25.71-4.27 28.34-9.44 0.59 10.51-0.51 36.04-14.19 51.93 19.95-17.84 35.66-39.89 47.22-66.12 16.01 8.09 23.12-8.21 33.07-18.89 5.3 4.15-0.29 15.79 9.44 0z"/>
<path class="st4" d="m1191 1374.6c15.41 12.4 41.32 21.05 59.53 28-43.58 32.9-116.9-8.52-139.77-33.59-41.08-44.98-39.3-121.69 2.67-164.51 73.81-66.69 155.62-46.24 238.32-93.37-1.44-25.13 3.56-81.81 2.66-138.21 116 12.45 179.95 135.23 102.27 225.36-51.29 59.5-164.4 37.85-206.15 86.29-6.5 7.52-12.6 12.08-19.06 14.66-12.06 5.6-36.54 19.86-47.05 23.11 17.33 12.53 43.54 16.26 66.12 23.59-14.44 10.07-43.56 18.52-59.54 28.67z"/>
<path class="st4" d="m1264 1401.4c-14.04 17.77-32.56 28.16-65.09 25.44-6.78 23.04 46.5 16 59.63 34.33-13.39 18.13-64.75 21.49-60.83 38.82 21.91-6.54 32.5-9.63 60.85-16.04 7.95-34.78 8.3-72.84 11.74-109.44-1.63-17.37 2.17-58.49-4.79-94.26-12.28 13.82-15.9 18.88-33.66 29.35-11.43 3.8-20.7 8.68-30.71 12.68 22.44 7.5 47.44 12.22 64.72 24.44-21.8 15.6-40.96 19.17-58.62 28.18 21.02 11.28 37.31 13.21 53.78 24.19 1.1 0.72 1.96 1.59 2.98 2.31z"/>
<path class="st4" d="m1439.4 1643.4c20.03 0.72 7.53 39.05 0 42.53-4.2-3.69-10.63-5.08-18.9-4.75-2.07-20.96 12.8-24.99 18.9-37.78z"/>
<path class="st4" d="m1359.2 1610.3h18.89c-14.19 11.02 9.07 59.42-18.89 56.67-2.08-16.17-10.76-42.48 0-56.67z"/>
<path class="st4" d="m1236.4 1803.9c2.75 16.9-13.98 14.36-28.34 14.15v-18.89c11.14-0.09 13.89 8.18 28.34 4.74z"/>
<path class="st4" d="m1193.9 1794.5c11.26 12.67-6.31 25.12-9.45 37.78-61.61 6.77-98.71 60.89-141.66 70.8 16.81-50.9 117.77-58.48 151.11-108.58z"/>
<path class="st4" d="m1179.7 1789.8c5.5 21.21-26.39 5.08-18.9 28.29-15.58-12.37 1.62-14.19-23.58-4.71 4.45-16.38 26.89-33.37 42.48-23.58z"/>
<path class="st4" d="m1160.8 1506.5c-14.61 9.27-12.4 6.14-28.33 14.14-26.39-0.34-12.62-40.87-23.59-56.66 20.97-8.26 45.19 20.83 51.92 42.52z"/>
<path class="st4" d="m1123.1 1539.5c-9.44-1.62-14.74 0.96-14.15 9.44-7.41-13.05-14.7-26.26-18.89-42.48-9.61 6.61 4.61 16.26-4.75 28.33-4.19-2.92-8.43-5.71-9.44 0-17.2-22.48-14.7-61.03-9.44-94.45 17.79 34.19 45.74 58.16 56.67 99.16z"/>
<path class="st4" d="m1118.4 1752c16.52 9.4-13.84 10.75-14.19 18.89 27.53-5.93 1.48-0.67 0 14.15 11.39 9.52 26.26-17.61 42.53-18.89-15.5 88.84-99.27 125.02-193.59 108.58 56.54-39.42 102.78-89.19 165.25-122.73z"/>
<path class="st4" d="m1090 1709.5c-11.53 11.09 5.24 10.58 9.44 18.89-20.25 47.44-59.8 75.55-108.63 94.44 19.23 18.75-50.22 19.06-75.51 23.63 2.2-16.69 11.9-25.88 18.89-37.78 12.87-3.48 9.48 9.36 18.89 9.4 15.46-17.28 87.75-46.89 122.73-84.95-19.06 7.66-36.42-3.35-42.48 14.14-14.27 7.76-0.39-15.71 0-23.59 23.29-0.34 33.34-13.89 56.67-14.18z"/>
<path class="st4" d="m1075.8 1690.6c2.16 14.74-10.08 15.12-23.59 14.19 2.46-6.98 6.99-11.9 9.44-18.88 7.63-1.37 8.14 4.44 14.15 4.69z"/>
<path class="st4" d="m1080.6 1671.7c-1.48 6.43-11.82 3.93-18.9 4.75-41.16 74.91-120.74 157.75-226.66 136.91 27.19-51.88 118.12-30.65 155.81-80.25-8-4.66-30.15 16.85-42.48 23.58-11.3-11.26 11.9-17.4 9.44-33.03 4.28 8.3 0.39 10.63 18.9 4.71-16.65-11.57 4.99-5.12-4.71-23.59 22.49-13.68 61.96-10.42 70.81-37.78-44.21-28.11-47.81 8.64-70.81 37.78-47.05 59.54-134.71 86.53-207.76 75.55 52-64.49 131.2-101.76 226.61-122.77-90.16-82.41-140.64 135.4-302.17 75.56 57.43-60.65 138.7-97.41 240.81-113.33-25.84-35.75-46.84 15.5-85 9.44 3.48-4.41 8.6-7.16 14.19-9.44 2.58-10.12-36.93 13.59-33.07-9.45 26.34-0.42 55.94 2.42 66.11-14.18-56.79-19.74-101.68 43.24-169.99 51.96-45.1 5.76-82.88-9.44-136.92-9.44 4.49-17.57 10.98-33.11 33.03-33.07 16.82-7.33 2.89 16.05 14.19 14.19 70.56-10.16 165.09-2.12 226.66-42.53-47.89-10.2-86.52 34.9-146.4 33.07-36.04-1.1-71.23-21.04-113.33-4.74 3.22-103.55 168.51-22.15 236.1-47.22-25.83-18.72-54.79-61.57-84.99-70.81 1.82-35.32-41.08-25.16-51.93-61.4 26.05-4.88 44.52 20.7 61.37 47.21 11.14-1.43 8.81-16.38 23.63-14.14-12.62-12.16-28.08-59.38-42.52-80.26 3.34-16.98 22.19-6.65 28.33 0-14.78-26.09-3.22-53.15 4.75-89.74 35.36 72.63 15.29 175.67 75.55 226.66-2.58 26.17 0.84 46.37 18.88 51.92-0.59-56.33-55.26-106.39-66.11-174.69-8.93-56.12 5.26-108.25 14.15-169.99 43.16 24.56 40.7 94.69 70.85 132.21-5.59-14.23-11.53-28.12-4.75-42.48 30.45 49.55 64.29 120.66 61.41 203.03-1.7 47.13-16.26 107.7 37.77 118.03 2.38-37.01-29.85-39.43-37.77-66.11 42.05-23.38 35.7 79.75 80.26 85-43.37-72-97.32-148.78-68.57-255.93v-0.04c0.92-1.78 1.65-4.07 2.03-7.16 1.56-5.08 3.26-10.25 5.16-15.46 83.13 57.56 25.33 210.02 80.26 283.32 18-38.24-17.11-62.38-18.88-103.89-0.68-15.33 8.29-1.65 9.44-4.74 19.73-52.81-37.78-100.07-28.34-146.36 40.95 55.4 89.23 150.72 51.93 240.8 0.84 16.52 10.87 23.76 23.63 28.34z"/>
<path class="st4" d="m981.43 1515.9c-0.04 0.29-0.08 0.59-0.08 0.88-0.17-0.29-0.34-0.55-0.51-0.76 0.17-0.04 0.39-0.08 0.59-0.12z"/>
<path class="st4" d="m976.69 1511.2c1.27 0.84 2.66 2.58 4.15 4.87-4.83 1.23-3.48 8.68-4.15 14.02-11.73-0.67-1.4-15.96 0-18.89z"/>
<path class="st4" d="m967.25 1657.6c-18.9-1.57-26.22 8.39-47.22 4.71 4.28-17.5 40.99-27.96 47.22-4.71z"/>
<path class="st4" d="m957.8 1383.7c-0.04 2.29-0.16 4.28-0.42 6.02-0.68 2.42-1.36 4.79-2.03 7.16-3.56 7.25-10 6.35-11.69 15.16-17.06-14.44-26.6-36.38-23.63-70.81 20.88 5.83 30.32 23.2 37.77 42.47z"/>
<path class="st4" d="m957.38 1389.7c-0.39 3.09-1.11 5.38-2.03 7.16 0.67-2.37 1.35-4.74 2.03-7.16z"/>
<path class="st4" d="m801.99 1539.5c0.8 10.24-16.77 2.16-23.63 4.74 11.61-33.54-38.75-14.86-60.22-27.66 11.78 6.19 2.54-30.7-5.89-10.11 6.69-41.26 67.34 17.19 89.74 33.03z"/>
<path class="st4" d="m740.59 1393.1c2.54 22.66 20.45 29.89 18.88 56.67-17.79-6.53-13.55-21.09-37.78-28.34 0.6-11.81 9.03-14.78-4.7-18.89 0.68-10.33 11.91-10.12 23.6-9.44z"/>
<path class="st4" d="m773.67 1539.5c-34.98 22.02-68.9-24.7-113.33 0v-18.9c-4.41 3.48-7.15 8.6-9.44 14.19-30.75-32.86 36.38-21.56 51.92-9.44 26.46-8.89 48.61 5.59 70.85 14.15z"/>
<path class="st4" d="m735.89 1478.1c-10.79 9.99-16.73-2.11-33.07 4.71-8.93-8.26 8.25-16.4-14.15-14.15v-14.19c22.36-11.52 30.44 15.67 47.22 23.63z"/>
<path class="st4" d="m665.03 1501.7c-29.09-28.16 38.92-26.98 37.78 4.75-14.87 5.29-10.67 0.42-28.34 0 0.43-12.88-7.83-9.53 0-18.9-10.07-2.19-8.97 6.74-9.44 14.15z"/>
<path class="st4" d="m674.48 1671.7c54.08 11.56 91.9-34.01 146.41-37.78-70.64 30.49-113.54 93.85-198.33 42.53 15.16-11.35 46.54-27.24 70.81-14.19 4.79 14.22-10.51 8.38-18.89 9.44z"/>
<path class="st0" d="m604.01 2209.1 41.83-54.14 6.05 4.68c11.59 9.07 15.48 13.97 18.5 19.01 4.46 7.27 6.41 15.05 4.54 23.9-1.01 4.68-3.38 10.08-6.98 14.76-2.81 3.6-6.19 6.41-10.08 8.35-11.59 5.98-27.36 4.1-42.7-7.78l-0.22-0.22zm-28.25-13.16 40.1 31.18c10.8 8.35 17.14 11.45 24.05 13.61 9.14 2.81 16.63 3.17 23.62 1.51 9.36-2.23 16.99-6.91 22.03-13.39 6.12-7.85 8.21-17.93 7.2-26.64-1.51-13.39-10.3-28.08-27.65-41.54l-38.59-30.02-3.38 4.39c2.52 2.02 4.18 4.25 4.68 6.41 0.79 3.1-1.01 5.33-1.94 6.62l-34.2 44.21c-2.45 3.17-7.27 3.38-12.6-0.43zm153.25 110.12 70.34 39.38 7.2-13.03-5.54-3.1c-2.88 4.32-7.92 4.03-14.04 0.65l-27.72-15.41 16.49-29.59 12.82 7.13c4.9 2.81 6.62 6.05 5.69 8.78l5.26 2.88 7.7-13.54-5.26-2.88c-1.22 1.73-3.1 2.66-6.55 1.51-1.01-0.36-1.94-0.79-3.02-1.37l-0.43-0.22-0.29-0.22-0.36-0.22-12.53-7.06 13.97-24.77 19.22 10.8c1.44 0.86 2.66 1.73 3.74 2.52 3.24 2.52 3.96 5.04 3.17 7.2l5.47 3.02 5.83-10.66-60.41-33.84-2.74 4.9c5.18 3.17 7.49 7.42 4.82 12.17l-26.93 48.24c-0.65 1.15-1.37 2.09-2.3 2.81-2.88 2.23-6.77 1.8-11.02-0.5zm154.14 79.12 29.52 10.51 1.73-4.82c-4.46-2.52-6.41-6.19-4.82-10.58l15.62-43.2 38.74 76.97 12.89 4.61 23.26-64.8c1.8-5.04 6.41-6.34 12.02-4.54l1.87-5.26-30.89-11.02-1.94 5.26c5.62 2.16 8.78 6.41 7.06 11.23l-15.98 44.21-38.81-78.41-21.46-7.7-1.87 5.18c2.74 1.15 5.04 2.81 6.19 5.11 1.37 2.52 0.36 5.33-0.22 6.84v0.14l-0.07 0.07-18.43 51.34c-1.66 4.75-6.12 6.34-12.67 4.03zm218.78 63.32 40.25 6.48 0.79-5.11h-0.07c-4.1-0.65-6.77-2.02-8.21-3.89-1.58-2.02-1.15-4.46-0.94-6.05 0.07-0.29 0.07-0.58 0.14-0.79l0.07-0.58 9.72-58.82 13.54 2.16 0.5 0.07 0.43 0.07 0.58 0.07c9.94 1.58 11.16 6.26 11.3 11.16l7.92 1.3 2.81-17.14-91.44-14.76-2.74 17.06 8.28 1.3c0.79-3.31 3.6-5.69 7.34-6.62 2.02-0.5 4.03-0.65 11.81 0.58l9.94 1.58-9.72 58.97c-0.22 1.73-0.65 4.82-3.53 6.55-2.23 1.3-5.11 1.73-8.06 1.3zm158.28 16.48 40.25 0.5 0.07-5.04c-5.54-0.22-9.94-2.66-9.86-8.78l0.65-56.3c0.07-4.18 4.18-6.55 10.01-6.77l0.07-5.76-40.1-0.58-0.14 5.76c6.26 0.29 10.44 3.46 10.37 9v0.07l-0.72 55.01c-0.07 5.47-3.96 7.78-10.51 7.92zm133.12-1.42 4.18-0.43c0.86-2.09 3.67-3.67 7.34-4.1 2.81-0.29 5.33 0.07 7.42 0.29 0.5 0 0.94 0.07 1.3 0.07 0.22 0.07 0.29 0 0.58 0.07 2.16 0.22 9.94 1.22 15.84 0.86 1.01-0.07 2.16-0.22 3.24-0.36 12.96-1.44 21.02-5.83 25.56-12.46 2.59-3.74 3.74-7.85 3.24-12.02-1.08-9.65-9.94-15.48-20.81-21.1l-17.57-9.22c-9.5-4.97-12.74-10.01-13.18-13.54-0.72-6.48 5.04-11.23 14.11-12.24 9-1.01 18.22 2.81 20.66 11.66l7.34-0.86-2.3-20.38-3.67 0.36c-1.51 1.58-3.82 2.52-6.34 2.81-2.59 0.29-4.82-0.07-6.7-0.22-0.72-0.14-1.44-0.29-2.09-0.36-5.04-0.43-9-0.36-12.89 0.07-9.79 1.15-18.14 5.11-22.32 9.65-2.95 3.17-4.9 7.92-4.39 12.53 0.79 6.7 6.05 14.18 16.78 19.8l18.43 9.65c0.5 0.29 1.01 0.58 1.58 0.86 1.87 0.86 3.74 1.94 5.69 3.02 0.14 0.14 0.36 0.29 0.58 0.43 4.75 2.95 9.72 5.9 10.3 10.73 0.79 6.98-6.55 13.46-19.37 14.9-10.87 1.3-18.58-0.94-23.04-4.82-3.17-2.74-5.4-6.77-5.98-10.94l-6.12 0.72zm183.4-32.43 39.46-10.51-1.37-5.04-0.14 0.07c-4.03 1.08-6.91 0.86-9-0.22-2.23-1.22-2.95-3.6-3.38-5.11-0.07-0.29-0.14-0.58-0.22-0.79l-0.14-0.58-15.12-57.67 13.18-3.6 0.58-0.07 1-0.28c9.65-2.59 12.67 1.15 14.83 5.62l7.85-2.09-4.61-16.78-89.35 23.83 4.46 16.63 7.99-2.09c-0.5-3.46 1.08-6.7 3.96-9.07 1.66-1.3 3.53-2.3 11.02-4.32l9.72-2.59 15.34 57.74c0.43 1.66 1.37 4.75-0.65 7.49-1.51 2.09-3.89 3.6-6.77 4.46zm167.37-97.45-15.91-33.91 6.26-2.95c11.45-5.18 15.55-5.98 20.16-5.83 5.76 0.22 12.31 3.46 15.41 9.94 4.1 8.93 0.5 16.99-6.41 22.54-2.66 2.09-6.05 3.82-8.86 5.11l-0.22 0.14-0.28 0.14zm-11.18 47.79 37.01-17.42-2.09-4.75c-5.98 2.66-11.02 1.44-13.32-3.38l-7.56-15.91 17.06-7.99 1.73-0.79 1.01 0.94c7.92 7.13 19.15 12.24 23.76 13.39 9.29 2.09 16.27 1.22 23.04-1.15 1.73-0.58 3.31-1.3 4.9-2.02 5.69-2.66 12.02-6.98 16.92-12.17l-6.41-3.31c-2.16 3.02-5.4 5.69-8.93 7.34-6.34 2.95-13.82 3.74-22.9-1.15-3.17-1.73-9.65-6.7-14.18-11.74l-0.79-0.79 0.94-1.22c6.05-7.56 8.42-16.27 3.74-26.21-4.61-9.86-13.54-14.33-26.35-12.82-4.18 0.43-12.96 2.88-23.83 7.99l-38.52 18.07 2.3 4.9c5.62-2.52 10.44-1.58 12.67 3.17l0.07 0.07 23.4 50.33c2.3 4.9-0.36 9-5.83 11.88zm186.42-98.98 33.84-22.97-3.02-4.32c-5.26 3.38-10.37 3.38-13.39-1.08l-12.67-18.65 5.98-42.98c0.72-5.47 2.38-11.52 9-16.7l-3.17-4.54-29.74 20.16 3.17 4.68c3.53-1.66 6.98-1.44 8.5 0.79 0.72 1.01 1.22 2.23 0.79 5.11l-3.67 29.66-30.96-8.57c-2.02-0.65-2.88-1.22-3.6-2.23-1.15-1.66-0.43-4.03 2.09-6.41l-3.17-4.75-34.27 23.26 3.1 4.54 0.22-0.14c4.32-2.88 8.06-3.46 14.4-1.87l45 11.09 12.82 18.58v0.07c2.88 4.18 1.15 9.07-4.1 12.89z"/>
<path class="st0" d="m1538.6 911.52c-11.65 19.86 5.67 42.27 18.89 33.03-9.48-7.83-3.6-31.03-18.89-33.03z"/>
<path class="st0" d="m1840.8 1459.2c-5.75-19.4-0.63-49.72-9.44-66.11-7.33 79.23-62.68 110.4-84.95 174.69 24.14-0.72 31-32.1 33.03-4.7 15.29-15.46-1.74-23.63 18.89-23.63 4.23-30.45 3.85-72.76 42.47-80.25z"/>
<path class="st0" d="m1855 1459.2c-7.07-24.57 21.13-38.41 4.71-56.67 5.41 21.47-30.29 45.74-4.71 56.67z"/>
<path class="st0" d="m934.22 1605.6c-13.72-44.51-46.71-69.76-56.66-118.04 28.5 4.28-5.9-33.33 18.89-37.77 2.58 6.86-5.55 24.39 4.7 23.58-1.9-14.06 4.57-60.89-4.7-51.92-2.11 8.93 6.39 28.46-9.44 23.59 7.88-21.22 1.31-75.04-4.75-80.26-2.42 84.59-41.26 228.15 51.96 240.82z"/>
<path class="st0" d="m1005 1860.6c30.16-7.66 65.65-34.97 66.11-56.67-8.51 12.08-24.22 31.68-23.63 14.15-6.61 21.73-27.14 29.52-42.48 42.52z"/>
<path class="st0" d="m797.26 1577.3c-42.61 15.5-121.77-9.66-141.67 0 39.93 4.67 105.92 21.18 141.67 0z"/>
<path class="st0" d="m825.58 1676.5c-15.46 13-20.8 15.33-33.03 23.58-36.59 24.61 31.04-7.02 33.03-23.58z"/>
<path class="st0" d="m990.83 1563.1c15.21 20.49 1.48-28.42-9.48-46.34 0-0.29 0.04-0.59 0.08-0.88-0.2 0.04-0.42 0.08-0.59 0.12-1.48-2.29-2.88-4.03-4.15-4.87-1.4 2.93-11.73 18.21 0 18.89 0.67-5.34-0.68-12.79 4.15-14.02 0.17 0.21 0.34 0.47 0.51 0.76-2.46 21.05 10.67 26.61 9.48 46.34z"/>
<path class="st0" d="m1557.5 1723.7c-8.93-13.08-18.2-25.92-28.33-37.77-11.14-0.13-13.89 8.13-28.34 4.7 6.49 20.37 47.27 31.3 56.67 33.07z"/>
<path class="st0" d="m1680.3 1695.4c10.03 21.52 34.25 53.74 51.92 51.92-38.03-26.51-55.9-73.14-94.44-99.14-18.8-3.05-18.97 12.49-37.77 9.44 13.16 26.17 54.79 23.88 80.29 37.78z"/>
<path class="st0" d="m839.77 1544.2c-7.58-31.8-21.93-56.79-42.52-75.55-2.71 15.33 3.21 21.97 4.74 33.03-6.26-4.75-17.57-4.45-18.89-14.15 14.48 0.8-5.42-24.01-4.75-9.44 14.48 11.47-5.42 2.93-4.7 9.44 8.17 7.58 13.8 17.67 18.89 28.34 9.28 1.39 9.36-6.39 14.15-9.44 1.7 21.89 16.1 31.12 33.08 37.77z"/>
</svg>
