<svg width="1054.5" height="1374" enable-background="new 0 0 1356 1648" version="1.1" viewBox="0 0 1054.5 1374" xml:space="preserve" xmlns="http://www.w3.org/2000/svg">
<g id="icon_dictonary" transform="translate(-144.5,-145)">
	<path d="m1170.4 1376c0-51.915 7.631-94 14.631-94v-17h-775.9c-132.37 0-239.67 49.696-239.67 111s107.3 111 239.67 111h775.9v-17c-7 0-14.631-42.085-14.631-94z" fill="#ffe2c2"/>
	<path d="m203.08 1272c37.01-25.543 87.764-39.044 146.77-39.044h0.143v-1088h-0.142c-59.009 0-109.76 13.501-146.77 39.044-34.415 23.751-54.737 56.504-58.085 93.115v1079.4c0 1.172 0.221 2.271 0.611 3.267 4.747-34.465 24.729-65.213 57.473-87.812z" fill="#8c6239"/>
	<path d="m1188.4 145h-838.45v1088h849v-1080.9c0-4.277-4.951-7.053-10.551-7.053z" fill="#c69c6d"/>
	<g stroke-miterlimit="10"><path d="m1105.5 543c0-8.006-4.186-12.496-12.946-12.496h-606.75c-8.76 0-18.305 4.49-18.305 12.496v338.24c0 8.006 9.545 16.264 18.305 16.264h606.75c8.761 0 12.946-8.258 12.946-16.264z" color="#000000" fill="#f9e9d9" style="-inkscape-stroke:none"/><path d="m485.8 524c-5.4905 0-11.049 1.2857-15.822 4.1973-4.7737 2.9115-8.9824 8.2127-8.9824 14.799v338.24c0 6.5862 3.557 12.036 8.0723 16.012 4.5152 3.9757 10.31 6.752 16.732 6.752h606.75c6.4228 0 11.968-3.4456 15.086-7.9082 3.1176-4.4626 4.3594-9.7199 4.3594-14.855v-338.24c0-5.1358-1.458-10.243-5.1113-13.865-3.6534-3.6222-8.8435-5.1309-14.334-5.1309zm0 13h606.75c3.2694 0 4.552 0.73706 5.1816 1.3613 0.6297 0.62427 1.2637 1.7646 1.2637 4.6348v338.24c0 2.8704-0.8505 5.7442-2.0156 7.4121-1.1652 1.6679-2.0915 2.3516-4.4297 2.3516h-606.75c-2.3375 0-5.6953-1.353-8.1426-3.5078s-3.6621-4.836-3.6621-6.2559v-338.24c0-1.4198 0.56315-2.3662 2.752-3.7012s5.7833-2.2949 9.0527-2.2949z" color="#000000" fill="#3d3d3d" style="-inkscape-stroke:none"/></g>
	<g fill="#212121">
		<path d="m746 808.38c0.91 2.508 1.394 4.529 1.452 6.066 0.057 1.539-0.371 2.708-1.281 3.504-0.913 0.799-2.422 1.309-4.529 1.538-2.109 0.227-4.929 0.342-8.459 0.342-3.533 0-6.353-0.085-8.459-0.257-2.11-0.17-3.704-0.456-4.785-0.854-1.085-0.398-1.881-0.94-2.393-1.624-0.514-0.684-0.999-1.538-1.453-2.563l-18.97-53.833h-91.943l-18.115 53.149c-0.342 1.025-0.798 1.909-1.367 2.648-0.571 0.743-1.396 1.367-2.478 1.881-1.084 0.512-2.622 0.881-4.614 1.11-1.995 0.227-4.587 0.342-7.776 0.342-3.306 0-6.011-0.145-8.118-0.427-2.109-0.286-3.589-0.825-4.443-1.624-0.854-0.796-1.255-1.966-1.196-3.503 0.056-1.539 0.54-3.56 1.453-6.067l74.17-205.42c0.454-1.252 1.052-2.278 1.795-3.076 0.739-0.796 1.82-1.423 3.246-1.88 1.424-0.454 3.248-0.769 5.469-0.94 2.223-0.171 5.042-0.256 8.46-0.256 3.645 0 6.665 0.085 9.058 0.256s4.328 0.486 5.811 0.94c1.479 0.457 2.619 1.111 3.418 1.965 0.796 0.854 1.423 1.909 1.88 3.162zm-95.19-181.32h-0.171l-38.11 110.23h76.904z"/>
		<path d="m846.31 732.5c0 4.443-0.513 7.52-1.538 9.229s-2.508 2.563-4.443 2.563h-71.436c-2.051 0-3.589-0.881-4.614-2.649-1.025-1.765-1.538-4.812-1.538-9.143 0-4.329 0.513-7.349 1.538-9.058s2.563-2.563 4.614-2.563h71.436c0.91 0 1.735 0.171 2.478 0.513 0.74 0.342 1.367 0.999 1.881 1.965 0.512 0.969 0.91 2.195 1.195 3.674 0.283 1.482 0.427 3.306 0.427 5.469z"/>
		<path d="m1014.6 806.5c0 2.166-0.115 4.017-0.342 5.554-0.229 1.539-0.599 2.82-1.11 3.846-0.514 1.025-1.141 1.768-1.881 2.222-0.742 0.457-1.623 0.684-2.648 0.684h-130.57c-2.964 0-5.356-0.91-7.178-2.734-1.824-1.821-2.734-4.727-2.734-8.716v-6.323c0-1.479 0.086-2.847 0.256-4.102 0.172-1.252 0.54-2.59 1.111-4.017 0.568-1.423 1.367-3.017 2.393-4.785 1.025-1.765 2.277-3.845 3.76-6.237l102.03-159.62h-100.83c-1.141 0-2.109-0.227-2.905-0.684-0.799-0.454-1.453-1.167-1.965-2.136-0.514-0.967-0.885-2.222-1.111-3.76-0.229-1.538-0.342-3.333-0.342-5.383 0-2.278 0.112-4.214 0.342-5.811 0.227-1.594 0.598-2.905 1.111-3.931 0.512-1.025 1.166-1.765 1.965-2.222 0.796-0.454 1.765-0.684 2.905-0.684h123.05c3.076 0 5.495 0.884 7.263 2.649 1.766 1.768 2.649 4.473 2.649 8.118v6.665c0 1.824-0.115 3.447-0.342 4.871-0.229 1.426-0.628 2.878-1.196 4.358-0.571 1.482-1.341 3.076-2.307 4.785-0.97 1.709-2.252 3.704-3.846 5.981l-101.51 158.94h108.01c1.936 0 3.418 0.97 4.443 2.905 1.026 1.939 1.538 5.128 1.538 9.571z"/>
	</g>
	<path d="m1106 145h-198v224.68l99-95.141 99 95.141z" fill="#af2e38"/>
	<path d="m1199 1519h-849.14c-59.009 0-109.76-13.501-146.77-39.044-37.78-26.073-58.586-62.992-58.586-103.96s20.806-77.883 58.585-103.96c37.01-25.543 87.764-39.044 146.77-39.044h849.14v49h-849.14c-49.021 0-90.15 10.503-118.94 30.372-24.479 16.895-37.418 38.896-37.418 63.628s12.939 46.733 37.418 63.628c28.79 19.869 69.919 30.372 118.94 30.372h849.14z" fill="#603813"/><g fill="#201c1e">
	<path d="m349.86 341c-59.009 0-109.76 13.501-146.77 39.044-34.415 23.751-54.737 56.504-58.085 93.115v66c3.348-36.61 23.67-69.363 58.085-93.115 37.01-25.543 87.763-39.044 146.77-39.044h0.142v-66z"/>
	<path d="m349.86 911c-59.009 0-109.76 13.501-146.77 39.044-34.415 23.751-54.737 56.505-58.085 93.114v66c3.348-36.609 23.67-69.363 58.085-93.114 37.01-25.543 87.763-39.044 146.77-39.044h0.142v-66z"/>
	<path d="m349.86 625c-59.009 0-109.76 13.501-146.77 39.044-34.415 23.751-54.737 56.505-58.085 93.114v66c3.348-36.609 23.67-69.363 58.085-93.114 37.01-25.543 87.763-39.044 146.77-39.044h0.142v-66z"/>
	</g><path d="m350 145h17v1088h-17z" fill="#603813"/>
</g>
</svg>
