<svg width="512" height="406.63" enable-background="new 0 0 512 512" version="1.1" viewBox="0 0 512 406.63" xmlns="http://www.w3.org/2000/svg" xmlns:cc="http://creativecommons.org/ns#" xmlns:dc="http://purl.org/dc/elements/1.1/" xmlns:rdf="http://www.w3.org/1999/02/22-rdf-syntax-ns#">
 <metadata>
  <rdf:RDF>
   <cc:Work rdf:about="">
    <dc:format>image/svg+xml</dc:format>
    <dc:type rdf:resource="http://purl.org/dc/dcmitype/StillImage"/>
    <dc:title/>
   </cc:Work>
  </rdf:RDF>
 </metadata>
 <linearGradient id="SVGID_1_" x1="432.33" x2="198.33" y1="502.64" y2="192.64" gradientUnits="userSpaceOnUse">
  <stop stop-color="#c6d1ff" offset="0"/>
  <stop stop-color="#e6d5f4" offset=".5834"/>
  <stop stop-color="#ffd9ec" offset=".997"/>
 </linearGradient>
 <g transform="translate(.00039966 -52.685)">
  <path d="m501.87 153.58c-22.357-56.888-91.226-91.003-149.56-68.427-66.582 25.769-44.506 131.67-104.98 153.09-32.669 11.568-80.963-31.644-113.97-38.27-60.821-12.21-115.88 30.705-129.44 90.134-13.832 60.63 8.353 141.61 74.967 158.07 79.35 19.602 120.68-51.729 187.25-72.211 68.31-21.019 144.26 28.622 200.81-31.776 41.78-44.621 57.055-134.27 34.917-190.6z" fill="url(#SVGID_1_)"/>
  <path d="m476.85 178.59c0-39.498-32.019-71.517-71.517-71.517-30.6 0-56.699 19.225-66.91 46.25h-258.61c-11.046 0-20 8.954-20 20v221.41c0 11.046 8.954 20 20 20h352.38c11.046 0 20-8.954 20-20v-162.14c15.098-13.113 24.659-32.435 24.659-54.003z" fill="#2626bc" opacity=".1"/>
  <path d="m432.19 389.74h-352.38c-11.046 0-20-8.954-20-20v-221.41c0-11.046 8.954-20 20-20h352.38c11.046 0 20 8.954 20 20v221.41c1e-3 11.046-8.954 20-19.999 20z" fill="#9fb0fe"/>
  <g fill="#8399fe">
   <path d="m452.19 148.33v84.5c-12.55 10.89-28.93 17.49-46.86 17.49-39.5 0-71.52-32.02-71.52-71.51 0-19.7 7.97-37.55 20.86-50.48h77.52c11.04 0 20 8.95 20 20z"/>
   <path d="m452.19 148.33v25.21l-177.91 136.67c-5.22 4.01-11.71 6.21-18.28 6.21s-13.06-2.2-18.28-6.21l-177.91-136.67v-25.21c0-11.05 8.96-20 20-20h352.38c11.04 0 20 8.95 20 20z"/>
   <path d="m262.09 223.71 190.1 146.02c0 11.046-8.954 20-20 20h-352.38c-11.046 0-20-8.954-20-20l190.1-146.02c3.593-2.76 8.591-2.76 12.184 0z"/>
  </g>
  <path d="m324.49 271.64-50.21 38.57c-5.22 4.01-11.71 6.21-18.28 6.21s-13.06-2.2-18.28-6.21l-50.21-38.57 62.4-47.93c3.59-2.76 8.59-2.76 12.18 0z" fill="#6583fe"/>
  <path d="m249.91 294.35-190.1-146.03c0-11.046 8.954-20 20-20h352.38c11.046 0 20 8.954 20 20l-190.1 146.03c-3.593 2.759-8.591 2.759-12.184 0z" fill="#b7c5ff"/>
  <path d="m370.95 363.12h-32.134c-2.761 0-5-2.239-5-5v-22.154c0-2.761 2.239-5 5-5h32.134c2.761 0 5 2.239 5 5v22.154c0 2.762-2.239 5-5 5z" fill="#02ffb3"/>
  <path d="m311.87 342.74h-27.833c-2.762 0-5-2.239-5-5s2.238-5 5-5h27.833c2.762 0 5 2.239 5 5s-2.238 5-5 5z" fill="#fff"/>
  <path d="m311.87 363.12h-97.833c-2.762 0-5-2.239-5-5s2.238-5 5-5h97.833c2.762 0 5 2.239 5 5s-2.238 5-5 5z" fill="#fff"/>
  <circle cx="405.33" cy="153.59" r="71.517" fill="#ff5ba8"/>
  <path d="m405.33 230.11c42.191 0 76.517-34.325 76.517-76.517s-34.325-76.517-76.517-76.517-76.517 34.325-76.517 76.517c0 24.544 11.629 46.41 29.653 60.421l-99.42 76.372c-1.791 1.378-4.297 1.379-6.092 0l-187.96-144.39c1.121-7.17 7.341-12.674 14.82-12.674h229.37c2.762 0 5-2.239 5-5s-2.238-5-5-5h-229.36c-13.785 0-25 11.215-25 25v221.41c0 13.785 11.215 25 25 25h352.38c13.785 0 25-11.215 25-25v-132.14c0-2.761-2.238-5-5-5s-5 2.239-5 5v121.99l-130.91-100.56 50.94-39.13c11.23 6.48 24.239 10.209 38.11 10.209zm-209.61 28.921-130.91 100.56v-201.12zm251.27 113.02c-1.118 7.174-7.32 12.687-14.803 12.687h-352.37c-7.483 0-13.685-5.513-14.803-12.687l138.92-106.71 42.934 32.98c2.69 2.066 5.914 3.1 9.138 3.1s6.447-1.033 9.138-3.1l42.934-32.981zm-108.18-218.46c0-36.677 29.839-66.517 66.517-66.517s66.517 29.839 66.517 66.517-29.839 66.517-66.517 66.517-66.517-29.84-66.517-66.517z" fill="#2626bc"/>
  <path d="m374.11 129.2 10.206 24.389-10.206 24.389c-1.733 4.142 2.448 8.292 6.576 6.528l61.619-26.319c4.048-1.729 4.048-7.467 0-9.196l-61.619-26.319c-4.128-1.764-8.309 2.386-6.576 6.528z" fill="#fff"/>
  <path d="m407.6 158.26-30.725 13.13 7.442-17.8-7.451-17.8 30.734 13.13c3.833 1.64 3.833 7.71 0 9.34z" fill="#ffdbed"/>
  <path d="m330.83 81.671c-3.714 0-7.427-1.413-10.253-4.24-5.654-5.654-5.654-14.853 0-20.506 5.651-5.652 14.852-5.654 20.505 0 5.654 5.654 5.654 14.853 0 20.506-2.826 2.827-6.539 4.24-10.252 4.24zm0-18.991c-1.152 0-2.305 0.438-3.183 1.316-1.754 1.754-1.754 4.609 0 6.364 1.756 1.754 4.608 1.755 6.364 0 1.754-1.754 1.754-4.609 0-6.364-0.877-0.877-2.03-1.316-3.181-1.316z" fill="#00eca2"/>
  <path d="m218.54 459.32c-3.713 0-7.427-1.414-10.253-4.24-5.654-5.654-5.654-14.853 0-20.506 5.652-5.653 14.854-5.653 20.506 0 5.654 5.654 5.654 14.853 0 20.506-2.826 2.827-6.54 4.24-10.253 4.24zm0-18.991c-1.152 0-2.305 0.438-3.183 1.316-1.754 1.754-1.754 4.609 0 6.364 1.756 1.755 4.609 1.755 6.365 0 1.754-1.754 1.754-4.609 0-6.364-0.877-0.877-2.03-1.316-3.182-1.316z" fill="#00eca2"/>
  <path d="m294.78 94.547c-1.279 0-2.56-0.488-3.535-1.464l-5.965-5.964-5.965 5.964c-1.951 1.952-5.119 1.952-7.07 0-1.953-1.953-1.953-5.119 0-7.071l9.5-9.5c1.951-1.952 5.119-1.952 7.07 0l9.5 9.5c1.953 1.953 1.953 5.119 0 7.071-0.975 0.975-2.255 1.464-3.535 1.464z" fill="#ff7eb8"/>
  <path d="m439.75 440.32c-1.279 0-2.56-0.488-3.535-1.464l-5.965-5.964-5.965 5.964c-1.951 1.952-5.119 1.952-7.07 0-1.953-1.953-1.953-5.119 0-7.071l9.5-9.5c1.951-1.952 5.119-1.952 7.07 0l9.5 9.5c1.953 1.953 1.953 5.119 0 7.071-0.975 0.975-2.256 1.464-3.535 1.464z" fill="#ff7eb8"/>
  <path d="m178.88 445.07c-1.279 0-2.56-0.488-3.535-1.464l-5.965-5.964-5.965 5.964c-1.951 1.952-5.119 1.952-7.07 0-1.953-1.953-1.953-5.119 0-7.071l9.5-9.5c1.951-1.952 5.119-1.952 7.07 0l9.5 9.5c1.953 1.953 1.953 5.119 0 7.071-0.976 0.975-2.256 1.464-3.535 1.464z" fill="#6583fe"/>
 </g>
</svg>
