<svg viewBox="0 0 15.086 15.088" xmlns="http://www.w3.org/2000/svg" xmlns:cc="http://creativecommons.org/ns#" xmlns:dc="http://purl.org/dc/elements/1.1/" xmlns:rdf="http://www.w3.org/1999/02/22-rdf-syntax-ns#">
 <title>សូម​ស្វាគមន៍​មក​កាន់ Googoraa ! 👏</title>
 <metadata>
  <rdf:RDF>
   <cc:Work rdf:about="">
    <dc:format>image/svg+xml</dc:format>
    <dc:type rdf:resource="http://purl.org/dc/dcmitype/StillImage"/>
    <dc:title>សូម​ស្វាគមន៍​មក​កាន់ Googoraa ! 👏</dc:title>
   </cc:Work>
  </rdf:RDF>
 </metadata>
 <path transform="scale(.26458)" d="m28.51 0c-15.726 0-28.51 12.79-28.51 28.516 0 15.726 12.784 28.51 28.51 28.51s28.508-12.784 28.508-28.51c0-15.726-12.782-28.516-28.508-28.516zm0 3.5586c13.802 0 24.949 11.156 24.949 24.957 0 13.802-11.148 24.951-24.949 24.951-13.802 0-24.951-11.15-24.951-24.951 0-13.802 11.15-24.957 24.951-24.957zm-0.11328 10.689c-4.357 0-8.0716 1.553-10.875 4.584-2.5764 2.7279-3.75 5.9105-3.75 10.078 0 8.1838 5.3798 13.828 13.223 13.828 2.3112 0 4.6226-0.56765 6.3652-1.5527 0.94719-0.56832 1.5536-1.0606 2.6523-2.1973l1.8555 3.7129h2.0078v-7.8047c0-2.3869 4.13e-4 -2.5778 0.26562-2.8809 0.34097-0.37887 0.94773-0.4914 3.1074-0.5293v-2.0469h-13.451v2.0469h0.7207c3.1446 0 3.1445 0.11297 3.1445 2.8789 0 4.0919-2.2354 6.4023-5.6074 6.4023-2.3112 0-4.2051-1.2118-5.1523-3.2578-1.023-2.1975-1.5527-5.2668-1.5527-8.8281 0-4.0161 0.75635-7.3499 2.1582-9.623 1.0987-1.7807 3.1064-2.8418 5.3418-2.8418 4.4708 0 7.7675 3.2957 9.0176 9.0547h2.0078l-0.33984-10.873h-1.668l-2.2344 1.8945c-2.6521-1.5155-4.5084-2.0449-7.2363-2.0449z" color="#000000" color-rendering="auto" dominant-baseline="auto" image-rendering="auto" shape-rendering="auto" solid-color="#000000" stop-color="#000000" style="font-feature-settings:normal;font-variant-alternates:normal;font-variant-caps:normal;font-variant-east-asian:normal;font-variant-ligatures:normal;font-variant-numeric:normal;font-variant-position:normal;font-variation-settings:normal;inline-size:0;isolation:auto;mix-blend-mode:normal;shape-margin:0;shape-padding:0;text-decoration-color:#000000;text-decoration-line:none;text-decoration-style:solid;text-indent:0;text-orientation:mixed;text-transform:none;white-space:normal"/>
</svg>
