<svg
   xmlns:dc="http://purl.org/dc/elements/1.1/"
   xmlns:cc="http://creativecommons.org/ns#"
   xmlns:rdf="http://www.w3.org/1999/02/22-rdf-syntax-ns#"
   xmlns:svg="http://www.w3.org/2000/svg"
   xmlns="http://www.w3.org/2000/svg"
   xmlns:sodipodi="http://sodipodi.sourceforge.net/DTD/sodipodi-0.dtd"
   xmlns:inkscape="http://www.inkscape.org/namespaces/inkscape"
   version="1.1"
   id="Capa_1"
   x="0px"
   y="0px"
   viewBox="0 0 512 512"
   style="enable-background:new 0 0 512 512;"
   xml:space="preserve"
   sodipodi:docname="mail-ft-logo.svg"
   inkscape:version="1.0.1 (1.0.1+r73)"><metadata
   id="metadata49"><rdf:RDF><cc:Work
       rdf:about=""><dc:format>image/svg+xml</dc:format><dc:type
         rdf:resource="http://purl.org/dc/dcmitype/StillImage" /><dc:title></dc:title></cc:Work></rdf:RDF></metadata><defs
   id="defs47">
	
	
	
	
	
</defs><sodipodi:namedview
   pagecolor="#ffffff"
   bordercolor="#666666"
   borderopacity="1"
   objecttolerance="10"
   gridtolerance="10"
   guidetolerance="10"
   inkscape:pageopacity="0"
   inkscape:pageshadow="2"
   inkscape:window-width="1366"
   inkscape:window-height="704"
   id="namedview45"
   showgrid="false"
   inkscape:zoom="0.73472814"
   inkscape:cx="139.97314"
   inkscape:cy="244.68229"
   inkscape:window-x="0"
   inkscape:window-y="0"
   inkscape:window-maximized="1"
   inkscape:current-layer="Capa_1" />
















<path
   d="M 437.022,74.984 C 388.67,26.63 324.381,0 256,0 187.624,0 123.338,26.63 74.984,74.984 26.63,123.338 0,187.624 0,256 0,324.388 26.63,388.678 74.984,437.028 123.335,485.375 187.621,512 256,512 324.385,512 388.673,485.375 437.021,437.028 485.372,388.679 512,324.389 512,256 512,187.623 485.372,123.336 437.022,74.984 Z m -11.314,350.73 C 380.381,471.039 320.111,496 256,496 191.894,496 131.626,471.039 86.297,425.714 40.965,380.386 16,320.113 16,256 16,191.898 40.965,131.63 86.297,86.297 131.63,40.965 191.898,16 256,16 320.108,16 380.378,40.965 425.708,86.297 471.037,131.628 496,191.896 496,256 c 0,64.115 -24.963,124.387 -70.292,169.714 z"
   id="path2"
   style="fill:#ffff00" /><path
   d="m 430.038,114.969 c -2.784,-3.432 -7.821,-3.957 -11.253,-1.172 -3.431,2.784 -3.956,7.822 -1.172,11.252 C 447.526,161.919 464,208.426 464,256 464,311.567 442.365,363.803 403.081,403.085 363.797,442.367 311.563,464 256,464 c -51.26,0 -100.505,-18.807 -138.663,-52.956 -3.292,-2.946 -8.35,-2.666 -11.296,0.626 -2.946,3.292 -2.666,8.35 0.626,11.296 C 147.763,459.745 200.797,480 256,480 315.837,480 372.089,456.703 414.394,414.399 456.701,372.095 480,315.84 480,256 480,204.767 462.256,154.681 430.038,114.969 Z"
   id="path4"
   style="fill:#ffff00" /><path
   d="M 48,256 C 48,141.309 141.309,48 256,48 c 51.26,0 100.504,18.808 138.662,52.959 3.293,2.948 8.351,2.666 11.296,-0.625 2.947,-3.292 2.667,-8.35 -0.625,-11.296 C 364.237,52.256 311.203,32 256,32 196.171,32 139.92,55.301 97.611,97.611 55.301,139.921 32,196.171 32,256 c 0,51.239 17.744,101.328 49.963,141.038 1.581,1.949 3.889,2.96 6.217,2.96 1.771,0 3.553,-0.585 5.036,-1.788 3.431,-2.784 3.956,-7.822 1.172,-11.253 C 64.474,350.088 48,303.58 48,256 Z"
   id="path6"
   style="fill:#ffff00" /><g
   id="g14"
   style="fill:#ffff00">
</g><g
   id="g16"
   style="fill:#ffff00">
</g><g
   id="g18"
   style="fill:#ffff00">
</g><g
   id="g20"
   style="fill:#ffff00">
</g><g
   id="g22"
   style="fill:#ffff00">
</g><g
   id="g24"
   style="fill:#ffff00">
</g><g
   id="g26"
   style="fill:#ffff00">
</g><g
   id="g28"
   style="fill:#ffff00">
</g><g
   id="g30"
   style="fill:#ffff00">
</g><g
   id="g32"
   style="fill:#ffff00">
</g><g
   id="g34"
   style="fill:#ffff00">
</g><g
   id="g36"
   style="fill:#ffff00">
</g><g
   id="g38"
   style="fill:#ffff00">
</g><g
   id="g40"
   style="fill:#ffff00">
</g><g
   id="g42"
   style="fill:#ffff00">
</g><path
   d="m 356.78575,162.96673 h -201.5715 c -12.8255,0 -23.25845,10.43293 -23.25845,23.25844 v 139.54965 c 0,12.82549 10.43295,23.25845 23.25845,23.25845 h 201.5715 c 12.82549,0 23.25844,-10.43296 23.25844,-23.25845 V 186.22517 c 0,-12.82551 -10.43295,-23.25844 -23.25844,-23.25844 z m 0,15.50545 c 1.05333,0 2.05541,0.21854 2.97152,0.60021 L 256,268.9995 152.24221,179.07239 c 0.91611,-0.38115 1.91819,-0.60021 2.97153,-0.60021 z m 0,155.05511 h -201.5715 c -4.27759,0 -7.75299,-3.47489 -7.75299,-7.75299 V 195.45407 l 103.45845,89.66404 c 1.46143,1.26411 3.27085,1.8928 5.08029,1.8928 1.80943,0 3.61885,-0.62817 5.08028,-1.8928 l 103.45846,-89.66404 v 130.32075 c -4.8e-4,4.27758 -3.4754,7.75247 -7.75299,7.75247 z"
   id="path1030"
   style="fill:#ffff00;stroke-width:0.517866" /></svg>
