<svg width="156.56mm" height="33.555mm" version="1.1" viewBox="0 0 156.56 33.555" xmlns="http://www.w3.org/2000/svg">
 <g transform="translate(32.316 -170.92)">
  <path id='supportFill' d="m-20.603 189.23 0.1378-0.34451 0.44786-0.49954q0.34451-0.56844 0.56844-0.67179 0.03445-0.1378 0.10335-0.25838 0.0689-0.12058 0.10335-0.37896l0.15503-0.27561q0.0689-0.0689 0.0689-0.10335 0-0.0345-0.1378-0.20671l-0.08613-0.36173q0-0.1378-0.91295-0.91295h-0.1378l-1.2402-0.60289-0.0689-0.17225-0.1378-0.0345-0.17225 0.0689h-0.03445l-0.58566-0.17226q-0.70624-0.18948-0.93017-0.29283-0.03445 0.0344-0.10335 0.0344l-0.68902-0.15503q-0.29283-0.0689-0.36173-0.1378-0.05168-0.0861-0.29283-0.15503-0.22393-0.0861-0.29283-0.15503-0.0689-0.0689-0.27561-0.0689l-0.43064 0.10335q0-0.0517-0.48231-0.17225-0.0689-0.17226-0.10335-0.17226l-0.49954 0.0689q-0.49954-0.24115-0.51676-0.24115-0.08613 0-0.60289-0.0861-0.51676-0.10335-0.67179-0.2067-0.15503-0.10336-0.46509-0.20671l-0.10335-0.10335q-0.03445-0.0344-0.18948-0.0689h-0.31006q-0.10335 0-0.29283-0.17226-0.17226-0.17225-0.46509-0.34451-0.27561-0.17225-0.49954-0.53399-0.2067-0.37896-0.22393-0.75792-0.03445-0.0345-0.03445-0.0689l0.10335-0.55121q0.15503-1.0508 0.98185-1.9465 0.1378-0.46508 0.56844-0.67179l0.0689-0.24115q0.49954-0.43064 0.70624-0.68902 0.22393-0.25838 0.49954-0.41341 0.27561-0.17226 0.43064-0.31006l0.31006-0.1378q-0.01722-0.15503 0.75792-0.72347 0.79237-0.58567 1.223-0.75792 0.44786-0.18948 0.58566-0.27561 0.15503-0.0861 0.86127-0.25838 0.17226-0.46509 0.55121-0.46509h0.25838l0.34451-0.34451 0.46509 0.0345q0.03445-0.0345 0.18948-0.20671 0.15503-0.18948 0.51676-0.18948l2.0843-0.63734h0.1378l0.1378 0.0344q0.1378 0 0.34451-0.24116 0.22393-0.24115 0.56844-0.24115 0.0689 0 0.25838 0.1378 0 0.0344 0.03445 0.0344l0.44786-0.1378 0.53399 0.0344 0.67179-0.17225q0.63734 0 1.1197 0.31005l0.03445-0.0689v-0.10335q0-0.29283 0.32728-0.29283 0.1378 0 0.17226 0.0689l0.2067 0.12058h0.12058q0.03445 0 0.44786 0.2067 0.25838-0.17225 0.32728-0.17225 0.32728 0 0.51676 0.2756l0.29283-0.0344q0.1378-0.1378 0.17226-0.1378 0.10335 0 0.27561 0.27561l0.10335 0.0344h0.43064q0.03445 0 0.1378 0.10335l0.18948 0.15503q0.1378 0.1378 0.18948 0.22393 0.05168 0.0861 0.12058 0.15503 0.44786-0.18948 0.48231-0.18948 0.17225 0 0.25838 0.29283 0 0.24116 0.29283 0.48231 0.31006 0.22393 0.31006 0.48232 0.37896 0.17225 0.37896 0.55121l0.32728 0.84405-0.068902 0.29283q0.1378 0.27561 0.1378 0.31006l-0.068902 0.63734 0.068902 0.67179q0 0.53399-0.49954 0.91295-0.10335 0-0.34451 0.15503-0.22393 0.1378-0.25838 0.1378-0.44786 0-0.60289-0.2067-0.1378-0.22394-0.27561-0.32729-0.1378-0.10335-0.1378-0.2756 0-0.39619 0.53399-0.77515 0.24116 0 0.34451-0.15503 0-0.36173-0.15503-0.49954-0.15503-0.1378-0.34451-0.37896-0.17225-0.24115-0.37896-0.37896-0.20671-0.15502-0.34451-0.37896-0.12058-0.22393-0.22393-0.22393l-0.24116 0.0345-0.49954-0.10336q-0.79237-0.10335-1.4469-0.36173h-0.34451l-0.93017-0.13781q-0.24116 0.10336-0.68902 0.10336l-1.1369 0.17225-0.46509-0.0344q-0.05168 0-0.9474 0.29283l-0.17225 0.0344h-0.46509q-0.03445 0-0.44786 0.17226-0.39618 0.17225-0.67179 0.24115l-0.15503 0.0689q-0.03445 0.0344-0.10335 0.0344l-0.27561-0.0344-1.5158 0.74069-0.24116-0.1378q-0.29283-0.13781-0.32728-0.13781-0.24116 0-0.24116 0.24116l-0.03445 0.32728q-0.22393 0.13781-0.29283 0.20671-0.0689 0.0689-0.17226 0.10335h-0.2067q-0.2067 0-0.39618 0.18948-0.17226 0.17225-0.31006 0.18948-0.1378 0.0172-0.39618 0.15503-0.03445 0.0689-0.27561 0.1378-0.24116 0.0689-0.37896 0.32729-0.12058 0.24115-0.29283 0.24115l-0.34451-0.0689-0.18948 0.34451q-0.36173 0.0861-0.41341 0.10335-0.22393 0.29283-0.44786 0.44786t-0.44786 0.34451q-0.20671 0.17226-0.31006 0.36174-0.08613 0.18948-0.27561 0.31005-0.18948 0.10336-0.32728 0.44787l-0.17226 0.17225q-0.43064 0.36173-0.43064 0.77514 0 0.29284 0.41341 0.43064 0.41341 0.1378 0.51676 0.22393 0.10335 0.0861 0.31006 0.0861 0.2067 0 0.39618 0.0861t0.63734 0.2756q0.08613 0.27561 0.17225 0.27561 0.03445 0 0.1378-0.1378 0.10335-0.13781 0.31006-0.13781 0.22393 0 0.43064 0.27561l0.1378-0.10335h0.0689l0.22393 0.0689h0.03445l0.2067-0.10335q0.03445-0.0345 0.10335-0.0345 0.05168 0 0.53399 0.17225h0.03445q0.03445 0 0.27561-0.0689 0.25838 0.0689 0.29283 0.10335l0.24116 0.1378q0 0.0517 0.0689 0.0517t0.20671-0.0689q0.1378-0.0861 0.25838-0.0861 0.1378 0 0.31006 0.18948 0.27561-0.12058 0.31006-0.12058 0.15503 0 0.53399 0.25839l0.32728 0.0689h0.37896l0.56844 0.10335q0.24116 0.25838 0.49954 0.39618 0.03445-0.18948 0.24116-0.18948 0.27561 0 0.84405 0.22394l0.1378 0.0344 0.1378 0.10335q0.29283-0.0689 0.36173-0.0689 0.34451 0 0.34451 0.24115 0 0.20671-0.10335 0.53399 0.03445 0 0.10335 0.0689 0.08613-0.10335 0.18948-0.1378l0.27561-0.15503q0.0689-0.0689 0.10335-0.0689 0.39618 0 1.1197 0.55121 0.72347 0.55122 0.82682 1.2575 0 0.20671 0.1378 0.48231l-0.0689 0.22393 0.03445 0.27561q0 0.0344-0.0689 0.24116l-0.03445 0.25838q-0.03445 0.0689-0.10335 0.12058-0.0689 0.0517-0.10335 0.12057l0.10335 0.29284v0.0689q0 0.0689-0.1378 0.18948-0.12058 0.12058-0.15503 0.22393-0.03445 0.10335-0.12058 0.22393-0.08613 0.10335-0.12058 0.25838-0.03445 0.15503-0.34451 0.36174-0.29283 0.18948-0.29283 0.29283t0.0689 0.10335q0.2067 0 0.43064-0.18948 0.24116-0.2067 0.36173-0.24116 0.12058-0.0344 0.41341-0.2067l1.6192-0.75792q1.8087-0.86127 2.0154-0.86127 0.27561 0 0.27561 0.27561 0 0.10335-0.24116 0.39618-0.03445 0.8096-0.70624 0.9474-0.25838 0.17225-0.39618 0.36173h-0.1378q-0.43064 0.48232-0.98185 0.48232h-0.10335q-0.63734 0.63734-1.5503 0.70624-0.60289 0.60289-0.99908 0.60289l-0.27561 0.0689q-0.43064 0.17226-0.60289 0.17226-0.03445 0-0.1378 0.1378l-0.25838 0.18948q-0.32728 0.0689-0.70624 0.37896-0.37896 0.31006-0.58566 0.36173-0.18948 0.0344-0.41341 0.13781-0.22393 0.10335-1.8087 1.1713l-0.22393 0.0689q-0.67179 0.31006-0.84405 0.51676-0.17226 0.18948-0.41341 0.32728h-0.0689q-0.39618 0-0.93017 0.51677-0.03445 0.0861-0.75792 0.29283-0.70624 0.18948-1.3608 0.60289-0.41341 0.10335-1.0163 0.27561-0.60289 0.17225-0.8785 0.2067l-1.2058 0.25838q-0.39618 0.0689-0.91295 0.20671-0.31006-0.10335-0.53399-0.10335l-0.31006 0.0345q-0.0689 0-0.22393-0.12058-0.1378-0.12058-0.37896-0.24116-0.24116-0.10335-0.24116-0.58566 0-0.43064 0.9474-0.84405 0.9474-0.43063 1.2402-0.60289 0.1378-0.18948 0.46509-0.22393 0.34451-0.0344 0.58566-0.2067 0.24116-0.17226 0.74069-0.31006l0.68902-0.36174q0.05168-0.0345 0.08613-0.0345h0.24116q0.12058 0 0.36173-0.18948t0.49954-0.2756h0.2067q0.03445 0 0.10335-0.0861 0.0689-0.0861 0.31006-0.22393l0.05168-0.0344h0.17225q0.18948-0.15503 0.44786-0.25838 0.25838-0.10336 0.49954-0.27561l1.3436-0.51676 0.31006 0.0344q0.10335 0 0.25838-0.15503 0.17225-0.17226 0.77514-0.34451 0.08613-0.13781 0.36173-0.32728 0.27561-0.18948 0.65457-0.55122zm-6.0117 4.3064-0.24116-0.0344q-0.24116 0.1378-0.48231 0.15503-0.22393 0.0172-0.72347 0.32728-0.48231 0.29283-1.1197 0.56844-0.63734 0.27561-0.63734 0.36173 0.84405-0.10335 1.757-0.46508l1.2402-0.34451q0.24116-0.0689 0.32728-0.13781 0.10335-0.0689 0.37896-0.18948l0.27561-0.2067q0.08613-0.0345 0.37896-0.13781 0.29283-0.10335 0.29283-0.2067 0-0.0689-0.0689-0.0689-0.62012 0-0.98185 0.18948t-0.39618 0.18948zm13.832-6.9763 0.24116 0.10336q0.03445-0.29284 0.32728-0.49954h0.1378q0.17225 0 0.44786-0.46509l0.29283-0.17225q0.0689 0.0344 0.20671 0.0344 0.10335 0 0.18948-0.1378 0.10335-0.13781 0.48231-0.53399h0.0689q0.10335 0 0.24116-0.15503 0.15503-0.15503 0.39618-0.15503l0.58566-0.15503q0.27561-0.0689 0.31006-0.0689 0.15503-0.0517 0.75792 0.63734 0.60289 0.67179 0.60289 1.3091 0 0.36174-0.37896 0.43064l-0.086127 0.0689v0.34451l-0.29283 0.63734q-0.12058 0.25838-0.29283 0.32728-0.15503 0.27561-0.22393 0.37896l-0.24116 0.0344-0.10335 0.10336v0.43063q-0.15503 0.20671-0.44786 0.91295-0.29283 0.68902-0.29283 0.8785 0 0.32728 0.1378 0.32728 0.10335 0 0.20671-0.0861 0.10335-0.0861 0.27561-0.18948 0.18948-0.12058 0.27561-0.24116 0.086127-0.12058 0.36173-0.20671 0.27561-0.10335 0.51676-0.36173 0.24116-0.25838 0.34451-0.34451 0.10335-0.0861 0.22393-0.22393 0.12058-0.15503 0.15503-0.15503 0.10335 0 0.32728-0.0689 0.034451-0.18948 0.068902-0.27561l0.41341-0.2067 0.99908-0.89573 0.1378-0.17225q0.27561-0.0689 0.34451-0.10335 0.1378-0.46509 0.46509-0.67179 0-0.0689 0.17225-0.10336 0.1378-0.2756 0.34451-0.43063 0.22393-0.17226 0.36173-0.41341l0.39619-0.32729q0.17225-0.0689 0.24116-0.2067 0.89572-0.79237 1.1024-0.89573 0.22393-0.12057 0.70624-0.12057 0.48231 0 0.77514 0.37896 0.31006 0.36173 0.65457 0.55121 0.36173 0.18948 0.36173 0.72347 0 0.49954-0.77514 1.912-0.49954 1.4814-0.51676 1.8259-0.017225 0.32728-0.15503 0.37896-0.1378 0.0517-0.1378 0.12058v0.0689q0 0.41341 0.1378 0.41341 0.10335 0 0.27561-0.17226 0.18948-0.17225 0.74069-0.37896l0.15503 0.0345q0.49954-0.75792 0.67179-0.8096 0.17225-0.0689 0.34451-0.31006 0.17225-0.25838 0.41341-0.2756 0.25838-0.0172 0.32728-0.0861 0.017225-0.41341 0.67179-0.93018 0.67179-0.51676 0.77514-0.51676 0.17225 0 0.27561 0.25838t0.20671 0.36174q0.12058 0.0861 0.12058 0.15503v0.31005q0 0.22393-0.22393 0.29284-0.17225 0.37896-0.31006 0.44786l-0.31006-0.0344q-0.086127 0.10335-0.15503 0.18948-0.051676 0.0861-0.068902 0.0689-0.1378 0.0344-0.49954 0.46509-0.34451 0.41341-0.62012 0.68901l-0.068902 0.10336q-0.1378 0.10335-0.25838 0.1378l-0.31006 0.25838q-0.17225-0.10335-0.20671-0.10335-0.034451 0-0.15503 0.1378-0.10335 0.1378-0.44786 0.36174-0.32728 0.2067-0.49954 0.48231l-0.27561 0.2756-0.36173 0.0517q-0.051676 0-0.17225 0.15503l-0.31006 0.39619q-0.22393 0.29283-0.70624 0.29283-0.10335 0-0.27561-0.17226-0.15503-0.18948-0.31006-0.31005-0.1378-0.13781-0.65457-0.77515-0.49954-0.65457-0.49954-0.68902l0.10335-0.60289-0.034451-0.41341q0-0.12058 0.15503-0.36173 0.17225-0.25838 0.17225-0.27561l-0.034451-0.67179q0.034451-0.0344 0.068902-0.10335l0.24116-0.39619q-0.034451-0.17225-0.034451-0.37896l0.068902-0.56844q-0.31006 0.13781-0.55121 0.56844-0.22393 0.41341-0.60289 0.41341-0.32728 0.58567-0.49954 0.56844-0.068902 0.0689-0.10335 0.13781l-0.24116 0.1378-0.29283-0.0344-0.10335 0.43063q-0.37896 0.20671-0.49954 0.37896-0.10335 0.15503-0.34451 0.32729l-0.29283 0.2756h-0.27561q-0.068902 0.46509-0.53399 0.77515l-0.1378 0.17225-0.31006-0.0345q-0.17225 0.55122-0.43064 0.67179-0.29283 0-0.8096 0.53399-0.49954 0.53399-0.70624 0.53399-1.4986 0-2.4288-1.8776-0.03445-0.0689-0.17226-0.25838-0.12058-0.18948-0.12058-0.58567 0-0.67179 0.17226-0.91295 0.18948-0.24115 0.46509-0.89572 0.29283-0.67179 0.43064-0.58566 0.03445-0.0689 0.03445-0.20671 0.27561-0.32728 0.27561-0.49954 0-0.0689-0.0689-0.0689-0.03445 0-0.20671 0.10335l-0.24116 0.10336q-0.15503 0.0344-0.22393 0.1378-0.0689 0.10335-0.24116 0.20671-0.17225 0.0861-0.27561 0.15502h-0.05168q-0.10335-0.10335-0.1378-0.10335-0.10335 0.27561-0.17226 0.34451l-0.2067 0.0344q-0.37896 0.39619-0.48231 0.39619-0.0689 0-0.31006-0.12058-0.24116-0.12058-0.24116-0.24116l0.12058-0.67179v-0.31006q0-0.0345 0.1378-0.1378 0.03445 0 0.27561-0.36174 0.24116-0.37896 0.56844-0.37896zm17.742 5.9945 0.18948-0.25838q0.10335-0.13781 0.10335-0.31006l0.41341-1.223q0.22393-0.65456 0.25838-0.72347l0.068902-0.34451 0.20671-0.39618 0.068902-0.44786q0.068902-0.49954 0.49954-1.4814l0.034451-0.25838 0.1378-0.37896v-0.0689q0-0.17226-0.10335-0.17226h-0.1378q-0.31006 0-0.34451 0.13781l-0.12058 0.48231q0 0.25838-0.31006 0.25838-0.034451 0-0.18948-0.0517-0.1378-0.0517-0.17225-0.0517-0.10335 0.2067-0.27561 0.51676-0.17225 0.0689-0.56844 0.36174l-0.17225 0.0345q-0.18948 0.2756-0.56844 0.56844l-0.068902 0.10335q-0.24116 0.37896-0.67179 0.37896-0.56844 0-0.56844-0.77515 0-0.48231 0.46509-0.72347 0.46509-0.25838 0.60289-0.44786 0.1378-0.2067 0.74069-0.55121l0.17225-0.24116q0.1378-0.18948 0.24116-0.18948l0.29283-0.10335q0.068902-0.0689 0.31006-0.0689l-0.034451-0.24116q0-0.10335 0.43064-0.22393 0.10335-0.10335 0.46509-0.37896 0.37896-0.2756 1.2919-1.4814 0.068902-0.17225 0.25838-0.25838 0.20671-0.10335 0.34451-0.24115h0.34451q0.1378 0 0.62012 0.46508 0.48231 0.46509 0.48231 1.1886l-0.49954 2.2221 0.034451 0.15503-0.034451 0.1378q0 0.0689 0.068902 0.0689t0.29283-0.2756q0.10335-0.32729 0.41341-0.49954 0.32728-0.17225 0.48231-0.36173 0.15503-0.20671 0.41341-0.36174 0.27561-0.15503 0.70624-0.49954 0.44786-0.36173 0.8096-0.39618l0.17225-0.10335 0.0689-0.25839q0.31006-0.24115 0.67179-0.44786l0.41341-0.32728q0.74069-0.24116 1.1024-0.24116 0.17225 0 0.31006-0.1378l0.39618 0.17225q0.03445 0 0.1378-0.10335 0-0.0344 0.0689-0.0344 0.70624 0 1.1886 0.55122 0.49954 0.55121 0.49954 1.2058 0 0.0345-0.05168 0.15502-0.05168 0.12058-0.05168 0.20671l0.10335 0.27561v0.0344l-0.37896 0.98185q-0.05168 0.17225-0.2067 0.96462-0.32728 0.51677-0.77514 0.98185-0.43064 0.46509-0.56844 0.70625 0.0689 0.0689 0.12058 0.0689 0.15503 0 0.44786-0.31006l0.8096-0.49954 0.1378 0.0689q0.24116-0.17225 0.49954-0.39618 0.25838-0.22393 0.44786-0.24116 0.10335-0.1378 0.36173-0.34451l0.17225-0.18948q0.10335 0 0.24116-0.12057 0.1378-0.12058 0.31006-0.15503 0.18948-0.0344 0.37896-0.25839 0.18948-0.24115 0.31006-0.2756 0.1378-0.0345 0.17225-0.13781 0.58566-0.58566 0.91295-0.63734l0.20671-0.0689q0.03445-0.0344 0.0689-0.0344 0.18948 0 0.29283 0.36173l-0.22393 0.34451v0.17226l0.05168 0.18948q0 0.17225-0.2067 0.44786-0.2067 0.25838-0.46509 0.25838-0.29283 0.1378-0.36173 0.31006-0.05168 0.15503-0.49954 0.46509-0.44786 0.31005-0.55121 0.55121-0.10335 0.22393-0.29283 0.22393l-0.31006-0.10335q-0.39618 0.51676-0.53399 0.48231h-0.10335l-0.0689 0.0345-0.2067 0.43064q-0.18948 0.0344-0.29283 0.10335l-0.17225-0.0344q-1.0508 1.0508-1.3436 1.0508l-0.31006-0.0344q-0.03445 0-0.17226 0.2067-0.12058 0.18948-0.2067 0.27561-0.08613 0.0861-0.22393 0.25838h-0.36173q-0.1378 0-0.51676 0.29284 0 0.0344-0.03445 0.0344l-0.25838-0.10336h-0.03445q-0.17226 0-0.44786 0.27561l-0.53399 0.20671q0 0.0344-0.03445 0.0344l-0.36173-0.0689q-0.10335 0-0.31006 0.17225l-0.1378 0.0861q-0.10335 0-0.36173 0.17225l-0.55121 0.20671q-0.08613-0.0344-0.15503-0.0344l-0.31006 0.0344-0.27561-0.0689q-0.08613 0-0.25838 0.24116 0 0.0345-0.068902 0.0345-0.034451 0-0.17225-0.0345h-0.2067l-0.39619 0.10327q-0.1378 0-0.49954-0.2756-0.34451-0.27561-0.44786-0.49954l-0.17225-0.27561q-0.24116-0.10335-0.32728-0.2067l-0.1378 0.0689q-0.017225 0.0689-0.15503 0.22393-0.12058 0.15503-0.12058 0.22393 0 0.22393-0.17225 0.60289-0.15503 0.36173-0.46509 1.3091l-0.22393 0.27561q-0.068902 0.0861-0.068902 0.17225 0 0.15503-0.27561 0.53399-0.017225 0.43064-0.32728 0.86128l-0.068902 0.17225v0.24116q0 0.10335-0.34451 0.84404l-0.034451 0.36174q-0.10335 0.0172-0.36173 0.67179-0.24116 0.67179-0.58566 1.1196l-0.15503 0.56844-0.17225 0.31006-0.10335 0.32728q-0.034451 0.0861-0.10335 0.13781l-0.034451 0.17225-0.10335 0.0689q0.034451 0.25838-0.32728 0.86127 0 0.0689-0.17225 0.24116-0.17225 0.17225-0.39619 0.49954-0.22393 0.34451-0.65457 0.62011l-0.74069 0.46509q-0.82682 0-1.1369-0.8785-0.034451-0.10335-0.32728-0.56844-0.31006-0.46508-0.31006-1.378l0.15503-0.70624q0.15503-0.9474 0.34451-1.1886l0.20671-0.46509q0.034451-0.1378 0.12058-0.2756 0.086127-0.12058 0.18948-0.39619 0.086127-0.25838 0.46509-0.49954 0.24116-0.55121 0.49954-0.9474l0.24116-0.46508q0-0.20671 0.36173-0.44786 0.15503-0.32729 0.43064-0.6718 0.27561-0.32728 0.36173-0.39618 0.086127-0.0689 0.15503-0.43064 0.068902-0.37896 0.29283-0.46508 0.24116-0.0861 0.27561-0.22393l0.17225-0.29284q0.17225-0.1378 0.32728-0.43063 0.17225-0.29283 0.37896-0.37896 0.22393-0.41341 0.41341-0.41341zm4.2375-1.9809 0.60289-0.10335q0.48231-0.10335 0.53399-0.10335 0.03445 0 0.15503 0.0517 0.12058 0.0517 0.25838 0.10336 0.15503 0.0517 0.32728 0.37896 0.84405-0.39619 1.0163-0.56844 0.17226-0.17226 0.29283-0.17226 0.03445 0 0.10335 0.0344 0.03445-0.0861 0.08613-0.2067 0.05168-0.12058 0.24116-0.27561 0.2067-0.17225 0.62012-0.75792l0.56844-0.63734 0.60289-0.8785q0.22393-0.34451 0.37896-0.80959l0.10335-0.22393q0.0689-0.20671 0.0689-0.24116 0-0.12058-0.24116-0.56844l-0.43064 0.18948v-0.0345q-0.2067-0.15503-0.34451-0.15503-0.10335 0-0.18948 0.1378-0.08613 0.12058-0.25838 0.15503-0.15503 0.0345-0.27561 0.15503-0.12058 0.12058-0.32728 0.13781-0.18948 0.0172-0.43064 0.25838l-0.2067-0.0344-0.12058 0.0861-0.2067-0.0517q-0.36173 0.41341-0.51676 0.51676-0.1378 0.0861-0.39618 0.44786h-0.24116q-0.1378 0-0.25838 0.37896-0.17225 0.10335-0.34451 0.32728l-0.43064 0.17226q-0.1378 0.22393-0.31006 0.34451l-0.67179 0.86127q-0.068902 0.0689-0.15503 0.0861t-0.17225 0.0517l0.086127 0.34451h-0.051677q-0.41341 0.22393-0.51676 0.79237l-0.10335 0.41341q0 0.10335 0.068902 0.10335t0.18948-0.12057q0.12058-0.12058 0.43064-0.34451t0.46509-0.24116zm-8.2854 11.507q0.086127-0.0517 0.8785-1.3436l0.17225-0.32728q0.15503-0.27561 0.29283-0.44786l0.034451-0.13781q0.086127-0.0861 0.17225-0.25838l0.9474-2.4977q0.20671-0.55121 0.25838-0.79237 0.068902-0.22393 0.48231-1.4297-0.10335 0.0344-0.20671 0.24116-0.10335 0.22393-0.17225 0.22393l-0.25838 0.0344q-0.034451 0-0.27561 0.62011l-0.068902 0.0861q-0.25838 0.0344-0.34451 0.27561l-0.29283 0.60289v0.24115q0 0.41342-0.60289 0.77515-0.18948 0.49954-0.24116 0.49954h-0.17225l0.068902 0.31006q0 0.39618-0.22393 0.67179-0.24116 0.29283-0.24116 0.32728l0.034451 0.34451-0.034451 0.31006q-0.20671 0.49954-0.20671 1.2058zm19.895-9.5257 0.18948-0.25838q0.10335-0.13781 0.10335-0.31006l0.41341-1.223q0.22393-0.65456 0.25838-0.72347l0.0689-0.34451 0.2067-0.39618 0.0689-0.44786q0.0689-0.49954 0.49954-1.4814l0.03445-0.25838 0.1378-0.37896v-0.0689q0-0.17226-0.10335-0.17226h-0.1378q-0.31006 0-0.34451 0.13781l-0.12058 0.48231q0 0.25838-0.31006 0.25838-0.03445 0-0.18948-0.0517-0.1378-0.0517-0.17225-0.0517-0.10335 0.2067-0.27561 0.51676-0.17226 0.0689-0.56844 0.36174l-0.17225 0.0345q-0.18948 0.2756-0.56844 0.56844l-0.0689 0.10335q-0.24116 0.37896-0.67179 0.37896-0.56844 0-0.56844-0.77515 0-0.48231 0.46509-0.72347 0.46509-0.25838 0.60289-0.44786 0.1378-0.2067 0.74069-0.55121l0.17225-0.24116q0.1378-0.18948 0.24116-0.18948l0.29283-0.10335q0.0689-0.0689 0.31006-0.0689l-0.03445-0.24116q0-0.10335 0.43064-0.22393 0.10335-0.10335 0.46509-0.37896 0.37896-0.2756 1.2919-1.4814 0.0689-0.17225 0.25838-0.25838 0.20671-0.10335 0.34451-0.24115h0.34451q0.1378 0 0.62012 0.46508 0.48231 0.46509 0.48231 1.1886l-0.49954 2.2221 0.03445 0.15503-0.03445 0.1378q0 0.0689 0.0689 0.0689t0.29283-0.2756q0.10335-0.32729 0.41341-0.49954 0.32728-0.17225 0.48231-0.36173 0.15503-0.20671 0.41341-0.36174 0.27561-0.15503 0.70624-0.49954 0.44786-0.36173 0.8096-0.39618l0.17226-0.10335 0.0689-0.25839q0.31006-0.24115 0.67179-0.44786l0.41341-0.32728q0.74069-0.24116 1.1024-0.24116 0.17226 0 0.31006-0.1378l0.39618 0.17225q0.03445 0 0.1378-0.10335 0-0.0344 0.0689-0.0344 0.70624 0 1.1886 0.55122 0.49954 0.55121 0.49954 1.2058 0 0.0345-0.05168 0.15502-0.05168 0.12058-0.05168 0.20671l0.10335 0.27561v0.0344l-0.37896 0.98185q-0.05168 0.17225-0.2067 0.96462-0.32728 0.51677-0.77514 0.98185-0.43064 0.46509-0.56844 0.70625 0.0689 0.0689 0.12058 0.0689 0.15503 0 0.44786-0.31006l0.8096-0.49954 0.1378 0.0689q0.24116-0.17225 0.49954-0.39618 0.25838-0.22393 0.44786-0.24116 0.10335-0.1378 0.36173-0.34451l0.17226-0.18948q0.10335 0 0.24116-0.12057 0.1378-0.12058 0.31006-0.15503 0.18948-0.0344 0.37896-0.25839 0.18948-0.24115 0.31006-0.2756 0.1378-0.0345 0.17226-0.13781 0.58566-0.58566 0.91295-0.63734l0.2067-0.0689q0.03445-0.0344 0.0689-0.0344 0.18948 0 0.29283 0.36173l-0.22393 0.34451v0.17226l0.05168 0.18948q0 0.17225-0.2067 0.44786-0.2067 0.25838-0.46509 0.25838-0.29283 0.1378-0.36173 0.31006-0.05168 0.15503-0.49954 0.46509-0.44786 0.31005-0.55121 0.55121-0.10335 0.22393-0.29283 0.22393l-0.31006-0.10335q-0.39618 0.51676-0.53399 0.48231h-0.10335l-0.0689 0.0345-0.20671 0.43064q-0.18948 0.0344-0.29283 0.10335l-0.17225-0.0344q-1.0508 1.0508-1.3436 1.0508l-0.31006-0.0344q-0.03445 0-0.17225 0.2067-0.12058 0.18948-0.2067 0.27561-0.08613 0.0861-0.22393 0.25838h-0.36173q-0.1378 0-0.51676 0.29284 0 0.0344-0.03445 0.0344l-0.25838-0.10336h-0.03445q-0.17225 0-0.44786 0.27561l-0.53399 0.20671q0 0.0344-0.03445 0.0344l-0.36173-0.0689q-0.10335 0-0.31006 0.17225l-0.1378 0.0861q-0.10335 0-0.36173 0.17225l-0.55121 0.20671q-0.08613-0.0344-0.15503-0.0344l-0.31006 0.0344-0.27561-0.0689q-0.08613 0-0.25838 0.24116 0 0.0345-0.0689 0.0345-0.03445 0-0.17225-0.0345h-0.2067l-0.39618 0.10335q-0.1378 0-0.49954-0.2756-0.34451-0.27561-0.44786-0.49954l-0.17226-0.27561q-0.24116-0.10335-0.32728-0.2067l-0.1378 0.0689q-0.01722 0.0689-0.15503 0.22393-0.12058 0.15503-0.12058 0.22393 0 0.22393-0.17225 0.60289-0.15503 0.36173-0.46509 1.3091l-0.22393 0.27561q-0.0689 0.0861-0.0689 0.17225 0 0.15503-0.27561 0.53399-0.01723 0.43064-0.32728 0.86128l-0.0689 0.17225v0.24116q0 0.10335-0.34451 0.84404l-0.03445 0.36174q-0.10335 0.0172-0.36173 0.67179-0.24116 0.67179-0.58566 1.1196l-0.15503 0.56844-0.17226 0.31006-0.10335 0.32728q-0.03445 0.0861-0.10335 0.13781l-0.03445 0.17225-0.10335 0.0689q0.03445 0.25838-0.32728 0.86127 0 0.0689-0.17225 0.24116-0.17226 0.17225-0.39618 0.49954-0.22393 0.34451-0.65457 0.62011l-0.74069 0.46509q-0.82682 0-1.1369-0.8785-0.03445-0.10335-0.32728-0.56844-0.31006-0.46508-0.31006-1.378l0.15503-0.70624q0.15503-0.9474 0.34451-1.1886l0.2067-0.46509q0.03445-0.1378 0.12058-0.2756 0.08613-0.12058 0.18948-0.39619 0.08613-0.25838 0.46509-0.49954 0.24116-0.55121 0.49954-0.9474l0.24116-0.46508q0-0.20671 0.36173-0.44786 0.15503-0.32729 0.43064-0.6718 0.27561-0.32728 0.36173-0.39618 0.08613-0.0689 0.15503-0.43064 0.0689-0.37896 0.29283-0.46508 0.24116-0.0861 0.27561-0.22393l0.17226-0.29284q0.17225-0.1378 0.32728-0.43063 0.17226-0.29283 0.37896-0.37896 0.22393-0.41341 0.41341-0.41341zm4.2375-1.9809 0.60289-0.10335q0.48231-0.10335 0.53399-0.10335 0.03445 0 0.15503 0.0517 0.12058 0.0517 0.25838 0.10336 0.15503 0.0517 0.32728 0.37896 0.84405-0.39619 1.0163-0.56844 0.17225-0.17226 0.29283-0.17226 0.03445 0 0.10335 0.0344 0.03445-0.0861 0.08613-0.2067 0.05168-0.12058 0.24116-0.27561 0.20671-0.17225 0.62012-0.75792l0.56844-0.63734 0.60289-0.8785q0.22393-0.34451 0.37896-0.80959l0.10335-0.22393q0.0689-0.20671 0.0689-0.24116 0-0.12058-0.24116-0.56844l-0.43064 0.18948v-0.0345q-0.2067-0.15503-0.34451-0.15503-0.10335 0-0.18948 0.1378-0.08613 0.12058-0.25838 0.15503-0.15503 0.0345-0.27561 0.15503-0.12058 0.12058-0.32728 0.13781-0.18948 0.0172-0.43064 0.25838l-0.2067-0.0344-0.12058 0.0861-0.2067-0.0517q-0.36173 0.41341-0.51676 0.51676-0.1378 0.0861-0.39618 0.44786h-0.24116q-0.1378 0-0.25838 0.37896-0.17225 0.10335-0.34451 0.32728l-0.43064 0.17226q-0.1378 0.22393-0.31006 0.34451l-0.67179 0.86127q-0.0689 0.0689-0.15503 0.0861-0.08613 0.0172-0.17225 0.0517l0.08613 0.34451h-0.05168q-0.41341 0.22393-0.51676 0.79237l-0.10335 0.41341q0 0.10335 0.0689 0.10335t0.18948-0.12057q0.12058-0.12058 0.43064-0.34451 0.31006-0.22393 0.46509-0.24116zm-8.2854 11.507q0.08613-0.0517 0.8785-1.3436l0.17225-0.32728q0.15503-0.27561 0.29283-0.44786l0.03445-0.13781q0.08613-0.0861 0.17226-0.25838l0.9474-2.4977q0.2067-0.55121 0.25838-0.79237 0.0689-0.22393 0.48231-1.4297-0.10335 0.0344-0.20671 0.24116-0.10335 0.22393-0.17225 0.22393l-0.25838 0.0344q-0.03445 0-0.27561 0.62011l-0.0689 0.0861q-0.25838 0.0344-0.34451 0.27561l-0.29283 0.60289v0.24115q0 0.41342-0.60289 0.77515-0.18948 0.49954-0.24116 0.49954h-0.17225l0.0689 0.31006q0 0.39618-0.22393 0.67179-0.24116 0.29283-0.24116 0.32728l0.03445 0.34451-0.03445 0.31006q-0.20671 0.49954-0.20671 1.2058zm27.096-10.335-0.8096 0.70624q-0.0689-0.0689-0.1378-0.0689-0.17225 0-0.43064 0.31006-0.24116 0.31006-0.34451 0.31006l-0.17226-0.0344q-0.43064 0.32728-0.62012 0.37896-0.18948 0.0517-0.46509 0.18948-0.25838 0.1378-0.48231 0.15503-0.2067 0.0172-0.34451 0.15503-0.1378 0.12057-0.67179 0.12057l-0.27561-0.0344q-0.22393 0.10336-0.29283 0.10336-0.1378 0-0.29283-0.13781-0.15503-0.15503-0.34451-0.17225-0.17226-0.0172-0.36174-0.24116-0.18948-0.22393-0.36173-0.31006-0.15503-0.0861-0.25838-0.24115l-0.24116-0.20671q-0.29283-0.2067-0.56844-0.75792-0.27561-0.55121-0.27561-0.86127v-0.0689l0.03445-0.32728-0.03445-0.37896q0.0689-0.0689 0.17225-0.29284v-0.55121l0.41341-1.378q0.03445-0.0861-0.1378-0.22393-0.17225 0.25839-0.34451 0.31006-0.17226 0.0517-0.24116 0.24116-0.05168 0.18948-0.18948 0.18948l-0.20671-0.0689q-0.03445 0.0345-0.15503 0.36173-0.12058 0.31006-0.41341 0.31006-0.31006 0-0.31006-0.24116l0.03445-0.31006-0.10335-0.43063q0-0.13781 0.27561-0.53399 0.27561-0.41341 0.49954-0.46509 0.24116-0.0689 0.39618-0.32728 0.17225-0.27561 0.72347-0.65457 0.31006-0.0689 0.53399-0.44786 0.24116-0.18948 0.62012-0.31006 0.39618-0.12058 0.58566-0.34451 0.2067-0.24115 1.1713-0.72346 0.98185-0.49954 1.4297-0.49954 0.1378 0 0.37896-0.0689 0.24116-0.0861 0.44786-0.13781 0.2067-0.0689 0.43064-0.18948 0.22393-0.1378 0.36173-0.1378l0.49954 0.17225q0.55121 0.15503 0.67179 0.22393 0.03445 0.0345 0.34451 0.15503 0.32728 0.10336 0.65457 0.29284 0.34451 0.18948 0.34451 0.70624-0.29283 0.43063-0.29283 0.46509 0 0.0689 0.39618 0.2067 0.1378 0.25838 0.41341 0.67179l0.18948 0.60289 0.03445 1.4125-0.03445 0.1378q-0.18948 0.17226-0.18948 0.22393l0.05168 0.34451-0.1378 0.48231q-0.05168 0.22394-0.17225 0.29284-0.12058 0.0689-0.15503 0.17225l-0.10335 0.13781q-0.03445 0.0517-0.15503 0.31005-0.10335 0.24116-0.24116 0.37896-0.1378 0.13781-0.17225 0.32729-0.03445 0.18948-0.17225 0.2756-0.1378 0.0861-0.20671 0.18948-0.05168 0.0861-0.18948 0.15503zm-5.3571 0.44786 0.0689 0.39619 0.03445 0.0344h0.27561l0.08613 0.0344q0.34451 0.0689 0.51676 0.0689 0.53399 0 0.84405-0.25838 0.32728-0.27561 0.51676-0.27561 0.18948 0 0.31006-0.25838 0.1378-0.25838 0.17225-0.25838h0.24116l0.0689-0.0344q0-0.39619 0.34451-0.56844 0.36173-0.17225 0.49954-0.44786 0.15503-0.29283 0.34451-0.43064 0.18948-0.15503 0.25838-0.39618l0.1378-0.20671q0.0689-0.0689 0.0689-0.25838l0.32728-0.62012q0.10335-0.43063 0.10335-0.67179 0-0.36173-0.37896-0.56844-0.36173-0.2067-0.36173-0.80959 0-0.39619 0.39618-0.72347 0.41341-0.34451 0.41341-0.41341 0-0.10335-0.10335-0.10335-0.05168 0-0.39618 0.1378-0.12058 0.24116-1.223 0.63734-0.36173-0.17225-0.39618-0.17225-0.10335 0-0.20671 0.2067-0.10335 0.20671-0.2067 0.29283h-0.22393q-0.03445 0-0.22393 0.22393-0.18948 0.22394-0.48231 0.22394l-0.2067 0.2067q0.01723 0.27561-0.34451 0.56844l-0.18948 0.22393q-0.17226 0.20671-0.44786 0.48231l-0.31006 0.77515q-0.18948 0.44786-0.18948 0.67179-0.05168 0.10335-0.24116 0.22393-0.17225 0.10335-0.17225 0.27561 0 0.0345 0.12058 0.17225 0.12058 0.13781 0.12058 0.20671l-0.0689 0.22393-0.0689 0.63734zm12.402-7.0108 0.25838-0.0689 0.10335-0.22393q0.84405-0.49954 1.2058-0.9474 0.03445-0.0689 0.15503-0.13781 0.12058-0.0689 0.25838-0.24115 0.63734-0.63734 1.5158-0.63734 1.0335 0 1.1024 1.2574l0.10335 0.25839q0.1378 0.24115 0.37896 0.98185 0.25838 0.74069 0.25838 0.91294 0 0.46509-0.29283 0.93018-0.24116 0.12058-1.1541 1.2919l-0.17225 0.12057q-0.1378 0.31006-0.36173 0.62012-0.34451 0.12058-0.34451 0.25838v0.31006q0 0.0344-0.08613 0.1378-0.0689 0.10336-0.20671 0.39619l-0.1378 0.2067q-0.0689 0.0689-0.1378 0.29284-0.0689 0.2067-0.2067 0.37895-0.12058 0.17226-0.12058 0.27561 0 0.25838 0.67179 0.25838 0.03445 0 0.25838-0.10335l0.24116 0.0689q0.03445 0 0.17225-0.10335 0.1378-0.12058 0.41341-0.18948 0.29283-0.0689 0.49954-0.20671 0.22393-0.1378 0.51676-0.24115 0.31006-0.10335 0.58566-0.32728 0.27561-0.24116 0.53399-0.34451 0.27561-0.10336 0.49954-0.31006 0.24116-0.22393 0.53399-0.41341 0.29283-0.18948 0.93017-0.82682 0.41341-0.32729 0.56844-0.36174 0.03445 0 0.29283-0.44786 0.27561-0.46509 0.62012-0.46509 0.36173 0 0.36173 0.34451 0 0.18948-0.17225 0.36174v0.10335l0.03445 0.27561q0.03445 0.0517 0.03445 0.15503 0 0.0689-0.1378 0.2067-0.12058 0.13781-0.17225 0.36174-0.05168 0.2067-0.32728 0.2756-0.10335 0.37896-0.27561 0.43064-0.15503 0.0517-0.44786 0.34451-0.29283 0.29283-0.82682 0.68902-0.53399 0.39618-0.74069 0.62011-0.18948 0.20671-0.25838 0.20671-0.03445 0-0.1378-0.0689t-0.1378-0.0689q-0.10335 0-0.1378 0.24116l-0.0689 0.17225q-0.22393 0.13781-0.25838 0.13781l-0.10335-0.0345h-0.0689q-0.2067 0-0.2067 0.15502l0.10335 0.17226v0.0344q0 0.24116-0.27561 0.24116-0.18948 0-1.1024 0.63734l-0.49954 0.10335-0.41341 0.22393q-0.2067-0.12058-0.25838-0.12058l-0.27561 0.0861-0.49954 0.0344q-0.01723 0-0.63734-0.34451-0.60289-0.34451-0.72347-0.68902-0.12058-0.3445-0.31006-0.68901-0.18948-0.36174-0.18948-0.49954 0-0.82682 0.1378-1.1713 0.1378-0.36173 0.17225-0.53399 0.03445-0.17225 0.18948-0.36173 0.17226-0.20671 0.27561-0.65457 0.49954-0.99908 0.68902-1.223t0.29283-0.55121l0.22393-0.31006q0.03445-0.0344 0.10335-0.25838 0.0689-0.24116 0.17225-0.27561 0.1378-0.24115 0.1378-0.31005 0-0.49954-0.44786-0.49954-0.08613 0-0.18948 0.18948-0.10335 0.17225-0.48231 0.34451-0.36173 0.17225-0.44786 0.25838-0.08613 0.0861-0.37896 0.22393-0.27561 0.12058-0.48231 0.39618l-0.29283 0.13781q-0.1378 0.32728-0.24116 0.36173-0.10335 0.0345-0.63734 0.17226-0.03445 0.0172-0.17226 0.2067-0.1378 0.18948-0.39618 0.18948-0.2067 0.20671-0.41341 0.48231-0.0689 0-0.36173 0.13781l-0.34451 0.0861q-0.1378 0.10336-0.31006 0.32729-0.15503 0.22393-0.60289 0.22393-0.25838 0-0.25838-0.41341 0-0.84405 0.58566-1.3436 0.60289-0.49953 0.8785-0.53399 0.27561-0.0345 0.34451-0.2067 0.0689-0.17226 0.32728-0.27561 0.27561-0.12058 0.62012-0.49954 0.36173-0.39618 0.77514-0.53398zm14.4-7.2002 0.24116-0.0689 0.17225-0.17225h0.03445l0.15503 0.0689h0.03445q0.41341 0 0.72347-0.15503 0.32728-0.17225 0.53399-0.24115 0.22393-0.0689 0.27561-0.10336 0.05168-0.0344 0.08613-0.0344l0.27561 0.0344q0.1378 0 0.36173-0.48231 0.24116-0.49954 0.53399-0.72347 0.29283-0.22393 0.58566-0.84404 0.0689-0.0861 0.15503-0.25838 0.08613-0.18948 0.1378-0.18948 0.25838 0 0.41341-0.32729 0.51676-0.60289 0.84405-0.60289 0.43064 0 0.60289 0.82682l0.17226 0.65457q0 0.0172-0.08613 0.25838-0.08613 0.22393-0.08613 0.46509 0.01723 0.22393-0.01723 0.31006-0.01722 0.0689-0.01722 0.17225 0 0.1378 0.29283 0.1378 0.10335 0 0.37896-0.1378l0.10335-0.0345q0.17226 0.10335 0.29283 0.10335 0.03445 0 0.48231-0.17225 0.46509-0.17226 0.58566-0.18948 0.12058-0.0172 0.41341-0.13781h0.20671l0.1378 0.0517q0.0689 0 0.27561-0.1378 0.22393-0.15503 0.82682-0.18948l0.24116-0.10336h0.0689q0.56844 0 0.56844 0.49954 0 0.10335-0.17226 0.36174-0.15503 0.25838-0.25838 0.58566l-0.79237 0.99908q-0.39619 0.51676-0.79237 0.51676-0.0689 0-0.43064-0.46509 0-0.0344-0.0689-0.0344-0.17226 0-0.36174 0.0689-0.18948 0.0689-0.31006 0.0689-0.05168 0-0.91295 0.25838l-0.41341 0.0689q-0.0689 0-0.32728 0.0689l-0.8785 0.17226q-0.44786 0.22393-0.70624 0.84404 0 0.0344-0.17225 0.15503l-0.77514 1.4125q-0.37896 0.10335-0.49954 0.44786l-0.0689 0.10335q-0.18948 0.0344-0.34451 0.22393-0.15503 0.17226-0.29283 0.27561l-0.31006 0.46509q-0.18948 0.24115-0.37896 0.53398-0.18948 0.27561-0.27561 0.60289-0.08613 0.31006-0.1378 0.36174-0.05168 0.0517-0.05168 0.18948l-0.05168 0.1378q-0.20671 0.20671-0.20671 0.46509l0.0689 0.27561q-0.24116 0.82682-0.24116 0.87849 0 0.0345 0.03445 0.18948v0.10336q0 0.37896-0.27561 0.94739l0.03445 0.27561-0.10335 0.77515q0 0.15503 0.10335 0.56844-0.0689 0.0689-0.0689 0.10335 0 0.48231 0.49954 1.068 0.51676 0.56844 0.51676 1.7914 0 0.10335-0.05168 0.31006-0.05168 0.18948-0.0689 0.43064-0.01723 0.22393-0.27561 0.44786-0.24116 0.22393-0.41341 0.22393-0.91295 0-1.3608-1.3264-0.44786-1.3264-0.44786-1.7053l0.03445-0.67179-0.10335-0.34451 0.10335-1.5158-0.0689-0.36173 0.39618-1.4814v-0.53399q0-0.0345 0.24116-0.27561 0-0.0345-0.0689-0.0345-0.10335 0-0.27561 0.20671-0.17226 0.2067-0.43064 0.39618l-0.1378 0.24116q-0.03445-0.0344-0.1378-0.0689-0.08613 0.0344-0.56844 0.80959-0.36173 0.0517-0.56844 0.41341-0.20671 0.36174-0.56844 0.36174l-0.0689 0.0344q-0.0689 0.49954-0.48231 0.49954l-0.0689 0.0344q-0.25838 0.58566-0.53399 0.56844-0.17226 0.51676-0.84405 0.70624-0.10335 0.2067-0.29283 0.31006-0.2067 0.10335-0.29283 0.18948-0.08613 0.0861-0.15503 0.0861-0.22393 0-0.22393-0.48231 0-0.1378 0.12058-0.29283 0.10335-0.17225 0.10335-0.24116 0-0.0345-0.17225-0.2067 0-0.53399 0.27561-0.67179 0.27561-0.13781 0.41341-0.39619 0.08613-0.2067 0.34451-0.29283 0.25838-0.0861 0.25838-0.22393 0-0.12058 0.44786-0.48231 0.44786-0.36174 0.65457-0.62012 0.2067-0.27561 0.34451-0.27561l0.0689-0.0689q0.03445-0.43064 0.32728-0.43064l0.17225-0.10335 0.03445-0.1378 0.10335-0.0689h0.1378l0.08613-0.0689q0.03445-0.43064 0.39618-0.6718 0.37896-0.24115 1.3608-1.3436 0.98185-1.1196 1.1024-1.4297t0.43064-0.82682q0.32728-0.53399 0.36174-0.99908-0.03445-0.0689-0.10335-0.1378l-0.74069 0.36173q0-0.0517-0.34451-0.15503-0.25838 0.15503-0.37896 0.31006t-0.18948 0.15503l-0.24116-0.0344-0.75792 0.0861q-1.0163 0.0861-1.5331 0.41341l-0.70624 0.2067h-0.15503q-0.1378 0-0.41341 0.17226l-0.39618-0.0344q-0.55121 0.29283-0.8096 0.29283-0.03445 0-0.2067-0.0344l-1.757 0.48231q-0.2067 0.0689-0.93017 0.70624l-0.1378 0.0344q-0.17226 0-0.39618-0.37896-0.24116-0.39618-0.24116-0.70624 0-1.7053 2.9283-1.9809l0.70624-0.2756h0.03445l0.18948 0.0689h0.0689q0.10335 0 0.32728-0.12058 0.22393-0.1378 0.99908-0.32728l0.70624-0.18948 0.22393 0.0345q0.17226 0 0.37896-0.1378 0.22393-0.13781 0.65457-0.18948 0.44786-0.0689 0.62012-0.13781l0.27561-0.0689q0.0689 0 0.27561-0.12058 0.22393-0.12058 0.56844-0.12058 0.05168 0 0.25838 0.0689zm20.137 1.1196 0.10335-0.0345h0.46509q0.2067 0 0.60289-0.48231 0.03445-0.0345 0.91295-0.32729l0.0689-0.0689q0.24116-0.2067 0.34451-0.27561h0.32728q0.03445 0 0.27561-0.15502 0.24116-0.17226 1.0163-0.37896 0.79237-0.20671 1.0335-0.34451 0.10335-0.0344 0.75792-0.10336l0.48231-0.0861 0.37896 0.0345q0.91295 0 1.3091 1.2058 0 0.0689 0.08613 0.22393 0.08613 0.1378 0.08613 0.2067 0 0.72347-0.70624 1.5158l-0.24116 0.63734q0 0.0345-0.18948 0.25839-0.17225 0.22393-0.31006 0.53398-0.1378 0.29284-0.74069 0.89573-0.10335 0.2067-0.29283 0.65456-0.18948 0.43064-0.32728 0.56844-0.12058 0.13781-0.67179 1.0335-0.53399 0.89572-0.53399 1.0508-0.25838 0.18948-0.36173 0.63734-0.08613 0.44786-0.34451 0.84405l-0.03445 0.12058q0.55121-0.18948 0.55121-0.60289 0-0.0517 0.29283-0.25838l0.1378-0.24116q0.2067-0.24116 0.36173-0.27561 0.03445-0.1378 0.36174-0.39618 0.32728-0.27561 0.43064-0.37896 0.12058-0.10335 0.37896-0.20671 0.25838-0.12058 0.58566-0.86127 0.03445-0.1378 0.25838-0.22393 0.24116-0.0861 0.39618-0.27561 0.15503-0.2067 0.25838-0.2756l0.1378-0.20671q0.18948-0.17225 0.25838-0.2067l0.84405-1.0335q0.67179-0.43064 0.74069-0.67179l0.1378-0.0344h0.10335q0.27561-0.22393 0.36173-0.31006 0-0.51677 0.37896-0.67179 0.39618-0.17226 0.56844-0.39619 0.17226-0.24116 0.37896-0.24116 0.05168 0 0.18948 0.10336h0.03445q0.05168 0 0.10335-0.17226v-0.17225q0-0.29283 0.17226-0.48231 0.17225-0.18948 0.46509-0.24116 0.29283-0.0689 0.56844-0.44786t0.62012-0.39619q0.36173-0.0172 0.48231-0.2756 0.12058-0.25838 0.74069-0.55122 0.62011-0.31006 0.77514-0.32728 0.15503-0.0344 0.27561-0.10335 0.1378-0.0689 0.2756-0.0689 0.17226 0 0.49954 0.10336l0.31006 0.0689q0.39619 0.17225 0.74069 0.63734l0.17226 0.17225v0.0689l0.0344 0.29283v0.1378q0.22393 0.10336 0.22393 0.20671l-0.12058 0.22393q-0.0689 0.12058-0.0689 0.29283 0 0.15503-0.0172 0.32728-0.0172 0.15503-0.0517 0.31006-0.0172 0.13781-0.0689 0.27561-0.0345 0.12058-0.0861 0.24116-0.0517 0.10335-0.12058 0.2067l-0.1378 0.55121q-0.0689 0.32729-0.37896 0.79238-0.29283 0.44786-0.34451 0.63734-0.0517 0.17225-0.24116 0.48231l0.0344 0.10335v0.24116q0.53399-0.0689 0.53399-0.41341 0-0.36174 0.43064-0.53399l0.37896-0.31006q0.44786-0.79237 1.1024-1.0335 0-0.2756 0.32728-0.56844l0.65457-0.62011 0.46508-0.25838q0.31006-0.63734 0.70625-0.77515l0.37896-0.24115q0.34451-0.17226 0.37896-0.32729 0.0517-0.17225 0.2756-0.34451 0.22393-0.17225 0.65457-0.56844l0.1378-0.0689 0.17226-0.17225q0.18948-0.10335 0.43063-0.17226l0.13781-0.0689q0.43063-0.32728 0.77514-0.43063 0.34451-0.12058 0.77515-0.37896l0.60289-0.0861q0.2067-0.0689 0.2756-0.0689 1.6364 0 1.6364 1.8431l-0.0345 0.27561 0.0345 0.99907q-0.43064 0.70625-0.43064 0.7407l0.0345 0.31005q0 0.0689-0.22394 0.41341-0.22393 0.32729-0.2756 0.39619-0.0345 0.0689-0.31006 0.36173l-0.17225 0.51677q-0.0861 0.17225-0.29284 0.32728v0.20671q0 0.25838-0.67179 0.77514-0.0861 0.44786-0.31006 0.67179-0.2067 0.20671-0.32728 0.44786-0.10335 0.22393-0.34451 0.43064 0 0.22393-0.29283 0.75792t-0.46509 0.68902q-0.15503 0.1378-0.32728 0.49953l-0.15503 0.0689q-0.10335 0.65456-0.24116 0.74069l-0.2756-0.0344v0.0689q0 0.0344 0.0689 0.12058 0.0689 0.0861 0.0689 0.18948 0 0.12058-0.10335 0.2067-0.10336 0.0861-0.12058 0.17226-0.0172 0.0861-0.0861 0.17225-0.0517 0.0861-0.0689 0.34451-0.0172 0.24116-0.25838 0.67179-0.24116 0.43064-0.25838 0.58567-0.0172 0.15503-0.0517 0.25838-0.0344 0.10335-0.0344 0.20671 0 0.10335-0.0861 0.53398 0.32729 0.77515 0.46509 1.0508 0.1378 0.2756 0.1378 0.36173 0 0.68902-0.17225 0.93017-0.17226 0.22393-0.84405 0.22393-0.43063 0-0.75792-0.29283-0.31006-0.31006-0.55121-0.31006v-0.31005l-0.0344-0.0344h-0.27561q-0.0345-0.0345-0.15503-0.12058-0.10335-0.0861-0.2067-0.24116l-0.10336-0.10335q-0.1378-0.17226-0.24115-0.56844l-0.10336-0.34451 0.0345-0.27561-0.0345-0.43063q0-0.17226 0.0345-0.27561l0.0345-0.46509q0-0.0689 0.0689-0.29283 0.0689-0.24116 0.0861-0.55121 0.0172-0.32729 0.15502-0.49954 0.13781-0.17226 0.15503-0.29283 0.0172-0.12058 0.0861-0.18948 0.0861-0.0861 0.1378-0.39619 0.0517-0.31006 0.36174-0.49954 0.17225-0.31005 0.29283-0.58566 0.36174-0.49954 0.37896-0.49954h0.24116q-0.17226-0.2067-0.17226-0.24115 0-0.46509 0.36174-0.46509 0.0689 0 0.17225 0.0345l0.0689-0.1378-0.0689-0.29284q0-0.29283 0.44786-0.58566 0-0.49954 0.46509-0.89572l-0.0344-0.27561q0.10335-0.10335 0.29283-0.44786 0.18948-0.36174 0.48231-0.72347l0.53399-0.8096 0.24116-0.2756q0 0.0172 0 0.0172 0.0172-0.0172 0.0344-0.0689 0.0345-0.0689 0.0689-0.18948l0.10335-0.25838 0.12058-0.13781q0.44786-0.12057 0.44786-0.31005 0-0.0345-0.1378-0.22393v-0.0689q0-0.1378 0.2067-0.3445 0.20671-0.20671 0.37896-0.56844 0.18948-0.37896 0.18948-0.46509 0-0.0689-0.0689-0.0689-0.55121 0-0.74069 0.39618 0 0.10336-0.67179 0.41341l-0.17226 0.25838q-0.2067 0.18948-0.36173 0.18948t-0.41341 0.20671q-0.24116 0.18948-1.0852 0.89572-0.84404 0.68902-1.2402 1.1369l-0.39618 0.27561q-0.24116 0.12058-0.24116 0.18948 0 0.17225-0.29283 0.44786l-0.20671 0.25838q-0.24115-0.0861-0.2756-0.0861-0.18948 0-0.32729 0.18948 0.13781 0.13781 0.13781 0.17226 0 0.27561-0.51677 0.56844l-0.74069 0.77514q-0.0345 0.0344-0.25838 0.18948-0.22393 0.15503-0.34451 0.39619-0.10335 0.22393-0.60289 0.80959-0.49954 0.56844-0.58567 0.62012-0.0861 0.0345-0.2067 0.22393-0.12058 0.18948-0.49954 0.53399t-0.43063 0.75792q-0.32728 0.12058-0.32728 0.2067l-0.10335 0.17226-0.1378 0.0689q-0.03445 0.0689-0.05168 0.24116-0.01723 0.15502-0.68902 0.58566-0.67179 0.41341-0.84405 0.41341-0.05168 0-0.15503 0.0689-0.10335 0.0689-0.1378 0.0689-0.05168 0-0.46509-0.2067-0.39618-0.20671-0.58566-0.96463l0.1378-0.44786-0.0689-0.36173q0-0.10335 0.15503-0.27561 0.17225-0.17225 0.17225-0.43063 0.27561-0.62012 0.41341-0.8785l0.03445-0.27561q0.0689-0.17225 0.22393-0.37896 0.17226-0.22393 0.20671-0.48231 0.03445-0.27561 0.22393-0.34451t1.3953-2.0843v-0.24115l0.49954-0.86128q0.22393-0.37896 0.55122-0.86127l0.15503-0.39618q-0.53399-0.20671-0.56844-0.20671-0.10336 0-0.25838 0.13781 0 0.29283-1.0163 0.60289-0.20671 0.10335-0.53399 0.49953l-0.48231 0.27561q-0.10335 0.0689-0.32728 0.27561l-0.24116 0.22393q-0.43064 0.10335-0.74069 0.48231l-0.46509 0.32728q-0.20671 0.17226-0.27561 0.25839-0.0689 0.0861-0.63734 0.37896l-0.27561 0.2756-0.25838 0.13781q-0.27561 0.29283-0.41341 0.49953-0.1378 0.20671-0.36173 0.24116l-0.37896 0.1378q-0.10335 0.44786-0.63734 0.86128l-0.49954 0.62011q-0.1378 0.12058-0.24116 0.18948-0.0689 0.17226-0.24116 0.24116-0.22393 0.2756-0.29283 0.37896l-0.20671 0.15503q-0.46509 0.17225-0.46509 0.2756l0.03445 0.31006q0 0.18948-0.41341 0.36173-0.17225 0.0861-0.2067 0.27561-0.01723 0.18948-0.12058 0.39619h-0.31006q-0.05168 0-0.32728 0.17225-0.03445 0-0.0689 0.0344l0.0689 0.39619q0 0.2067-0.27561 0.48231-0.27561 0.25838-0.43064 0.46509-0.1378 0.2067-0.2067 0.2067h-0.10349l-0.10335 0.0689q0.01722 0.32729-0.43064 0.70625l-0.2067 0.25838q-0.10335 0.0861-0.58566 0.86127-0.48231 0.77514-0.91295 1.2575-0.43064 0.48231-0.79237 0.65456-0.36173 0.15503-0.77514 0.32729l-0.70624-0.13781q-0.10335-0.18948-0.31006-0.31005-0.18948-0.12058-0.18948-0.25839l-0.2067-0.60289q0-0.24115 0.18948-0.58566 0.18948-0.36174 0.22393-0.55122 0.05168-0.2067 0.2067-0.53398 0.15503-0.34451 0.15503-0.37896 0-0.46509 0.1378-0.56844 0.15503-0.12058 0.67179-0.51677 0.03445 0 0.03445-0.0689v-0.0344l-0.03445-0.29283q0.39618-0.67179 0.49954-0.67179 0.03445 0 0.1378 0.0344l-0.10335-0.37896q0-0.0689 0.18948-0.22393 0.18948-0.15503 0.29283-0.34451l-0.0689-0.20671v-0.0689q0-0.32728 0.43064-0.67179 0.0689-0.1378 0.27561-0.70624l0.44786-0.79237q0.17226-0.32729 0.36174-0.43064 0.18948-0.12058 0.2067-0.27561 0.01722-0.15503 0.12058-0.34451 0 0.0861 0.01722 0.0172 0.03445-0.0861 0.08613-0.34451 0.0689-0.25838 0.39618-0.41341 0.39618-1.0163 0.62012-1.0163 0.0689 0 0.18948 0.0689h0.0689q0.27561 0 0.27561-0.2067 0-0.0689-0.0689-0.0689-0.15503 0.17226-0.27561 0.17226t-0.12058-0.0689q0-0.0345 0.05168-0.0689l0.37896-0.77515 0.03445-0.32728q0.0689-0.10336 0.27561-0.31006l0.29283-0.39619v-0.17225q0-0.0344 0.15503-0.34451 0.15503-0.32728 0.22393-0.63734l0.29283-0.43064q0.0689-0.2067 0.0689-0.37896 0-0.25838-0.0689-0.25838l-0.99908 0.18948q-0.8096 0.41341-1.1541 0.65457l-0.39618 0.0861q-0.03445 0-0.46509 0.24115-0.41341 0.22393-0.74069 0.25838-0.31006 0.0172-0.55121 0.24116l-0.0689 0.0345h-0.32728q-0.18948 0.22393-0.25838 0.34451-0.0689 0.10335-0.12058 0.10335-1.7398 1.1541-2.2049 1.3953-0.46509 0.24116-0.70624 0.44786-0.24116 0.18948-0.41341 0.27561v0.20671q0 0.29283-0.43064 0.67179-0.41341 0.36173-0.72347 0.36173-0.10335 0-0.32728-0.10335-0.2067-0.12058-0.48231-0.15503-0.25838-0.0345-0.25838-0.65457 0-0.87849 1.4469-1.602 0.22393-0.10335 0.41341-0.24116 0.18948-0.1378 1.5331-0.67179l0.49954-0.24116q0.17226-0.17225 0.56844-0.31005 0.41341-0.15503 0.63734-0.25839 0.24116-0.10335 0.37896-0.1378zm16.157 4.1686 0.17225-0.31006v-0.0344q0-0.0345-0.0689-0.0345-0.17226 0-0.27561 0.34451 0.0344 0.10335 0.0689 0.10335 0.0689 0 0.10336-0.0689zm12.092 3.2556 0.36173-0.29283q0.41341-0.0344 0.44786-0.43063 0.0345-0.39619 0.56844-0.68902l0.20671-0.29283q0.25838-0.25839 1.4125-0.6718 0.29283-0.17225 0.39619-0.31005 0.0345-0.0345 0.0689-0.0345l0.27561 0.0689q0.22393 0 0.56844-0.12058 0.36173-0.12058 0.68901-0.12058l0.72347-0.0344q0.0689 0 0.27561 0.10335 0.22393 0.10335 0.53399 0.10335 0.37896 0 0.68901 0.34451 0.32729 0.34451 0.32729 0.63734 0 0.53399-0.55122 1.0852-0.55121 0.55121-0.87849 0.62011-0.29284 0.29284-0.44787 0.37896-0.15502 0.0689-0.32728 0.24116-0.15503 0.15503-0.25838 0.15503-0.0689 0-0.10335-0.0344-0.0344-0.0517-0.10336-0.0517-0.2756 0-0.60289 0.67179l-0.31005-0.0344q-0.29284 0.18948-0.37896 0.41341-0.0861 0.22393-0.36174 0.22393-0.63734 0.63734-0.86127 0.63734-0.0345 0-0.24116-0.0689-0.1378 0.17226-0.1378 0.36174 0 0.2067-0.27561 0.24115l-0.22393 0.20671-0.17225-0.0345-0.34451 0.36173q-0.25838 0-0.53399 0.17226-0.0345 0.2067-0.10335 0.53398-0.0689 0.31006-0.0689 0.34451 0 0.49954 0.91295 0.49954l0.82682-0.12058q0.32728 0 0.60289-0.17225 0.29283-0.17226 0.62011-0.17226 0.10336 0 0.31006-0.0689l0.17225 0.0689q0.12058-0.25838 0.44787-0.46508 0.32728-0.20671 0.51676-0.20671l0.17225-0.10335q0.0689-0.20671 0.20671-0.27561l0.1378-0.12058q0.13781-0.1378 0.25838-0.1378h0.24116l0.0689-0.0345q0.20671-0.44786 0.56844-0.51676 0.37896-0.0861 0.46509-0.25838 0.10335-0.17226 0.34451-0.20671 0.24115-0.0345 0.39618-0.22393 0.17226-0.20671 0.41341-0.37896 0.24116-0.17225 0.32729-0.25838 0.10335-0.0861 0.17225-0.0861 0.10335 0 0.10335 0.15503t0.0689 0.15503 0.0689-0.0689-0.0345-0.17226v-0.12058q0-0.25838 0.2756-0.3445l0.77515-0.49954q0.0344-0.36174 0.18948-0.41341 0.17225-0.0689 0.25838-0.13781 0.0861-0.0861 0.18948-0.0861 0.22393 0 0.22393 0.25838l-0.0861 0.44786 0.0861 0.46509q0 0.10335-0.17226 0.29283-0.15502 0.17225-0.24115 0.55121-0.0861 0.36174-0.22393 0.39619h-0.10335q-0.31006 0.32728-0.49954 0.39618-0.17226 0.0517-0.27561 0.20671l-0.58566 0.67179q-0.17226 0.17225-0.29284 0.31006-0.12057 0.1378-0.18948 0.1378l-0.1378-0.1378q0-0.0345-0.0689-0.0345-0.17226 0-0.22393 0.2067-0.0345 0.20671-0.17226 0.36174-0.51676 0.24115-0.67179 0.44786l-0.10335 0.0345h-0.31006q-0.22393 0-0.31006 0.34451-0.0861 0.32728-0.49954 0.37896-0.39618 0.0517-0.56843 0.2067-0.0345 0.0345-0.15503 0.0689-0.12058 0.0345-0.48232 0.27561l-1.4469 0.51676q-0.17226 0.0861-0.22393 0.0861l-0.48232 0.0689q-0.10335 0-0.2067-0.1378t-0.1378-0.1378l-0.31006 0.10335q-0.34451 0.10335-0.65457 0.10335-0.17225 0-0.37896-0.12058-0.2067-0.12057-0.32728-0.17225-0.49954 0-0.70624-0.77515l-0.20671 0.0345q-0.0689 0-0.46509-1.223-0.10335-0.1378-0.32728-0.18948-0.22393-0.0689-0.22393-0.34451 0-0.77514 0.32728-1.0335 0.34451-0.2756 0.37896-0.41341l0.24116-0.89572q0.0689-0.0517 0.17225-0.34451l0.39619-0.72347q0.0689-0.12057 0.31006-0.60289zm3.6346-1.0335-0.2067 0.10335q-0.0689 0.0344-0.41341 0.31006-0.32729 0.25838-0.65457 0.43063-0.31006 0.15503-0.65457 0.84405-0.32728 0.68902-0.32728 0.79237t0.10335 0.10335l0.58567-0.25838q0.32728-0.15503 0.60289-0.39618 0.29283-0.24116 0.82682-0.58567l0.1378-0.1378q0.0344-0.0689 0.31006-0.24116 0.29283-0.18948 0.43064-0.36173l0.17225-0.0689q0.29283-0.46509 0.58567-0.56844 0.31005-0.10336 0.31005-0.20671 0-0.2067-0.32728-0.2067-0.1378 0-0.41341 0.17225h-0.39618q-0.0689 0-0.37896 0.20671z" stroke-width="8.899" aria-label="Support Me"/>
 </g>
</svg>
