<svg
   class="bmc-logo"
   width="4436"
   height="829"
   viewBox="0 0 4436 829"
   fill="none"
   version="1.1"
   id="svg8"
   sodipodi:docname="support-googoraa.svg"
   inkscape:version="1.1.2 (1:1.1+202202050950+0a00cf5339)"
   xmlns:inkscape="http://www.inkscape.org/namespaces/inkscape"
   xmlns:sodipodi="http://sodipodi.sourceforge.net/DTD/sodipodi-0.dtd"
   xmlns="http://www.w3.org/2000/svg"
   xmlns:svg="http://www.w3.org/2000/svg"
   xmlns:rdf="http://www.w3.org/1999/02/22-rdf-syntax-ns#"
   xmlns:cc="http://creativecommons.org/ns#"
   xmlns:dc="http://purl.org/dc/elements/1.1/">
  <g
     aria-label="Support Googoraa"
     id="text7825"
     style="font-size:466.667px;line-height:1.25;fill:#000000">
    <path
       d="m 273.86965,411.23331 q 11.66667,24.73335 28.00002,41.06669 16.80001,15.86668 42.00002,15.86668 19.13335,0 31.73336,-10.26667 13.06668,-10.26668 14.46668,-25.20002 1.4,-12.13334 -5.60001,-20.06668 -6.53333,-7.93334 -19.60001,-14.00001 -12.60001,-6.53334 -29.40002,-13.53335 -16.80001,-7.46667 -34.53336,-20.06668 -17.26668,-13.06667 -28.46668,-32.20002 -11.20001,-19.13335 -8.86668,-46.20003 2.8,-29.40002 20.06668,-50.40004 17.73335,-21.46668 44.80003,-32.66669 27.53336,-11.66667 59.26671,-11.66667 29.40002,0 50.8667,9.80001 21.46669,9.8 35.93336,26.13335 14.46668,16.33334 22.40002,35.93336 l -62.53338,32.66669 q -8.4,-16.33335 -20.53335,-27.06669 -12.13334,-11.20001 -32.66669,-11.20001 -15.86667,0 -27.06668,7.93334 -10.73334,7.46667 -12.13334,19.60002 -1.4,11.66667 7.46667,20.06668 9.33334,8.4 23.80002,14.93334 14.93334,6.53334 30.33335,12.60001 31.73336,12.60001 51.33337,36.40002 20.06668,23.33335 16.80001,60.66671 -3.26667,32.66669 -22.86668,56.46671 -19.13335,23.80002 -48.53337,36.86669 -28.93335,12.60001 -61.13337,12.60001 -29.86669,0 -54.60004,-11.20001 -24.73335,-11.20001 -42.4667,-30.33335 -17.26668,-19.60002 -26.13335,-44.33337 z"
       style="font-style:italic;font-weight:bold;font-family:'Jost*';-inkscape-font-specification:'Jost* Bold Italic';fill:#ffffff"
       id="path126603" />
    <path
       d="m 583.73604,442.03333 q -1.86666,14.46667 1.86667,27.06668 3.73334,12.13334 20.06668,12.13334 16.80002,0 28.46669,-9.8 12.13334,-9.80001 14.93334,-28.00002 l 23.33335,-132.06676 h 70.00005 l -37.33336,214.66682 h -70.00005 l 4.66667,-29.86669 q -11.2,15.86668 -27.53335,25.20002 -16.33334,9.33334 -38.73336,9.33334 -25.66668,0 -40.60003,-10.73334 Q 517.936,509.23337 512.80266,491.03336 507.66933,472.36668 510.93599,449.5 l 23.33335,-138.13343 h 72.80005 z"
       style="font-style:italic;font-weight:bold;font-family:'Jost*';-inkscape-font-specification:'Jost* Bold Italic';fill:#ffffff"
       id="path126600" />
    <path
       d="m 809.13582,628.70012 h -70.00005 l 54.13338,-317.33355 h 70.00004 l -5.13333,30.80002 q 13.53334,-17.73334 32.20002,-28.00002 18.66668,-10.26667 42.00003,-10.26667 28.93335,0 48.53337,15.86668 20.06672,15.40001 28.93332,41.53336 9.3334,25.66668 5.1334,57.40004 -4.2,32.66669 -21.00005,58.80004 -16.80001,26.13335 -42.00003,41.06669 -25.20001,14.93335 -54.13337,14.93335 -25.66668,0 -41.53336,-12.60001 -15.86668,-13.06668 -22.86668,-33.13336 z M 942.60258,418.69998 q 3.26667,-21.46668 -7.46667,-36.40003 -10.73334,-15.40001 -31.73335,-15.86668 -18.20002,-0.46666 -35.00003,12.60001 -16.33334,12.60001 -22.40001,32.66669 l -1.86667,11.66668 q -1.4,19.60001 8.86667,33.60002 10.73334,13.53334 28.93335,14.00001 14.46668,0.46667 27.53336,-6.53334 13.06667,-7 21.93335,-18.66668 8.86667,-12.13334 11.2,-27.06668 z"
       style="font-style:italic;font-weight:bold;font-family:'Jost*';-inkscape-font-specification:'Jost* Bold Italic';fill:#ffffff"
       id="path126597" />
    <path
       d="m 1087.7352,628.70012 h -70.0001 l 54.1334,-317.33355 h 70.0001 l -5.1334,30.80002 q 13.5334,-17.73334 32.2,-28.00002 18.6667,-10.26667 42.0001,-10.26667 28.9333,0 48.5333,15.86668 20.0667,15.40001 28.9334,41.53336 9.3333,25.66668 5.1333,57.40004 -4.2,32.66669 -21,58.80004 -16.8,26.13335 -42,41.06669 -25.2,14.93335 -54.1334,14.93335 -25.6667,0 -41.5333,-12.60001 -15.8667,-13.06668 -22.8667,-33.13336 z m 133.4667,-210.00014 q 3.2667,-21.46668 -7.4666,-36.40003 -10.7334,-15.40001 -31.7334,-15.86668 -18.2,-0.46666 -35,12.60001 -16.3333,12.60001 -22.4,32.66669 l -1.8667,11.66668 q -1.4,19.60001 8.8667,33.60002 10.7333,13.53334 28.9333,14.00001 14.4667,0.46667 27.5334,-6.53334 13.0667,-7 21.9333,-18.66668 8.8667,-12.13334 11.2,-27.06668 z"
       style="font-style:italic;font-weight:bold;font-family:'Jost*';-inkscape-font-specification:'Jost* Bold Italic';fill:#ffffff"
       id="path126594" />
    <path
       d="m 1323.4013,418.69998 q 4.2,-33.13336 23.3333,-58.33338 19.1333,-25.20001 48.0667,-39.20002 29.4,-14.46668 63.4667,-14.46668 33.6,0 58.8001,14.46668 25.2,14.46667 37.3333,40.13336 12.6,25.20002 8.4,57.40004 -4.2,32.66669 -23.3333,58.33337 -19.1334,25.20002 -48.5334,39.6667 -28.9334,14.00001 -63,14.00001 -33.1334,0 -58.3334,-14.46668 -25.2,-14.93334 -37.8,-40.13336 -12.6001,-25.20002 -8.4,-57.40004 z m 71.4,0 q -2.8,21.00001 7,36.86669 10.2667,15.86668 31.2667,16.33335 21.4667,0.46666 38.2667,-14.93335 16.8,-15.86668 20.0667,-38.26669 2.8,-21.00002 -7.4667,-37.33336 -9.8,-16.33335 -30.8,-16.80001 -14,-0.46667 -26.6,7 -12.6001,7.46667 -21.0001,20.06668 -8.4,12.13334 -10.7333,27.06669 z"
       style="font-style:italic;font-weight:bold;font-family:'Jost*';-inkscape-font-specification:'Jost* Bold Italic';fill:#ffffff"
       id="path126591" />
    <path
       d="m 1736.4011,384.16662 q -4.6667,-5.13334 -10.7333,-8.40001 -5.6,-3.26666 -13.5334,-3.26666 -15.4,-0.46667 -27.0667,11.2 -11.2,11.20001 -15.8666,27.06669 l -19.6,115.26675 h -69.0668 l 37.3334,-214.66682 h 68.6 l -5.1333,29.40002 q 11.6667,-15.40001 26.6,-24.73335 14.9334,-9.80001 30.8001,-9.80001 11.6666,0 21,5.60001 9.8,5.13333 15.8666,13.06667 z"
       style="font-style:italic;font-weight:bold;font-family:'Jost*';-inkscape-font-specification:'Jost* Bold Italic';fill:#ffffff"
       id="path126588" />
    <path
       d="m 1781.2004,311.36657 h 36.4 l 12.6,-74.66672 h 67.6667 l -13.0666,74.66672 h 37.3333 l -10.2667,58.33337 h -37.3333 l -27.0667,156.33345 h -66.7334 l 26.6,-156.33345 h -36.4 z"
       style="font-style:italic;font-weight:bold;font-family:'Jost*';-inkscape-font-specification:'Jost* Bold Italic';fill:#ffffff"
       id="path126585" />
    <path
       d="m 2235.733,407.96664 11.2001,-60.20004 h 160.5334 q -4.2,37.80002 -18.6667,71.86671 -14.4667,33.60003 -38.7333,60.20004 -23.8001,26.13336 -57.4001,41.53337 -33.1333,14.93334 -75.6,14.93334 -37.8001,0 -67.6667,-13.53334 -29.8667,-13.53335 -49.9334,-37.33336 -19.6,-23.80002 -28,-55.06671 -7.9334,-31.73335 -2.8,-67.66671 5.6,-37.33336 23.3333,-68.60005 18.2,-31.26669 45.2667,-54.13337 27.5334,-22.86668 62.0667,-35.46669 34.5334,-12.60001 72.8001,-12.60001 47.1333,0 80.2667,21.00001 33.1334,21.00002 53.2,56.93338 l -73.7334,35.93336 q -8.8666,-19.60002 -24.7333,-32.20003 -15.4,-12.60001 -41.5334,-12.60001 -28.4667,0 -53.2,13.53335 -24.2667,13.06667 -41.0667,35.93336 -16.3333,22.86668 -21.4667,52.2667 -4.2,27.53335 2.8,51.80004 7.4667,23.80001 25.6667,38.26669 18.2,14.46668 47.1334,14.46668 35,0 56.9333,-16.80002 22.4001,-16.80001 35.4667,-42.46669 z"
       style="font-style:italic;font-weight:bold;font-family:'Jost*';-inkscape-font-specification:'Jost* Bold Italic';fill:#ffffff"
       id="path126582" />
    <path
       d="m 2429.3998,418.69998 q 4.2,-33.13336 23.3333,-58.33338 19.1334,-25.20001 48.0667,-39.20002 29.4001,-14.46668 63.4667,-14.46668 33.6001,0 58.8001,14.46668 25.2,14.46667 37.3333,40.13336 12.6001,25.20002 8.4001,57.40004 -4.2,32.66669 -23.3334,58.33337 -19.1333,25.20002 -48.5334,39.6667 -28.9333,14.00001 -63,14.00001 -33.1334,0 -58.3334,-14.46668 -25.2,-14.93334 -37.8,-40.13336 -12.6,-25.20002 -8.4,-57.40004 z m 71.4,0 q -2.8,21.00001 7,36.86669 10.2667,15.86668 31.2667,16.33335 21.4667,0.46666 38.2667,-14.93335 16.8,-15.86668 20.0667,-38.26669 2.8,-21.00002 -7.4667,-37.33336 -9.8,-16.33335 -30.8,-16.80001 -14,-0.46667 -26.6,7 -12.6,7.46667 -21,20.06668 -8.4,12.13334 -10.7334,27.06669 z"
       style="font-style:italic;font-weight:bold;font-family:'Jost*';-inkscape-font-specification:'Jost* Bold Italic';fill:#ffffff"
       id="path126579" />
    <path
       d="m 2695.8661,418.69998 q 4.2,-33.13336 23.3333,-58.33338 19.1334,-25.20001 48.0667,-39.20002 29.4001,-14.46668 63.4668,-14.46668 33.6,0 58.8,14.46668 25.2,14.46667 37.3334,40.13336 12.6,25.20002 8.4,57.40004 -4.2,32.66669 -23.3334,58.33337 -19.1333,25.20002 -48.5334,39.6667 -28.9333,14.00001 -63,14.00001 -33.1334,0 -58.3334,-14.46668 -25.2,-14.93334 -37.8,-40.13336 -12.6,-25.20002 -8.4,-57.40004 z m 71.4,0 q -2.8,21.00001 7.0001,36.86669 10.2666,15.86668 31.2666,16.33335 21.4667,0.46666 38.2667,-14.93335 16.8,-15.86668 20.0667,-38.26669 2.8,-21.00002 -7.4667,-37.33336 -9.8,-16.33335 -30.8,-16.80001 -14,-0.46667 -26.6,7 -12.6,7.46667 -21,20.06668 -8.4,12.13334 -10.7334,27.06669 z"
       style="font-style:italic;font-weight:bold;font-family:'Jost*';-inkscape-font-specification:'Jost* Bold Italic';fill:#ffffff"
       id="path126576" />
    <path
       d="m 2942.7326,540.96673 66.2667,0.93333 q 0.9334,18.20002 10.2667,28.46669 9.3334,10.26667 28.9334,10.26667 24.2667,0.46667 42,-16.80001 17.7333,-16.80001 21.4667,-42.46669 l 5.1333,-30.33336 q -14,15.86668 -32.6667,25.20002 -18.6666,8.86667 -41.0667,8.86667 -28.4666,0 -48.5333,-14.46667 -20.0667,-14.46668 -29.4,-39.20003 -8.8667,-24.73335 -5.1334,-55.53337 4.2,-32.20003 21,-56.46671 16.8,-24.73335 41.5334,-38.73336 24.7333,-14.00001 53.2,-14.00001 24.2667,0 40.6001,11.20001 16.8,11.20001 25.2,29.86669 l 6.5333,-36.40003 h 67.2001 l -35.9334,210.00015 q -5.6,36.86669 -23.8,62.53337 -18.2,26.13335 -46.2,39.6667 -27.5334,13.53334 -62.0668,13.53334 -53.2,0 -79.3333,-26.13335 -25.6667,-26.13335 -25.2001,-70.00005 z m 89.6001,-125.06675 q -3.2667,21.46668 7.4667,36.86669 10.7333,14.93334 31.7333,15.40001 18.2,0.46667 35,-12.60001 16.8001,-13.06668 22.4001,-33.13336 l 1.8666,-10.73334 q 1.4,-20.53334 -9.3333,-34.06669 -10.2667,-13.53334 -28.4667,-14.00001 -22.8667,-0.46666 -40.1334,14.93335 -16.8,14.93334 -20.5333,37.33336 z"
       style="font-style:italic;font-weight:bold;font-family:'Jost*';-inkscape-font-specification:'Jost* Bold Italic';fill:#ffffff"
       id="path126573" />
    <path
       d="m 3238.599,418.69998 q 4.2,-33.13336 23.3334,-58.33338 19.1333,-25.20001 48.0667,-39.20002 29.4,-14.46668 63.4667,-14.46668 33.6,0 58.8,14.46668 25.2,14.46667 37.3334,40.13336 12.6,25.20002 8.4,57.40004 -4.2,32.66669 -23.3334,58.33337 -19.1333,25.20002 -48.5333,39.6667 -28.9334,14.00001 -63.0001,14.00001 -33.1333,0 -58.3334,-14.46668 -25.2,-14.93334 -37.8,-40.13336 -12.6,-25.20002 -8.4,-57.40004 z m 71.4001,0 q -2.8,21.00001 7,36.86669 10.2666,15.86668 31.2666,16.33335 21.4667,0.46666 38.2667,-14.93335 16.8001,-15.86668 20.0667,-38.26669 2.8,-21.00002 -7.4666,-37.33336 -9.8001,-16.33335 -30.8001,-16.80001 -14,-0.46667 -26.6,7 -12.6,7.46667 -21,20.06668 -8.4,12.13334 -10.7333,27.06669 z"
       style="font-style:italic;font-weight:bold;font-family:'Jost*';-inkscape-font-specification:'Jost* Bold Italic';fill:#ffffff"
       id="path126570" />
    <path
       d="m 3651.599,384.16662 q -4.6667,-5.13334 -10.7333,-8.40001 -5.6001,-3.26666 -13.5334,-3.26666 -15.4,-0.46667 -27.0667,11.2 -11.2,11.20001 -15.8667,27.06669 l -19.6,115.26675 h -69.0667 l 37.3334,-214.66682 h 68.6 l -5.1333,29.40002 q 11.6667,-15.40001 26.6,-24.73335 14.9334,-9.80001 30.8,-9.80001 11.6667,0 21,5.60001 9.8001,5.13333 15.8667,13.06667 z"
       style="font-style:italic;font-weight:bold;font-family:'Jost*';-inkscape-font-specification:'Jost* Bold Italic';fill:#ffffff"
       id="path126567" />
    <path
       d="m 3682.8644,418.69998 q 4.2,-32.20002 21,-57.40004 16.8001,-25.20002 41.5334,-39.6667 25.2,-14.93334 53.6667,-14.93334 24.7334,0 41.0667,12.13334 16.8,12.13334 25.2,31.26669 l 6.5334,-38.73336 h 69.5333 l -37.3333,214.66682 h -69.0667 l 5.6,-31.73336 q -14.4667,16.80001 -33.6,26.60002 -19.1334,9.80001 -41.5334,9.80001 -28.4667,0 -48.5334,-14.93335 -19.6,-15.40001 -28.9333,-40.60003 -8.8667,-25.66668 -5.1334,-56.4667 z m 72.8001,0 q -3.2667,21.00001 6.5333,37.80002 10.2667,16.80002 31.7334,17.26668 13.5333,0 26.1333,-7.46667 12.6,-7.46667 21.4667,-20.06668 8.8667,-12.60001 11.2,-27.53335 2.8,-21.46668 -7,-37.80003 -9.8,-16.80001 -29.4,-17.26668 -14.4667,-0.46666 -27.5334,7.00001 -13.0666,7.46667 -21.9333,20.53335 -8.8667,12.6 -11.2,27.53335 z"
       style="font-style:italic;font-weight:bold;font-family:'Jost*';-inkscape-font-specification:'Jost* Bold Italic';fill:#ffffff"
       id="path126564" />
    <path
       d="m 3961.4636,418.69998 q 4.2,-32.20002 21,-57.40004 16.8,-25.20002 41.5333,-39.6667 25.2,-14.93334 53.6667,-14.93334 24.7334,0 41.0667,12.13334 16.8,12.13334 25.2,31.26669 l 6.5334,-38.73336 h 69.5334 l -37.3334,214.66682 h -69.0667 l 5.6,-31.73336 q -14.4667,16.80001 -33.6,26.60002 -19.1334,9.80001 -41.5334,9.80001 -28.4667,0 -48.5334,-14.93335 -19.6,-15.40001 -28.9333,-40.60003 -8.8667,-25.66668 -5.1333,-56.4667 z m 72.8,0 q -3.2667,21.00001 6.5333,37.80002 10.2667,16.80002 31.7334,17.26668 13.5333,0 26.1334,-7.46667 12.6,-7.46667 21.4666,-20.06668 8.8667,-12.60001 11.2,-27.53335 2.8,-21.46668 -7,-37.80003 -9.8,-16.80001 -29.4,-17.26668 -14.4667,-0.46666 -27.5333,7.00001 -13.0667,7.46667 -21.9334,20.53335 -8.8667,12.6 -11.2,27.53335 z"
       style="font-style:italic;font-weight:bold;font-family:'Jost*';-inkscape-font-specification:'Jost* Bold Italic';fill:#ffffff"
       id="path126561" />
  </g>
  <metadata
     id="metadata14">
    <rdf:RDF>
      <cc:Work
         rdf:about="">
        <dc:format>image/svg+xml</dc:format>
        <dc:type
           rdf:resource="http://purl.org/dc/dcmitype/StillImage" />
      </cc:Work>
    </rdf:RDF>
  </metadata>
  <defs
     id="defs12" />
  <sodipodi:namedview
     pagecolor="#000000"
     bordercolor="#666666"
     borderopacity="1"
     objecttolerance="10"
     gridtolerance="10"
     guidetolerance="10"
     inkscape:pageopacity="0"
     inkscape:pageshadow="2"
     inkscape:window-width="1366"
     inkscape:window-height="697"
     id="namedview10"
     showgrid="false"
     inkscape:zoom="0.14008155"
     inkscape:cx="2862.6182"
     inkscape:cy="439.02998"
     inkscape:window-x="0"
     inkscape:window-y="0"
     inkscape:window-maximized="1"
     inkscape:current-layer="svg8"
     inkscape:pagecheckerboard="0"
     height="914px" />
  <text
     xml:space="preserve"
     style="font-style:normal;font-weight:normal;font-size:40px;line-height:1.25;font-family:sans-serif;fill:#000000;fill-opacity:1;stroke:none"
     x="1203.7417"
     y="162.07295"
     id="text5379"><tspan
       sodipodi:role="line"
       id="tspan5377"
       x="1203.7417"
       y="162.07295" /></text>
</svg>
