<svg width="436.38" height="389.93" version="1.1" viewBox="0 0 436.38 389.93" xml:space="preserve" xmlns="http://www.w3.org/2000/svg" xmlns:cc="http://creativecommons.org/ns#" xmlns:dc="http://purl.org/dc/elements/1.1/" xmlns:rdf="http://www.w3.org/1999/02/22-rdf-syntax-ns#"><metadata><rdf:RDF><cc:Work rdf:about=""><dc:format>image/svg+xml</dc:format><dc:type rdf:resource="http://purl.org/dc/dcmitype/StillImage"/><dc:title/></cc:Work></rdf:RDF></metadata>
<g transform="matrix(-1,0,0,1,436.38,-23.224)">
		<path d="m340.38 23.224h-133.98c-8.48 0-16.624 3.376-22.624 9.376l-174.4 174.37c-12.496 12.496-12.496 32.752 0 45.264l133.98 133.98c12.496 12.496 32.752 12.496 45.248 0l174.4-174.37c6-6.016 9.376-14.16 9.376-22.656v-133.97c0-17.68-14.32-32-32-32zm-56 112c-13.248 0-24-10.752-24-24s10.752-24 24-24 24 10.752 24 24-10.752 24-24 24z"/>
</g>
<g transform="matrix(-1,0,0,1,436.38,-23.224)">
		<path d="m404.38 55.224-0.016 148.94c0 7.376-2.928 14.464-8.16 19.68l-177.22 177.22 2.72 2.72c12.496 12.496 32.752 12.496 45.248 0l160.03-160c6.016-6 9.392-14.144 9.392-22.624v-133.94c0-17.68-14.32-32-32-32z"/>
</g>
</svg>
