<svg width="420.38" height="393.6" version="1.1" viewBox="0 0 420.38 393.6" xml:space="preserve" xmlns="http://www.w3.org/2000/svg" xmlns:cc="http://creativecommons.org/ns#" xmlns:dc="http://purl.org/dc/elements/1.1/" xmlns:rdf="http://www.w3.org/1999/02/22-rdf-syntax-ns#"><metadata><rdf:RDF><cc:Work rdf:about=""><dc:format>image/svg+xml</dc:format><dc:type rdf:resource="http://purl.org/dc/dcmitype/StillImage"/><dc:title/></cc:Work></rdf:RDF></metadata>
<g transform="matrix(-1 0 0 1 420.38 -13.39)">
		<path d="m372.38 45.351c-0.022-17.655-14.337-31.961-31.996-31.961h-133.98c-8.486 0-16.624 3.37-22.625 9.37l-174.4 174.37c-12.499 12.496-12.5 32.758-3e-3 45.257l133.98 133.98c6.248 6.248 14.438 9.373 22.628 9.373 5.155 0 10.254-1.384 14.925-3.86 17.094-14.077-8.197 10.383 182.1-179.88 6.003-6.002 9.375-14.142 9.375-22.63 0-135.9 1e-3 -112.68-4e-3 -134.02zm-15.996 134.01c0 4.274-1.665 8.293-4.687 11.315l-174.4 174.37c-3.022 3.022-7.04 4.686-11.314 4.686s-8.291-1.665-11.314-4.686l-133.98-133.98c-3.022-3.022-4.686-7.041-4.686-11.314 0-4.274 1.665-8.292 4.687-11.314l174.4-174.37c3.022-3.021 7.039-4.685 11.313-4.685h133.98c8.822 0 16 7.178 16 16v133.98z"/>
</g>
<g transform="matrix(-1 0 0 1 420.38 -13.39)">
		<path d="m404.38 45.39v149.97c0 4.274-1.665 8.293-4.687 11.315l-189.03 189 11.313 11.314 189.03-188.99c6.003-6.002 9.375-14.142 9.375-22.63v-149.97z"/>
</g>
<g transform="matrix(-1 0 0 1 420.38 -13.39)">
		<path d="m284.38 69.39c-17.641 0-32 14.351-32 32s14.359 32 32 32 32-14.351 32-32-14.36-32-32-32zm0 48c-8.828 0-16-7.18-16-16s7.172-16 16-16 16 7.18 16 16-7.172 16-16 16z"/>
</g>
</svg>
