<svg id="anna_vital_language_icon" width="750" height="783.75" enable-background="new 0 0 256 256" fill="#000000" version="1.1" viewBox="0 0 240 250.8" xml:space="preserve" xmlns="http://www.w3.org/2000/svg">

<path class="translation-icon-color" d="m154.88 136.44-7.3207-13.699q5.663-0.95033 13.822-0.94378 8.1608-0.12551 18.16 2.6456 9.2179 2.5546 16.37 6.7912 7.1524 4.2366 11.148 9.7202 4.1534 5.3948 4.0581 11.601l-0.66155 43.05-19.686-5.4555 0.12785-8.3195q-3.354 3.8447-10.111 4.492-6.5984 0.55847-13.785-1.4332-6.8744-1.9051-12.621-5.7521-5.7462-3.847-9.1185-9.0253-3.3702-5.3104-3.2748-11.517 0.13393-8.7156 7.5562-11.831 7.4242-3.2472 20.861 0.47641 6.8744 1.9051 12.012 4.5224 5.2938 2.6606 8.8628 5.2411l0.0954-6.2066q0.0771-5.0181-3.7943-8.3455-3.7152-3.2841-10.433-5.1459-7.4993-2.0783-13.779-1.8294-6.2799 0.24891-8.4875 0.96329zm7.5906 26.77q-0.0629 4.0937 3.1835 7.2479 3.2485 3.0221 8.4043 4.451 6.8744 1.9051 11.927-0.1428 5.0543-2.18 5.1578-8.9148-6.99-4.5895-15.271-6.8843-7.0306-1.9484-10.188-0.70147-3.1552 1.1149-3.214 4.9445zm58.334-163.21-109.7 36.5-81.2-28.7v55.7l-29.9 10 5.3075e-8 177.3 128.4-42.7 111.6 36.4-1e-5 -165.3-19.2-6.1zm-11.9 16.4v52.9l-81.3-25.9zm-95.2 31.6v152.3l-101.9 33.9v-152.2zm-53.392 37.556-39.332 118.51 18.918-6.6181 7.9581-25.088 27.854-9.7444 8.87 19.202 18.918-6.6175zm0.68 37.878 10.485 24.566-19.962 6.9831z" stroke-width=".35986"/></svg>
