<svg version="1.1" viewBox="0 0 320.05 432" xml:space="preserve" xmlns="http://www.w3.org/2000/svg" xmlns:cc="http://creativecommons.org/ns#" xmlns:dc="http://purl.org/dc/elements/1.1/" xmlns:rdf="http://www.w3.org/1999/02/22-rdf-syntax-ns#"><metadata><rdf:RDF><cc:Work rdf:about=""><dc:format>image/svg+xml</dc:format><dc:type rdf:resource="http://purl.org/dc/dcmitype/StillImage"/><dc:title/></cc:Work></rdf:RDF></metadata>
<g transform="translate(-55.978)" shape-rendering="auto"><path d="m160.02 332s0-28-38.4-62c-33.6-28-58.8-70.8-57.6-118.4 2.4-80 73.6-144.4 153.6-143.6 80.8 0.8 150.4 66.8 150.4 148 0 47.6-22.4 89.6-56.8 116.8-38.8 30.4-39.2 59.2-39.2 59.2" color="#000000" color-rendering="auto" dominant-baseline="auto" fill="#ffe53c" image-rendering="auto" solid-color="#000000" stop-color="#000000" style="font-feature-settings:normal;font-variant-alternates:normal;font-variant-caps:normal;font-variant-east-asian:normal;font-variant-ligatures:normal;font-variant-numeric:normal;font-variant-position:normal;font-variation-settings:normal;inline-size:0;isolation:auto;mix-blend-mode:normal;shape-margin:0;shape-padding:0;text-decoration-color:#000000;text-decoration-line:none;text-decoration-style:solid;text-indent:0;text-orientation:mixed;text-transform:none;white-space:normal"/><g fill="#c39215">
	<path d="m272.02 340c-4.4 0-8-3.6-8-8 0-1.2 0.8-32.8 42.4-65.2 34-27.2 53.6-67.6 53.6-110.8 0-75.2-65.2-139.2-142.4-140h-1.6c-76 0-142 62-144 136-1.2 40.8 19.6 82.8 54.8 112 40.8 36 41.2 66.8 41.2 68 0 4.4-3.6 8-8 8s-8-3.6-8-8c0-0.4-1.2-25.6-35.6-56-38.8-32.4-61.6-79.2-60.4-124.8 2.4-82.4 75.6-151.2 160-151.2h1.6c86 0.8 158.4 72.4 158.4 156 0 48-22 93.2-60 123.2-34.8 27.2-36 52.8-36 52.8 0 4.4-3.6 8-8 8z" color="#000000" color-rendering="auto" dominant-baseline="auto" image-rendering="auto" solid-color="#000000" stop-color="#000000" style="font-feature-settings:normal;font-variant-alternates:normal;font-variant-caps:normal;font-variant-east-asian:normal;font-variant-ligatures:normal;font-variant-numeric:normal;font-variant-position:normal;font-variation-settings:normal;inline-size:0;isolation:auto;mix-blend-mode:normal;shape-margin:0;shape-padding:0;text-decoration-color:#000000;text-decoration-line:none;text-decoration-style:solid;text-indent:0;text-orientation:mixed;text-transform:none;white-space:normal"/>
	<path d="m228.02 336c-0.8 0-1.2 0-2-0.4-4.4-1.2-6.8-5.6-5.6-9.6l32-124c1.2-4.4 5.6-6.8 9.6-5.6 4.4 1.2 6.8 5.6 5.6 9.6l-32 124c-0.8 3.6-4 6-7.6 6z" color="#000000" color-rendering="auto" dominant-baseline="auto" image-rendering="auto" solid-color="#000000" stop-color="#000000" style="font-feature-settings:normal;font-variant-alternates:normal;font-variant-caps:normal;font-variant-east-asian:normal;font-variant-ligatures:normal;font-variant-numeric:normal;font-variant-position:normal;font-variation-settings:normal;inline-size:0;isolation:auto;mix-blend-mode:normal;shape-margin:0;shape-padding:0;text-decoration-color:#000000;text-decoration-line:none;text-decoration-style:solid;text-indent:0;text-orientation:mixed;text-transform:none;white-space:normal"/>
	<path d="m200.02 336c-3.6 0-6.8-2.4-7.6-6l-32-124c-1.2-4.4 1.6-8.8 5.6-9.6 4.4-1.2 8.8 1.6 9.6 5.6l32 124c1.2 4.4-1.6 8.8-5.6 9.6-0.8 0.4-1.2 0.4-2 0.4z" color="#000000" color-rendering="auto" dominant-baseline="auto" image-rendering="auto" solid-color="#000000" stop-color="#000000" style="font-feature-settings:normal;font-variant-alternates:normal;font-variant-caps:normal;font-variant-east-asian:normal;font-variant-ligatures:normal;font-variant-numeric:normal;font-variant-position:normal;font-variation-settings:normal;inline-size:0;isolation:auto;mix-blend-mode:normal;shape-margin:0;shape-padding:0;text-decoration-color:#000000;text-decoration-line:none;text-decoration-style:solid;text-indent:0;text-orientation:mixed;text-transform:none;white-space:normal"/>
</g><path d="m139.62 188c22.8-14 49.6-21.6 77.6-21.6 26.8 0.4 52 7.6 74 20.4" color="#000000" color-rendering="auto" dominant-baseline="auto" fill="#ffe53c" image-rendering="auto" solid-color="#000000" stop-color="#000000" style="font-feature-settings:normal;font-variant-alternates:normal;font-variant-caps:normal;font-variant-east-asian:normal;font-variant-ligatures:normal;font-variant-numeric:normal;font-variant-position:normal;font-variation-settings:normal;inline-size:0;isolation:auto;mix-blend-mode:normal;shape-margin:0;shape-padding:0;text-decoration-color:#000000;text-decoration-line:none;text-decoration-style:solid;text-indent:0;text-orientation:mixed;text-transform:none;white-space:normal"/><path d="m139.62 196c-2.8 0-5.2-1.2-6.8-4-2.4-3.6-1.2-8.8 2.8-11.2 24.4-14.8 52.4-22.8 81.6-22.8 27.6 0.4 54.4 8 78 21.6 4 2.4 5.2 7.2 2.8 10.8-2.4 4-7.2 5.2-10.8 2.8-21.2-12.4-45.2-18.8-70-19.2-26 0-51.6 7.2-73.2 20.4-1.6 1.2-2.8 1.6-4.4 1.6z" color="#000000" color-rendering="auto" dominant-baseline="auto" fill="#c39215" image-rendering="auto" solid-color="#000000" stop-color="#000000" style="font-feature-settings:normal;font-variant-alternates:normal;font-variant-caps:normal;font-variant-east-asian:normal;font-variant-ligatures:normal;font-variant-numeric:normal;font-variant-position:normal;font-variation-settings:normal;inline-size:0;isolation:auto;mix-blend-mode:normal;shape-margin:0;shape-padding:0;text-decoration-color:#000000;text-decoration-line:none;text-decoration-style:solid;text-indent:0;text-orientation:mixed;text-transform:none;white-space:normal"/><path d="m272.02 332-6.4 50.4c-3.2 24-23.6 41.6-47.6 41.6h-3.6c-24 0-44.4-18-47.6-41.6l-6.8-50.4z" color="#000000" color-rendering="auto" dominant-baseline="auto" fill="#939598" image-rendering="auto" solid-color="#000000" stop-color="#000000" style="font-feature-settings:normal;font-variant-alternates:normal;font-variant-caps:normal;font-variant-east-asian:normal;font-variant-ligatures:normal;font-variant-numeric:normal;font-variant-position:normal;font-variation-settings:normal;inline-size:0;isolation:auto;mix-blend-mode:normal;shape-margin:0;shape-padding:0;text-decoration-color:#000000;text-decoration-line:none;text-decoration-style:solid;text-indent:0;text-orientation:mixed;text-transform:none;white-space:normal"/><path d="m218.02 432h-3.6c-28 0-51.6-20.8-55.6-48.4l-6.8-50.4c-0.4-2.4 0.4-4.4 2-6.4s3.6-2.8 6-2.8h112c2.4 0 4.4 0.8 6 2.8 1.6 1.6 2.4 4 2 6.4l-6.4 50.4c-3.6 27.6-27.6 48.4-55.6 48.4zm-48.8-92 5.6 41.2c2.8 19.6 19.6 34.8 39.6 34.8h3.6c20 0 37.2-14.8 39.6-34.8l5.2-41.2z" color="#000000" color-rendering="auto" dominant-baseline="auto" fill="#6d6e71" image-rendering="auto" solid-color="#000000" stop-color="#000000" style="font-feature-settings:normal;font-variant-alternates:normal;font-variant-caps:normal;font-variant-east-asian:normal;font-variant-ligatures:normal;font-variant-numeric:normal;font-variant-position:normal;font-variation-settings:normal;inline-size:0;isolation:auto;mix-blend-mode:normal;shape-margin:0;shape-padding:0;text-decoration-color:#000000;text-decoration-line:none;text-decoration-style:solid;text-indent:0;text-orientation:mixed;text-transform:none;white-space:normal"/></g>
</svg>
