<?xml version="1.0" encoding="UTF-8"?>
<svg width="369.8" height="380.72" version="1.1" viewBox="0 0 369.8 380.72" xml:space="preserve" xmlns="http://www.w3.org/2000/svg" xmlns:cc="http://creativecommons.org/ns#" xmlns:dc="http://purl.org/dc/elements/1.1/" xmlns:rdf="http://www.w3.org/1999/02/22-rdf-syntax-ns#"><metadata><rdf:RDF><cc:Work rdf:about=""><dc:format>image/svg+xml</dc:format><dc:type rdf:resource="http://purl.org/dc/dcmitype/StillImage"/><dc:title/></cc:Work></rdf:RDF></metadata>
<g transform="translate(-5.4602)">
		<path d="m369.02 70.229c-8.772-9.422-23.517-9.957-32.95-1.173l-115.24 107.25c-1.197 1.121-2.23 2.324-3.148 3.608-23.912 3.102-65.379 12.629-94.692 41.932-37.523 37.539-109.9 123.3-112.96 126.92-6.919 8.202-5.873 20.472 2.324 27.385 3.654 3.067 8.104 4.566 12.513 4.566 5.537 0 11.021-2.348 14.86-6.902 0.75-0.883 74.36-88.115 110.74-124.51 31.126-31.114 85.856-32.043 86.368-32.043 4.09-0.023 7.854-1.325 10.979-3.498 1.696-0.918 3.312-1.986 4.787-3.357l115.23-107.24c9.411-8.766 9.935-23.522 1.174-32.945z"/>
		<path d="m185.01 120.25 1.249 0.023c1.598 0 3.201-0.215 4.798-0.424 4.712 4.566 42.217 40.642 45.796 37.069 3.753-3.758-26.526-41.711-23.4-45.783 0.175-0.093 0.325-0.198 0.477-0.296 5.286-1.888 37.877 22.407 40.409 20.821 2.173-1.354-14.384-29.587-16.916-40.009 1.08-1.086 2.172-2.155 3.218-3.236 9.052 4.188 32.323 26.566 35.716 23.173 3.881-3.892-19.508-38.94-17.277-42.629 2.243-3.689 35.729 28.721 39.295 25.154 3.566-3.573-20.844-39.062-16.592-43.343 4.276-4.27 34.961 28.198 37.947 25.195 1.939-1.923-4.74-18.88-13.129-30.882l2.103-3.823c5.67-10.276 3.241-18.532 0.221-23.661-6.125-10.353-21.044-17.597-36.241-17.597-11.362 0-21.099 3.974-27.432 11.195-3.393 3.904-8.26 9.911-13.907 16.87-15.139 18.718-43.349 53.539-52.284 55.456-11.368 2.428-21.756-5.78-25.805-14.099l-3.009-6.187-3.735 5.769c-4.578 7.059-4.032 19.159 1.295 29.424 4.072 7.79 14.279 20.989 37.203 21.82zm-4.316-29.123c10.729-2.301 32.027-27.699 56.705-58.169 5.554-6.867 10.352-12.804 13.71-16.644 4.821-5.507 12.479-8.545 21.575-8.545 12.409 0 24.83 5.81 29.535 13.803 2.08 3.485 2.626 7.209 1.639 11.113-3.393-2.486-7.204-3.782-11.259-3.782-12.327 0-22.889 11.334-28.071 18.096l-2.242 2.998c-17.137 23.197-32.684 39.986-46.521 50.292l-0.349 0.25c-10.76 7.947-20.508 11.956-29.129 11.956l-0.976-0.012c-19.002-0.691-27.333-11.352-30.592-17.631-2.678-5.106-3.677-10.294-3.521-14.506 7.415 8.719 18.69 13.076 29.496 10.781z"/>
</g>
</svg>
