<svg width="352.06" height="512" version="1.1" viewBox="0 0 352.06 512" xml:space="preserve" xmlns="http://www.w3.org/2000/svg" xmlns:cc="http://creativecommons.org/ns#" xmlns:dc="http://purl.org/dc/elements/1.1/" xmlns:rdf="http://www.w3.org/1999/02/22-rdf-syntax-ns#"><metadata><rdf:RDF><cc:Work rdf:about=""><dc:format>image/svg+xml</dc:format><dc:type rdf:resource="http://purl.org/dc/dcmitype/StillImage"/><dc:title/></cc:Work></rdf:RDF></metadata>
<polygon transform="translate(-79.972)" points="152.39 86.357 116.69 135.64 95.079 494.64 277.35 494.64 255.74 135.64 220.03 86.357" fill="#77d057"/>
<path d="m175.76 135.63-35.693-49.273h5.424c2.07 0 3.697-1.77 3.522-3.833l-6.694-79.115c-0.155-1.83-1.685-3.237-3.522-3.237h-65.103c-1.837 0-3.367 1.407-3.522 3.237l-6.694 79.115c-0.174 2.062 1.452 3.833 3.522 3.833h5.424l-35.693 49.273z" fill="#e9eaeb"/>
<path d="m264.06 150.51h66.641v-134.52h-66.641c-2.774 0-5.023 2.249-5.023 5.023v124.47c0 2.774 2.249 5.023 5.023 5.023z" fill="#fed130"/>
<path d="m325.05 250.26v-244.23c0-3.334 2.702-6.036 6.036-6.036h14.937c3.334 0 6.036 2.702 6.036 6.036v505.96h-26.81c-10.263 0-18.362-8.724-17.6-18.959l16.737-224.89c0.442-5.952 0.664-11.918 0.664-17.886z" fill="#fd9727"/>
<polygon transform="translate(-79.972)" points="163.34 86.357 199.04 135.64 220.65 494.64 277.35 494.64 255.74 135.64 220.03 86.357" fill="#62b240"/>
<polygon transform="translate(-79.972)" points="220.03 86.357 163.34 86.357 199.03 135.63 255.73 135.63 246.37 122.71" fill="#d9dde2"/>
<path d="m145.49 86.357h-78.492c-2.07 0-3.697-1.77-3.522-3.833l6.694-79.115c0.155-1.83 1.685-3.237 3.522-3.237h65.103c1.837 0 3.367 1.407 3.522 3.237l6.694 79.115c0.175 2.062-1.452 3.833-3.521 3.833z" fill="#fd9727"/>
<path d="m142.32 3.409c-0.155-1.83-1.685-3.237-3.522-3.237h-52.549l7.292 86.185h51.95c2.07 0 3.697-1.77 3.522-3.833z" fill="#f9662b"/>
<path d="m208.13 511.79h-203.78c-2.402 0-4.349-1.947-4.349-4.349v-11.94c0-8.356 6.774-15.129 15.129-15.129h182.22c8.356 0 15.129 6.773 15.129 15.129v11.94c0 2.402-1.946 4.349-4.348 4.349z" fill="#00c67f"/>
<path d="m197.35 480.37h-40.668v31.418h51.448c2.402 0 4.349-1.947 4.349-4.349v-11.94c0-8.355-6.773-15.129-15.129-15.129z" fill="#00ad6b"/>
<circle cx="106.24" cy="290.5" r="51.1" fill="#fff"/>
<path d="m108.8 239.46c-11.24-0.55-21.722 2.548-30.394 8.193 14.002 9.115 23.267 24.894 23.267 42.847s-9.265 33.732-23.267 42.847c8.01 5.215 17.565 8.256 27.836 8.256 28.872 0 52.151-23.943 51.066-53.056-0.979-26.29-22.231-47.801-48.508-49.087z" fill="#d9dde2"/>
<g transform="translate(-79.972)" fill="#fca629">
	<path d="m369.1 77.604c4.267 0 7.726-3.459 7.726-7.726s-3.459-7.726-7.726-7.726h-30.09v15.451z"/>
	<path d="m376.83 42.401c0-4.267-3.459-7.726-7.726-7.726h-30.09v15.451h30.09c4.267 1e-3 7.726-3.458 7.726-7.725z"/>
	<path d="m369.1 105.08c4.267 0 7.726-3.459 7.726-7.726s-3.459-7.726-7.726-7.726h-30.09v15.451z"/>
	<path d="m369.1 132.56c4.267 0 7.726-3.459 7.726-7.726s-3.459-7.726-7.726-7.726h-30.09v15.451z"/>
</g>
</svg>
