<?xml version="1.0" encoding="UTF-8"?>
<svg width="490" height="512" enable-background="new 0 0 512 512" version="1.1" viewBox="0 0 490 512" xmlns="http://www.w3.org/2000/svg" xmlns:cc="http://creativecommons.org/ns#" xmlns:dc="http://purl.org/dc/elements/1.1/" xmlns:rdf="http://www.w3.org/1999/02/22-rdf-syntax-ns#">
 <metadata>
  <rdf:RDF>
   <cc:Work rdf:about="">
    <dc:format>image/svg+xml</dc:format>
    <dc:type rdf:resource="http://purl.org/dc/dcmitype/StillImage"/>
    <dc:title/>
   </cc:Work>
  </rdf:RDF>
 </metadata>
 <g transform="translate(-10.998)">
  <path d="m256 21.996c-135.31 0-245 109.69-245 245 0 72.064 31.117 136.86 80.643 181.69l196.4 61.23c4.475-0.585 8.909-1.297 13.305-2.12l86.395-34.196c68.106-43.518 113.26-119.78 113.26-206.6-1e-3 -135.31-109.69-245-245-245z" fill="#2a428c"/>
  <path d="m222.24 0c-31.447 0-57.031 25.584-57.031 57.03v6.871h45v-6.871c0-6.634 5.397-12.03 12.031-12.03 6.633 0 12.03 5.396 12.03 12.03v17.97c0 12.427 10.074 22.5 22.5 22.5s22.5-10.073 22.5-22.5v-17.97c0-31.446-25.584-57.03-57.03-57.03z" fill="#73c3f9"/>
  <path d="m267.12 94.974c-11.667-3.487-11.123-14.491-11.123-14.491v-20.83c0-5.281-0.946-10.547-3.039-15.395-7.587-17.572-23.832-19.954-30.724-19.954-2.824 0-5.224 0.42-7.152 0.966-6.252 1.771-12.968-1.47-14.881-7.68-1.631-5.294 0.287-10.597 2.068-13.975-21.627 8.111-37.064 28.991-37.064 53.415v6.871h45v-6.871c0-6.634 5.397-12.03 12.031-12.03 6.633 0 12.03 5.396 12.03 12.03v17.97c0 12.427 10.074 22.5 22.5 22.5 3.734 0 7.253-0.915 10.354-2.526z" fill="#4fabf7"/>
  <path d="m221.64 144.57h-67.863v-74.147c0-4.707 3.816-8.523 8.523-8.523h50.818c4.707 0 8.523 3.816 8.523 8.523v74.147z" fill="#e9efff"/>
  <path d="m196.23 61.901h-33.932c-4.707 0-8.523 3.816-8.523 8.523v74.147h33.932v-74.147c0-4.708 3.816-8.523 8.523-8.523z" fill="#d3dcfb"/>
  <path d="m187.71 181.94c17.145 0 34.291 0.656 48.275 1.311h29.306c0-4.65-2.395-8.988-6.351-11.432-15.671-9.683-27.476-19.506-33.284-25.885-2.686-2.95-6.475-4.636-10.465-4.636h-54.961c-3.99 0-7.779 1.686-10.465 4.636-5.809 6.38-17.613 16.202-33.284 25.885-3.956 2.445-6.351 6.782-6.351 11.432h29.297c13.984-0.656 31.133-1.311 48.283-1.311z" fill="#d3dcfb"/>
  <path d="m149.76 145.93c-5.809 6.38-17.613 16.202-33.284 25.885-3.956 2.445-6.352 6.782-6.352 11.432h29.297c8.949-0.419 19.197-0.838 29.91-1.086 0.744-0.872 1.223-1.338 1.223-1.338-12.333-23.661 17.152-39.529 17.152-39.529h-27.48c-3.991 0-7.78 1.686-10.466 4.636z" fill="#bec8f7"/>
  <path d="m265.29 183.25c-8.999 0-43.291-2.622-77.581-2.622-34.3 0-68.598 2.622-77.581 2.622l-18.486 265.44c16.957 15.35 36.081 28.345 56.845 38.504l78.475 23.089-8e-3 0.015c9.526 1.126 19.218 1.707 29.047 1.707 10.86 0 21.552-0.716 32.038-2.085z" fill="#e9efff"/>
  <path d="m256 512c10.86 0 21.552-0.716 32.038-2.085l-3.014-43.284c-42.865 17.481-58.063-20.148-58.063-20.148l-14.567 59.51 14.567 4.286-8e-3 0.015c9.526 1.125 19.218 1.706 29.047 1.706z" fill="#d3dcfb"/>
  <path d="m167.54 224.54c-17.015-24.272 3.014-43.721 3.014-43.721-27.947 0.609-52.953 2.423-60.428 2.423l-18.485 265.44c16.957 15.35 36.081 28.345 56.845 38.504l19.054 5.606z" fill="#d3dcfb"/>
  <path d="m372.37 165.88-44.417 13.393c-5.288 1.594-8.281 7.171-6.688 12.461 1.595 5.288 7.174 8.282 12.461 6.688l38.643-11.652z" fill="#38c674"/>
  <path d="m372.37 169.79-38.643-11.652c-5.287-1.595-10.866 1.399-12.461 6.688-1.594 5.29 1.399 10.867 6.688 12.461l44.417 13.393z" fill="#50dd89"/>
  <path d="m346.9 162.11c-0.05 0.743 0.118 1.496 0.529 2.15 2.235 3.546 5.723 11.406-1.23 18.528l26.166 7.89v-20.889z" fill="#38c674"/>
  <path d="m372.37 149.18-38.643-11.652c-5.287-1.595-10.866 1.399-12.461 6.688-1.594 5.29 1.399 10.867 6.688 12.461l44.417 13.393v-20.89z" fill="#d3dcfb"/>
  <path d="m347.29 143.49c1.864 3.05 4.703 9.674 0.164 16.887-0.385 0.611-0.574 1.309-0.568 2.004l25.478 7.683v-20.89l-25.606-7.721c-0.023 0.706 0.153 1.417 0.532 2.037z" fill="#bec8f7"/>
  <path d="m372.37 128.56-38.643-11.652c-5.287-1.595-10.866 1.399-12.461 6.688-1.594 5.29 1.399 10.867 6.688 12.461l44.417 13.393z" fill="#50dd89"/>
  <path d="m346.95 120.9c-0.107 0.764 0.019 1.557 0.395 2.267 1.643 3.099 3.808 9.388-0.168 16.698-0.315 0.579-0.452 1.225-0.423 1.865l25.609 7.722v-20.889z" fill="#38c674"/>
  <path d="m372.37 107.95-38.643-11.652c-5.287-1.595-10.866 1.399-12.461 6.687-1.594 5.29 1.4 10.867 6.688 12.461l44.417 13.393v-20.889z" fill="#d3dcfb"/>
  <path d="m347.15 102.37c1.787 3.394 4.719 10.794 0.429 16.932-0.394 0.564-0.612 1.211-0.655 1.87l25.447 7.673v-20.889l-25.626-7.727c-0.081 0.725 0.054 1.474 0.405 2.141z" fill="#bec8f7"/>
  <path d="m372.37 87.343-38.643-11.652c-5.287-1.595-10.866 1.399-12.461 6.688-1.594 5.29 1.399 10.867 6.688 12.461l44.417 13.393z" fill="#50dd89"/>
  <path d="m346.92 79.67c-0.038 0.74 0.14 1.489 0.547 2.145 1.888 3.038 4.471 9.387-0.235 16.963-0.327 0.527-0.495 1.12-0.516 1.72l25.649 7.734v-20.889z" fill="#38c674"/>
  <path d="m372.37 66.732-38.643-11.652c-5.287-1.595-10.866 1.399-12.461 6.687-1.594 5.29 1.4 10.867 6.688 12.461l44.417 13.393v-20.889z" fill="#d3dcfb"/>
  <path d="m347.54 61.14c1.89 3.21 4.402 9.661-0.068 16.769-0.392 0.623-0.573 1.332-0.556 2.038l25.452 7.675v-20.89l-25.337-7.64c-0.03 0.702 0.135 1.412 0.509 2.048z" fill="#bec8f7"/>
  <path d="m321.26 41.156c-1.594 5.29 1.399 10.867 6.688 12.461l44.417 13.393v-20.808c0-0.027 5e-3 -0.053 6e-3 -0.08l-38.649-11.654c-5.289-1.594-10.868 1.4-12.462 6.688z" fill="#50dd89"/>
  <path d="m347.67 38.673c-0.178 0.867-0.054 1.802 0.421 2.63 2.007 3.493 4.173 9.641-0.326 15.72-0.515 0.695-0.755 1.523-0.729 2.348l25.333 7.638v-20.807c0-0.027 5e-3 -0.053 6e-3 -0.08z" fill="#38c674"/>
  <path d="m187.71 356.16c-16.475 0-30.969 8.604-39.254 21.547v109.47c24.199 11.842 50.636 19.807 78.507 23.099v-132.57c-8.285-12.943-22.779-21.547-39.253-21.547z" fill="#ff4155"/>
  <path d="m148.45 237.93v94.9c8.928-11.978 23.2-19.75 39.254-19.75s30.325 7.772 39.253 19.75v-94.9c0-7.362-6.024-13.386-13.386-13.386h-51.736c-7.362 0-13.385 6.024-13.385 13.386z" fill="#73c3f9"/>
  <path d="m187.71 357.66c16.785 0 31.494 9.302 39.254 23v-50.203c-9.264-11.488-23.435-18.876-39.254-18.876s-29.989 7.388-39.254 18.876v50.203c7.76-13.698 22.469-23 39.254-23z" fill="#4fabf7"/>
  <path d="m306.61 474.06c10.182-10.532 35.069-40.506 35.07-81.869 0-28.861-5.188-47.659-9.805-58.674-1.979-4.72-2.573-9.803-1.881-14.724-6.496 1.93-12.145 5.262-16.808 8.894-9.329 7.268-13.491 19.977-10.426 31.815 10.723 41.421 4.348 78.618-0.608 97.629-1.757 6.742-0.863 13.851 2.29 19.819 0.606-1.037 1.321-2.014 2.168-2.89z" fill="#e9efff"/>
  <path d="m341.55 384.6c-19.71 19.557-34.427-2.189-34.427-2.189l-1e-3 1e-3c3.997 31.904-0.956 59.293-4.975 74.715-1.757 6.742-0.863 13.851 2.29 19.819 0.605-1.036 1.32-2.013 2.167-2.889 10.182-10.532 35.07-40.506 35.07-81.869 1e-3 -2.613-0.043-5.139-0.124-7.588z" fill="#d3dcfb"/>
  <path d="m380.09 197.69c-2.357 0.613-4.72 0.188-6.528-0.908-0.294 8.93-3.611 54.496-40.185 110.33-5.145 7.855-6.139 17.738-2.509 26.399 4.617 11.015 9.805 29.813 9.805 58.674 0 41.363-24.888 71.338-35.07 81.869-2.746 2.841-4.264 6.646-4.264 10.597v23.139c31.3-5.858 60.507-17.654 86.395-34.196-0.727-17.508-2.541-34.958-5.525-52.236-4.526-26.2-7.92-67.4 5.894-101.67 21.213-52.629 18.392-104.45 9.84-130.4-5.392 4.489-12.498 7.005-17.853 8.397z" fill="#50dd89"/>
  <path d="m386.85 458.84c-0.551 0.158-1.094 0.305-1.627 0.44-15.219 3.849-29.615-8.775-28.15-24.404 3.714-39.615-4.098-93.215 4.978-116.08 10-25.191 19.75-65.31 23-82.06 2.76-14.223 15.097-15.106 18.759-15.049-0.951-12.928-3.107-24.013-5.868-32.389-5.393 4.49-12.499 7.006-17.854 8.398-2.357 0.613-4.72 0.188-6.528-0.908-0.294 8.93-3.611 54.496-40.184 110.33-5.146 7.855-6.139 17.738-2.509 26.399 4.617 11.015 9.805 29.813 9.805 58.674 0 41.363-24.888 71.338-35.07 81.869-2.746 2.841-4.264 6.646-4.264 10.597v23.139c31.3-5.858 60.507-17.654 86.395-34.196-0.204-4.927-0.505-9.849-0.883-14.764z" fill="#38c674"/>
  <path d="m370.37 46.202v147.29c0 4.365 4.882 7.463 9.725 6.204 9.885-2.57 25.754-8.955 25.754-24.558v-110.58c0-15.602-15.869-21.988-25.754-24.558-4.843-1.258-9.725 1.84-9.725 6.205z" fill="#e9efff"/>
  <path d="m388.11 70.238c0-4.365 4.882-7.463 9.726-6.204 2.419 0.629 5.198 1.489 8.014 2.654v-2.133c0-15.602-15.869-21.988-25.754-24.558-4.843-1.259-9.725 1.839-9.725 6.204v147.29c0 4.365 4.882 7.463 9.725 6.204 2.42-0.629 5.198-1.489 8.014-2.654z" fill="#d3dcfb"/>
  <path d="m226.96 510.28v-63.796c-60.594 25-78.507-23.5-78.507-23.5v64.197c24.198 11.842 50.635 19.807 78.507 23.099z" fill="#e80054"/>
 </g>
</svg>
