<svg width="490.68" height="403.26" version="1.1" viewBox="0 0 490.68 403.26" xml:space="preserve" xmlns="http://www.w3.org/2000/svg" xmlns:cc="http://creativecommons.org/ns#" xmlns:dc="http://purl.org/dc/elements/1.1/"
              xmlns:rdf="http://www.w3.org/1999/02/22-rdf-syntax-ns#">
              <metadata>
                <rdf:RDF>
                  <cc:Work rdf:about="">
                    <dc:format>image/svg+xml</dc:format>
                    <dc:type rdf:resource="http://purl.org/dc/dcmitype/StillImage" />
                    <dc:title />
                  </cc:Work>
                </rdf:RDF>
              </metadata>
              <path
                d="m487.86 49.229c-3.262-3.567-8.514-4.494-12.8-2.261-4.406 2.002-8.964 3.65-13.632 4.928 7.28-9.316 12.777-19.897 16.213-31.211 1.513-5.693-1.876-11.535-7.569-13.048-3.04-0.808-6.281-0.233-8.857 1.571-16.219 8.777-33.458 15.52-51.328 20.075-36.787-34.722-92.823-39.05-134.51-10.389-32.109 21.71-49.786 59.232-46.08 97.813-69.603-5.931-133.64-40.422-176.9-95.275-2.222-2.688-5.584-4.168-9.067-3.989-3.532 0.212-6.728 2.162-8.533 5.205-14.68 23.997-18.933 52.944-11.776 80.149 3.67 13.978 9.961 27.132 18.539 38.763-3.864-1.892-7.5-4.218-10.837-6.933-4.575-3.711-11.292-3.011-15.004 1.564-1.54 1.899-2.382 4.269-2.383 6.714 0.634 39.467 22.306 75.588 56.832 94.72-4.658-0.572-9.256-1.557-13.739-2.944-5.641-1.697-11.59 1.5-13.287 7.141-0.74 2.461-0.567 5.107 0.487 7.451 14.985 33.566 44.943 58.084 80.811 66.133-34.173 19.28-73.523 27.381-112.53 23.168-5.058-0.646-9.85 2.429-11.371 7.296-1.568 4.829 0.484 10.093 4.907 12.587 47.765 28.38 102.1 43.82 157.65 44.8 53.294-0.195 105.34-16.113 149.63-45.76 84.544-56.107 137.24-156.84 129.9-246.98 18.077-13.381 33.758-29.725 46.379-48.341 2.593-4.081 2.121-9.394-1.153-12.951z"
                fill="#03a9f4" />
              <path
                d="m163.08 403.19c-55.552-0.976-109.89-16.417-157.65-44.8-4.423-2.493-6.475-7.758-4.907-12.587 1.617-4.794 6.337-7.832 11.371-7.317 39.01 4.216 78.361-3.885 112.53-23.168-35.867-8.05-65.826-32.567-80.811-66.133-2.431-5.366-0.052-11.687 5.314-14.118 2.353-1.066 5.013-1.242 7.486-0.495 4.483 1.394 9.08 2.386 13.739 2.965-34.497-19.12-56.164-55.199-56.832-94.635 3e-3 -5.891 4.782-10.664 10.673-10.66 2.445 1e-3 4.815 0.843 6.714 2.383 3.335 2.718 6.971 5.045 10.837 6.933-8.569-11.625-14.853-24.772-18.517-38.741-7.129-27.217-2.845-56.164 11.861-80.149 1.805-3.043 5.002-4.993 8.533-5.205 3.499-0.27 6.901 1.227 9.067 3.989 43.246 54.83 107.25 89.317 176.83 95.275-3.709-38.588 13.968-76.118 46.08-97.835 41.685-28.653 97.716-24.325 134.51 10.389 17.868-4.56 35.107-11.302 51.328-20.075 4.828-3.375 11.479-2.197 14.854 2.632 1.795 2.568 2.37 5.794 1.573 8.824-3.434 11.321-8.931 21.909-16.213 31.232 4.666-1.282 9.225-2.93 13.632-4.928 5.241-2.691 11.67-0.624 14.361 4.616 1.725 3.36 1.545 7.381-0.473 10.573-12.62 18.61-28.302 34.948-46.379 48.32 7.317 90.155-45.355 190.87-129.9 246.98-44.288 29.626-96.328 45.536-149.61 45.739zm-106.56-43.584c79.467 35.863 171.79 28.327 244.39-19.947 80.128-53.184 129.43-149.06 119.89-233.15-0.461-4.001 1.371-7.921 4.736-10.133 8.325-5.707 16.134-12.131 23.339-19.2-7.625 1.794-15.405 2.852-23.232 3.157-5.891 0.014-10.678-4.75-10.693-10.641-0.011-4.387 2.666-8.334 6.746-9.946 8.441-4.478 15.74-10.835 21.333-18.581-11.198 4.578-22.836 7.995-34.731 10.197-3.208 0.44-6.443-0.587-8.811-2.795-29.765-31.333-77.994-36.126-113.34-11.264-37.227 21.76-38.059 72.533-34.133 88.469 0.807 3.277 0.016 6.742-2.133 9.344-2.073 2.709-5.394 4.16-8.789 3.84-74.637-2.679-144.94-35.741-194.6-91.52-6.176 15.957-7.161 33.456-2.816 50.005 4.935 20.177 17.074 37.855 34.133 49.707 5.089 2.968 6.807 9.5 3.839 14.588-1.534 2.63-4.119 4.479-7.103 5.081-12.579 2.316-25.558 0.945-37.376-3.947 10.121 33.093 36.832 58.468 70.4 66.88 5.856 0.644 10.081 5.912 9.438 11.768-0.299 2.719-1.631 5.219-3.72 6.984-11.182 8.375-25.095 12.256-38.997 10.88 18.706 24.311 47.727 38.446 78.4 38.187 5.89 0.129 10.559 5.008 10.43 10.898-0.065 2.947-1.346 5.736-3.54 7.705-29.198 24.523-65.118 39.662-103.06 43.436z" />
            </svg>