<svg width="375.1mm" height="34.296mm" version="1.1" viewBox="0 0 375.1 34.296" xmlns="http://www.w3.org/2000/svg">
 <g transform="translate(145.16 -76.112)">
  <path d="m-144.72 86.379 0.10335-0.37896 0.43064-0.46509q0.0344-0.03445 0.0344-0.0689v-0.10335q0-0.25838 0.53399-0.56844 0.0345-0.43064 0.58567-0.63734l0.0861-0.0689v-0.1378q0-0.25838 0.36174-0.34451 0.37896-0.08613 0.58566-0.32728 0.31006-0.0689 0.98185-0.74069 0.0689-0.1378 0.17226-0.1378l0.39618-0.03445q0.49954-0.53399 0.63734-0.55121 0.13781-0.01722 0.29283-0.12058 0.15503-0.10335 0.44787-0.15503 0.0861-0.12058 1.223-0.70624h0.36174q0.0689 0 0.22393-0.1378 0.17225-0.1378 0.49953-0.18948 0.34451-0.05168 0.89573-0.22393 0.56844-0.18948 0.91295-0.25838l0.32728-0.17225h0.53399l0.17225-0.1378 1.0852-0.1378 1.1024-0.25838 0.31006 0.03445 0.22393-0.03445 0.37896 0.08613q0.0689 0 0.22393-0.0689 0.17226-0.08613 0.31006-0.08613 0.51676 0 0.93017 0.12058 0.43064 0.12058 0.65457 0.15503 0.22393 0.01722 0.36173 0.08613 0.13781 0.0689 0.17226 0.0689l0.44786-0.03445q0.0345 0 0.1378 0.12058 0.12058 0.12058 0.32729 0.18948h0.31005q0.0345 0.03445 0.10336 0.03445 0.2067 0.17226 0.74069 0.43064 0.37896 0.29283 0.39619 0.31006 0.1378-0.05168 1.068 0.72347 0.93018 0.77514 1.1886 1.1886l0.36173 0.46509 0.17226 0.44786 0.17225 0.29283q0.27561 0.70624 0.49954 1.6536l0.1378 0.34451q0.0345 0.03445 0.0345 0.15503l-0.10335 0.48231 0.1378 0.63734q0 0.2067-0.1378 0.60289 0.0689 0.17226 0.0689 0.20671 0 0.03445-0.1378 0.55121-0.1378 0.49954-0.1378 0.58566l0.0689 0.34451q0 0.0689-0.15503 0.22393-0.1378 0.1378-0.1378 0.2067 0 0.22393-0.12058 0.43064-0.12058 0.20671-0.15503 0.27561l-0.29283 0.48231q-0.0689 0.25838-0.17226 0.29283-0.10335 0.03445-0.10335 0.24116-0.0345 0.03445-0.24116 0.20671l-0.17225 0.25838-0.70624 0.74069q-0.10336 0.37896-0.82683 0.8785l-0.2067 0.20671q-0.93017 0.75792-1.1369 0.89572-0.20671 0.1378-0.34451 0.31006-0.1378 0.17226-0.44786 0.34451-0.0517 0.08613-0.43064 0.36173l-0.24115-0.03445q-0.12058 0.20671-0.29283 0.29283-0.17226 0.08613-0.25839 0.15503-0.0861 0.0689-0.12057 0.0689-0.0345 0-0.15503-0.03445-0.17226 0.25838-0.48232 0.37896-0.29283 0.12058-0.44786 0.22393t-0.18948 0.10335l-0.2756-0.10335q0 0.37896-0.27561 0.41341-0.27561 0.03445-0.46509 0.15503l-0.36173-0.03445q-0.63734 0.63734-1.8259 0.63734-0.22393 0.27561-0.29283 0.27561l-0.31006-0.0689q-0.1378 0.0689-0.24115 0.0689-0.0861 0-0.63735 0.17225-0.2067-0.1378-0.49953-0.1378l0.0344 0.29283q0 0.17226-0.46509 0.17226-0.17225 0-0.37896-0.10335-0.2067 0.0689-0.25838 0.0689-0.10335 0-0.15503-0.12058-0.0517-0.1378-0.0861-0.1378-0.34451 0.56844-1.2058 0.56844-0.0861 0-0.98185 0.22393l-0.2067 0.03445q-0.0689 0-0.13781-0.03445l-0.29283-0.03445q-0.0689 0-0.27561-0.08613-0.10335 0.18948-0.17225 0.18948-0.32728 0-0.8096 0.10335-0.15502-0.08613-0.72346-0.12058-0.55122-0.05168-0.68902-0.20671h-0.0344q-0.0344 0-0.12058 0.03445h-0.0689q-0.0689 0-0.17226-0.05168-0.10335-0.05168-0.34451-0.08613-0.22393-0.03445-0.46508-0.36173-0.24116-0.34451-0.24116-0.58566 0-0.32728 0.27561-0.60289t0.56844-0.27561q0.1378 0 0.37896 0.10335h0.18948l0.2756 0.03445 0.10336-0.03445q-0.0689-0.24116-0.0689-0.25838 0-0.51676 0.36174-0.8785l0.24116-0.67179q0.0344-0.0689 0.2067-0.18948 0.17226-0.12058 0.17226-0.32728l0.15502-0.36174 0.0344-0.24116 0.17226-0.24116q0.1378-0.18948 0.17225-0.36173 0.0345-0.17225 0.24116-0.24116 0-0.36173 0.24116-0.58566 0.25838-0.22393 0.25838-0.34451 0-0.34451 0.24115-0.37896 0.0861-0.0689 0.0861-0.1378 0-0.0689-0.0861-0.22393 0.12058-0.34451 0.32729-0.37896 0.22393-0.03445 0.2756-0.0689-0.1378-0.03445-0.1378-0.17225 0-0.15503 0.10335-0.29283l0.17226-0.44786q0.0861-0.22393 0.43063-0.43064-0.10335-0.10335-0.10335-0.17226 0-0.03445 0.10335-0.1378l0.24116 0.0689q0-0.03445 0.0344-0.03445l0.0344-0.39618-0.0344-0.24116q0-0.03445 0.39619-0.22393l0.0689-0.17226q-0.24116 0-0.46509-0.0689-0.32728 0.1378-0.48231 0.24116-0.0344 0.05168-0.29283 0.05168h-0.10336q-0.0344 0-0.31005-0.08613-0.0689 0.03445-0.15503 0.17225-0.0689 0.12058-0.10336 0.12058l-0.51676-0.17225q-0.0689 0-0.27561 0.18948-0.18948 0.18948-0.36173 0.18948-0.0861 0-0.29283-0.10335-0.13781 0.10335-0.65457 0.10335-0.22393 0-0.46509 0.10335l-0.2756-0.03445-0.22393 0.03445q-0.0689 0-0.51677-0.31006-0.25838 0.0689-0.32728 0.0689l-0.27561-0.1378q-0.27561-0.1378-0.44786-0.15503-0.15503-0.01723-0.31006-0.08613-0.1378-0.0689-0.15503-0.0689-0.0172-0.01723-0.15503-0.17226-0.1378-0.15503-0.31005-0.22393-0.17226-0.0689-0.17226-0.29283l-0.0689-0.77514q0-0.10335 0.0861-0.27561 0.0861-0.17225 0.0861-0.31006 0-0.22393 0.2756-0.36173zm4.0997 1.7225h0.0689q0.27561 0 0.27561 0.22393 0 0.0689-0.0689 0.17225 0.0689 0.03445 0.10336 0.03445 0.0689 0 0.24115-0.25838 0.17226-0.27561 0.89573-0.27561 0.0345 0 0.0861 0.03445 0.0517 0.03445 0.0861 0.03445t0.15503-0.10335q0.12058-0.10335 0.18948-0.10335l0.77514-0.17225q1.1024-0.17226 1.1024-0.43064l-0.0345-0.24116q0.0689-0.1378 0.31006-0.41341 0.25838-0.29283 0.25838-0.60289l0.10335-0.39619v-0.17225q0-0.46509 0.63734-0.56844v-0.03445l-0.17225-0.53399 0.0344-0.0689q0.24116-0.12058 0.24116-0.17225 0-0.03445-0.17226-0.2067-0.15503-0.18948-0.15503-1.068 0-0.49954 0.56844-0.49954 0.7407 0 1.3264 0.65457 0.58567 0.65457 0.58567 1.4642 0 0.60289-0.60289 1.8087l-0.10336 0.37896h0.27561l0.43064-0.0689 0.31005 0.03445q0.22393 0 0.51677-0.1378 0.29283-0.1378 0.53399-0.17225 0.25838-0.03445 0.49953-0.20671 0.49954-0.12058 0.84405-0.17225 0.36173-0.05168 0.67179-0.22393h0.0861q0.0344 0 0.1378 0.1378h0.0344q0.0344 0 0.10336-0.03445 0.10335-0.24116 0.44786-0.36173 0.36173-0.1378 0.46508-0.27561l0.29284-0.31006q0-0.03445 0.55121-0.36173 0.56844-0.34451 0.84405-0.34451 0.53399 0 0.63734 0.41341l0.10335 0.29283v0.03445q0 0.43064-0.68902 1.0508-0.67179 0.62012-1.7914 0.89572-1.1197 0.27561-1.3608 0.27561-0.10335 0-0.20671-0.17225l-0.36173 0.10335-0.10335 0.17225q0 0.03445-0.0689 0.03445l-0.2067-0.1378h-0.0689q-0.17226 0.15503-0.65457 0.31006-0.46509 0.15503-0.72347 0.25838h-0.34451q-0.2756 0-0.75792 0.17225l-0.31005 0.03445q-0.60289 0.10335-0.6718 0.1378-0.0689 0.03445-0.25838 0.46509l-0.43063 0.9474q-0.0861 0.2067-0.29284 0.53399l-0.25838 0.41341q-0.0344 0-0.0344 0.03445l0.0861 0.25838v0.03445q-1.068 1.4297-1.4642 2.4805-0.39619 1.0508-0.8785 1.912-0.46509 0.84405-0.58567 1.1713-0.12057 0.32728-0.22393 0.51676-0.10335 0.18948-0.10335 0.22393 0 0.08613 0.10335 0.08613h0.13781q0.18948-0.15503 0.37896-0.17226 0.18948-0.01723 0.39618-0.05168l0.18948 0.0689h0.27561q0.0172 0 0.29283-0.17226l0.13781 0.03445 0.31005-0.03445 0.29284 0.03445q0.0344 0 0.12057-0.05168 0.0861-0.05168 0.22393-0.0689 0.13781-0.01722 0.20671-0.0689t0.10335-0.05168l0.15503 0.03445q0.0344 0.03445 0.0689 0.03445 0.10336 0 0.20671-0.27561l0.31006 0.10335q0-0.25838 0.15502-0.25838 0.48232 0 0.55122-0.03445l0.18948 0.03445h0.0344q0.0345 0 0.2067-0.10335l1.8776-0.70624q0.2067-0.03445 0.77514-0.44786l0.34451-0.15503q0.36174-0.17225 0.46509-0.27561t0.17225-0.10335q0.49954 0 0.67179-0.43064 0.0689-0.03445 0.27561-0.2067l0.17226-0.03445q0.25838-0.0689 0.56844-0.31006l0.32728-0.25838q0.10335-0.10335 0.37896-0.1378 0.63734-0.77514 0.91295-0.91295l0.25838-0.1378q0.0345-0.29283 0.24115-0.46509 0.20671-0.17226 0.25839-0.37896 0.0689-0.22393 0.2067-0.22393h0.10335q0.0689 0 0.0689-0.0689l-0.0345-0.31006q0-0.29283 0.34451-0.29283v-0.10335l-0.0345-0.27561v-0.03445q0-0.29283 0.25838-0.37896 0.27561-0.08613 0.27561-0.32728 0-0.18948-0.0517-0.39618-0.0517-0.20671-0.0517-0.24116 0-0.32728 0.46509-0.53399l0.0345-0.0689q0-0.03445-0.13781-0.1378-0.12058-0.10335-0.12058-0.20671 0-0.05168 0.0689-0.22393 0.0689-0.17226 0.0689-0.20671 0-0.03445-0.0861-0.17225t-0.0861-0.25838q0-0.1378 0.10336-0.34451 0.10335-0.20671 0.10335-0.27561 0-0.15503-0.0345-0.25838-0.20671-0.10335-0.20671-0.24116v-0.0689l0.0345-0.1378-0.0345-0.22393 0.0689-0.2067q-0.10335-0.31006-0.17225-0.60289-0.0689-0.31006-0.24116-0.48231-0.15502-0.18948-0.15502-0.25838v-0.03445l0.0861-0.24116q0-0.03445-0.12058-0.0689-0.87849-1.1713-2.3254-1.7742-1.4469-0.60289-1.4814-0.60289l-0.37896 0.03445q-0.29283-0.1378-0.32728-0.1378l-0.17225 0.03445q-0.0345 0.03445-0.0689 0.03445-0.0689 0-0.31005-0.1378l-0.43064 0.03445-0.43064-0.03445q-0.80959-0.0689-1.2919 0.0689l-1.378 0.22393q-0.0689 0-0.56844 0.17226-0.27561 0.17225-1.1369 0.34451h-0.41341q-0.0345 0-0.2067 0.17226-0.17226 0.17225-1.1024 0.43064-0.24116 0.24116-0.41341 0.29283-0.15503 0.03445-0.22393 0.12058-0.0689 0.08613-0.13781 0.08613h-0.24115q-0.18948 0-0.41341 0.27561t-1.0335 0.63734l-0.18948 0.17225-0.34451 0.18948q-0.10335 0.03445-0.17225 0.1378l-0.0689 0.0689q-0.43064 0.12058-0.55122 0.39618t-0.32728 0.32728q-0.18948 0.05168-0.24116 0.25838-0.0517 0.2067-0.25838 0.34451-0.2067 0.1378-0.67179 0.8096-0.46509 0.65457-0.46509 0.96462 0 0.22393 0.20671 0.63734 0.2067 0.41341 0.60289 0.41341 0.32728 0 0.49953 0.08613 0.17226 0.0689 0.31006 0.0689 0.56844 0 0.93018-0.22393zm19.671 3.2212 0.25838-0.0689 0.10335-0.22393q0.84405-0.49954 1.2058-0.9474 0.0345-0.0689 0.15503-0.1378 0.12058-0.0689 0.25838-0.24116 0.63734-0.63734 1.5158-0.63734 1.0335 0 1.1024 1.2575l0.10335 0.25838q0.13781 0.24116 0.37896 0.98185 0.25838 0.74069 0.25838 0.91295 0 0.46509-0.29283 0.93017-0.24115 0.12058-1.1541 1.2919l-0.17226 0.12058q-0.1378 0.31006-0.36173 0.62012-0.34451 0.12058-0.34451 0.25838v0.31006q0 0.03445-0.0861 0.1378-0.0689 0.10335-0.2067 0.39618l-0.13781 0.2067q-0.0689 0.0689-0.1378 0.29283-0.0689 0.2067-0.20671 0.37896-0.12057 0.17226-0.12057 0.27561 0 0.25838 0.67179 0.25838 0.0345 0 0.25838-0.10335l0.24116 0.0689q0.0345 0 0.17225-0.10335 0.1378-0.12058 0.41341-0.18948 0.29283-0.0689 0.49954-0.20671 0.22393-0.1378 0.51676-0.24116 0.31006-0.10335 0.58567-0.32728 0.2756-0.24116 0.53399-0.34451 0.2756-0.10335 0.49953-0.31006 0.24116-0.22393 0.53399-0.41341t0.93018-0.82682q0.41341-0.32728 0.56844-0.36174 0.0344 0 0.29283-0.44786 0.2756-0.46509 0.62011-0.46509 0.36174 0 0.36174 0.34451 0 0.18948-0.17226 0.36173v0.10335l0.0344 0.27561q0.0345 0.05168 0.0345 0.15503 0 0.0689-0.13781 0.2067-0.12058 0.1378-0.17225 0.36173-0.0517 0.20671-0.32729 0.27561-0.10335 0.37896-0.2756 0.43064-0.15503 0.05168-0.44786 0.34451-0.29284 0.29283-0.82683 0.68902-0.53398 0.39618-0.74069 0.62012-0.18948 0.20671-0.25838 0.20671-0.0344 0-0.1378-0.0689-0.10336-0.0689-0.13781-0.0689-0.10335 0-0.1378 0.24116l-0.0689 0.17226q-0.22393 0.1378-0.25838 0.1378l-0.10336-0.03445h-0.0689q-0.2067 0-0.2067 0.15503l0.10335 0.17226v0.03445q0 0.24116-0.27561 0.24116-0.18948 0-1.1024 0.63734l-0.49953 0.10335-0.41342 0.22393q-0.2067-0.12058-0.25838-0.12058l-0.2756 0.08613-0.49954 0.03445q-0.0172 0-0.63734-0.34451-0.60289-0.34451-0.72347-0.68902t-0.31006-0.68902q-0.18948-0.36173-0.18948-0.49954 0-0.82682 0.1378-1.1713 0.13781-0.36173 0.17226-0.53399 0.0344-0.17225 0.18948-0.36173 0.17225-0.2067 0.27561-0.65457 0.49953-0.99908 0.68901-1.223t0.29284-0.55121l0.22393-0.31006q0.0345-0.03445 0.10335-0.25838 0.0689-0.24116 0.17225-0.27561 0.13781-0.24116 0.13781-0.31006 0-0.49954-0.44786-0.49954-0.0861 0-0.18948 0.18948-0.10336 0.17225-0.48232 0.34451-0.36173 0.17225-0.44786 0.25838-0.0861 0.08613-0.37896 0.22393-0.2756 0.12058-0.48231 0.39618l-0.29283 0.1378q-0.13781 0.32728-0.24116 0.36173-0.10335 0.03445-0.63734 0.17225-0.0344 0.01723-0.17225 0.2067-0.13781 0.18948-0.39619 0.18948-0.2067 0.2067-0.41341 0.48231-0.0689 0-0.36173 0.1378l-0.34451 0.08613q-0.13781 0.10335-0.31006 0.32728-0.15503 0.22393-0.60289 0.22393-0.25838 0-0.25838-0.41341 0-0.84405 0.58566-1.3436 0.60289-0.49954 0.8785-0.53399 0.27561-0.03445 0.34451-0.2067t0.32728-0.27561q0.27561-0.12058 0.62012-0.49954 0.36173-0.39618 0.77514-0.53399zm14.108 7.338 0.32729 0.24116q0.24115 0.1378 0.24115 0.60289 0 0.10335-0.0861 0.24116-0.0861 0.1378-0.15503 0.29284-0.60289 1.1886-1.4125 1.1886-0.25838 0-0.80959-0.46508-0.55122-0.46509-0.70625-0.84405-0.1378-0.37896-0.24115-0.48231-0.0861-0.10335-0.0861-0.17226 0-0.18948 0.1378-0.41341 0.15503-0.22393 0.22393-0.55121 0.0689-0.34451 0.36174-0.49954 0.31006-0.17225 0.44786-0.32728t0.36173-0.15503q0.13781 0 0.27561 0.12058t0.37896 0.25838q0.25838 0.12058 0.51676 0.55122zm16.519-12.282 0.10335-0.37896 0.43064-0.46509q0.03445-0.03445 0.03445-0.0689v-0.10335q0-0.25838 0.53399-0.56844 0.03445-0.43064 0.58566-0.63734l0.08613-0.0689v-0.1378q0-0.25838 0.36174-0.34451 0.37896-0.08613 0.58566-0.32728 0.31006-0.0689 0.98185-0.74069 0.0689-0.1378 0.17226-0.1378l0.39618-0.03445q0.49954-0.53399 0.63734-0.55121 0.1378-0.01722 0.29283-0.12058 0.15503-0.10335 0.44786-0.15503 0.08613-0.12058 1.223-0.70624h0.36173q0.0689 0 0.22393-0.1378 0.17225-0.1378 0.49954-0.18948 0.34451-0.05168 0.89572-0.22393 0.56844-0.18948 0.91295-0.25838l0.32728-0.17225h0.53399l0.17225-0.1378 1.0852-0.1378 1.1024-0.25838 0.31006 0.03445 0.22393-0.03445 0.37896 0.08613q0.0689 0 0.22393-0.0689 0.17225-0.08613 0.31006-0.08613 0.51676 0 0.93017 0.12058 0.43064 0.12058 0.65457 0.15503 0.22393 0.01722 0.36173 0.08613 0.1378 0.0689 0.17226 0.0689l0.44786-0.03445q0.03445 0 0.1378 0.12058 0.12058 0.12058 0.32728 0.18948h0.31006q0.03445 0.03445 0.10335 0.03445 0.2067 0.17226 0.74069 0.43064 0.37896 0.29283 0.39618 0.31006 0.1378-0.05168 1.068 0.72347 0.93017 0.77514 1.1886 1.1886l0.36173 0.46509 0.17226 0.44786 0.17225 0.29283q0.27561 0.70624 0.49954 1.6536l0.1378 0.34451q0.03445 0.03445 0.03445 0.15503l-0.10335 0.48231 0.1378 0.63734q0 0.2067-0.1378 0.60289 0.0689 0.17226 0.0689 0.20671 0 0.03445-0.1378 0.55121-0.1378 0.49954-0.1378 0.58566l0.0689 0.34451q0 0.0689-0.15503 0.22393-0.1378 0.1378-0.1378 0.2067 0 0.22393-0.12058 0.43064-0.12058 0.20671-0.15503 0.27561l-0.29283 0.48231q-0.0689 0.25838-0.17225 0.29283-0.10335 0.03445-0.10335 0.24116-0.03445 0.03445-0.24116 0.20671l-0.17226 0.25838-0.70624 0.74069q-0.10335 0.37896-0.82682 0.8785l-0.2067 0.20671q-0.93017 0.75792-1.1369 0.89572-0.2067 0.1378-0.34451 0.31006-0.1378 0.17226-0.44786 0.34451-0.05168 0.08613-0.43064 0.36173l-0.24116-0.03445q-0.12058 0.20671-0.29283 0.29283-0.17225 0.08613-0.25838 0.15503-0.08613 0.0689-0.12058 0.0689-0.03445 0-0.15503-0.03445-0.17226 0.25838-0.48231 0.37896-0.29283 0.12058-0.44786 0.22393t-0.18948 0.10335l-0.2756-0.10336q0 0.37896-0.27561 0.41341-0.27561 0.03445-0.46509 0.15503l-0.36173-0.03445q-0.63734 0.63734-1.8259 0.63734-0.22393 0.27561-0.29283 0.27561l-0.31006-0.0689q-0.1378 0.0689-0.24116 0.0689-0.08613 0-0.63734 0.17225-0.2067-0.1378-0.49954-0.1378l0.03445 0.29283q0 0.17226-0.46509 0.17226-0.17225 0-0.37896-0.10335-0.20671 0.0689-0.25838 0.0689-0.10335 0-0.15503-0.12058-0.05168-0.1378-0.08613-0.1378-0.34451 0.56844-1.2058 0.56844-0.08613 0-0.98185 0.22393l-0.2067 0.03445q-0.0689 0-0.1378-0.03445l-0.29283-0.03445q-0.0689 0-0.27561-0.08613-0.10335 0.18948-0.17225 0.18948-0.32728 0-0.8096 0.10335-0.15503-0.08613-0.72347-0.12058-0.55121-0.05168-0.68902-0.20671h-0.03445q-0.03445 0-0.12058 0.03445h-0.0689q-0.0689 0-0.17225-0.05168-0.10335-0.05168-0.34451-0.08613-0.22393-0.03445-0.46509-0.36173-0.24116-0.34451-0.24116-0.58566 0-0.32728 0.27561-0.60289t0.56844-0.27561q0.1378 0 0.37896 0.10335h0.18948l0.27561 0.03445 0.10335-0.03445q-0.0689-0.24116-0.0689-0.25838 0-0.51676 0.36173-0.8785l0.24116-0.67179q0.03445-0.0689 0.20671-0.18948 0.17225-0.12058 0.17225-0.32728l0.15503-0.36174 0.03445-0.24116 0.17225-0.24116q0.1378-0.18948 0.17226-0.36173 0.03445-0.17225 0.24116-0.24116 0-0.36173 0.24116-0.58566 0.25838-0.22393 0.25838-0.34451 0-0.34451 0.24116-0.37896 0.08613-0.0689 0.08613-0.1378 0-0.0689-0.08613-0.22393 0.12058-0.34451 0.32728-0.37896 0.22393-0.03445 0.27561-0.0689-0.1378-0.03445-0.1378-0.17225 0-0.15503 0.10335-0.29283l0.17225-0.44786q0.08613-0.22393 0.43064-0.43064-0.10335-0.10335-0.10335-0.17226 0-0.03445 0.10335-0.1378l0.24116 0.0689q0-0.03445 0.03445-0.03445l0.03445-0.39618-0.03445-0.24116q0-0.03445 0.39619-0.22393l0.0689-0.17226q-0.24116 0-0.46509-0.0689-0.32728 0.1378-0.48231 0.24116-0.03445 0.05168-0.29283 0.05168h-0.10335q-0.03445 0-0.31006-0.08613-0.0689 0.03445-0.15503 0.17225-0.0689 0.12058-0.10335 0.12058l-0.51676-0.17225q-0.0689 0-0.27561 0.18948-0.18948 0.18948-0.36173 0.18948-0.08613 0-0.29283-0.10335-0.1378 0.10335-0.65457 0.10335-0.22393 0-0.46509 0.10335l-0.27561-0.03445-0.22393 0.03445q-0.0689 0-0.51676-0.31006-0.25838 0.0689-0.32728 0.0689l-0.27561-0.1378q-0.27561-0.1378-0.44786-0.15503-0.15503-0.01723-0.31006-0.08613-0.1378-0.0689-0.15503-0.0689-0.01723-0.01723-0.15503-0.17226-0.1378-0.15503-0.31006-0.22393-0.17226-0.0689-0.17226-0.29283l-0.0689-0.77514q0-0.10335 0.08613-0.27561 0.08613-0.17225 0.08613-0.31006 0-0.22393 0.27561-0.36173zm4.0997 1.7225h0.0689q0.27561 0 0.27561 0.22393 0 0.0689-0.0689 0.17225 0.0689 0.03445 0.10335 0.03445 0.0689 0 0.24116-0.25838 0.17226-0.27561 0.89572-0.27561 0.03445 0 0.08613 0.03445t0.08613 0.03445 0.15503-0.10335q0.12058-0.10335 0.18948-0.10335l0.77514-0.17225q1.1024-0.17226 1.1024-0.43064l-0.03445-0.24116q0.0689-0.1378 0.31006-0.41341 0.25838-0.29283 0.25838-0.60289l0.10335-0.39619v-0.17225q0-0.46509 0.63734-0.56844v-0.03445l-0.17226-0.53399 0.03445-0.0689q0.24116-0.12058 0.24116-0.17225 0-0.03445-0.17225-0.2067-0.15503-0.18948-0.15503-1.068 0-0.49954 0.56844-0.49954 0.74069 0 1.3264 0.65457 0.58566 0.65457 0.58566 1.4642 0 0.60289-0.60289 1.8087l-0.10335 0.37896h0.27561l0.43064-0.0689 0.31006 0.03445q0.22393 0 0.51676-0.1378 0.29283-0.1378 0.53399-0.17225 0.25838-0.03445 0.49954-0.20671 0.49954-0.12058 0.84405-0.17225 0.36173-0.05168 0.67179-0.22393h0.08613q0.03445 0 0.1378 0.1378h0.03445q0.03445 0 0.10335-0.03445 0.10335-0.24116 0.44786-0.36173 0.36173-0.1378 0.46509-0.27561l0.29283-0.31006q0-0.03445 0.55121-0.36173 0.56844-0.34451 0.84405-0.34451 0.53399 0 0.63734 0.41341l0.10335 0.29283v0.03445q0 0.43064-0.68902 1.0508-0.67179 0.62012-1.7914 0.89572-1.1197 0.27561-1.3608 0.27561-0.10335 0-0.20671-0.17225l-0.36173 0.10335-0.10335 0.17225q0 0.03445-0.0689 0.03445l-0.20671-0.1378h-0.0689q-0.17226 0.15503-0.65457 0.31006-0.46509 0.15503-0.72347 0.25838h-0.34451q-0.27561 0-0.75792 0.17225l-0.31006 0.03445q-0.60289 0.10335-0.67179 0.1378-0.0689 0.03445-0.25838 0.46509l-0.43064 0.9474q-0.08613 0.2067-0.29283 0.53399l-0.25838 0.41341q-0.03445 0-0.03445 0.03445l0.08613 0.25838v0.03445q-1.068 1.4297-1.4642 2.4805t-0.8785 1.912q-0.46509 0.84405-0.58566 1.1713-0.12058 0.32728-0.22393 0.51676t-0.10335 0.22393q0 0.08613 0.10335 0.08613h0.1378q0.18948-0.15503 0.37896-0.17226 0.18948-0.01723 0.39618-0.05168l0.18948 0.0689h0.27561q0.01722 0 0.29283-0.17226l0.1378 0.03445 0.31006-0.03445 0.29283 0.03445q0.03445 0 0.12058-0.05168 0.08613-0.05168 0.22393-0.0689 0.1378-0.01722 0.2067-0.0689 0.0689-0.05168 0.10335-0.05168l0.15503 0.03445q0.03445 0.03445 0.0689 0.03445 0.10335 0 0.2067-0.27561l0.31006 0.10335q0-0.25838 0.15503-0.25838 0.48231 0 0.55121-0.03445l0.18948 0.03445h0.03445q0.03445 0 0.2067-0.10335l1.8776-0.70624q0.2067-0.03445 0.77514-0.44786l0.34451-0.15503q0.36173-0.17225 0.46509-0.27561t0.17225-0.10335q0.49954 0 0.67179-0.43064 0.0689-0.03445 0.27561-0.2067l0.17225-0.03445q0.25838-0.0689 0.56844-0.31006l0.32728-0.25838q0.10335-0.10335 0.37896-0.1378 0.63734-0.77514 0.91295-0.91295l0.25838-0.1378q0.03445-0.29283 0.24116-0.46509 0.20671-0.17226 0.25838-0.37896 0.0689-0.22393 0.2067-0.22393h0.10335q0.0689 0 0.0689-0.0689l-0.03445-0.31006q0-0.29283 0.34451-0.29283v-0.10335l-0.03445-0.27561v-0.03445q0-0.29283 0.25838-0.37896 0.27561-0.08613 0.27561-0.32728 0-0.18948-0.05168-0.39618-0.05168-0.20671-0.05168-0.24116 0-0.32728 0.46509-0.53399l0.03445-0.0689q0-0.03445-0.1378-0.1378-0.12058-0.10335-0.12058-0.20671 0-0.05168 0.0689-0.22393 0.0689-0.17226 0.0689-0.20671 0-0.03445-0.08613-0.17225t-0.08613-0.25838q0-0.1378 0.10335-0.34451 0.10335-0.20671 0.10335-0.27561 0-0.15503-0.03445-0.25838-0.2067-0.10335-0.2067-0.24116v-0.0689l0.03445-0.1378-0.03445-0.22393 0.0689-0.2067q-0.10335-0.31006-0.17226-0.60289-0.0689-0.31006-0.24116-0.48231-0.15503-0.18948-0.15503-0.25838v-0.03445l0.08613-0.24116q0-0.03445-0.12058-0.0689-0.8785-1.1713-2.3254-1.7742-1.4469-0.60289-1.4814-0.60289l-0.37896 0.03445q-0.29283-0.1378-0.32728-0.1378l-0.17225 0.03445q-0.03445 0.03445-0.0689 0.03445-0.0689 0-0.31006-0.1378l-0.43064 0.03445-0.43064-0.03445q-0.8096-0.0689-1.2919 0.0689l-1.378 0.22393q-0.0689 0-0.56844 0.17226-0.27561 0.17225-1.1369 0.34451h-0.41341q-0.03445 0-0.2067 0.17226-0.17225 0.17225-1.1024 0.43064-0.24116 0.24116-0.41341 0.29283-0.15503 0.03445-0.22393 0.12058-0.0689 0.08613-0.1378 0.08613h-0.24116q-0.18948 0-0.41341 0.27561-0.22393 0.27561-1.0335 0.63734l-0.18948 0.17225-0.34451 0.18948q-0.10335 0.03445-0.17226 0.1378l-0.0689 0.0689q-0.43064 0.12058-0.55121 0.39618t-0.32728 0.32728q-0.18948 0.05168-0.24116 0.25838-0.05168 0.2067-0.25838 0.34451-0.20671 0.1378-0.67179 0.8096-0.46509 0.65457-0.46509 0.96462 0 0.22393 0.2067 0.63734 0.2067 0.41341 0.60289 0.41341 0.32728 0 0.49954 0.08613 0.17225 0.0689 0.31006 0.0689 0.56844 0 0.93017-0.22393zm23.771-2.9972-0.10335-0.67179v-0.10335q0-0.8096 0.55121-0.89572 0.12058-0.01722 0.72347-0.22393 0.31006 0.0689 0.63734 0.55122 0.34451 0.46509 0.34451 0.82682 0 0.03445-0.05168 0.15503-0.05168 0.12058-0.0689 0.46509-0.01723 0.32728-0.34451 0.58566-0.31006 0.24116-0.67179 0.24116-0.24116 0-0.62012-0.32728-0.36173-0.34451-0.39618-0.60289zm-7.4414 8.6127 0.27561-0.24116h0.10335q0.12058 0 0.36173-0.25838l0.17226-0.0689q0.34451-0.51676 0.60289-0.60289l0.27561-0.2067q0.0689-0.0689 0.18948-0.12058 0.1378-0.05168 0.41341-0.32728 0.29283-0.29283 0.46509-0.29283 0.17226 0 0.27561 0.03445 0.10335-0.2067 0.41341-0.39618 0.31006-0.2067 0.49954-0.48231l0.22393-0.10335q0.27561-0.1378 0.48231-0.34451 0.22393-0.22393 0.56844-0.22393 0.49954 0 1.0335 0.51676 0.55121 0.49954 0.55121 0.96462l-0.29283 1.3436q-0.29283 1.4814-0.65457 1.5503l-0.0689 0.36173q-0.24116 0.17226-0.24116 0.27561l0.10335 0.41341q0 0.08613-0.18948 0.25838-0.03445 0-0.03445 0.10335v0.70624q0 0.18948-0.24116 0.31006 0.03445 0.03445 0.10335 0.0689 0.10335-0.10335 0.46509-0.10335l0.27561 0.03445 0.37896-0.37896q0.12058-0.03445 0.32728-0.15503 0.22393-0.1378 0.74069-0.34451l2.2565-1.7225q0.46509-0.46509 0.70624-0.46509 0.25838 0 0.25838 0.32728 0 0.37896-0.15503 0.63734-0.1378 0.24116-0.25838 0.60289-0.12058 0.34451-0.29283 0.48231-0.15503 0.1378-0.25838 0.31006-0.10335 0.15503-0.56844 0.46509-0.44786 0.31006-0.77514 0.63734-0.31006 0.31006-0.51676 0.44786l-0.74069 0.53399-0.10335 0.17225q-0.03445 0.03445-0.32728 0.15503-0.27561 0.10335-0.49954 0.27561l-0.31006 0.17226q-0.10335 0.0689-0.34451 0.08613-0.22393 0.01723-0.39618 0.2067-0.17225 0.17226-0.27561 0.17226l-0.25838-0.03445-0.34451 0.10335q-0.29283 0-0.72347-0.34451-0.41341-0.36174-0.41341-0.75792v-0.10335l0.03445-0.24116q0-0.0689-0.10335-0.34451-0.10335-0.29283-0.10335-0.32728l0.03445-0.24116-0.03445-0.10335q0-0.46509 0.0689-0.58566t0.10335-0.32728q0.03445-0.22393 0.0689-0.36173l0.08613-0.43064q0.0689-0.2067 0.17225-0.27561 0.03445-0.1378 0.1378-0.46509l0.0689-0.31006 0.17225-0.24116q0.1378-0.1378 0.15503-0.36173 0.03445-0.24116 0.18948-0.49954 0.15503-0.25838 0.15503-0.31006 0-0.2067-0.20671-0.2067-0.0689 0-0.43064 0.27561l-0.31006-0.10335q-0.03445 0-0.18948 0.17226 0 0.0689-0.15503 0.10335-0.15503 0.03445-0.29283 0.25838l-0.1378 0.03445-0.22393-0.10335h-0.0689q-0.17225 0-0.2067 0.37896-0.18948 0.27561-0.49954 0.36173l-0.37896 0.10335q-0.18948 0.0689-0.27561 0.31006-0.08613 0.24116-0.34451 0.44786-0.25838 0.18948-0.34451 0.18948-0.48231 0-0.48231-0.53399l0.1378-0.8096zm17.742-1.8603 0.48231-0.22393q0.24116-0.15503 0.46509-0.44786l0.60289-0.43064q0.51676-0.34451 0.67179-0.34451l0.27561 0.10335q0.03445 0 0.2067-0.20671 0.18948-0.22393 0.43064-0.22393 0.31006 0 0.84405 0.46509 0.53399 0.46509 0.53399 0.82682l-0.0689 0.58566q0 0.1378 0.1378 0.77514v0.1378l-0.0689 0.41341 0.0689 0.43064-0.18948 0.84405q0 0.32728 0.22393 0.32728 0.29283-0.27561 0.49954-0.32728l0.24116-0.24116q0.1378-0.1378 0.2067-0.1378 0.0689 0 0.17226-0.15503 0.12058-0.17225 0.29283-0.24116 0.17225-0.0689 0.24116-0.24116 0.96462-1.0508 1.4814-1.2058 0.0689 0 0.22393-0.17225 0.17225-0.17226 0.27561-0.20671l0.37896-0.29283 0.15503 0.0689h0.03445q0.03445 0 0.27561-0.17226 0.24116-0.17225 0.34451-0.17225 0.65457 0 1.068 0.44786 0.43064 0.43064 0.43064 0.67179l-0.08613 0.39618 0.12058 0.53399v0.34451l-0.08613 0.36173q0 0.10335 0.1378 0.29283 0.15503 0.18948 0.15503 0.25838-0.2067 0.22393-0.2067 0.29283l0.03445 0.31006-0.08613 0.9474q0 0.12058 0.22393 0.39618 0.10335-0.0689 0.29283-0.12058 0.18948-0.05168 0.29283-0.10335 0.10335-0.0689 0.10335-0.0689 0-0.01722-0.01723-0.01722 0.03445 0 0.20671 0.0689h0.0689q0.1378 0 0.15503-0.25838 0.01723-0.27561 0.34451-0.44786l0.41341 0.03445q0.03445-0.03445 0.1378-0.27561 0.12058-0.25838 0.72347-0.74069 0.62012-0.49954 0.9474-0.49954 0.27561 0 0.27561 0.24116 0 0.0689-0.0689 0.36173 0.1378 0.24116 0.1378 0.41341 0 0.32728-0.56844 0.70624-0.55121 0.37896-0.84405 0.9474l-0.0689 0.0689-0.34451-0.03445q-0.03445 0-0.17225 0.27561-0.12058 0.25838-0.29283 0.29283-0.17225 0.03445-0.24116 0.10335l-0.36173 0.22393q-0.10335 0.0689-0.68902 0.70624-0.56844 0.62012-0.96462 0.62012-0.17226 0-0.62012-0.17225-0.44786-0.18948-0.60289-0.37896-0.15503-0.18948-0.44786-0.43064-0.27561-0.24116-0.27561-0.91295 0-0.03445 0.08613-0.12058 0.10335-0.08613 0.10335-0.1378-0.39618-0.51676-0.39618-0.74069 0-0.10335 0.03445-0.22393t0.03445-0.22393l-0.03445-0.60289 0.0689-0.31006-0.03445-0.18948 0.10335-0.8785q0-0.20671-0.24116-0.20671-0.0689 0-0.18948 0.1378-0.12058 0.1378-0.31006 0.22393-0.17225 0.0689-0.37896 0.48231-0.31006 0.17225-0.43064 0.34451-0.10335 0.15503-0.17226 0.15503-0.03445 0-0.1378-0.03445-0.2067 0.1378-0.2067 0.31006v0.0689l0.03445 0.1378q0 0.15503-0.25838 0.29283-0.25838 0.1378-0.63734 0.70624-0.17226 0-0.24116 0.03445l-0.20671 0.41341q-0.17225 0.10335-0.32728 0.36173l-0.2067 0.10335q-0.12058 0.22393-0.24116 0.37896l-0.10335 0.18948q-0.74069 0.8785-1.0335 0.8785-0.29283 0-0.70624-0.77514-0.41341-0.77514-0.41341-1.2058l0.0689-0.63734q0-0.03445-0.1378-0.27561v-0.0689q0-0.03445 0.1378-0.39618v-0.51676q0-0.03445-0.03445-0.10335v-0.08613q0-0.03445 0.1378-0.27561l-0.10335-0.49954 0.0689-0.27561-0.03445-0.60289 0.0689-0.53399q0-0.05168-0.10335-0.17225-0.08613-0.1378-0.12058-0.1378-0.12058 0-0.72347 0.39618-0.58566 0.39619-0.79237 0.62012-0.2067 0.22393-0.55121 0.53399-0.36173 0.17225-0.49954 0.8785 0 0.03445-0.0689 0.03445 0-0.03445-0.10335-0.0689h-0.0689q-0.08613 0-0.53399 0.74069l-0.0689 0.0689-0.32728-0.0689q-0.41341 0-0.41341 0.8785 0 0.15503-0.22393 0.2067-0.2067 0.05168-0.32728 0.29283-0.12058 0.24116-0.32728 0.49954-0.39618 0.17225-0.44786 0.25838 0 0.01723-0.37896 0.51676-0.37896 0.49954-0.41341 0.58566-0.03445 0.08613-0.24116 0.2067-0.18948 0.10335-0.18948 0.18948l0.05168 0.29283q0 0.27561-0.53399 0.27561-1.0335 0-1.0335-2.1532 0-0.24116 0.20671-0.53399 0.22393-0.31006 0.43064-0.74069 0.32728-0.32728 0.77514-0.9474 0.44786-0.62012 0.67179-0.84405l0.22393-0.36173q0-0.2067 0.08613-0.31006 0.08613-0.10335 0.08613-0.25838 0-0.27561-0.1378-0.27561-0.32728 0-0.51676 0.17225-0.18948 0.15503-0.43064 0.22393-0.22393 0.0689-0.29283 0.24116-0.24116 0.10335-0.51676 0.44786-0.25838 0.32728-0.34451 0.41341-0.08613 0.08613-0.17226 0.24116-0.0689 0.1378-0.18948 0.15503-0.12058 0.01722-0.22393 0.12058-0.10335 0.10335-0.32728 0.10335-0.15503 0-0.29283-0.31006-0.12058-0.32728-0.12058-0.39618 0-1.2575 1.6709-2.1704 0.22393-0.12058 0.34451-0.24116 0.1378-0.12058 0.27561-0.18948l0.0689-0.12058q0.1378-0.2067 1.0335-0.58566h0.24116l1.1541-0.29283q0.74069-0.17225 0.74069 1.6709l-0.03445 0.31006 0.0689 0.1378q0.29283-0.27561 0.58566-0.48231 0.31006-0.22393 0.44786-0.39618 0.1378-0.17226 0.53399-0.34451zm24.15 6.0289-0.8096 0.70624q-0.0689-0.0689-0.1378-0.0689-0.17225 0-0.43064 0.31006-0.24116 0.31006-0.34451 0.31006l-0.17225-0.03445q-0.43064 0.32728-0.62012 0.37896-0.18948 0.05168-0.46509 0.18948-0.25838 0.1378-0.48231 0.15503-0.2067 0.01723-0.34451 0.15503-0.1378 0.12058-0.67179 0.12058l-0.27561-0.0345q-0.22393 0.10335-0.29283 0.10335-0.1378 0-0.29283-0.1378-0.15503-0.15503-0.34451-0.17226-0.17225-0.01723-0.36173-0.24116-0.18948-0.22393-0.36173-0.31006-0.15503-0.08613-0.25838-0.24116l-0.24116-0.20671q-0.29283-0.2067-0.56844-0.75792t-0.27561-0.86127v-0.0689l0.03445-0.32728-0.03445-0.37896q0.0689-0.0689 0.17225-0.29283v-0.55121l0.41341-1.378q0.03445-0.08613-0.1378-0.22393-0.17225 0.25838-0.34451 0.31006-0.17225 0.05168-0.24116 0.24116-0.05168 0.18948-0.18948 0.18948l-0.2067-0.0689q-0.03445 0.03445-0.15503 0.36173-0.12058 0.31006-0.41341 0.31006-0.31006 0-0.31006-0.24116l0.03445-0.31006-0.10335-0.43064q0-0.1378 0.27561-0.53399 0.27561-0.41341 0.49954-0.46509 0.24116-0.0689 0.39618-0.32728 0.17225-0.27561 0.72347-0.65457 0.31006-0.0689 0.53399-0.44786 0.24116-0.18948 0.62012-0.31006 0.39618-0.12058 0.58566-0.34451 0.2067-0.24116 1.1713-0.72347 0.98185-0.49954 1.4297-0.49954 0.1378 0 0.37896-0.0689 0.24116-0.08613 0.44786-0.1378 0.2067-0.0689 0.43064-0.18948 0.22393-0.1378 0.36173-0.1378l0.49954 0.17225q0.55121 0.15503 0.67179 0.22393 0.03445 0.03445 0.34451 0.15503 0.32728 0.10335 0.65457 0.29283 0.34451 0.18948 0.34451 0.70624-0.29283 0.43064-0.29283 0.46509 0 0.0689 0.39618 0.20671 0.1378 0.25838 0.41341 0.67179l0.18948 0.60289 0.03445 1.4125-0.03445 0.1378q-0.18948 0.17226-0.18948 0.22393l0.05168 0.34451-0.1378 0.48231q-0.05168 0.22393-0.17225 0.29283-0.12058 0.0689-0.15503 0.17225l-0.10335 0.1378q-0.03445 0.05168-0.15503 0.31006-0.10335 0.24116-0.24116 0.37896-0.1378 0.1378-0.17225 0.32728-0.03445 0.18948-0.17226 0.27561-0.1378 0.08613-0.2067 0.18948-0.05168 0.08613-0.18948 0.15503zm-5.3571 0.44786 0.0689 0.39618 0.03445 0.03445h0.27561l0.08613 0.03445q0.34451 0.0689 0.51676 0.0689 0.53399 0 0.84405-0.25838 0.32728-0.27561 0.51676-0.27561 0.18948 0 0.31006-0.25838 0.1378-0.25838 0.17226-0.25838h0.24116l0.0689-0.03445q0-0.39618 0.34451-0.56844 0.36174-0.17225 0.49954-0.44786 0.15503-0.29283 0.34451-0.43064 0.18948-0.15503 0.25838-0.39618l0.1378-0.20671q0.0689-0.0689 0.0689-0.25838l0.32728-0.62012q0.10335-0.43064 0.10335-0.67179 0-0.36173-0.37896-0.56844-0.36173-0.2067-0.36173-0.8096 0-0.39618 0.39618-0.72347 0.41341-0.34451 0.41341-0.41341 0-0.10335-0.10335-0.10335-0.05168 0-0.39618 0.1378-0.12058 0.24116-1.223 0.63734-0.36173-0.17225-0.39618-0.17225-0.10335 0-0.2067 0.2067-0.10335 0.2067-0.2067 0.29283h-0.22393q-0.03445 0-0.22393 0.22393-0.18948 0.22393-0.48231 0.22393l-0.2067 0.2067q0.01722 0.27561-0.34451 0.56844l-0.18948 0.22393q-0.17225 0.2067-0.44786 0.48231l-0.31006 0.77514q-0.18948 0.44786-0.18948 0.67179-0.05168 0.10335-0.24116 0.22393-0.17225 0.10335-0.17225 0.27561 0 0.03445 0.12058 0.17225t0.12058 0.20671l-0.0689 0.22393-0.0689 0.63734zm12.402-7.0108 0.25838-0.0689 0.10335-0.22393q0.84405-0.49954 1.2058-0.9474 0.03445-0.0689 0.15503-0.1378 0.12058-0.0689 0.25838-0.24116 0.63734-0.63734 1.5158-0.63734 1.0335 0 1.1024 1.2575l0.10335 0.25838q0.1378 0.24116 0.37896 0.98185 0.25838 0.74069 0.25838 0.91295 0 0.46509-0.29283 0.93017-0.24116 0.12058-1.1541 1.2919l-0.17225 0.12058q-0.1378 0.31006-0.36173 0.62012-0.34451 0.12058-0.34451 0.25838v0.31006q0 0.03445-0.08613 0.1378-0.0689 0.10335-0.2067 0.39618l-0.1378 0.2067q-0.0689 0.0689-0.1378 0.29283-0.0689 0.2067-0.2067 0.37896-0.12058 0.17226-0.12058 0.27561 0 0.25838 0.67179 0.25838 0.03445 0 0.25838-0.10335l0.24116 0.0689q0.03445 0 0.17225-0.10335 0.1378-0.12058 0.41341-0.18948 0.29283-0.0689 0.49954-0.20671 0.22393-0.1378 0.51676-0.24116 0.31006-0.10335 0.58566-0.32728 0.27561-0.24116 0.53399-0.34451 0.27561-0.10335 0.49954-0.31006 0.24116-0.22393 0.53399-0.41341 0.29283-0.18948 0.93017-0.82682 0.41341-0.32728 0.56844-0.36174 0.03445 0 0.29283-0.44786 0.27561-0.46509 0.62012-0.46509 0.36173 0 0.36173 0.34451 0 0.18948-0.17225 0.36173v0.10335l0.03445 0.27561q0.03445 0.05168 0.03445 0.15503 0 0.0689-0.1378 0.2067-0.12058 0.1378-0.17225 0.36173-0.05168 0.20671-0.32728 0.27561-0.10335 0.37896-0.27561 0.43064-0.15503 0.05168-0.44786 0.34451-0.29283 0.29283-0.82682 0.68902t-0.74069 0.62012q-0.18948 0.20671-0.25838 0.20671-0.03445 0-0.1378-0.0689t-0.1378-0.0689q-0.10335 0-0.1378 0.24116l-0.0689 0.17226q-0.22393 0.1378-0.25838 0.1378l-0.10335-0.03445h-0.0689q-0.2067 0-0.2067 0.15503l0.10335 0.17226v0.03445q0 0.24116-0.27561 0.24116-0.18948 0-1.1024 0.63734l-0.49954 0.10335-0.41341 0.22393q-0.2067-0.12058-0.25838-0.12058l-0.27561 0.08613-0.49954 0.03445q-0.01723 0-0.63734-0.34451-0.60289-0.34451-0.72347-0.68902t-0.31006-0.68902q-0.18948-0.36173-0.18948-0.49954 0-0.82682 0.1378-1.1713 0.1378-0.36173 0.17225-0.53399 0.03445-0.17225 0.18948-0.36173 0.17226-0.2067 0.27561-0.65457 0.49954-0.99908 0.68902-1.223t0.29283-0.55121l0.22393-0.31006q0.03445-0.03445 0.10335-0.25838 0.0689-0.24116 0.17225-0.27561 0.1378-0.24116 0.1378-0.31006 0-0.49954-0.44786-0.49954-0.08613 0-0.18948 0.18948-0.10335 0.17225-0.48231 0.34451-0.36173 0.17225-0.44786 0.25838-0.08613 0.08613-0.37896 0.22393-0.27561 0.12058-0.48231 0.39618l-0.29283 0.1378q-0.1378 0.32728-0.24116 0.36173-0.10335 0.03445-0.63734 0.17225-0.03445 0.01723-0.17226 0.2067-0.1378 0.18948-0.39618 0.18948-0.2067 0.2067-0.41341 0.48231-0.0689 0-0.36173 0.1378l-0.34451 0.08613q-0.1378 0.10335-0.31006 0.32728-0.15503 0.22393-0.60289 0.22393-0.25838 0-0.25838-0.41341 0-0.84405 0.58566-1.3436 0.60289-0.49954 0.8785-0.53399 0.27561-0.03445 0.34451-0.2067 0.0689-0.17226 0.32728-0.27561 0.27561-0.12058 0.62012-0.49954 0.36173-0.39618 0.77514-0.53399zm24.563 4.9782h0.068902l0.17225 0.0689q0.034451 0 0.068902-0.03445 0-0.29283 0.27561-0.49954 0.086127-0.32728 0.37896-0.49954 0.31006-0.17225 0.96462-0.56844l0.43064-0.37896 0.20671-0.10335 0.1378-0.17226q0.18948-0.22393 0.36173-0.22393 0.25838 0 0.25838 0.18948l-0.15503 0.34451 0.068902 0.56844q0 0.31006-0.22393 0.55121-0.20671 0.24116-0.65457 0.70624l-0.8785 0.93017-0.46509 0.24116q-0.17225 0.10335-0.31006 0.24116l-0.67179 0.56844q0 0.24116-0.15503 0.36173h-0.27561l-0.1378 0.0689q-0.12058 0.32728-0.70624 0.63734l-0.24116 0.17226q-0.12058 0.10335-0.22393 0.10335l-0.48231-0.0689-0.32728 0.0689q-0.1378 0-0.37896-0.1378-0.22393-0.1378-0.46509-0.2067-0.24116-0.08613-0.62012-0.63734-0.36173-0.56844-0.39619-0.74069 0-0.0689-0.086127-0.22393-0.068902-0.17226-0.068902-0.20671 0-0.03445 0.15503-0.34451v-0.03445q0-0.05168-0.10335-0.24116-0.086127-0.18948-0.086127-0.46509 0-0.15503-0.10335-0.39618 0.1378-0.1378 0.1378-0.20671 0-0.0689-0.051676-0.18948-0.051676-0.1378-0.051676-0.20671l0.10335-0.84405-0.068902-0.43064 0.034451-0.41341q0-0.36173-0.31006-0.36173-0.1378 0-0.34451 0.18948l-0.12058 0.03445q-0.46509 0.22393-0.65457 0.37896-0.18948 0.1378-0.39619 0.1378-0.10335 0.10335-0.39618 0.18948l-0.1378 0.10335q-0.068902 0.0689-0.27561 0.20671 0 0.05168-0.65457 0.58566-0.63734 0.51676-1.1541 0.98185-0.51676 0.46509-0.75792 0.51676-0.22393 0.03445-0.22393 0.43064 0 0.0689-0.31006 0.27561-0.034451 0-0.36173 0.37896-0.27561-0.2067-0.31006-0.2067-0.22393 0-0.32728 0.56844-0.10335 0.22393-0.55121 0.27561-0.034451 0.01722-0.12058 0.25838l-0.068902 0.0689h-0.17225q-0.034451 0-0.24116 0.2067-0.20671 0.18948-0.36173 0.24116-0.22393 0.46509-0.37896 0.46509-0.068902 0-0.20671-0.0689-0.12058-0.0689-0.31006-0.12058-0.18948-0.05168-0.43064-0.41341-0.22393-0.37896-0.22393-0.63734 0-1.912 0.74069-2.0843l0.034451-0.0689v-0.1378q0-0.22393 0.18948-0.31006 0.20671-0.10335 0.41341-0.37896 0.20671-0.29283 0.27561-0.32728h0.22393q0.068902 0 0.068902-0.36173 0-0.10335 0.086127-0.18948 0.086127-0.08613 0.10335-0.24116 0.017226-0.17225 0.24116-0.53399 0.24116-0.37896 0.24116-0.44786l-0.034451-0.0689q-0.43064 0.39618-0.62012 0.43064-0.18948 0.03445-0.51676 0.49954l-0.27561-0.05168q-0.72347 0.53399-0.89572 0.60289-0.17225 0.0689-0.37896 0.39618 0 0.10335-0.12058 0.1378-0.12058 0.03445-0.44786 0.27561h-0.10335q-0.43064 0-0.43064-0.62012l0.36174-0.98185q0.15503-0.46509 0.72347-0.77514 0.58566-0.32728 0.98185-0.62012 0.39619-0.29283 0.79237-0.31006l0.12058-0.17226q0.58566-0.22393 0.79237-0.70624 0.20671-0.48231 0.56844-0.48231 0.9474 0 1.4469 0.70624 0.49954 0.68902 0.49954 1.1024l0.034451 0.46509q0 0.24116-0.10335 0.67179-0.20671 0.31006-0.20671 0.46509 0 0.1378 0.17225 0.1378 0.10335 0 0.27561-0.1378 0.17225-0.15503 0.37896-0.27561 0.22393-0.12058 0.25838-0.2067 0.17225-0.41341 0.60289-0.56844t0.53399-0.25838l0.17225-0.1378 0.1378-0.25838q0.46509-0.2067 0.62012-0.37896 0.15503-0.17226 0.41341-0.22393 0.25838-0.05168 0.58566-0.31006l0.25838-0.0689 0.24116-0.1378q0.034451-0.03445 0.20671-0.08613 0.17225-0.05168 0.49954-0.17226 0.34451-0.1378 0.46509-0.1378 0.8785 0 1.378 0.70624 0.51676 0.70624 0.51676 1.1369l-0.034451 0.31006 0.068902 0.46509v0.0689l-0.1378 0.9474 0.034451 0.32728q0 0.8096-0.34451 1.1197-0.086127 0.03445-0.086127 0.17226v0.15503l0.34451 0.72347q0.15503 0.37896 0.24116 0.37896l0.55121-0.15503q0.24116-0.0689 0.39619-0.36174 0.1378-0.0689 0.48231-0.41341 0.10335-0.27561 0.32728-0.27561zm2.3254 13.815-0.27561 0.18948q-0.17225 0.10335-0.36173 0.10335-0.43064 0-0.82682-0.56844-0.41341-0.56844-0.41341-1.1713 0-1.0852 0.22393-1.5503 0.20671-0.44786 0.24116-0.67179 0-0.0172 0.37896-0.86127 0.36173-0.82682 0.68902-1.2575 0.32728-0.43063 0.55121-0.80959l0.068902-0.13781q0.25838-0.41341 0.49954-0.56844 0-0.10335 0.65457-0.72347 0.67179-0.60289 1.2575-1.0335l0.17225-0.24116q0.41341-0.25838 0.48231-0.25838l0.99908-0.27561q0.1378-0.1378 0.67179-0.53398h0.1378l0.46509-0.1378q0.37896-0.17225 1.1713-0.31006 0.8096-0.15503 0.91295-0.34451 0.12058-0.2067 0.18948-0.37896 0.08613-0.17226 0.39618-0.72347 0.0689-0.29283 0.12058-0.46509 0.05168-0.17226 0.10335-0.20671 0.0689-0.03445 0.2067-0.32728 0.1378-0.31006 0.27561-0.51676 0.03445 0 0.03445-0.03445l-0.10335-0.29283q0.1378-0.41341 0.27561-0.49954 0.15503-0.10335 0.15503-0.1378l-0.12058-0.31006 0.29283-0.63734q0-0.0689-0.0689-0.0689-0.91295 0.63734-1.068 0.63734-0.08613 0.12058-0.37896 0.41341-0.29283 0.10335-0.39618 0.36173l-0.1378 0.03445-0.10335 0.17226q0 0.03445-0.12058 0.08613t-0.48231 0.27561l-0.20671-0.03445q-0.0689 0-0.17225 0.34451-0.29283 0.34451-0.56844 0.43064-0.25838 0.0689-0.32728 0.17225l-0.1378 0.17225-0.17226-0.03445q-0.36173 0-0.36173 0.27561 0 0.15503-0.2067 0.36173-0.1378 0-0.34451 0.10335h-0.25838q-0.17225 0.37896-0.62012 0.46509l-0.49954 0.34451-0.29283 0.10335q-0.20671 0.10335-0.41341 0.25838-0.20671 0.1378-0.70624 0.17226-0.24116-0.1378-0.74069-0.25838-0.49954-0.1378-0.70624-1.6881h-0.034451q-0.1378 0-0.29283 0.10335-0.17225 0.10335-0.24116 0.10335-0.41341 0-0.41341-0.34451 0-0.77514 0.58566-1.0163l0.43064-0.53399 1.1024-1.0852q1.1541-1.1541 1.5503-1.4814 0.39619-0.32728 0.86127-0.63734l0.8785-0.58566q0.44786-0.29283 0.55121-0.31006 0.10335-0.03445 0.2067-0.12058 0.12058-0.08613 0.63734-0.25838l0.31006-0.1378q0.96462-0.32728 1.2402-0.32728l0.24116 0.03445q0.18948 0 0.36173-0.1378 0.24116 0 0.74069-0.37896l0.62012-0.17226q0.25838-0.08613 0.43064-0.08613h0.32728q0.36173 0 0.46509 0.56844 0.12058 0.56844 0.2067 0.56844 0.03445 0 0.20671-0.25838l0.24116-0.17226q0.25838-0.17225 0.32728-0.17225 0.41341 0 0.51676 0.34451v0.03445l0.0689 0.08613q0.15503 0.82682 0.15503 1.0163 0 0.82682-0.36173 1.2919-0.34451 0.46509-0.41341 0.65457-0.34451 1.3953-0.68902 2.1015-0.08613 0.18948-0.41341 0.99908l-0.17225 0.17226q-0.0689 0.03445-0.0689 0.10335l0.03445 0.24116q-0.29283 0.46509-0.29283 0.74069 0 0.15503-0.27561 0.63734 0.03445 0.03445 0.29283 0.18948 0.27561 0.1378 0.60289 0.55121 0.34451 0.39618 0.34451 0.60289 0 0.0517-0.18948 0.67179-0.62012 0.46509-1.0508 0.46509-0.17225 0-0.49954-0.22393l-0.10335 0.0345v-0.0689q-0.22393-0.0517-0.36173-0.13781-0.12058-0.0689-0.24116-0.0689-0.1378 0-0.1378 0.1378 0 0.0689 0.03445 0.13781-0.10335 0.0861-0.27561 0.25838 0 0.0517-0.24116 0.49954-0.24116 0.46508-0.43064 0.62011-0.37896 0.0172-0.51676 0.56844-0.1378 0.55122-0.32728 0.70624l-0.17225-0.0689q-0.58566 1.1713-1.1713 1.6881-0.36173 0.0861-0.37896 0.12057 0 0.0517-0.03445 0.22393-0.01723 0.18948-0.41341 0.56844-0.37896 0.39619-0.44786 0.39619l-0.17225 0.0344-0.10335 0.10335q0.017226 0.34451-0.91295 1.1024-0.49954 0.27561-0.53399 0.37896-0.1378 0.32728-1.0163 0.77514l-0.32728 0.29284q-0.22393 0.2067-0.44786 0.29283zm5.9256-14.349 0.2067-0.29283q0.10335-0.1378 0.34451-0.2067 0.25838-0.0689 0.41341-0.29283 0.41341-0.58566 0.98185-0.86127l0.17225-0.12058q0.25838-0.49954 0.46509-0.53399 0.2067-0.05168 0.36173-0.31006 0.15503-0.27561 0.15503-0.44786 0-0.0689-0.10335-0.0689-0.24116 0-0.43064 0.1378-0.17225 0.1378-0.24116 0.1378l-0.34451-0.03445q-0.31006 0.17225-0.86127 0.41341l-0.31006 0.25838q-0.20671 0.1378-0.37896 0.17225-0.15503 0.03445-0.24116 0.22393-0.08613 0.17225-0.22393 0.17225l-0.1378 0.0689q-0.0689 0.0689-0.39618 0.0689-0.17226 0.10335-0.36174 0.29283-0.17225 0.18948-0.2067 0.18948-0.39618 0.43064-0.68902 0.53399-0.27561 0.10335-0.36173 0.29283-0.32728 0.08613-0.55121 0.39618-0.22393 0.29283-0.41341 0.41341-0.17225 0.10335-0.31006 0.27561l-0.17225 0.1378q-0.10335 0.0689-0.29283 0.46509-0.17225 0.37896-0.17225 0.53399 0 0.10335 0.12058 0.10335 0.17225 0 0.63734-0.24116 0.48231-0.25838 0.62012-0.39618 0.1378-0.1378 0.18948-0.1378l0.65457 0.03445q0.10335-0.22393 0.34451-0.29283 0.25838-0.0689 0.39618-0.29283 0.1378-0.22393 0.77514-0.48231l0.18948-0.31006zm0.31006 5.4949-0.51676 0.0689q-0.18948-0.13781-0.29283-0.13781-0.0689 0-0.10335 0.10335-0.2067 0.27561-0.91295 0.46509-0.70624 0.18948-0.96463 0.37896-0.24116 0.20671-0.41341 0.22393-0.17225 0.0172-0.17225 0.0689-0.17225 0.13781-0.25838 0.24116-0.17225 0.0689-0.34451 0.2067-0.17225 0.15503-0.36173 0.18948-0.31006 0.6718-0.44786 0.6718-0.034451 0-0.17225-0.0344h-0.034451q-0.22393 0.44786-0.34451 0.51676t-0.20671 0.18948q-0.086127 0.1378-0.32728 0.29283-0.25838 0.15503-0.34451 0.51676-0.086127 0.37896-0.20671 0.49954-0.1378 0.13781-0.17225 0.58567l-0.10335 0.24115q-0.051676 0.10336-0.1378 0.58567-0.10335 0.49954-0.10335 0.51676 0 0.24116 0.20671 0.43064 0.068902-0.0861 0.29283-0.12058l1.0163-0.41341q0.051676-0.0345 0.37896-0.32728 0.32728-0.27561 0.56844-0.36174 0.25838-0.0861 0.46509-0.31006 0.1378-0.2067 0.32728-0.34451 0.20671-0.1378 0.24116-0.3445 0.39619-0.34451 0.72347-0.65457 0.32728-0.29283 0.41341-0.49954 0.10335-0.18948 0.31006-0.32728l0.0689-0.22393q0.03445-0.0172 0.1378-0.0517 0.12058-0.0172 0.37896-0.55121l0.46509-0.77515q0.41341-0.41341 0.67179-1.0508l0.24116-0.20671q0.0689-0.0345 0.0689-0.15502zm22.789-16.02 0.10335-0.03445h0.46509q0.2067 0 0.60289-0.48231 0.03445-0.03445 0.91295-0.32728l0.0689-0.0689q0.24116-0.2067 0.34451-0.27561h0.32728q0.03445 0 0.27561-0.15503 0.24116-0.17225 1.0163-0.37896 0.79237-0.2067 1.0335-0.34451 0.10335-0.03445 0.75792-0.10335l0.48231-0.08613 0.37896 0.03445q0.91295 0 1.3091 1.2058 0 0.0689 0.08613 0.22393 0.08613 0.1378 0.08613 0.2067 0 0.72347-0.70624 1.5158l-0.24116 0.63734q0 0.03445-0.18948 0.25838-0.17225 0.22393-0.31006 0.53399-0.1378 0.29283-0.74069 0.89572-0.10335 0.2067-0.29283 0.65457-0.18948 0.43064-0.32728 0.56844-0.12058 0.1378-0.67179 1.0335-0.53399 0.89572-0.53399 1.0508-0.25838 0.18948-0.36173 0.63734-0.08613 0.44786-0.34451 0.84405l-0.03445 0.12058q0.55121-0.18948 0.55121-0.60289 0-0.05168 0.29283-0.25838l0.1378-0.24116q0.20671-0.24116 0.36174-0.27561 0.03445-0.1378 0.36173-0.39618 0.32728-0.27561 0.43064-0.37896 0.12058-0.10335 0.37896-0.2067 0.25838-0.12058 0.58566-0.86127 0.03445-0.1378 0.25838-0.22393 0.24116-0.08613 0.39618-0.27561 0.15503-0.2067 0.25838-0.27561l0.1378-0.2067q0.18948-0.17225 0.25838-0.2067l0.84405-1.0335q0.67179-0.43064 0.74069-0.67179l0.1378-0.03445h0.10335q0.27561-0.22393 0.36173-0.31006 0-0.51676 0.37896-0.67179 0.39618-0.17226 0.56844-0.39619 0.17226-0.24116 0.37896-0.24116 0.05168 0 0.18948 0.10335h0.03445q0.05168 0 0.10335-0.17225v-0.17226q0-0.29283 0.17226-0.48231 0.17225-0.18948 0.46509-0.24116 0.29283-0.0689 0.56844-0.44786 0.27561-0.37896 0.62012-0.39618 0.36173-0.01722 0.48231-0.27561 0.12058-0.25838 0.74069-0.55121 0.62012-0.31006 0.77514-0.32728 0.15503-0.03445 0.27561-0.10335 0.1378-0.0689 0.27561-0.0689 0.17225 0 0.49954 0.10335l0.31006 0.0689q0.39618 0.17225 0.74069 0.63734l0.17226 0.17226v0.0689l0.03445 0.29283v0.1378q0.22393 0.10335 0.22393 0.20671l-0.12058 0.22393q-0.0689 0.12058-0.0689 0.29283 0 0.15503-0.01723 0.32728-0.01722 0.15503-0.05168 0.31006-0.01723 0.1378-0.0689 0.27561-0.03445 0.12058-0.08613 0.24116-0.05168 0.10335-0.12058 0.2067l-0.1378 0.55122q-0.0689 0.32728-0.37896 0.79237-0.29283 0.44786-0.34451 0.63734-0.05168 0.17225-0.24116 0.48231l0.03445 0.10335v0.24116q0.53399-0.0689 0.53399-0.41341 0-0.36173 0.43064-0.53399l0.37896-0.31006q0.44786-0.79237 1.1024-1.0335 0-0.27561 0.32728-0.56844l0.65457-0.62012 0.46509-0.25838q0.31006-0.63734 0.70624-0.77514l0.37896-0.24116q0.34451-0.17226 0.37896-0.32728 0.05168-0.17225 0.27561-0.34451 0.22393-0.17226 0.65457-0.56844l0.1378-0.0689 0.17226-0.17225q0.18948-0.10335 0.43064-0.17225l0.1378-0.0689q0.43064-0.32728 0.77514-0.43064 0.34451-0.12058 0.77514-0.37896l0.60289-0.08613q0.2067-0.0689 0.27561-0.0689 1.6364 0 1.6364 1.8431l-0.03445 0.27561 0.03445 0.99908q-0.43064 0.70624-0.43064 0.74069l0.03445 0.31006q0 0.0689-0.22393 0.41341-0.22393 0.32728-0.27561 0.39618-0.03445 0.0689-0.31006 0.36173l-0.17226 0.51676q-0.08613 0.17226-0.29283 0.32728v0.2067q0 0.25838-0.67179 0.77514-0.08613 0.44786-0.31006 0.67179-0.2067 0.2067-0.32728 0.44786-0.10335 0.22393-0.34451 0.43064 0 0.22393-0.29283 0.75792-0.29283 0.53399-0.46509 0.68902-0.15503 0.1378-0.32728 0.49954l-0.15503 0.0689q-0.10335 0.65457-0.24116 0.74069l-0.27561-0.03445v0.0689q0 0.03445 0.0689 0.12058 0.0689 0.08613 0.0689 0.18948 0 0.12058-0.10335 0.20671-0.10335 0.08613-0.12058 0.17225-0.01723 0.08613-0.08613 0.17225-0.05168 0.08613-0.0689 0.34451-0.01722 0.24116-0.25838 0.67179-0.24116 0.43064-0.25838 0.58566-0.01723 0.15503-0.05168 0.25838-0.03445 0.10335-0.03445 0.2067t-0.08613 0.53399q0.32728 0.77514 0.46509 1.0508 0.1378 0.27561 0.1378 0.36174 0 0.68902-0.17226 0.93017-0.17225 0.22393-0.84405 0.22393-0.43064 0-0.75792-0.29283-0.31006-0.31006-0.55121-0.31006v-0.31006l-0.03445-0.03445h-0.27561q-0.03445-0.03445-0.15503-0.12058-0.10335-0.08613-0.20671-0.24116l-0.10334-0.10335q-0.1378-0.17225-0.24116-0.56844l-0.10335-0.34451 0.03445-0.27561-0.03445-0.43064q0-0.17226 0.03445-0.27561l0.03445-0.46509q0-0.0689 0.0689-0.29283 0.0689-0.24116 0.08613-0.55121 0.01722-0.32728 0.15503-0.49954 0.1378-0.17226 0.15503-0.29283 0.01723-0.12058 0.08613-0.18948 0.08613-0.08613 0.1378-0.39618 0.05168-0.31006 0.36174-0.49954 0.17225-0.31006 0.29283-0.58566 0.36173-0.49954 0.37896-0.49954h0.24116q-0.17226-0.2067-0.17226-0.24116 0-0.46509 0.36174-0.46509 0.0689 0 0.17225 0.03445l0.0689-0.1378-0.0689-0.29283q0-0.29283 0.44786-0.58566 0-0.49954 0.46509-0.89572l-0.03445-0.27561q0.10335-0.10335 0.29283-0.44786 0.18948-0.36174 0.48231-0.72347l0.53399-0.8096 0.24116-0.27561q0 0.01723 0 0.01723 0.01722-0.01723 0.03445-0.0689 0.03445-0.0689 0.0689-0.18948l0.10335-0.25838 0.12058-0.1378q0.44786-0.12058 0.44786-0.31006 0-0.03445-0.1378-0.22393v-0.0689q0-0.1378 0.2067-0.34451 0.20671-0.2067 0.37896-0.56844 0.18948-0.37896 0.18948-0.46509 0-0.0689-0.0689-0.0689-0.55121 0-0.74069 0.39618 0 0.10335-0.67179 0.41341l-0.17226 0.25837q-0.2067 0.18948-0.36173 0.18948t-0.41341 0.2067q-0.24116 0.18948-1.0852 0.89572-0.84405 0.68902-1.2402 1.1369l-0.39618 0.27561q-0.24116 0.12058-0.24116 0.18948 0 0.17225-0.29283 0.44786l-0.2067 0.25838q-0.24116-0.08613-0.27561-0.08613-0.18948 0-0.32728 0.18948 0.1378 0.1378 0.1378 0.17225 0 0.27561-0.51676 0.56844l-0.74069 0.77514q-0.03445 0.03445-0.25838 0.18948-0.22393 0.15503-0.34451 0.39618-0.10335 0.22393-0.60289 0.8096-0.49954 0.56844-0.58566 0.62012-0.08613 0.03445-0.2067 0.22393-0.12058 0.18948-0.49954 0.53399-0.37896 0.34451-0.43064 0.75792-0.32728 0.12058-0.32728 0.2067l-0.10335 0.17226-0.1378 0.0689q-0.03445 0.0689-0.05168 0.24116-0.01723 0.15503-0.68902 0.58566-0.67179 0.41341-0.84405 0.41341-0.05168 0-0.15503 0.0689-0.10335 0.0689-0.1378 0.0689-0.05168 0-0.46509-0.20671-0.39618-0.2067-0.58566-0.96462l0.1378-0.44786-0.0689-0.36173q0-0.10335 0.15503-0.27561 0.17225-0.17225 0.17225-0.43064 0.27561-0.62012 0.41341-0.8785l0.03445-0.27561q0.0689-0.17225 0.22393-0.37896 0.17225-0.22393 0.2067-0.48231 0.03445-0.27561 0.22393-0.34451 0.18948-0.0689 1.3953-2.0843v-0.24116l0.49954-0.86127q0.22393-0.37896 0.55121-0.86127l0.15503-0.39618q-0.53399-0.2067-0.56844-0.2067-0.10335 0-0.25838 0.1378 0 0.29283-1.0163 0.60289-0.2067 0.10335-0.53399 0.49954l-0.48231 0.27561q-0.10335 0.0689-0.32728 0.27561l-0.24116 0.22393q-0.43064 0.10335-0.74069 0.48231l-0.46509 0.32728q-0.20671 0.17225-0.27561 0.25838-0.0689 0.08613-0.63734 0.37896l-0.27561 0.27561-0.25838 0.1378q-0.27561 0.29283-0.41341 0.49954-0.1378 0.2067-0.36173 0.24116l-0.37896 0.1378q-0.10335 0.44786-0.63734 0.86127l-0.49954 0.62012q-0.1378 0.12058-0.24116 0.18948-0.0689 0.17226-0.24116 0.24116-0.22393 0.27561-0.29283 0.37896l-0.2067 0.15503q-0.46509 0.17225-0.46509 0.27561l0.03445 0.31006q0 0.18948-0.41341 0.36173-0.17225 0.08613-0.2067 0.27561-0.01723 0.18948-0.12058 0.39618h-0.31006q-0.05168 0-0.32728 0.17226-0.03445 0-0.0689 0.03445l0.0689 0.39618q0 0.2067-0.27561 0.48231-0.27561 0.25838-0.43064 0.46509-0.1378 0.2067-0.2067 0.2067h-0.10335l-0.10335 0.0689q0.01723 0.32728-0.43064 0.70624l-0.2067 0.25838q-0.10335 0.08613-0.58566 0.86127-0.48231 0.77514-0.91295 1.2575-0.43064 0.48231-0.79237 0.65457-0.36173 0.15503-0.77514 0.32728l-0.70624-0.1378q-0.10335-0.18948-0.31006-0.31006-0.18948-0.12058-0.18948-0.25838l-0.2067-0.60289q0-0.24116 0.18948-0.58566 0.18948-0.36173 0.22393-0.55121 0.05168-0.2067 0.2067-0.53399 0.15503-0.34451 0.15503-0.37896 0-0.46509 0.1378-0.56844 0.15503-0.12058 0.67179-0.51676 0.03445 0 0.03445-0.0689v-0.03445l-0.03445-0.29283q0.39618-0.67179 0.49954-0.67179 0.03445 0 0.1378 0.03445l-0.10335-0.37896q0-0.0689 0.18948-0.22393 0.18948-0.15503 0.29283-0.34451l-0.0689-0.20671v-0.0689q0-0.32728 0.43064-0.67179 0.0689-0.1378 0.27561-0.70624l0.44786-0.79237q0.17225-0.32728 0.36173-0.43064 0.18948-0.12058 0.2067-0.27561 0.01723-0.15503 0.12058-0.34451 0 0.08613 0.01723 0.01723 0.03445-0.08613 0.08613-0.34451 0.0689-0.25838 0.39618-0.41341 0.39618-1.0163 0.62012-1.0163 0.0689 0 0.18948 0.0689h0.0689q0.27561 0 0.27561-0.20671 0-0.0689-0.0689-0.0689-0.15503 0.17225-0.27561 0.17225t-0.12058-0.0689q0-0.03445 0.05168-0.0689l0.37896-0.77514 0.03445-0.32728q0.0689-0.10335 0.27561-0.31006l0.29283-0.39619v-0.17225q0-0.03445 0.15503-0.34451 0.15503-0.32728 0.22393-0.63734l0.29283-0.43064q0.0689-0.2067 0.0689-0.37896 0-0.25838-0.0689-0.25838l-0.99908 0.18948q-0.8096 0.41341-1.1541 0.65457l-0.39618 0.08613q-0.03445 0-0.46509 0.24116-0.41341 0.22393-0.74069 0.25838-0.31006 0.01723-0.55121 0.24116l-0.0689 0.03445h-0.32728q-0.18948 0.22393-0.25838 0.34451-0.0689 0.10335-0.12058 0.10335-1.7398 1.1541-2.2049 1.3953t-0.70624 0.44786q-0.24116 0.18948-0.41341 0.27561v0.2067q0 0.29283-0.43064 0.67179-0.41341 0.36173-0.72347 0.36173-0.10335 0-0.32728-0.10335-0.2067-0.12058-0.48231-0.15503-0.25838-0.03445-0.25838-0.65457 0-0.8785 1.4469-1.602 0.22393-0.10335 0.41341-0.24116 0.18948-0.1378 1.5331-0.67179l0.49954-0.24116q0.17226-0.17226 0.56844-0.31006 0.41341-0.15503 0.63734-0.25838 0.24116-0.10335 0.37896-0.1378zm16.157 4.1686 0.17225-0.31006v-0.03445q0-0.03445-0.0689-0.03445-0.17225 0-0.27561 0.34451 0.03445 0.10335 0.0689 0.10335 0.0689 0 0.10335-0.0689zm12.092 3.2556 0.36174-0.29283q0.41341-0.03445 0.44786-0.43064 0.03445-0.39618 0.56844-0.68902l0.2067-0.29283q0.25838-0.25838 1.4125-0.67179 0.29283-0.17226 0.39618-0.31006 0.03445-0.03445 0.0689-0.03445l0.27561 0.0689q0.22393 0 0.56844-0.12058 0.36173-0.12058 0.68902-0.12058l0.72347-0.03445q0.0689 0 0.27561 0.10335 0.22393 0.10335 0.53399 0.10335 0.37896 0 0.68902 0.34451 0.32728 0.34451 0.32728 0.63734 0 0.53399-0.55121 1.0852t-0.8785 0.62012q-0.29283 0.29283-0.44786 0.37896-0.15503 0.0689-0.32728 0.24116-0.15503 0.15503-0.25838 0.15503-0.0689 0-0.10335-0.03445-0.03445-0.05168-0.10335-0.05168-0.27561 0-0.60289 0.67179l-0.31006-0.03445q-0.29283 0.18948-0.37896 0.41341-0.08613 0.22393-0.36173 0.22393-0.63734 0.63734-0.86127 0.63734-0.03445 0-0.24116-0.0689-0.1378 0.17225-0.1378 0.36173 0 0.2067-0.27561 0.24116l-0.22393 0.20671-0.17225-0.03445-0.34451 0.36173q-0.25838 0-0.53399 0.17225-0.03445 0.20671-0.10335 0.53399-0.0689 0.31006-0.0689 0.34451 0 0.49954 0.91295 0.49954l0.82682-0.12058q0.32728 0 0.60289-0.17225 0.29283-0.17225 0.62012-0.17225 0.10335 0 0.31006-0.0689l0.17226 0.0689q0.12058-0.25838 0.44786-0.46509 0.32728-0.20671 0.51676-0.20671l0.17226-0.10335q0.0689-0.2067 0.2067-0.27561l0.1378-0.12058q0.1378-0.1378 0.25838-0.1378h0.24116l0.0689-0.03445q0.2067-0.44786 0.56844-0.51676 0.37896-0.08613 0.46509-0.25838 0.10335-0.17226 0.34451-0.20671 0.24116-0.03445 0.39618-0.22393 0.17226-0.20671 0.41341-0.37896t0.32728-0.25838q0.10335-0.08613 0.17225-0.08613 0.10335 0 0.10335 0.15503t0.0689 0.15503 0.0689-0.0689-0.03445-0.17225v-0.12058q0-0.25838 0.27561-0.34451l0.77514-0.49954q0.03445-0.36173 0.18948-0.41341 0.17226-0.0689 0.25838-0.1378 0.08613-0.08613 0.18948-0.08613 0.22393 0 0.22393 0.25838l-0.08613 0.44786 0.08613 0.46509q0 0.10335-0.17225 0.29283-0.15503 0.17226-0.24116 0.55121-0.08613 0.36174-0.22393 0.39619h-0.10335q-0.31006 0.32728-0.49954 0.39618-0.17226 0.05168-0.27561 0.2067l-0.58566 0.67179q-0.17226 0.17225-0.29283 0.31006-0.12058 0.1378-0.18948 0.1378l-0.1378-0.1378q0-0.03445-0.0689-0.03445-0.17225 0-0.22393 0.2067-0.03445 0.20671-0.17226 0.36174-0.51676 0.24116-0.67179 0.44786l-0.10335 0.03445h-0.31006q-0.22393 0-0.31006 0.34451-0.08613 0.32728-0.49954 0.37896-0.39618 0.05168-0.56844 0.20671-0.03445 0.03445-0.15503 0.0689t-0.48231 0.27561l-1.4469 0.51676q-0.17225 0.08613-0.22393 0.08613l-0.48231 0.0689q-0.10335 0-0.2067-0.1378-0.10335-0.1378-0.1378-0.1378l-0.31006 0.10335q-0.34451 0.10335-0.65457 0.10335-0.17225 0-0.37896-0.12058-0.2067-0.12058-0.32728-0.17226-0.49954 0-0.70624-0.77514l-0.2067 0.03445q-0.0689 0-0.46509-1.223-0.10335-0.1378-0.32728-0.18948-0.22393-0.0689-0.22393-0.34451 0-0.77514 0.32728-1.0335 0.34451-0.27561 0.37896-0.41341l0.24116-0.89572q0.0689-0.05168 0.17225-0.34451l0.39619-0.72347q0.0689-0.12058 0.31006-0.60289zm3.6346-1.0335-0.2067 0.10335q-0.0689 0.03445-0.41341 0.31006-0.32728 0.25838-0.65457 0.43064-0.31006 0.15503-0.65457 0.84405-0.32728 0.68902-0.32728 0.79237 0 0.10335 0.10335 0.10335l0.58566-0.25838q0.32728-0.15503 0.60289-0.39618 0.29283-0.24116 0.82682-0.58566l0.1378-0.1378q0.03445-0.0689 0.31006-0.24116 0.29283-0.18948 0.43064-0.36174l0.17225-0.0689q0.29283-0.46509 0.58566-0.56844 0.31006-0.10335 0.31006-0.2067 0-0.2067-0.32728-0.2067-0.1378 0-0.41341 0.17225h-0.39618q-0.0689 0-0.37896 0.2067zm6.7868 1.068 0.24116 0.10335q0.03445-0.29283 0.32728-0.49954h0.1378q0.17226 0 0.44786-0.46509l0.29283-0.17225q0.0689 0.03445 0.20671 0.03445 0.10335 0 0.18948-0.1378 0.10335-0.1378 0.48231-0.53399h0.0689q0.10335 0 0.24116-0.15503 0.15503-0.15503 0.39618-0.15503l0.58566-0.15503q0.27561-0.0689 0.31006-0.0689 0.15503-0.05168 0.75792 0.63734 0.60289 0.67179 0.60289 1.3091 0 0.36173-0.37896 0.43064l-0.08613 0.0689v0.34451l-0.29283 0.63734q-0.12058 0.25838-0.29283 0.32728-0.15503 0.27561-0.22393 0.37896l-0.24116 0.03445-0.10335 0.10335v0.43064q-0.15503 0.2067-0.44786 0.91295-0.29283 0.68902-0.29283 0.8785 0 0.32728 0.1378 0.32728 0.10335 0 0.2067-0.08613 0.10335-0.08613 0.27561-0.18948 0.18948-0.12058 0.27561-0.24116 0.08613-0.12058 0.36173-0.20671 0.27561-0.10335 0.51676-0.36173 0.24116-0.25838 0.34451-0.34451 0.10335-0.08613 0.22393-0.22393 0.12058-0.15503 0.15503-0.15503 0.10335 0 0.32728-0.0689 0.03445-0.18948 0.0689-0.27561l0.41341-0.2067 0.99908-0.89572 0.1378-0.17225q0.27561-0.0689 0.34451-0.10335 0.1378-0.46509 0.46509-0.67179 0-0.0689 0.17225-0.10335 0.1378-0.27561 0.34451-0.43064 0.22393-0.17225 0.36173-0.41341l0.39618-0.32728q0.17226-0.0689 0.24116-0.2067 0.89572-0.79237 1.1024-0.89572 0.22393-0.12058 0.70624-0.12058 0.48231 0 0.77514 0.37896 0.31006 0.36173 0.65457 0.55121 0.36173 0.18948 0.36173 0.72347 0 0.49954-0.77514 1.912-0.49954 1.4814-0.51676 1.8259-0.01723 0.32728-0.15503 0.37896-0.1378 0.05168-0.1378 0.12058v0.0689q0 0.41341 0.1378 0.41341 0.10335 0 0.27561-0.17225 0.18948-0.17225 0.74069-0.37896l0.15503 0.03445q0.49954-0.75792 0.67179-0.8096 0.17226-0.0689 0.34451-0.31006 0.17225-0.25838 0.41341-0.27561 0.25838-0.01723 0.32728-0.08613 0.01722-0.41341 0.67179-0.93017 0.67179-0.51676 0.77514-0.51676 0.17225 0 0.27561 0.25838 0.10335 0.25838 0.2067 0.36174 0.12058 0.08613 0.12058 0.15503v0.31006q0 0.22393-0.22393 0.29283-0.17225 0.37896-0.31006 0.44786l-0.31006-0.03445q-0.08613 0.10335-0.15503 0.18948-0.05168 0.08613-0.0689 0.0689-0.1378 0.03445-0.49954 0.46509-0.34451 0.41341-0.62012 0.68902l-0.0689 0.10335q-0.1378 0.10335-0.25838 0.1378l-0.31006 0.25838q-0.17225-0.10335-0.2067-0.10335-0.03445 0-0.15503 0.1378-0.10335 0.1378-0.44786 0.36173-0.32728 0.2067-0.49954 0.48231l-0.27561 0.27561-0.36173 0.05168q-0.05168 0-0.17226 0.15503l-0.31006 0.39618q-0.22393 0.29283-0.70624 0.29283-0.10335 0-0.27561-0.17225-0.15503-0.18948-0.31006-0.31006-0.1378-0.1378-0.65456-0.77514-0.49954-0.65457-0.49954-0.68902l0.10335-0.60289-0.03445-0.41341q0-0.12058 0.15503-0.36173 0.17225-0.25838 0.17225-0.27561l-0.03445-0.67179q0.03445-0.03445 0.0689-0.10335l0.24116-0.39618q-0.03445-0.17226-0.03445-0.37896l0.0689-0.56844q-0.31006 0.1378-0.55121 0.56844-0.22393 0.41341-0.60289 0.41341-0.32728 0.58566-0.49954 0.56844-0.0689 0.0689-0.10335 0.1378l-0.24116 0.1378-0.29283-0.03445-0.10335 0.43064q-0.37896 0.2067-0.49954 0.37896-0.10335 0.15503-0.34451 0.32728l-0.29283 0.27561h-0.27561q-0.0689 0.46509-0.53399 0.77514l-0.1378 0.17225-0.31006-0.03445q-0.17225 0.55122-0.43064 0.67179-0.29283 0-0.8096 0.53399-0.49954 0.53399-0.70624 0.53399-1.4986 0-2.4288-1.8776-0.03445-0.0689-0.17226-0.25838-0.12058-0.18948-0.12058-0.58566 0-0.67179 0.17226-0.91295 0.18948-0.24116 0.46509-0.89572 0.29283-0.67179 0.43064-0.58566 0.03445-0.0689 0.03445-0.2067 0.27561-0.32728 0.27561-0.49954 0-0.0689-0.0689-0.0689-0.03445 0-0.2067 0.10335l-0.24116 0.10335q-0.15503 0.03445-0.22393 0.1378-0.0689 0.10335-0.24116 0.2067-0.17225 0.08613-0.27561 0.15503h-0.05168q-0.10335-0.10335-0.1378-0.10335-0.10335 0.27561-0.17225 0.34451l-0.2067 0.03445q-0.37896 0.39618-0.48231 0.39618-0.0689 0-0.31006-0.12058t-0.24116-0.24116l0.12058-0.67179v-0.31006q0-0.03445 0.1378-0.1378 0.03445 0 0.27561-0.36173 0.24116-0.37896 0.56844-0.37896zm31.126 3.6001h0.0689l0.17225 0.0689q0.0344 0 0.0689-0.03445 0-0.29283 0.27561-0.49954 0.0861-0.32728 0.37896-0.49954 0.31006-0.17225 0.96463-0.56844l0.43063-0.37896 0.20671-0.10335 0.1378-0.17226q0.18948-0.22393 0.36174-0.22393 0.25838 0 0.25838 0.18948l-0.15503 0.34451 0.0689 0.56844q0 0.31006-0.22393 0.55121-0.20671 0.24116-0.65457 0.70624l-0.8785 0.93017-0.46508 0.24116q-0.17226 0.10335-0.31006 0.24116l-0.67179 0.56844q0 0.24116-0.15503 0.36173h-0.27561l-0.1378 0.0689q-0.12058 0.32728-0.70624 0.63734l-0.24116 0.17226q-0.12058 0.10335-0.22393 0.10335l-0.48231-0.0689-0.32729 0.0689q-0.1378 0-0.37896-0.1378-0.22393-0.1378-0.46508-0.2067-0.24116-0.08613-0.62012-0.63734-0.36173-0.56844-0.39618-0.74069 0-0.0689-0.0861-0.22393-0.0689-0.17226-0.0689-0.20671 0-0.03445 0.15503-0.34451v-0.03445q0-0.05168-0.10336-0.24116-0.0861-0.18948-0.0861-0.46509 0-0.15503-0.10336-0.39618 0.13781-0.1378 0.13781-0.20671 0-0.0689-0.0517-0.18948-0.0517-0.1378-0.0517-0.20671l0.10336-0.84405-0.0689-0.43064 0.0345-0.41341q0-0.36173-0.31006-0.36173-0.1378 0-0.34451 0.18948l-0.12058 0.03445q-0.46509 0.22393-0.65457 0.37896-0.18948 0.1378-0.39618 0.1378-0.10335 0.10335-0.39618 0.18948l-0.1378 0.10335q-0.0689 0.0689-0.27561 0.20671 0 0.05168-0.65457 0.58566-0.63734 0.51676-1.1541 0.98185-0.51676 0.46509-0.75792 0.51676-0.22393 0.03445-0.22393 0.43064 0 0.0689-0.31006 0.27561-0.03445 0-0.36174 0.37896-0.27561-0.2067-0.31006-0.2067-0.22393 0-0.32728 0.56844-0.10335 0.22393-0.55121 0.27561-0.03445 0.01722-0.12058 0.25838l-0.0689 0.0689h-0.17225q-0.03445 0-0.24116 0.2067-0.2067 0.18948-0.36173 0.24116-0.22393 0.46509-0.37896 0.46509-0.0689 0-0.2067-0.0689-0.12058-0.0689-0.31006-0.12058-0.18948-0.05168-0.43064-0.41341-0.22393-0.37896-0.22393-0.63734 0-1.912 0.74069-2.0843l0.03445-0.0689v-0.1378q0-0.22393 0.18948-0.31006 0.2067-0.10335 0.41341-0.37896 0.2067-0.29283 0.27561-0.32728h0.22393q0.0689 0 0.0689-0.36173 0-0.10335 0.08613-0.18948 0.08613-0.08613 0.10335-0.24116 0.01722-0.17225 0.24116-0.53399 0.24116-0.37896 0.24116-0.44786l-0.03445-0.0689q-0.43064 0.39618-0.62012 0.43064t-0.51676 0.49954l-0.27561-0.05168q-0.72347 0.53399-0.89572 0.60289-0.17225 0.0689-0.37896 0.39618 0 0.10335-0.12058 0.1378-0.12058 0.03445-0.44786 0.27561h-0.10335q-0.43064 0-0.43064-0.62012l0.36174-0.98185q0.15503-0.46509 0.72347-0.77514 0.58566-0.32728 0.98185-0.62012 0.39618-0.29283 0.79237-0.31006l0.12058-0.17226q0.58566-0.22393 0.79237-0.70624 0.20671-0.48231 0.56844-0.48231 0.9474 0 1.4469 0.70624 0.49954 0.68902 0.49954 1.1024l0.03445 0.46509q0 0.24116-0.10335 0.67179-0.2067 0.31006-0.2067 0.46509 0 0.1378 0.17225 0.1378 0.10335 0 0.27561-0.1378 0.17225-0.15503 0.37896-0.27561 0.22393-0.12058 0.25838-0.2067 0.17226-0.41341 0.60289-0.56844 0.43064-0.15503 0.53399-0.25838l0.17226-0.1378 0.1378-0.25838q0.46509-0.2067 0.62012-0.37896 0.15503-0.17226 0.41341-0.22393 0.25838-0.05168 0.58566-0.31006l0.25838-0.0689 0.24116-0.1378q0.03445-0.03445 0.2067-0.08613 0.17226-0.05168 0.49954-0.17226 0.34451-0.1378 0.46509-0.1378 0.87849 0 1.378 0.70624 0.51677 0.70624 0.51677 1.1369l-0.0345 0.31006 0.0689 0.46509v0.0689l-0.13781 0.9474 0.0344 0.32728q0 0.8096-0.34451 1.1197-0.0861 0.03445-0.0861 0.17226v0.15503l0.34451 0.72347q0.15503 0.37896 0.24115 0.37896l0.55122-0.15503q0.24115-0.0689 0.39618-0.36174 0.1378-0.0689 0.48231-0.41341 0.10336-0.27561 0.32729-0.27561zm2.3254 13.815-0.27561 0.18948q-0.17225 0.10335-0.36173 0.10335-0.43064 0-0.82682-0.56844-0.41341-0.56844-0.41341-1.1713 0-1.0852 0.22393-1.5503 0.2067-0.44786 0.24115-0.67179 0-0.0172 0.37896-0.86127 0.36174-0.82682 0.68902-1.2575 0.32728-0.43063 0.55121-0.80959l0.0689-0.13781q0.25838-0.41341 0.49953-0.56844 0-0.10335 0.65457-0.72347 0.67179-0.60289 1.2575-1.0335l0.17225-0.24116q0.41341-0.25838 0.48231-0.25838l0.99908-0.27561q0.1378-0.1378 0.67179-0.53398h0.1378l0.46509-0.1378q0.37896-0.17225 1.1713-0.31006 0.8096-0.15503 0.91295-0.34451 0.12058-0.2067 0.18948-0.37896 0.0861-0.17226 0.39618-0.72347 0.0689-0.29283 0.12058-0.46509 0.0517-0.17226 0.10336-0.20671 0.0689-0.03445 0.2067-0.32728 0.1378-0.31006 0.27561-0.51676 0.0345 0 0.0345-0.03445l-0.10335-0.29283q0.1378-0.41341 0.2756-0.49954 0.15503-0.10335 0.15503-0.1378l-0.12058-0.31006 0.29284-0.63734q0-0.0689-0.0689-0.0689-0.91294 0.63734-1.068 0.63734-0.0861 0.12058-0.37896 0.41341-0.29284 0.10335-0.39619 0.36173l-0.1378 0.03445-0.10335 0.17226q0 0.03445-0.12058 0.08613t-0.48231 0.27561l-0.20671-0.03445q-0.0689 0-0.17225 0.34451-0.29284 0.34451-0.56844 0.43064-0.25838 0.0689-0.32729 0.17225l-0.1378 0.17225-0.17225-0.03445q-0.36174 0-0.36174 0.27561 0 0.15503-0.2067 0.36173-0.13781 0-0.34451 0.10335h-0.25838q-0.17226 0.37896-0.62012 0.46509l-0.49954 0.34451-0.29283 0.10335q-0.20671 0.10335-0.41341 0.25838-0.20671 0.1378-0.70624 0.17226-0.24116-0.1378-0.7407-0.25838-0.49954-0.1378-0.70624-1.6881h-0.0345q-0.13781 0-0.29283 0.10335-0.17226 0.10335-0.24116 0.10335-0.41341 0-0.41341-0.34451 0-0.77514 0.58566-1.0163l0.43064-0.53399 1.1024-1.0852q1.1541-1.1541 1.5503-1.4814 0.39618-0.32728 0.86127-0.63734l0.8785-0.58566q0.44786-0.29283 0.55121-0.31006 0.10335-0.03445 0.20671-0.12058 0.12057-0.08613 0.63734-0.25838l0.31006-0.1378q0.96462-0.32728 1.2402-0.32728l0.24115 0.03445q0.18948 0 0.36174-0.1378 0.24115 0 0.74069-0.37896l0.62012-0.17226q0.25838-0.08613 0.43063-0.08613h0.32729q0.36173 0 0.46508 0.56844 0.12058 0.56844 0.20671 0.56844 0.0344 0 0.2067-0.25838l0.24116-0.17226q0.25838-0.17225 0.32728-0.17225 0.41341 0 0.51677 0.34451v0.03445l0.0689 0.08613q0.15503 0.82682 0.15503 1.0163 0 0.82682-0.36174 1.2919-0.34451 0.46509-0.41341 0.65457-0.34451 1.3953-0.68902 2.1015-0.0861 0.18948-0.41341 0.99908l-0.17225 0.17225q-0.0689 0.03445-0.0689 0.10335l0.0344 0.24116q-0.29283 0.46509-0.29283 0.74069 0 0.15503-0.27561 0.63734 0.0345 0.03445 0.29283 0.18948 0.27561 0.1378 0.60289 0.55121 0.34451 0.39618 0.34451 0.60289 0 0.0517-0.18948 0.67179-0.62011 0.46509-1.0508 0.46509-0.17225 0-0.49954-0.22393l-0.10335 0.0345v-0.0689q-0.22393-0.0517-0.36174-0.13781-0.12057-0.0689-0.24115-0.0689-0.1378 0-0.1378 0.1378 0 0.0689 0.0345 0.13781-0.10336 0.0861-0.27561 0.25838 0 0.0517-0.24116 0.49954-0.24115 0.46508-0.43063 0.62011-0.37896 0.0172-0.51677 0.56844-0.1378 0.55122-0.32728 0.70624l-0.17225-0.0689q-0.58567 1.1713-1.1713 1.6881-0.36174 0.0861-0.37896 0.12057 0 0.0517-0.0344 0.22393-0.0172 0.18948-0.41341 0.56844-0.37896 0.39619-0.44787 0.39619l-0.17225 0.0344-0.10335 0.10335q0.0172 0.34451-0.91295 1.1024-0.49954 0.27561-0.53399 0.37896-0.1378 0.32728-1.0163 0.77514l-0.32728 0.29284q-0.22394 0.2067-0.44787 0.29283zm5.9256-14.349 0.2067-0.29283q0.10336-0.1378 0.34451-0.2067 0.25838-0.0689 0.41341-0.29283 0.41341-0.58566 0.98185-0.86127l0.17226-0.12058q0.25838-0.49954 0.46509-0.53399 0.2067-0.05168 0.36173-0.31006 0.15503-0.27561 0.15503-0.44786 0-0.0689-0.10335-0.0689-0.24116 0-0.43064 0.1378-0.17225 0.1378-0.24116 0.1378l-0.34451-0.03445q-0.31005 0.17225-0.86127 0.41341l-0.31006 0.25838q-0.2067 0.1378-0.37895 0.17225-0.15503 0.03445-0.24116 0.22393-0.0861 0.17225-0.22393 0.17225l-0.13781 0.0689q-0.0689 0.0689-0.39618 0.0689-0.17225 0.10335-0.36173 0.29283-0.17226 0.18948-0.20671 0.18948-0.39618 0.43064-0.68902 0.53399-0.2756 0.10335-0.36173 0.29283-0.32728 0.08613-0.55122 0.39618-0.22393 0.29283-0.41341 0.41341-0.17225 0.10335-0.31005 0.27561l-0.17226 0.1378q-0.10335 0.0689-0.29283 0.46509-0.17226 0.37896-0.17226 0.53399 0 0.10335 0.12058 0.10335 0.17226 0 0.63734-0.24116 0.48232-0.25838 0.62012-0.39618 0.1378-0.1378 0.18948-0.1378l0.65457 0.03445q0.10335-0.22393 0.34451-0.29283 0.25838-0.0689 0.39618-0.29283 0.1378-0.22393 0.77515-0.48231l0.18947-0.31006zm0.31006 5.4949-0.51677 0.0689q-0.18948-0.13781-0.29283-0.13781-0.0689 0-0.10335 0.10335-0.20671 0.27561-0.91295 0.46509t-0.96462 0.37896q-0.24116 0.20671-0.41341 0.22393-0.17226 0.0172-0.17226 0.0689-0.17225 0.13781-0.25838 0.24116-0.17225 0.0689-0.34451 0.2067-0.17225 0.15503-0.36173 0.18948-0.31006 0.6718-0.44786 0.6718-0.0345 0-0.17226-0.0344h-0.0344q-0.22393 0.44786-0.34451 0.51676t-0.2067 0.18948q-0.0861 0.1378-0.32729 0.29283-0.25838 0.15503-0.34451 0.51676-0.0861 0.37896-0.2067 0.49954-0.13781 0.13781-0.17226 0.58567l-0.10335 0.24115q-0.0517 0.10336-0.1378 0.58567-0.10335 0.49954-0.10335 0.51676 0 0.24116 0.2067 0.43064 0.0689-0.0861 0.29283-0.12058l1.0163-0.41341q0.0517-0.0345 0.37896-0.32728 0.32729-0.27561 0.56844-0.36174 0.25838-0.0861 0.46509-0.31006 0.1378-0.2067 0.32728-0.34451 0.20671-0.1378 0.24116-0.3445 0.39618-0.34451 0.72347-0.65457 0.32728-0.29283 0.41341-0.49954 0.10335-0.18948 0.31006-0.32728l0.0689-0.22393q0.0344-0.0172 0.1378-0.0517 0.12058-0.0172 0.37896-0.55121l0.46509-0.77515q0.41341-0.41341 0.67179-1.0508l0.24116-0.20671q0.0689-0.0345 0.0689-0.15502zm25.442-15.262 0.1378-0.36174q0.37896-0.9474 0.8785-1.4469-0.0344-0.41341 0.77514-1.2402 0.41341-0.8096 0.49954-1.0163 0.10335-0.03445 0.37896-0.0689 0.17226-0.2067 0.53399-0.49954 0.12058-0.55121 0.56844-0.79237 0.44786-0.25838 0.55121-0.43064l1.1713-1.2402 1.7226-1.3436 0.22393-0.10335 0.2067-0.2067 0.13781-0.0689 0.32728-0.29283h0.0689q0.15503 0 0.56844-0.37896 0.41341-0.39618 0.8785-0.39618 0.41341 0 0.41341 0.46509 0 0.37896-0.63734 0.44786-0.0689 0-0.13781 0.0689v0.36173q0 0.31006-0.63734 0.34451-0.0689 0.03445-0.2756 0.27561-0.20671 0.22393-0.53399 0.32728-0.31006 0.10335-0.55122 0.49954l-0.25838 0.41341q-0.17225 0.29283-0.2067 0.29283l-0.36174 0.1378q-0.0345 0.0689-0.2067 0.34451-0.17226 0.25838-0.24116 0.43064-0.0689 0.05168-0.46509 0.2067l-0.41341 0.84405q-0.2067 0.39618-0.55121 0.84405-0.34451 0.43064-0.55121 0.93017-0.43064 0.63734-0.77515 0.98185-0.31006 0.17225-0.31006 0.53399-0.29283 0.44786-0.32728 0.70624-0.51676 1.1713-0.67179 1.4814-0.13781 0.31006-0.34451 0.91295l-0.29283 0.56844-0.24116 0.70624q-0.0345 0.10335-0.1378 0.24116l-0.39619 0.53399-0.0344 0.17225 0.1378 0.46509v0.0689l-0.2756 0.56844-0.10336 1.1886 0.0345 0.39618-0.17225 0.8785 0.0345 0.49954-0.0345 0.34451 0.0689 0.8096-0.1378 0.49954q0 0.10335 0.0861 0.44786 0.0861 0.32728 0.12057 0.79237 0.0345 0.44786 0.27561 0.74069l-0.10342 0.51676q0.10335 0.36174 0.98185 1.5675 0.89572 1.2058 0.89572 1.4297 0 0.29283-0.32728 0.29283-0.84405 0-1.4125-1.068-0.0689-0.10335-0.27561-0.32728-0.2067-0.22393-0.32728-0.46509-0.10335-0.25838-0.37896-0.46509-0.49954-0.62012-0.67179-1.2402l-0.20671-0.27561q-0.46508-0.46509-0.46508-0.89572l0.2067-0.17226q0.0344 0 0.0344-0.0689 0-0.17225-0.12057-0.37896-0.10336-0.22393-0.25839-0.8785-0.1378-0.65457-0.1378-0.68902l0.0344-0.48231-0.0344-0.53399 0.0344-0.2067q0-0.0689-0.10335-0.43064v-0.10335q0-0.0689 0.0689-0.36173 0.0689-0.31006 0.0689-0.48231 0-0.25838 0.17226-0.67179v-0.1378l0.10335-0.36173v-0.03445l-0.0689-0.51676 0.32728-1.2747q0.0344-0.1378 0.29283-0.36173 0.25839-0.24116 0.25839-0.8096l0.22393-0.41341q0.10335-0.22393 0.10335-0.29283l-0.0689-0.44786zm10.249 0.37896 0.10335-0.37896 0.43064-0.46509q0.0345-0.03445 0.0345-0.0689v-0.10335q0-0.25838 0.53399-0.56844 0.0344-0.43064 0.58567-0.63734l0.0861-0.0689v-0.1378q0-0.25838 0.36174-0.34451 0.37896-0.08613 0.58566-0.32728 0.31006-0.0689 0.98185-0.74069 0.0689-0.1378 0.17226-0.1378l0.39618-0.03445q0.49954-0.53399 0.63734-0.55121 0.13781-0.01722 0.29283-0.12058 0.15503-0.10335 0.44787-0.15503 0.0861-0.12058 1.223-0.70624h0.36174q0.0689 0 0.22393-0.1378 0.17225-0.1378 0.49953-0.18948 0.34451-0.05168 0.89573-0.22393 0.56844-0.18948 0.91295-0.25838l0.32728-0.17225h0.53399l0.17225-0.1378 1.0852-0.1378 1.1024-0.25838 0.31006 0.03445 0.22393-0.03445 0.37896 0.08613q0.0689 0 0.22393-0.0689 0.17226-0.08613 0.31006-0.08613 0.51676 0 0.93017 0.12058 0.43064 0.12058 0.65457 0.15503 0.22393 0.01722 0.36173 0.08613 0.13781 0.0689 0.17226 0.0689l0.44786-0.03445q0.0344 0 0.1378 0.12058 0.12058 0.12058 0.32729 0.18948h0.31005q0.0345 0.03445 0.10336 0.03445 0.2067 0.17226 0.74069 0.43064 0.37896 0.29283 0.39619 0.31006 0.1378-0.05168 1.068 0.72347 0.93018 0.77514 1.1886 1.1886l0.36173 0.46509 0.17226 0.44786 0.17225 0.29283q0.27561 0.70624 0.49954 1.6536l0.1378 0.34451q0.0345 0.03445 0.0345 0.15503l-0.10335 0.48231 0.1378 0.63734q0 0.2067-0.1378 0.60289 0.0689 0.17226 0.0689 0.20671 0 0.03445-0.1378 0.55121-0.1378 0.49954-0.1378 0.58566l0.0689 0.34451q0 0.0689-0.15503 0.22393-0.1378 0.1378-0.1378 0.2067 0 0.22393-0.12058 0.43064-0.12058 0.20671-0.15503 0.27561l-0.29283 0.48231q-0.0689 0.25838-0.17226 0.29283-0.10335 0.03445-0.10335 0.24116-0.0345 0.03445-0.24116 0.20671l-0.17225 0.25838-0.70624 0.74069q-0.10336 0.37896-0.82683 0.8785l-0.2067 0.20671q-0.93017 0.75792-1.1369 0.89572-0.20671 0.1378-0.34451 0.31006-0.1378 0.17226-0.44786 0.34451-0.0517 0.08613-0.43064 0.36173l-0.24115-0.03445q-0.12058 0.20671-0.29283 0.29283-0.17226 0.08613-0.25839 0.15503-0.0861 0.0689-0.12057 0.0689-0.0345 0-0.15503-0.03445-0.17226 0.25838-0.48232 0.37896-0.29283 0.12058-0.44786 0.22393t-0.18948 0.10335l-0.2756-0.10335q0 0.37896-0.27561 0.41341-0.27561 0.03445-0.46509 0.15503l-0.36173-0.03445q-0.63734 0.63734-1.8259 0.63734-0.22393 0.27561-0.29283 0.27561l-0.31006-0.0689q-0.1378 0.0689-0.24115 0.0689-0.0861 0-0.63735 0.17225-0.2067-0.1378-0.49953-0.1378l0.0345 0.29283q0 0.17226-0.46509 0.17226-0.17225 0-0.37896-0.10335-0.2067 0.0689-0.25838 0.0689-0.10335 0-0.15503-0.12058-0.0517-0.1378-0.0861-0.1378-0.34451 0.56844-1.2058 0.56844-0.0861 0-0.98185 0.22393l-0.2067 0.03445q-0.0689 0-0.13781-0.03445l-0.29283-0.03445q-0.0689 0-0.27561-0.08613-0.10335 0.18948-0.17225 0.18948-0.32728 0-0.8096 0.10335-0.15503-0.08613-0.72346-0.12058-0.55122-0.05168-0.68902-0.20671h-0.0344q-0.0345 0-0.12058 0.03445h-0.0689q-0.0689 0-0.17226-0.05168-0.10335-0.05168-0.34451-0.08613-0.22393-0.03445-0.46508-0.36173-0.24116-0.34451-0.24116-0.58566 0-0.32728 0.27561-0.60289t0.56844-0.27561q0.1378 0 0.37896 0.10335h0.18948l0.2756 0.03445 0.10336-0.03445q-0.0689-0.24116-0.0689-0.25838 0-0.51676 0.36174-0.8785l0.24116-0.67179q0.0344-0.0689 0.2067-0.18948 0.17225-0.12058 0.17225-0.32728l0.15503-0.36174 0.0345-0.24116 0.17226-0.24116q0.1378-0.18948 0.17225-0.36173 0.0344-0.17225 0.24116-0.24116 0-0.36173 0.24116-0.58566 0.25838-0.22393 0.25838-0.34451 0-0.34451 0.24115-0.37896 0.0861-0.0689 0.0861-0.1378 0-0.0689-0.0861-0.22393 0.12058-0.34451 0.32729-0.37896 0.22393-0.03445 0.2756-0.0689-0.1378-0.03445-0.1378-0.17225 0-0.15503 0.10335-0.29283l0.17226-0.44786q0.0861-0.22393 0.43063-0.43064-0.10335-0.10335-0.10335-0.17226 0-0.03445 0.10335-0.1378l0.24116 0.0689q0-0.03445 0.0344-0.03445l0.0345-0.39618-0.0345-0.24116q0-0.03445 0.39619-0.22393l0.0689-0.17226q-0.24116 0-0.46509-0.0689-0.32728 0.1378-0.48231 0.24116-0.0344 0.05168-0.29283 0.05168h-0.10336q-0.0345 0-0.31005-0.08613-0.0689 0.03445-0.15503 0.17225-0.0689 0.12058-0.10336 0.12058l-0.51676-0.17225q-0.0689 0-0.27561 0.18948-0.18948 0.18948-0.36173 0.18948-0.0861 0-0.29283-0.10335-0.13781 0.10335-0.65457 0.10335-0.22393 0-0.46509 0.10335l-0.2756-0.03445-0.22393 0.03445q-0.0689 0-0.51677-0.31006-0.25838 0.0689-0.32728 0.0689l-0.27561-0.1378q-0.27561-0.1378-0.44786-0.15503-0.15503-0.01723-0.31006-0.08613-0.1378-0.0689-0.15503-0.0689-0.0172-0.01723-0.15503-0.17226-0.1378-0.15503-0.31005-0.22393-0.17226-0.0689-0.17226-0.29283l-0.0689-0.77514q0-0.10335 0.0861-0.27561 0.0861-0.17225 0.0861-0.31006 0-0.22393 0.2756-0.36173zm4.0997 1.7225h0.0689q0.27561 0 0.27561 0.22393 0 0.0689-0.0689 0.17225 0.0689 0.03445 0.10336 0.03445 0.0689 0 0.24115-0.25838 0.17226-0.27561 0.89573-0.27561 0.0344 0 0.0861 0.03445t0.0861 0.03445q0.0345 0 0.15503-0.10335 0.12058-0.10335 0.18948-0.10335l0.77514-0.17225q1.1024-0.17226 1.1024-0.43064l-0.0344-0.24116q0.0689-0.1378 0.31006-0.41341 0.25838-0.29283 0.25838-0.60289l0.10335-0.39619v-0.17225q0-0.46509 0.63734-0.56844v-0.03445l-0.17225-0.53399 0.0345-0.0689q0.24116-0.12058 0.24116-0.17225 0-0.03445-0.17226-0.2067-0.15503-0.18948-0.15503-1.068 0-0.49954 0.56844-0.49954 0.7407 0 1.3264 0.65457 0.58567 0.65457 0.58567 1.4642 0 0.60289-0.60289 1.8087l-0.10336 0.37896h0.27561l0.43064-0.0689 0.31005 0.03445q0.22393 0 0.51677-0.1378 0.29283-0.1378 0.53399-0.17225 0.25838-0.03445 0.49953-0.20671 0.49954-0.12058 0.84405-0.17225 0.36173-0.05168 0.67179-0.22393h0.0861q0.0344 0 0.1378 0.1378h0.0344q0.0344 0 0.10336-0.03445 0.10335-0.24116 0.44786-0.36173 0.36173-0.1378 0.46508-0.27561l0.29284-0.31006q0-0.03445 0.55121-0.36173 0.56844-0.34451 0.84405-0.34451 0.53399 0 0.63734 0.41341l0.10335 0.29283v0.03445q0 0.43064-0.68902 1.0508-0.67179 0.62012-1.7914 0.89572-1.1197 0.27561-1.3608 0.27561-0.10335 0-0.20671-0.17225l-0.36173 0.10335-0.10335 0.17225q0 0.03445-0.0689 0.03445l-0.2067-0.1378h-0.0689q-0.17226 0.15503-0.65457 0.31006-0.46509 0.15503-0.72347 0.25838h-0.34451q-0.2756 0-0.75792 0.17225l-0.31005 0.03445q-0.60289 0.10335-0.6718 0.1378-0.0689 0.03445-0.25838 0.46509l-0.43063 0.9474q-0.0861 0.2067-0.29284 0.53399l-0.25838 0.41341q-0.0345 0-0.0345 0.03445l0.0861 0.25838v0.03445q-1.068 1.4297-1.4642 2.4805-0.39619 1.0508-0.8785 1.912-0.46509 0.84405-0.58567 1.1713-0.12057 0.32728-0.22393 0.51676-0.10335 0.18948-0.10335 0.22393 0 0.08613 0.10335 0.08613h0.13781q0.18948-0.15503 0.37896-0.17226 0.18948-0.01723 0.39618-0.05168l0.18948 0.0689h0.27561q0.0172 0 0.29283-0.17226l0.1378 0.03445 0.31006-0.03445 0.29284 0.03445q0.0345 0 0.12057-0.05168 0.0861-0.05168 0.22393-0.0689 0.13781-0.01722 0.20671-0.0689t0.10335-0.05168l0.15503 0.03445q0.0344 0.03445 0.0689 0.03445 0.10336 0 0.20671-0.27561l0.31006 0.10335q0-0.25838 0.15502-0.25838 0.48232 0 0.55122-0.03445l0.18948 0.03445h0.0344q0.0344 0 0.2067-0.10335l1.8776-0.70624q0.2067-0.03445 0.77514-0.44786l0.34451-0.15503q0.36174-0.17225 0.46509-0.27561t0.17225-0.10335q0.49954 0 0.67179-0.43064 0.0689-0.03445 0.27561-0.2067l0.17226-0.03445q0.25838-0.0689 0.56844-0.31006l0.32728-0.25838q0.10335-0.10335 0.37896-0.1378 0.63734-0.77514 0.91295-0.91295l0.25838-0.1378q0.0345-0.29283 0.24115-0.46509 0.20671-0.17226 0.25839-0.37896 0.0689-0.22393 0.2067-0.22393h0.10335q0.0689 0 0.0689-0.0689l-0.0345-0.31006q0-0.29283 0.34451-0.29283v-0.10335l-0.0345-0.27561v-0.03445q0-0.29283 0.25838-0.37896 0.27561-0.08613 0.27561-0.32728 0-0.18948-0.0517-0.39618-0.0517-0.20671-0.0517-0.24116 0-0.32728 0.46509-0.53399l0.0344-0.0689q0-0.03445-0.13781-0.1378-0.12058-0.10335-0.12058-0.20671 0-0.05168 0.0689-0.22393 0.0689-0.17226 0.0689-0.20671 0-0.03445-0.0861-0.17225t-0.0861-0.25838q0-0.1378 0.10336-0.34451 0.10335-0.20671 0.10335-0.27561 0-0.15503-0.0344-0.25838-0.20671-0.10335-0.20671-0.24116v-0.0689l0.0344-0.1378-0.0344-0.22393 0.0689-0.2067q-0.10335-0.31006-0.17225-0.60289-0.0689-0.31006-0.24116-0.48231-0.15502-0.18948-0.15502-0.25838v-0.03445l0.0861-0.24116q0-0.03445-0.12058-0.0689-0.87849-1.1713-2.3254-1.7742-1.4469-0.60289-1.4814-0.60289l-0.37896 0.03445q-0.29283-0.1378-0.32728-0.1378l-0.17225 0.03445q-0.0345 0.03445-0.0689 0.03445-0.0689 0-0.31005-0.1378l-0.43064 0.03445-0.43064-0.03445q-0.80959-0.0689-1.2919 0.0689l-1.378 0.22393q-0.0689 0-0.56844 0.17226-0.27561 0.17225-1.1369 0.34451h-0.41341q-0.0344 0-0.2067 0.17226-0.17226 0.17225-1.1024 0.43064-0.24116 0.24116-0.41341 0.29283-0.15503 0.03445-0.22393 0.12058-0.0689 0.08613-0.13781 0.08613h-0.24115q-0.18948 0-0.41341 0.27561t-1.0335 0.63734l-0.18948 0.17225-0.34451 0.18948q-0.10335 0.03445-0.17225 0.1378l-0.0689 0.0689q-0.43064 0.12058-0.55122 0.39618t-0.32728 0.32728q-0.18948 0.05168-0.24116 0.25838-0.0517 0.2067-0.25838 0.34451-0.2067 0.1378-0.67179 0.8096-0.46509 0.65457-0.46509 0.96462 0 0.22393 0.20671 0.63734 0.2067 0.41341 0.60289 0.41341 0.32728 0 0.49953 0.08613 0.17226 0.0689 0.31006 0.0689 0.56844 0 0.93018-0.22393zm20.171-1.7225 0.10336-0.37896 0.43063-0.46509q0.0344-0.03445 0.0344-0.0689v-0.10335q0-0.25838 0.53399-0.56844 0.0345-0.43064 0.58567-0.63734l0.0861-0.0689v-0.1378q0-0.25838 0.36174-0.34451 0.37896-0.08613 0.58566-0.32728 0.31006-0.0689 0.98185-0.74069 0.0689-0.1378 0.17226-0.1378l0.39618-0.03445q0.49954-0.53399 0.63734-0.55121 0.13781-0.01722 0.29283-0.12058 0.15503-0.10335 0.44787-0.15503 0.0861-0.12058 1.223-0.70624h0.36174q0.0689 0 0.22393-0.1378 0.17225-0.1378 0.49954-0.18948 0.3445-0.05168 0.89572-0.22393 0.56844-0.18948 0.91295-0.25838l0.32728-0.17225h0.53399l0.17225-0.1378 1.0852-0.1378 1.1024-0.25838 0.31006 0.03445 0.22393-0.03445 0.37896 0.08613q0.0689 0 0.22393-0.0689 0.17226-0.08613 0.31006-0.08613 0.51676 0 0.93017 0.12058 0.43064 0.12058 0.65457 0.15503 0.22393 0.01722 0.36173 0.08613 0.13781 0.0689 0.17226 0.0689l0.44786-0.03445q0.0345 0 0.1378 0.12058 0.12058 0.12058 0.32729 0.18948h0.31006q0.0344 0.03445 0.10335 0.03445 0.2067 0.17226 0.74069 0.43064 0.37896 0.29283 0.39619 0.31006 0.1378-0.05168 1.068 0.72347 0.93018 0.77514 1.1886 1.1886l0.36173 0.46509 0.17226 0.44786 0.17225 0.29283q0.27561 0.70624 0.49954 1.6536l0.1378 0.34451q0.0344 0.03445 0.0344 0.15503l-0.10335 0.48231 0.13781 0.63734q0 0.2067-0.13781 0.60289 0.0689 0.17226 0.0689 0.20671 0 0.03445-0.1378 0.55121-0.1378 0.49954-0.1378 0.58566l0.0689 0.34451q0 0.0689-0.15503 0.22393-0.1378 0.1378-0.1378 0.2067 0 0.22393-0.12058 0.43064-0.12058 0.20671-0.15503 0.27561l-0.29283 0.48231q-0.0689 0.25838-0.17226 0.29283-0.10335 0.03445-0.10335 0.24116-0.0344 0.03445-0.24116 0.20671l-0.17225 0.25838-0.70624 0.74069q-0.10336 0.37896-0.82683 0.8785l-0.2067 0.20671q-0.93017 0.75792-1.1369 0.89572-0.2067 0.1378-0.34451 0.31006-0.1378 0.17226-0.44786 0.34451-0.0517 0.08613-0.43064 0.36173l-0.24115-0.03445q-0.12058 0.20671-0.29283 0.29283-0.17226 0.08613-0.25839 0.15503-0.0861 0.0689-0.12057 0.0689-0.0344 0-0.15503-0.03445-0.17226 0.25838-0.48232 0.37896-0.29283 0.12058-0.44786 0.22393t-0.18948 0.10335l-0.2756-0.10335q0 0.37896-0.27561 0.41341-0.27561 0.03445-0.46509 0.15503l-0.36173-0.03445q-0.63734 0.63734-1.8259 0.63734-0.22393 0.27561-0.29283 0.27561l-0.31006-0.0689q-0.1378 0.0689-0.24115 0.0689-0.0861 0-0.63735 0.17225-0.2067-0.1378-0.49953-0.1378l0.0344 0.29283q0 0.17226-0.46509 0.17226-0.17225 0-0.37896-0.10335-0.2067 0.0689-0.25838 0.0689-0.10335 0-0.15503-0.12058-0.0517-0.1378-0.0861-0.1378-0.34451 0.56844-1.2058 0.56844-0.0861 0-0.98185 0.22393l-0.2067 0.03445q-0.0689 0-0.13781-0.03445l-0.29283-0.03445q-0.0689 0-0.27561-0.08613-0.10335 0.18948-0.17225 0.18948-0.32728 0-0.8096 0.10335-0.15502-0.08613-0.72346-0.12058-0.55122-0.05168-0.68902-0.20671h-0.0344q-0.0344 0-0.12058 0.03445h-0.0689q-0.0689 0-0.17226-0.05168-0.10335-0.05168-0.34451-0.08613-0.22393-0.03445-0.46508-0.36173-0.24116-0.34451-0.24116-0.58566 0-0.32728 0.27561-0.60289t0.56844-0.27561q0.1378 0 0.37896 0.10335h0.18948l0.2756 0.03445 0.10336-0.03445q-0.0689-0.24116-0.0689-0.25838 0-0.51676 0.36173-0.8785l0.24116-0.67179q0.0344-0.0689 0.2067-0.18948 0.17226-0.12058 0.17226-0.32728l0.15502-0.36174 0.0345-0.24116 0.17225-0.24116q0.1378-0.18948 0.17225-0.36173 0.0345-0.17225 0.24116-0.24116 0-0.36173 0.24116-0.58566 0.25838-0.22393 0.25838-0.34451 0-0.34451 0.24115-0.37896 0.0861-0.0689 0.0861-0.1378 0-0.0689-0.0861-0.22393 0.12058-0.34451 0.32729-0.37896 0.22393-0.03445 0.2756-0.0689-0.1378-0.03445-0.1378-0.17225 0-0.15503 0.10335-0.29283l0.17226-0.44786q0.0861-0.22393 0.43063-0.43064-0.10335-0.10335-0.10335-0.17226 0-0.03445 0.10335-0.1378l0.24116 0.0689q0-0.03445 0.0345-0.03445l0.0344-0.39618-0.0344-0.24116q0-0.03445 0.39619-0.22393l0.0689-0.17226q-0.24116 0-0.46509-0.0689-0.32728 0.1378-0.48231 0.24116-0.0344 0.05168-0.29283 0.05168h-0.10336q-0.0344 0-0.31005-0.08613-0.0689 0.03445-0.15503 0.17225-0.0689 0.12058-0.10336 0.12058l-0.51676-0.17225q-0.0689 0-0.27561 0.18948-0.18948 0.18948-0.36173 0.18948-0.0861 0-0.29283-0.10335-0.13781 0.10335-0.65457 0.10335-0.22393 0-0.46509 0.10335l-0.2756-0.03445-0.22393 0.03445q-0.0689 0-0.51677-0.31006-0.25838 0.0689-0.32728 0.0689l-0.27561-0.1378q-0.2756-0.1378-0.44786-0.15503-0.15503-0.01723-0.31006-0.08613-0.1378-0.0689-0.15503-0.0689-0.0172-0.01723-0.15502-0.17226-0.13781-0.15503-0.31006-0.22393-0.17226-0.0689-0.17226-0.29283l-0.0689-0.77514q0-0.10335 0.0861-0.27561 0.0861-0.17225 0.0861-0.31006 0-0.22393 0.2756-0.36173zm4.0997 1.7225h0.0689q0.27561 0 0.27561 0.22393 0 0.0689-0.0689 0.17225 0.0689 0.03445 0.10336 0.03445 0.0689 0 0.24115-0.25838 0.17226-0.27561 0.89573-0.27561 0.0345 0 0.0861 0.03445 0.0517 0.03445 0.0861 0.03445t0.15503-0.10335q0.12058-0.10335 0.18948-0.10335l0.77514-0.17225q1.1024-0.17226 1.1024-0.43064l-0.0345-0.24116q0.0689-0.1378 0.31006-0.41341 0.25838-0.29283 0.25838-0.60289l0.10335-0.39619v-0.17225q0-0.46509 0.63734-0.56844v-0.03445l-0.17225-0.53399 0.0344-0.0689q0.24116-0.12058 0.24116-0.17225 0-0.03445-0.17226-0.2067-0.15503-0.18948-0.15503-1.068 0-0.49954 0.56844-0.49954 0.7407 0 1.3264 0.65457 0.58567 0.65457 0.58567 1.4642 0 0.60289-0.60289 1.8087l-0.10336 0.37896h0.27561l0.43064-0.0689 0.31005 0.03445q0.22394 0 0.51677-0.1378 0.29283-0.1378 0.53399-0.17225 0.25838-0.03445 0.49953-0.20671 0.49954-0.12058 0.84405-0.17225 0.36173-0.05168 0.67179-0.22393h0.0861q0.0344 0 0.1378 0.1378h0.0344q0.0344 0 0.10336-0.03445 0.10335-0.24116 0.44786-0.36173 0.36173-0.1378 0.46508-0.27561l0.29284-0.31006q0-0.03445 0.55121-0.36173 0.56844-0.34451 0.84405-0.34451 0.53399 0 0.63734 0.41341l0.10335 0.29283v0.03445q0 0.43064-0.68902 1.0508-0.67179 0.62012-1.7914 0.89572t-1.3608 0.27561q-0.10335 0-0.20671-0.17225l-0.36173 0.10335-0.10335 0.17225q0 0.03445-0.0689 0.03445l-0.20671-0.1378h-0.0689q-0.17226 0.15503-0.65457 0.31006-0.46509 0.15503-0.72347 0.25838h-0.34451q-0.2756 0-0.75792 0.17225l-0.31005 0.03445q-0.60289 0.10335-0.6718 0.1378-0.0689 0.03445-0.25838 0.46509l-0.43063 0.9474q-0.0861 0.2067-0.29284 0.53399l-0.25838 0.41341q-0.0344 0-0.0344 0.03445l0.0861 0.25838v0.03445q-1.068 1.4297-1.4642 2.4805-0.39619 1.0508-0.8785 1.912-0.46509 0.84405-0.58567 1.1713-0.12057 0.32728-0.22393 0.51676-0.10335 0.18948-0.10335 0.22393 0 0.08613 0.10335 0.08613h0.13781q0.18948-0.15503 0.37896-0.17226 0.18948-0.01723 0.39618-0.05168l0.18948 0.0689h0.27561q0.0172 0 0.29283-0.17226l0.13781 0.03445 0.31005-0.03445 0.29284 0.03445q0.0344 0 0.12057-0.05168 0.0861-0.05168 0.22393-0.0689 0.13781-0.01722 0.20671-0.0689t0.10335-0.05168l0.15503 0.03445q0.0344 0.03445 0.0689 0.03445 0.10336 0 0.20671-0.27561l0.31006 0.10335q0-0.25838 0.15503-0.25838 0.48231 0 0.55121-0.03445l0.18948 0.03445h0.0344q0.0345 0 0.20671-0.10335l1.8776-0.70624q0.2067-0.03445 0.77514-0.44786l0.34451-0.15503q0.36174-0.17225 0.46509-0.27561t0.17225-0.10335q0.49954 0 0.67179-0.43064 0.0689-0.03445 0.27561-0.2067l0.17226-0.03445q0.25838-0.0689 0.56844-0.31006l0.32728-0.25838q0.10335-0.10335 0.37896-0.1378 0.63734-0.77514 0.91295-0.91295l0.25838-0.1378q0.0344-0.29283 0.24115-0.46509 0.20671-0.17226 0.25839-0.37896 0.0689-0.22393 0.2067-0.22393h0.10335q0.0689 0 0.0689-0.0689l-0.0344-0.31006q0-0.29283 0.3445-0.29283v-0.10335l-0.0344-0.27561v-0.03445q0-0.29283 0.25838-0.37896 0.27561-0.08613 0.27561-0.32728 0-0.18948-0.0517-0.39618-0.0517-0.20671-0.0517-0.24116 0-0.32728 0.46509-0.53399l0.0344-0.0689q0-0.03445-0.13781-0.1378-0.12057-0.10335-0.12057-0.20671 0-0.05168 0.0689-0.22393 0.0689-0.17226 0.0689-0.20671 0-0.03445-0.0861-0.17225t-0.0861-0.25838q0-0.1378 0.10336-0.34451 0.10335-0.20671 0.10335-0.27561 0-0.15503-0.0344-0.25838-0.20671-0.10335-0.20671-0.24116v-0.0689l0.0345-0.1378-0.0345-0.22393 0.0689-0.2067q-0.10336-0.31006-0.17226-0.60289-0.0689-0.31006-0.24116-0.48231-0.15502-0.18948-0.15502-0.25838v-0.03445l0.0861-0.24116q0-0.03445-0.12058-0.0689-0.87849-1.1713-2.3254-1.7742-1.4469-0.60289-1.4814-0.60289l-0.37896 0.03445q-0.29283-0.1378-0.32728-0.1378l-0.17225 0.03445q-0.0345 0.03445-0.0689 0.03445-0.0689 0-0.31005-0.1378l-0.43064 0.03445-0.43064-0.03445q-0.80959-0.0689-1.2919 0.0689l-1.378 0.22393q-0.0689 0-0.56844 0.17226-0.27561 0.17225-1.1369 0.34451h-0.41341q-0.0344 0-0.2067 0.17226-0.17226 0.17225-1.1024 0.43064-0.24116 0.24116-0.41341 0.29283-0.15503 0.03445-0.22393 0.12058-0.0689 0.08613-0.13781 0.08613h-0.24115q-0.18948 0-0.41341 0.27561t-1.0335 0.63734l-0.18948 0.17225-0.34451 0.18948q-0.10335 0.03445-0.17225 0.1378l-0.0689 0.0689q-0.43064 0.12058-0.55122 0.39618t-0.32728 0.32728q-0.18948 0.05168-0.24116 0.25838-0.0517 0.2067-0.25838 0.34451-0.2067 0.1378-0.67179 0.8096-0.46509 0.65457-0.46509 0.96462 0 0.22393 0.20671 0.63734 0.2067 0.41341 0.60289 0.41341 0.32728 0 0.49954 0.08613 0.17225 0.0689 0.31005 0.0689 0.56844 0 0.93018-0.22393zm32.28 7.2691 0.1378-0.34451 0.44786-0.49954q0.34451-0.56844 0.56844-0.67179 0.0344-0.1378 0.10335-0.25838 0.0689-0.12058 0.10336-0.37896l0.15502-0.27561q0.0689-0.0689 0.0689-0.10335 0-0.03445-0.13781-0.20671l-0.0861-0.36173q0-0.1378-0.91295-0.91295h-0.13781l-1.2402-0.60289-0.0689-0.17226-0.1378-0.03445-0.17226 0.0689h-0.0345l-0.58566-0.17225q-0.70625-0.18948-0.93018-0.29283-0.0344 0.03445-0.10335 0.03445l-0.68902-0.15503q-0.29283-0.0689-0.36173-0.1378-0.0517-0.08613-0.29283-0.15503-0.22393-0.08613-0.29284-0.15503-0.0689-0.0689-0.2756-0.0689l-0.43064 0.10335q0-0.05168-0.48231-0.17226-0.0689-0.17225-0.10335-0.17225l-0.49954 0.0689q-0.49954-0.24116-0.51677-0.24116-0.0861 0-0.60289-0.08613-0.51676-0.10335-0.67179-0.2067t-0.46508-0.2067l-0.10336-0.10335q-0.0344-0.03445-0.18948-0.0689h-0.31005q-0.10336 0-0.29284-0.17225-0.17225-0.17225-0.46508-0.34451-0.27561-0.17225-0.49954-0.53399-0.20671-0.37896-0.22393-0.75792-0.0344-0.03445-0.0344-0.0689l0.10335-0.55121q0.15503-1.0508 0.98185-1.9465 0.1378-0.46509 0.56844-0.67179l0.0689-0.24116q0.49954-0.43064 0.70624-0.68902 0.22393-0.25838 0.49954-0.41341 0.27561-0.17226 0.43064-0.31006l0.31006-0.1378q-0.0172-0.15503 0.75791-0.72347 0.79237-0.58566 1.223-0.75792 0.44786-0.18948 0.58567-0.27561 0.15502-0.08613 0.86127-0.25838 0.17225-0.46509 0.55121-0.46509h0.25838l0.34451-0.34451 0.46509 0.03445q0.0344-0.03445 0.18948-0.2067 0.15503-0.18948 0.51676-0.18948l2.0843-0.63734h0.1378l0.13781 0.03445q0.1378 0 0.34451-0.24116 0.22393-0.24116 0.56843-0.24116 0.0689 0 0.25839 0.1378 0 0.03445 0.0344 0.03445l0.44786-0.1378 0.53399 0.03445 0.67179-0.17225q0.63734 0 1.1196 0.31006l0.0344-0.0689v-0.10335q0-0.29283 0.32729-0.29283 0.1378 0 0.17225 0.0689l0.20671 0.12058h0.12057q0.0345 0 0.44787 0.2067 0.25838-0.17225 0.32728-0.17225 0.32728 0 0.51676 0.27561l0.29284-0.03445q0.1378-0.1378 0.17225-0.1378 0.10335 0 0.27561 0.27561l0.10335 0.03445h0.43064q0.0345 0 0.1378 0.10335l0.18948 0.15503q0.1378 0.1378 0.18948 0.22393 0.0517 0.08613 0.12058 0.15503 0.44786-0.18948 0.48231-0.18948 0.17225 0 0.25838 0.29283 0 0.24116 0.29283 0.48231 0.31006 0.22393 0.31006 0.48231 0.37896 0.17225 0.37896 0.55121l0.32728 0.84405-0.0689 0.29283q0.13781 0.27561 0.13781 0.31006l-0.0689 0.63734 0.0689 0.67179q0 0.53399-0.49954 0.91295-0.10335 0-0.34451 0.15503-0.22393 0.1378-0.25838 0.1378-0.44786 0-0.60289-0.2067-0.13781-0.22393-0.27561-0.32728t-0.1378-0.27561q0-0.39618 0.53399-0.77514 0.24115 0 0.3445-0.15503 0-0.36173-0.15502-0.49954-0.15503-0.1378-0.34451-0.37896-0.17226-0.24116-0.37896-0.37896-0.20671-0.15503-0.34451-0.37896-0.12058-0.22393-0.22393-0.22393l-0.24116 0.03445-0.49954-0.10335q-0.79237-0.10335-1.4469-0.36173h-0.34451l-0.93018-0.1378q-0.24115 0.10335-0.68901 0.10335l-1.1369 0.17225-0.46509-0.03445q-0.0517 0-0.9474 0.29283l-0.17225 0.03445h-0.46509q-0.0344 0-0.44786 0.17225-0.39619 0.17226-0.67179 0.24116l-0.15503 0.0689q-0.0344 0.03445-0.10335 0.03445l-0.27561-0.03445-1.5158 0.74069-0.24116-0.1378q-0.29283-0.1378-0.32728-0.1378-0.24116 0-0.24116 0.24116l-0.0345 0.32728q-0.22393 0.1378-0.29283 0.20671-0.0689 0.0689-0.17225 0.10335h-0.20671q-0.2067 0-0.39618 0.18948-0.17226 0.17226-0.31006 0.18948-0.13781 0.01722-0.39619 0.15503-0.0344 0.0689-0.2756 0.1378-0.24116 0.0689-0.37896 0.32728-0.12058 0.24116-0.29284 0.24116l-0.34451-0.0689-0.18947 0.34451q-0.36174 0.08613-0.41342 0.10335-0.22393 0.29283-0.44786 0.44786t-0.44786 0.34451q-0.2067 0.17225-0.31006 0.36173-0.0861 0.18948-0.2756 0.31006-0.18948 0.10335-0.32729 0.44786l-0.17225 0.17226q-0.43064 0.36173-0.43064 0.77514 0 0.29283 0.41341 0.43064 0.41341 0.1378 0.51677 0.22393 0.10335 0.08613 0.31005 0.08613 0.20671 0 0.39619 0.08613t0.63734 0.27561q0.0861 0.27561 0.17226 0.27561 0.0344 0 0.1378-0.1378 0.10335-0.1378 0.31006-0.1378 0.22393 0 0.43063 0.27561l0.13781-0.10335h0.0689l0.22393 0.0689h0.0344l0.2067-0.10335q0.0345-0.03445 0.10336-0.03445 0.0517 0 0.53399 0.17225h0.0344q0.0344 0 0.2756-0.0689 0.25839 0.0689 0.29284 0.10335l0.24115 0.1378q0 0.05168 0.0689 0.05168t0.20671-0.0689q0.1378-0.08613 0.25838-0.08613 0.1378 0 0.31006 0.18948 0.27561-0.12058 0.31006-0.12058 0.15503 0 0.53399 0.25838l0.32728 0.0689h0.37896l0.56844 0.10335q0.24115 0.25838 0.49954 0.39618 0.0344-0.18948 0.24115-0.18948 0.27561 0 0.84405 0.22393l0.1378 0.03445 0.13781 0.10335q0.29283-0.0689 0.36173-0.0689 0.34451 0 0.34451 0.24116 0 0.2067-0.10335 0.53399 0.0344 0 0.10335 0.0689 0.0861-0.10335 0.18948-0.1378l0.27561-0.15503q0.0689-0.0689 0.10335-0.0689 0.39618 0 1.1196 0.55121t0.82682 1.2575q0 0.2067 0.13781 0.48231l-0.0689 0.22393 0.0345 0.27561q0 0.03445-0.0689 0.24116l-0.0344 0.25838q-0.0344 0.0689-0.10335 0.12058-0.0689 0.05168-0.10335 0.12058l0.10335 0.29283v0.0689q0 0.0689-0.1378 0.18948-0.12058 0.12058-0.15503 0.22393-0.0344 0.10335-0.12058 0.22393-0.0861 0.10335-0.12058 0.25838-0.0345 0.15503-0.34451 0.36173-0.29283 0.18948-0.29283 0.29283 0 0.10335 0.0689 0.10335 0.20671 0 0.43064-0.18948 0.24115-0.2067 0.36173-0.24116 0.12058-0.03445 0.41341-0.2067l1.6192-0.75792q1.8087-0.86127 2.0154-0.86127 0.27561 0 0.27561 0.27561 0 0.10335-0.24116 0.39618-0.0344 0.8096-0.70624 0.9474-0.25838 0.17225-0.39619 0.36173h-0.1378q-0.43064 0.48231-0.98185 0.48231h-0.10335q-0.63734 0.63734-1.5503 0.70624-0.60289 0.60289-0.99908 0.60289l-0.27561 0.0689q-0.43063 0.17225-0.60289 0.17225-0.0344 0-0.1378 0.1378l-0.25838 0.18948q-0.32728 0.0689-0.70624 0.37896-0.37896 0.31006-0.58567 0.36173-0.18948 0.03445-0.41341 0.1378-0.22393 0.10335-1.8087 1.1713l-0.22393 0.0689q-0.67179 0.31006-0.84405 0.51676-0.17225 0.18949-0.41341 0.32729h-0.0689q-0.39618 0-0.93017 0.51676-0.0345 0.0861-0.75792 0.29284-0.70625 0.18948-1.3608 0.60289-0.41341 0.10335-1.0163 0.2756-0.60289 0.17226-0.8785 0.20671l-1.2058 0.25838q-0.39619 0.0689-0.91295 0.2067-0.31006-0.10335-0.53399-0.10335l-0.31006 0.0344q-0.0689 0-0.22393-0.12057-0.1378-0.12058-0.37896-0.24116-0.24115-0.10335-0.24115-0.58567 0-0.43063 0.9474-0.84404 0.9474-0.43064 1.2402-0.60289 0.1378-0.18949 0.46509-0.22394 0.3445-0.03445 0.58566-0.2067 0.24116-0.17225 0.74069-0.31006l0.68902-0.36173q0.0517-0.03445 0.0861-0.03445h0.24115q0.12058 0 0.36174-0.18948 0.24116-0.18948 0.49954-0.27561h0.2067q0.0344 0 0.10335-0.08613 0.0689-0.08613 0.31006-0.22393l0.0517-0.03445h0.17225q0.18948-0.15503 0.44786-0.25838 0.25839-0.10335 0.49954-0.27561l1.3436-0.51676 0.31005 0.03445q0.10336 0 0.25839-0.15503 0.17225-0.17226 0.77514-0.34451 0.0861-0.1378 0.36173-0.32728 0.27561-0.18948 0.65457-0.55121zm-6.0117 4.3064-0.24116-0.03445q-0.24115 0.1378-0.48231 0.15503-0.22393 0.01722-0.72347 0.32728-0.48231 0.29284-1.1196 0.56844-0.63734 0.27561-0.63734 0.36174 0.84404-0.10335 1.757-0.46509l1.2402-0.34451q0.24116-0.0689 0.32729-0.1378 0.10335-0.0689 0.37896-0.18948l0.2756-0.2067q0.0861-0.03445 0.37896-0.1378 0.29283-0.10335 0.29283-0.2067 0-0.0689-0.0689-0.0689-0.62011 0-0.98185 0.18948-0.36173 0.18948-0.39618 0.18948zm24.064-19.43-0.25838-0.32728-0.17225-0.17226q-0.1378-0.0689-0.17226-0.63734-0.18948-0.22393-0.24115-0.31006v-0.25838q-0.0861-0.03445-0.24116-0.36174-0.15503-0.34451-0.22393-0.41341-0.74069-0.46509-0.74069-0.8785 0-0.37896 0.24115-0.37896 0.84405 0 1.6709 1.2575 0.0689 0.10335 0.27561 0.36173 1.0852 1.3953 1.2919 2.4805 0.2067 1.068 0.43063 1.6364 0.22393 0.56844 0.22393 1.4814l0.10336 0.74069-0.10336 0.39618q-0.0345 0.0689-0.0345 0.24116 0 0.22393 0.0861 0.84405 0.0861 0.60289 0.0861 0.79237l-0.29284 1.223 0.12058 0.9474-0.15503 0.51676q-0.15503 0.60289-0.37896 0.96462-0.2067 0.36174-0.2756 1.0852-0.0689 0.70624-0.36174 1.3264l-0.80959 1.6192-0.18948 0.53399q-0.24116 0.62012-0.44786 0.86127-0.20671 0.22393-0.24116 0.43064-0.0344 0.18948-0.17226 0.24116-0.12057 0.05168-0.25838 0.18948l-0.0345 0.36173q-0.17225 0.24116-0.77514 0.48231-0.0689 0.0689-0.17226 0.27561-0.10335 0.18948-0.2756 0.29283-0.15503 0.10335-0.29284 0.27561l-0.0689 0.03445h-0.0689q-0.18948 0-0.31006 0.37896-0.12058 0.36173-0.29283 0.43064-0.17225 0.05168-0.27561 0.18948l-0.32728 0.1378-0.24116 0.31006q-0.0689 0.0689-0.31005 0.17225-0.22394 0.0861-0.34451 0.15503-0.12058 0.0689-0.41341 0.17226l-0.20671 0.1378q-0.53399 0.53399-0.70624 0.53399l-0.27561-0.0344v0.0344q-0.36173 0.18948-0.56844 0.48231-0.2067 0.29283-0.70624 0.29283-0.20671 0-0.20671-0.27561 0-0.32728 0.60289-0.74069l0.9474-0.93017q0.31006-0.41341 0.56844-0.63734 0.27561-0.24116 0.82682-0.82682 0.55122-0.58566 0.55122-0.72347 0-0.36174 0.37896-0.65457 0.39618-0.29283 0.39618-0.32728l0.0344-0.31006q0.29284-0.25838 0.70625-0.99908l0.17225-0.1378q0.0172-0.01723 0.44786-1.2402l0.56844-0.98185 0.0344-0.43064q0.41341-1.3264 0.75792-1.8603 0.36174-0.55121 0.36174-0.72347 0.0172-0.17225 0.0344-0.41341t0.51676-1.2575l-0.12027-0.8096q0.39619-0.2067 0.39619-0.25838 0-0.0689-0.0517-0.18948-0.0517-0.12058-0.0517-0.22393t0.18948-1.0163l0.22393-1.2058v-0.0689q0-0.05168-0.10335-0.49954v-0.0689q0-0.0689 0.0689-0.53399l-0.1378-1.5158q-0.0344-0.32728-0.25838-0.68902-0.20671-0.36173-0.20671-0.51676 0-0.25838 0.25838-0.48231z" stroke-width="8.899" aria-label="Dr. Dimorng Meung (DDS)"/>
 </g>
</svg>
