<svg width="55.242mm" height="20.998mm" version="1.1" viewBox="0 0 55.242 20.998" xmlns="http://www.w3.org/2000/svg">
 <g transform="translate(-34.363 -118.66)">
  <path d="m34.811 125.79 0.10335-0.37896 0.43064-0.46508q0.03445-0.0345 0.03445-0.0689v-0.10335q0-0.25838 0.53399-0.56844 0.03445-0.43063 0.58566-0.63734l0.08613-0.0689v-0.1378q0-0.25839 0.36173-0.34451 0.37896-0.0861 0.58566-0.32729 0.31006-0.0689 0.98185-0.74069 0.0689-0.1378 0.17226-0.1378l0.39618-0.0345q0.49954-0.53399 0.63734-0.55122 0.1378-0.0172 0.29283-0.12058 0.15503-0.10335 0.44786-0.15503 0.08613-0.12057 1.223-0.70624h0.36173q0.0689 0 0.22393-0.1378 0.17225-0.13781 0.49954-0.18948 0.34451-0.0517 0.89572-0.22393 0.56844-0.18948 0.91295-0.25838l0.32728-0.17226h0.53399l0.17225-0.1378 1.0852-0.13781 1.1024-0.25838 0.31006 0.0344 0.22393-0.0344 0.37896 0.0861q0.0689 0 0.22393-0.0689 0.17225-0.0861 0.31006-0.0861 0.51676 0 0.93017 0.12058 0.43064 0.12058 0.65457 0.15503 0.22393 0.0172 0.36173 0.0861 0.1378 0.0689 0.17226 0.0689l0.44786-0.0345q0.03445 0 0.1378 0.12057 0.12058 0.12058 0.32728 0.18948h0.31006q0.03445 0.0345 0.10335 0.0345 0.20671 0.17226 0.74069 0.43064 0.37896 0.29283 0.39618 0.31006 0.1378-0.0517 1.068 0.72347 0.93017 0.77514 1.1886 1.1886l0.36173 0.46509 0.17225 0.44786 0.17226 0.29283q0.27561 0.70625 0.49954 1.6536l0.1378 0.34451q0.03445 0.0345 0.03445 0.15503l-0.10335 0.48231 0.1378 0.63735q0 0.2067-0.1378 0.60289 0.0689 0.17225 0.0689 0.2067 0 0.0344-0.1378 0.55122-0.1378 0.49953-0.1378 0.58566l0.0689 0.34451q0 0.0689-0.15503 0.22393-0.1378 0.1378-0.1378 0.20671 0 0.22393-0.12058 0.43063-0.12058 0.20671-0.15503 0.27561l-0.29283 0.48231q-0.0689 0.25838-0.17226 0.29283-0.10335 0.0345-0.10335 0.24116-0.03445 0.0344-0.24116 0.2067l-0.17226 0.25839-0.70624 0.74069q-0.10335 0.37896-0.82682 0.8785l-0.2067 0.2067q-0.93017 0.75792-1.1369 0.89573-0.2067 0.1378-0.34451 0.31005-0.1378 0.17226-0.44786 0.34451-0.05168 0.0861-0.43064 0.36174l-0.24116-0.0344q-0.12058 0.2067-0.29283 0.29283-0.17225 0.0861-0.25838 0.15503-0.08613 0.0689-0.12058 0.0689-0.03445 0-0.15503-0.0344-0.17226 0.25838-0.48231 0.37896-0.29283 0.12058-0.44786 0.22393t-0.18948 0.10335l-0.27561-0.10335q0 0.37896-0.27561 0.41341-0.27561 0.0344-0.46509 0.15503l-0.36173-0.0344q-0.63734 0.63734-1.8259 0.63734-0.22393 0.2756-0.29283 0.2756l-0.31006-0.0689q-0.1378 0.0689-0.24116 0.0689-0.08613 0-0.63734 0.17226-0.20671-0.1378-0.49954-0.1378l0.03445 0.29283q0 0.17225-0.46509 0.17225-0.17225 0-0.37896-0.10335-0.2067 0.0689-0.25838 0.0689-0.10335 0-0.15503-0.12058-0.05168-0.1378-0.08613-0.1378-0.34451 0.56844-1.2058 0.56844-0.08613 0-0.98185 0.22393l-0.2067 0.0344q-0.0689 0-0.1378-0.0344l-0.29283-0.0344q-0.0689 0-0.27561-0.0861-0.10335 0.18948-0.17226 0.18948-0.32728 0-0.8096 0.10335-0.15503-0.0861-0.72347-0.12057-0.55121-0.0517-0.68902-0.20671h-0.03445q-0.03445 0-0.12058 0.0345h-0.0689q-0.0689 0-0.17225-0.0517-0.10335-0.0517-0.34451-0.0861-0.22393-0.0345-0.46509-0.36174-0.24116-0.3445-0.24116-0.58566 0-0.32728 0.27561-0.60289t0.56844-0.27561q0.1378 0 0.37896 0.10335h0.18948l0.27561 0.0345 0.10335-0.0345q-0.0689-0.24115-0.0689-0.25838 0-0.51676 0.36173-0.87849l0.24116-0.6718q0.03445-0.0689 0.2067-0.18948 0.17226-0.12057 0.17226-0.32728l0.15503-0.36173 0.03445-0.24116 0.17225-0.24116q0.1378-0.18948 0.17225-0.36173 0.03445-0.17225 0.24116-0.24116 0-0.36173 0.24116-0.58566 0.25838-0.22393 0.25838-0.34451 0-0.34451 0.24116-0.37896 0.08613-0.0689 0.08613-0.1378t-0.08613-0.22393q0.12058-0.34451 0.32728-0.37896 0.22393-0.0344 0.27561-0.0689-0.1378-0.0344-0.1378-0.17225 0-0.15503 0.10335-0.29283l0.17225-0.44786q0.08613-0.22393 0.43064-0.43064-0.10335-0.10335-0.10335-0.17225 0-0.0345 0.10335-0.13781l0.24116 0.0689q0-0.0344 0.03445-0.0344l0.03445-0.39618-0.03445-0.24116q0-0.0344 0.39618-0.22393l0.0689-0.17225q-0.24116 0-0.46509-0.0689-0.32728 0.1378-0.48231 0.24115-0.03445 0.0517-0.29283 0.0517h-0.10335q-0.03445 0-0.31006-0.0861-0.0689 0.0345-0.15503 0.17226-0.0689 0.12057-0.10335 0.12057l-0.51676-0.17225q-0.0689 0-0.27561 0.18948-0.18948 0.18948-0.36173 0.18948-0.08613 0-0.29283-0.10335-0.1378 0.10335-0.65457 0.10335-0.22393 0-0.46509 0.10335l-0.27561-0.0344-0.22393 0.0344q-0.0689 0-0.51676-0.31006-0.25838 0.0689-0.32728 0.0689l-0.27561-0.13781q-0.27561-0.1378-0.44786-0.15503-0.15503-0.0172-0.31006-0.0861-0.1378-0.0689-0.15503-0.0689-0.01723-0.0172-0.15503-0.17225-0.1378-0.15503-0.31006-0.22393-0.17226-0.0689-0.17226-0.29283l-0.0689-0.77515q0-0.10335 0.08613-0.27561 0.08613-0.17225 0.08613-0.31005 0-0.22393 0.27561-0.36174zm4.0997 1.7226h0.0689q0.27561 0 0.27561 0.22393 0 0.0689-0.0689 0.17225 0.0689 0.0345 0.10335 0.0345 0.0689 0 0.24116-0.25838 0.17226-0.27561 0.89572-0.27561 0.03445 0 0.08613 0.0345t0.08613 0.0345 0.15503-0.10336q0.12058-0.10335 0.18948-0.10335l0.77514-0.17225q1.1024-0.17226 1.1024-0.43064l-0.03445-0.24116q0.0689-0.1378 0.31006-0.41341 0.25838-0.29283 0.25838-0.60289l0.10335-0.39618v-0.17226q0-0.46508 0.63734-0.56844v-0.0344l-0.17225-0.53399 0.03445-0.0689q0.24116-0.12058 0.24116-0.17225 0-0.0344-0.17225-0.20671-0.15503-0.18948-0.15503-1.068 0-0.49954 0.56844-0.49954 0.74069 0 1.3264 0.65456 0.58566 0.65457 0.58566 1.4642 0 0.60289-0.60289 1.8087l-0.10335 0.37896h0.27561l0.43064-0.0689 0.31006 0.0345q0.22393 0 0.51676-0.13781 0.29283-0.1378 0.53399-0.17225 0.25838-0.0344 0.49954-0.20671 0.49954-0.12057 0.84405-0.17225 0.36173-0.0517 0.67179-0.22393h0.08613q0.03445 0 0.1378 0.1378h0.03445q0.03445 0 0.10335-0.0344 0.10335-0.24116 0.44786-0.36173 0.36174-0.13781 0.46509-0.27561l0.29283-0.31006q0-0.0345 0.55121-0.36173 0.56844-0.34451 0.84405-0.34451 0.53399 0 0.63734 0.41341l0.10335 0.29283v0.0345q0 0.43064-0.68902 1.0508-0.67179 0.62012-1.7914 0.89573-1.1197 0.2756-1.3608 0.2756-0.10335 0-0.2067-0.17225l-0.36173 0.10335-0.10335 0.17226q0 0.0345-0.0689 0.0345l-0.2067-0.13781h-0.0689q-0.17225 0.15503-0.65457 0.31006-0.46509 0.15503-0.72347 0.25838h-0.34451q-0.27561 0-0.75792 0.17226l-0.31006 0.0344q-0.60289 0.10335-0.67179 0.1378-0.0689 0.0345-0.25838 0.46509l-0.43064 0.9474q-0.08613 0.2067-0.29283 0.53399l-0.25838 0.41341q-0.03445 0-0.03445 0.0344l0.08613 0.25838v0.0344q-1.068 1.4297-1.4642 2.4805-0.39618 1.0508-0.8785 1.912-0.46509 0.84404-0.58566 1.1713-0.12058 0.32728-0.22393 0.51676-0.10335 0.18948-0.10335 0.22393 0 0.0861 0.10335 0.0861h0.1378q0.18948-0.15503 0.37896-0.17226 0.18948-0.0172 0.39618-0.0517l0.18948 0.0689h0.27561q0.01722 0 0.29283-0.17225l0.1378 0.0345 0.31006-0.0345 0.29283 0.0345q0.03445 0 0.12058-0.0517 0.08613-0.0517 0.22393-0.0689 0.1378-0.0172 0.2067-0.0689 0.0689-0.0517 0.10335-0.0517l0.15503 0.0344q0.03445 0.0344 0.0689 0.0344 0.10335 0 0.2067-0.27561l0.31006 0.10336q0-0.25838 0.15503-0.25838 0.48231 0 0.55121-0.0345l0.18948 0.0345h0.03445q0.03445 0 0.20671-0.10336l1.8776-0.70624q0.20671-0.0344 0.77514-0.44786l0.34451-0.15503q0.36173-0.17225 0.46509-0.27561 0.10335-0.10335 0.17225-0.10335 0.49954 0 0.67179-0.43064 0.0689-0.0344 0.27561-0.2067l0.17226-0.0344q0.25838-0.0689 0.56844-0.31006l0.32728-0.25838q0.10335-0.10335 0.37896-0.1378 0.63734-0.77515 0.91295-0.91295l0.25838-0.13781q0.03445-0.29283 0.24116-0.46508 0.2067-0.17226 0.25838-0.37896 0.0689-0.22393 0.2067-0.22393h0.10335q0.0689 0 0.0689-0.0689l-0.03445-0.31005q0-0.29284 0.34451-0.29284v-0.10335l-0.03445-0.27561v-0.0344q0-0.29283 0.25838-0.37896 0.27561-0.0861 0.27561-0.32728 0-0.18948-0.05168-0.39618-0.05168-0.20671-0.05168-0.24116 0-0.32728 0.46509-0.53399l0.03445-0.0689q0-0.0344-0.1378-0.1378-0.12058-0.10336-0.12058-0.20671 0-0.0517 0.0689-0.22393 0.0689-0.17225 0.0689-0.20671 0-0.0344-0.08613-0.17225-0.08613-0.1378-0.08613-0.25838 0-0.13781 0.10335-0.34451 0.10335-0.20671 0.10335-0.27561 0-0.15503-0.03445-0.25838-0.2067-0.10335-0.2067-0.24116v-0.0689l0.03445-0.1378-0.03445-0.22393 0.0689-0.20671q-0.10335-0.31005-0.17226-0.60289-0.0689-0.31005-0.24116-0.48231-0.15503-0.18948-0.15503-0.25838v-0.0344l0.08613-0.24116q0-0.0344-0.12058-0.0689-0.8785-1.1713-2.3254-1.7742t-1.4814-0.60289l-0.37896 0.0345q-0.29283-0.1378-0.32728-0.1378l-0.17225 0.0344q-0.03445 0.0345-0.0689 0.0345-0.0689 0-0.31006-0.1378l-0.43064 0.0344-0.43064-0.0344q-0.8096-0.0689-1.2919 0.0689l-1.378 0.22393q-0.0689 0-0.56844 0.17225-0.27561 0.17226-1.1369 0.34451h-0.41341q-0.03445 0-0.2067 0.17226-0.17225 0.17225-1.1024 0.43063-0.24116 0.24116-0.41341 0.29283-0.15503 0.0345-0.22393 0.12058-0.0689 0.0861-0.1378 0.0861h-0.24116q-0.18948 0-0.41341 0.27561-0.22393 0.2756-1.0335 0.63734l-0.18948 0.17225-0.34451 0.18948q-0.10335 0.0344-0.17226 0.13781l-0.0689 0.0689q-0.43064 0.12058-0.55121 0.39618-0.12058 0.27561-0.32728 0.32729-0.18948 0.0517-0.24116 0.25838-0.05168 0.2067-0.25838 0.34451-0.2067 0.1378-0.67179 0.80959-0.46509 0.65457-0.46509 0.96463 0 0.22393 0.20671 0.63734 0.2067 0.41341 0.60289 0.41341 0.32728 0 0.49954 0.0861 0.17225 0.0689 0.31006 0.0689 0.56844 0 0.93017-0.22393zm22.962-2.8594 0.10335-0.0345h0.46509q0.2067 0 0.60289-0.48231 0.03445-0.0345 0.91295-0.32728l0.0689-0.0689q0.24116-0.20671 0.34451-0.27561h0.32728q0.03445 0 0.27561-0.15503 0.24116-0.17226 1.0163-0.37896 0.79237-0.20671 1.0335-0.34451 0.10335-0.0344 0.75792-0.10335l0.48231-0.0861 0.37896 0.0345q0.91295 0 1.3091 1.2058 0 0.0689 0.08613 0.22393 0.08613 0.13781 0.08613 0.20671 0 0.72347-0.70624 1.5158l-0.24116 0.63734q0 0.0345-0.18948 0.25838-0.17225 0.22393-0.31006 0.53399-0.1378 0.29283-0.74069 0.89572-0.10335 0.20671-0.29283 0.65457-0.18948 0.43063-0.32728 0.56844-0.12058 0.1378-0.67179 1.0335-0.53399 0.89573-0.53399 1.0508-0.25838 0.18948-0.36173 0.63734-0.08613 0.44786-0.34451 0.84404l-0.03445 0.12058q0.55121-0.18948 0.55121-0.60289 0-0.0517 0.29283-0.25838l0.1378-0.24116q0.20671-0.24115 0.36174-0.2756 0.03445-0.13781 0.36173-0.39619 0.32728-0.27561 0.43064-0.37896 0.12058-0.10335 0.37896-0.2067 0.25838-0.12058 0.58566-0.86128 0.03445-0.1378 0.25838-0.22393 0.24116-0.0861 0.39618-0.2756 0.15503-0.20671 0.25838-0.27561l0.1378-0.20671q0.18948-0.17225 0.25838-0.2067l0.84405-1.0335q0.67179-0.43063 0.74069-0.67179l0.1378-0.0345h0.10335q0.27561-0.22393 0.36173-0.31006 0-0.51676 0.37896-0.67179 0.39618-0.17225 0.56844-0.39619 0.17226-0.24115 0.37896-0.24115 0.05168 0 0.18948 0.10335h0.03445q0.05168 0 0.10335-0.17225v-0.17224q0-0.29283 0.17226-0.48231 0.17225-0.18948 0.46509-0.24116 0.29283-0.0689 0.56844-0.44786t0.62012-0.39618q0.36173-0.0172 0.48231-0.27561 0.12058-0.25838 0.74069-0.55121 0.62012-0.31006 0.77514-0.32729 0.15503-0.0345 0.27561-0.10335 0.1378-0.0689 0.27561-0.0689 0.17225 0 0.49954 0.10335l0.31006 0.0689q0.39618 0.17226 0.74069 0.63734l0.17226 0.17226v0.0689l0.03445 0.29283v0.13781q0.22393 0.10335 0.22393 0.2067l-0.12058 0.22393q-0.0689 0.12058-0.0689 0.29283 0 0.15503-0.01723 0.32729-0.01723 0.15503-0.05168 0.31006-0.01723 0.1378-0.0689 0.2756-0.03445 0.12058-0.08613 0.24116-0.05168 0.10335-0.12058 0.2067l-0.1378 0.55122q-0.0689 0.32728-0.37896 0.79237-0.29283 0.44786-0.34451 0.63734-0.05168 0.17225-0.24116 0.48231l0.03445 0.10335v0.24116q0.53399-0.0689 0.53399-0.41341 0-0.36173 0.43064-0.53399l0.37896-0.31006q0.44786-0.79237 1.1024-1.0335 0-0.27561 0.32728-0.56844l0.65457-0.62012 0.46509-0.25838q0.31006-0.63734 0.70624-0.77514l0.37896-0.24116q0.34451-0.17225 0.37896-0.32728 0.05168-0.17226 0.27561-0.34451 0.22393-0.17226 0.65457-0.56844l0.1378-0.0689 0.17226-0.17226q0.18948-0.10335 0.43064-0.17225l0.1378-0.0689q0.43064-0.32729 0.77514-0.43064 0.34451-0.12058 0.77514-0.37896l0.60289-0.0861q0.2067-0.0689 0.27561-0.0689 1.6364 0 1.6364 1.8431l-0.03445 0.27561 0.03445 0.99908q-0.43064 0.70624-0.43064 0.74069l0.03445 0.31006q0 0.0689-0.22393 0.41341-0.22393 0.32728-0.27561 0.39618-0.03445 0.0689-0.31006 0.36174l-0.17226 0.51676q-0.08613 0.17225-0.29283 0.32728v0.20671q0 0.25838-0.67179 0.77514-0.08613 0.44787-0.31006 0.6718-0.2067 0.2067-0.32728 0.44786-0.10335 0.22393-0.34451 0.43063 0 0.22393-0.29283 0.75792-0.29283 0.53399-0.46509 0.68902-0.15503 0.1378-0.32728 0.49954l-0.15503 0.0689q-0.10335 0.65457-0.24116 0.74069l-0.27561-0.0344v0.0689q0 0.0345 0.0689 0.12058 0.0689 0.0861 0.0689 0.18948 0 0.12058-0.10335 0.20671-0.10335 0.0861-0.12058 0.17225-0.01722 0.0861-0.08613 0.17226-0.05168 0.0861-0.0689 0.34451-0.01722 0.24115-0.25838 0.67179-0.24116 0.43063-0.25838 0.58566-0.01723 0.15503-0.05168 0.25838-0.03445 0.10336-0.03445 0.20671t-0.08613 0.53399q0.32728 0.77514 0.46509 1.0508 0.1378 0.27561 0.1378 0.36173 0 0.68902-0.17226 0.93018-0.17225 0.22393-0.84405 0.22393-0.43064 0-0.75792-0.29283-0.31006-0.31006-0.55121-0.31006v-0.31006l-0.03445-0.0344h-0.27561q-0.03445-0.0344-0.15503-0.12058-0.10335-0.0861-0.20671-0.24116l-0.10335-0.10335q-0.1378-0.17225-0.24116-0.56844l-0.10335-0.34451 0.03445-0.2756-0.03445-0.43064q0-0.17225 0.03445-0.27561l0.03445-0.46508q0-0.0689 0.0689-0.29284 0.0689-0.24115 0.08613-0.55121 0.01722-0.32728 0.15503-0.49954 0.1378-0.17225 0.15503-0.29283 0.01722-0.12058 0.08613-0.18948 0.08613-0.0861 0.1378-0.39618 0.05168-0.31006 0.36174-0.49954 0.17225-0.31006 0.29283-0.58567 0.36173-0.49954 0.37896-0.49954h0.24116q-0.17226-0.2067-0.17226-0.24115 0-0.46509 0.36174-0.46509 0.0689 0 0.17225 0.0344l0.0689-0.1378-0.0689-0.29283q0-0.29284 0.44786-0.58567 0-0.49954 0.46509-0.89572l-0.03445-0.27561q0.10335-0.10335 0.29283-0.44786 0.18948-0.36173 0.48231-0.72347l0.53399-0.80959 0.24116-0.27561q0 0.0172 0 0.0172 0.01723-0.0172 0.03445-0.0689 0.03445-0.0689 0.0689-0.18948l0.10335-0.25838 0.12058-0.1378q0.44786-0.12058 0.44786-0.31006 0-0.0345-0.1378-0.22393v-0.0689q0-0.13781 0.2067-0.34451 0.20671-0.20671 0.37896-0.56844 0.18948-0.37896 0.18948-0.46509 0-0.0689-0.0689-0.0689-0.55121 0-0.74069 0.39619 0 0.10335-0.67179 0.41341l-0.17225 0.25838q-0.2067 0.18948-0.36173 0.18948t-0.41341 0.2067q-0.24116 0.18948-1.0852 0.89573-0.84405 0.68901-1.2402 1.1369l-0.39618 0.2756q-0.24116 0.12058-0.24116 0.18948 0 0.17226-0.29283 0.44786l-0.2067 0.25839q-0.24116-0.0861-0.27561-0.0861-0.18948 0-0.32728 0.18948 0.1378 0.1378 0.1378 0.17225 0 0.27561-0.51676 0.56844l-0.74069 0.77515q-0.03445 0.0344-0.25838 0.18948-0.22393 0.15503-0.34451 0.39618-0.10335 0.22393-0.60289 0.8096-0.49954 0.56844-0.58566 0.62011-0.08613 0.0344-0.2067 0.22393-0.12058 0.18948-0.49954 0.53399-0.37896 0.34451-0.43064 0.75792-0.32728 0.12058-0.32728 0.20671l-0.10335 0.17225-0.1378 0.0689q-0.03445 0.0689-0.05168 0.24116-0.01723 0.15503-0.68902 0.58566-0.67179 0.41341-0.84405 0.41341-0.05168 0-0.15503 0.0689-0.10335 0.0689-0.1378 0.0689-0.05168 0-0.46509-0.20671-0.39618-0.2067-0.58566-0.96462l0.1378-0.44786-0.0689-0.36174q0-0.10335 0.15503-0.2756 0.17225-0.17226 0.17225-0.43064 0.27561-0.62012 0.41341-0.8785l0.03445-0.27561q0.0689-0.17225 0.22393-0.37895 0.17225-0.22394 0.2067-0.48232 0.03445-0.2756 0.22393-0.34451 0.18948-0.0689 1.3953-2.0843v-0.24116l0.49954-0.86127q0.22393-0.37896 0.55121-0.86127l0.15503-0.39619q-0.53399-0.2067-0.56844-0.2067-0.10335 0-0.25838 0.1378 0 0.29283-1.0163 0.60289-0.2067 0.10335-0.53399 0.49954l-0.48231 0.2756q-0.10335 0.0689-0.32728 0.27561l-0.24116 0.22393q-0.43064 0.10335-0.74069 0.48231l-0.46509 0.32729q-0.20671 0.17225-0.27561 0.25838-0.0689 0.0861-0.63734 0.37896l-0.27561 0.27561-0.25838 0.1378q-0.27561 0.29283-0.41341 0.49954-0.1378 0.2067-0.36173 0.24115l-0.37896 0.13781q-0.10335 0.44786-0.63734 0.86127l-0.49954 0.62011q-0.1378 0.12058-0.24116 0.18948-0.0689 0.17226-0.24116 0.24116-0.22393 0.27561-0.29283 0.37896l-0.2067 0.15503q-0.46509 0.17225-0.46509 0.27561l0.03445 0.31005q0 0.18948-0.41341 0.36174-0.17225 0.0861-0.2067 0.27561-0.01723 0.18948-0.12058 0.39618h-0.31006q-0.05168 0-0.32728 0.17225-0.03445 0-0.0689 0.0345l0.0689 0.39618q0 0.20671-0.27561 0.48231-0.27561 0.25838-0.43064 0.46509-0.1378 0.20671-0.2067 0.20671h-0.10335l-0.10335 0.0689q0.01722 0.32728-0.43064 0.70624l-0.2067 0.25838q-0.10335 0.0861-0.58566 0.86127-0.48231 0.77515-0.91295 1.2575t-0.79237 0.65457q-0.36173 0.15503-0.77514 0.32728l-0.70624-0.1378q-0.10335-0.18948-0.31006-0.31006-0.18948-0.12058-0.18948-0.25838l-0.2067-0.60289q0-0.24116 0.18948-0.58567 0.18948-0.36173 0.22393-0.55121 0.05168-0.20671 0.2067-0.53399 0.15503-0.34451 0.15503-0.37896 0-0.46509 0.1378-0.56844 0.15503-0.12058 0.67179-0.51676 0.03445 0 0.03445-0.0689v-0.0345l-0.03445-0.29283q0.39618-0.67179 0.49954-0.67179 0.03445 0 0.1378 0.0345l-0.10335-0.37896q0-0.0689 0.18948-0.22393 0.18948-0.15503 0.29283-0.34451l-0.0689-0.2067v-0.0689q0-0.32728 0.43064-0.67179 0.0689-0.1378 0.27561-0.70624l0.44786-0.79237q0.17225-0.32728 0.36173-0.43064 0.18948-0.12057 0.2067-0.2756 0.01723-0.15503 0.12058-0.34451 0 0.0861 0.01723 0.0172 0.03445-0.0861 0.08613-0.34451 0.0689-0.25838 0.39618-0.41341 0.39618-1.0163 0.62012-1.0163 0.0689 0 0.18948 0.0689h0.0689q0.27561 0 0.27561-0.2067 0-0.0689-0.0689-0.0689-0.15503 0.17225-0.27561 0.17225t-0.12058-0.0689q0-0.0345 0.05168-0.0689l0.37896-0.77515 0.03445-0.32728q0.0689-0.10335 0.27561-0.31006l0.29283-0.39618v-0.17226q0-0.0345 0.15503-0.34451 0.15503-0.32728 0.22393-0.63734l0.29283-0.43063q0.0689-0.20671 0.0689-0.37896 0-0.25838-0.0689-0.25838l-0.99908 0.18948q-0.8096 0.41341-1.1541 0.65456l-0.39618 0.0861q-0.03445 0-0.46509 0.24116-0.41341 0.22393-0.74069 0.25838-0.31006 0.0172-0.55121 0.24115l-0.0689 0.0345h-0.32728q-0.18948 0.22394-0.25838 0.34451-0.0689 0.10336-0.12058 0.10336-1.7398 1.1541-2.2049 1.3953-0.46509 0.24115-0.70624 0.44786-0.24116 0.18948-0.41341 0.2756v0.20671q0 0.29283-0.43064 0.67179-0.41341 0.36174-0.72347 0.36174-0.10335 0-0.32728-0.10336-0.2067-0.12057-0.48231-0.15503-0.25838-0.0344-0.25838-0.65456 0-0.8785 1.4469-1.602 0.22393-0.10335 0.41341-0.24115 0.18948-0.13781 1.5331-0.6718l0.49954-0.24115q0.17226-0.17226 0.56844-0.31006 0.41341-0.15503 0.63734-0.25838 0.24116-0.10335 0.37896-0.13781zm16.157 4.1686 0.17225-0.31006v-0.0345q0-0.0344-0.0689-0.0344-0.17225 0-0.27561 0.34451 0.03445 0.10335 0.0689 0.10335 0.0689 0 0.10335-0.0689z" stroke-width="8.899" aria-label="DM"/>
 </g>
</svg>
