<svg width="163.42mm" height="31.161mm" version="1.1" viewBox="0 0 163.42 31.161" xmlns="http://www.w3.org/2000/svg">
 <g transform="translate(31.062 -137.77)">
  <path d="m-30.614 144.9 0.10335-0.37896 0.43064-0.46509q0.03445-0.0344 0.03445-0.0689v-0.10335q0-0.25838 0.53399-0.56844 0.03445-0.43064 0.58566-0.63734l0.08613-0.0689v-0.13781q0-0.25838 0.36174-0.34451 0.37896-0.0861 0.58566-0.32728 0.31006-0.0689 0.98185-0.74069 0.0689-0.13781 0.17226-0.13781l0.39618-0.0344q0.49954-0.53399 0.63734-0.55121 0.1378-0.0172 0.29283-0.12058 0.15503-0.10335 0.44786-0.15503 0.08613-0.12058 1.223-0.70624h0.36173q0.0689 0 0.22393-0.13781 0.17225-0.1378 0.49954-0.18948 0.34451-0.0517 0.89572-0.22393 0.56844-0.18948 0.91295-0.25838l0.32728-0.17225h0.53399l0.17225-0.13781 1.0852-0.1378 1.1024-0.25838 0.31006 0.0344 0.22393-0.0344 0.37896 0.0861q0.0689 0 0.22393-0.0689 0.17225-0.0861 0.31006-0.0861 0.51676 0 0.93017 0.12058 0.43064 0.12057 0.65457 0.15502 0.22393 0.0172 0.36173 0.0861 0.1378 0.0689 0.17226 0.0689l0.44786-0.0344q0.03445 0 0.1378 0.12058 0.12058 0.12058 0.32728 0.18948h0.31006q0.03445 0.0345 0.10335 0.0345 0.2067 0.17226 0.74069 0.43064 0.37896 0.29283 0.39618 0.31006 0.1378-0.0517 1.068 0.72346 0.93017 0.77515 1.1886 1.1886l0.36173 0.46509 0.17225 0.44786 0.17225 0.29283q0.27561 0.70624 0.49954 1.6536l0.1378 0.34451q0.034451 0.0344 0.034451 0.15503l-0.10335 0.48231 0.1378 0.63734q0 0.20671-0.1378 0.60289 0.068902 0.17226 0.068902 0.20671 0 0.0345-0.1378 0.55121-0.1378 0.49954-0.1378 0.58567l0.068902 0.34451q0 0.0689-0.15503 0.22393-0.1378 0.1378-0.1378 0.2067 0 0.22393-0.12058 0.43064-0.12058 0.2067-0.15503 0.27561l-0.29283 0.48231q-0.068902 0.25838-0.17225 0.29283-0.10335 0.0344-0.10335 0.24116-0.034451 0.0345-0.24116 0.2067l-0.17225 0.25838-0.70624 0.7407q-0.10335 0.37896-0.82682 0.87849l-0.2067 0.20671q-0.93017 0.75792-1.1369 0.89572-0.2067 0.13781-0.34451 0.31006-0.1378 0.17226-0.44786 0.34451-0.05168 0.0861-0.43064 0.36173l-0.24116-0.0344q-0.12058 0.20671-0.29283 0.29284-0.17225 0.0861-0.25838 0.15502-0.08613 0.0689-0.12058 0.0689-0.03445 0-0.15503-0.0344-0.17226 0.25838-0.48231 0.37895-0.29283 0.12058-0.44786 0.22394-0.15503 0.10335-0.18948 0.10335l-0.27561-0.10335q0 0.37896-0.27561 0.41341-0.27561 0.0344-0.46509 0.15502l-0.36173-0.0344q-0.63734 0.63735-1.8259 0.63735-0.22393 0.2756-0.29283 0.2756l-0.31006-0.0689q-0.1378 0.0689-0.24116 0.0689-0.08613 0-0.63734 0.17226-0.2067-0.13781-0.49954-0.13781l0.03445 0.29284q0 0.17225-0.46509 0.17225-0.17225 0-0.37896-0.10335-0.20671 0.0689-0.25838 0.0689-0.10335 0-0.15503-0.12058-0.05168-0.1378-0.08613-0.1378-0.34451 0.56844-1.2058 0.56844-0.08613 0-0.98185 0.22393l-0.2067 0.0345q-0.0689 0-0.1378-0.0345l-0.29283-0.0344q-0.0689 0-0.27561-0.0861-0.10335 0.18948-0.17225 0.18948-0.32728 0-0.8096 0.10335-0.15503-0.0861-0.72347-0.12058-0.55121-0.0517-0.68902-0.2067h-0.03445q-0.03445 0-0.12058 0.0344h-0.0689q-0.0689 0-0.17225-0.0517-0.10335-0.0517-0.34451-0.0861-0.22393-0.0344-0.46509-0.36174-0.24116-0.34451-0.24116-0.58566 0-0.32729 0.27561-0.60289 0.27561-0.27561 0.56844-0.27561 0.1378 0 0.37896 0.10335h0.18948l0.27561 0.0345 0.10335-0.0345q-0.0689-0.24115-0.0689-0.25838 0-0.51676 0.36173-0.8785l0.24116-0.67179q0.03445-0.0689 0.20671-0.18948 0.17225-0.12058 0.17225-0.32728l0.15503-0.36174 0.03445-0.24115 0.17225-0.24116q0.1378-0.18948 0.17226-0.36173 0.03445-0.17226 0.24116-0.24116 0-0.36173 0.24116-0.58566 0.25838-0.22393 0.25838-0.34451 0-0.34451 0.24116-0.37896 0.08613-0.0689 0.08613-0.13781 0-0.0689-0.08613-0.22393 0.12058-0.34451 0.32728-0.37896 0.22393-0.0344 0.27561-0.0689-0.1378-0.0344-0.1378-0.17225 0-0.15503 0.10335-0.29283l0.17225-0.44787q0.08613-0.22393 0.43064-0.43063-0.10335-0.10335-0.10335-0.17226 0-0.0344 0.10335-0.1378l0.24116 0.0689q0-0.0345 0.03445-0.0345l0.03445-0.39618-0.03445-0.24116q0-0.0344 0.39618-0.22393l0.0689-0.17226q-0.24116 0-0.46509-0.0689-0.32728 0.13781-0.48231 0.24116-0.03445 0.0517-0.29283 0.0517h-0.10335q-0.03445 0-0.31006-0.0861-0.0689 0.0344-0.15503 0.17225-0.0689 0.12058-0.10335 0.12058l-0.51676-0.17225q-0.0689 0-0.27561 0.18948-0.18948 0.18948-0.36173 0.18948-0.08613 0-0.29283-0.10336-0.1378 0.10336-0.65457 0.10336-0.22393 0-0.46509 0.10335l-0.27561-0.0345-0.22393 0.0345q-0.0689 0-0.51676-0.31006-0.25838 0.0689-0.32728 0.0689l-0.27561-0.1378q-0.27561-0.1378-0.44786-0.15503-0.15503-0.0172-0.31006-0.0861-0.1378-0.0689-0.15503-0.0689-0.01723-0.0172-0.15503-0.17225-0.1378-0.15503-0.31006-0.22393-0.17226-0.0689-0.17226-0.29284l-0.0689-0.77514q0-0.10335 0.08613-0.27561 0.08613-0.17225 0.08613-0.31006 0-0.22393 0.27561-0.36173zm4.0997 1.7225h0.0689q0.27561 0 0.27561 0.22393 0 0.0689-0.0689 0.17226 0.0689 0.0344 0.10335 0.0344 0.0689 0 0.24116-0.25838 0.17226-0.27561 0.89572-0.27561 0.03445 0 0.08613 0.0344t0.08613 0.0344 0.15503-0.10335q0.12058-0.10335 0.18948-0.10335l0.77514-0.17226q1.1024-0.17225 1.1024-0.43063l-0.03445-0.24116q0.0689-0.1378 0.31006-0.41341 0.25838-0.29283 0.25838-0.60289l0.10335-0.39619v-0.17225q0-0.46509 0.63734-0.56844v-0.0344l-0.17226-0.53399 0.03445-0.0689q0.24116-0.12058 0.24116-0.17225 0-0.0345-0.17225-0.20671-0.15503-0.18948-0.15503-1.068 0-0.49953 0.56844-0.49953 0.74069 0 1.3264 0.65456 0.58566 0.65457 0.58566 1.4642 0 0.60289-0.60289 1.8087l-0.10335 0.37895h0.27561l0.43064-0.0689 0.31006 0.0344q0.22393 0 0.51676-0.1378 0.29283-0.1378 0.53399-0.17225 0.25838-0.0344 0.49954-0.20671 0.49954-0.12058 0.84405-0.17225 0.36173-0.0517 0.67179-0.22393h0.08613q0.03445 0 0.1378 0.1378h0.03445q0.03445 0 0.10335-0.0344 0.10335-0.24116 0.44786-0.36174 0.36173-0.1378 0.46509-0.2756l0.29283-0.31006q0-0.0344 0.55121-0.36174 0.56844-0.3445 0.84405-0.3445 0.53399 0 0.63734 0.41341l0.10335 0.29283v0.0345q0 0.43064-0.68902 1.0508-0.67179 0.62012-1.7914 0.89572-1.1197 0.27561-1.3608 0.27561-0.10335 0-0.20671-0.17225l-0.36173 0.10335-0.10335 0.17225q0 0.0345-0.0689 0.0345l-0.20671-0.13781h-0.0689q-0.17226 0.15503-0.65457 0.31006-0.46509 0.15503-0.72347 0.25838h-0.34451q-0.27561 0-0.75792 0.17226l-0.31006 0.0345q-0.60289 0.10335-0.67179 0.1378-0.0689 0.0344-0.25838 0.46509l-0.43064 0.9474q-0.08613 0.2067-0.29283 0.53398l-0.25838 0.41341q-0.03445 0-0.03445 0.0345l0.08613 0.25838v0.0344q-1.068 1.4297-1.4642 2.4805t-0.8785 1.912q-0.46509 0.84404-0.58566 1.1713-0.12058 0.32728-0.22393 0.51676t-0.10335 0.22393q0 0.0861 0.10335 0.0861h0.1378q0.18948-0.15503 0.37896-0.17226 0.18948-0.0172 0.39618-0.0517l0.18948 0.0689h0.27561q0.01722 0 0.29283-0.17226l0.1378 0.0344 0.31006-0.0344 0.29283 0.0344q0.03445 0 0.12058-0.0517 0.08613-0.0517 0.22393-0.0689 0.1378-0.0172 0.2067-0.0689 0.0689-0.0517 0.10335-0.0517l0.15503 0.0344q0.03445 0.0345 0.0689 0.0345 0.10335 0 0.2067-0.27561l0.31006 0.10335q0-0.25838 0.15503-0.25838 0.48231 0 0.55121-0.0344l0.18948 0.0344h0.03445q0.03445 0 0.2067-0.10335l1.8776-0.70624q0.2067-0.0345 0.77514-0.44786l0.34451-0.15503q0.36173-0.17226 0.46509-0.27561t0.17225-0.10335q0.49954 0 0.67179-0.43064 0.0689-0.0344 0.27561-0.2067l0.17225-0.0345q0.25838-0.0689 0.56844-0.31006l0.32728-0.25838q0.10335-0.10336 0.37896-0.13781 0.63734-0.77514 0.91295-0.91295l0.25838-0.1378q0.03445-0.29283 0.24116-0.46509 0.20671-0.17225 0.25838-0.37896 0.0689-0.22393 0.2067-0.22393h0.10335q0.0689 0 0.0689-0.0689l-0.03445-0.31006q0-0.29283 0.34451-0.29283v-0.10335l-0.03445-0.27561v-0.0345q0-0.29283 0.25838-0.37896 0.27561-0.0861 0.27561-0.32728 0-0.18948-0.05168-0.39619-0.05168-0.2067-0.05168-0.24115 0-0.32729 0.46509-0.53399l0.03445-0.0689q0-0.0345-0.1378-0.13781-0.12058-0.10335-0.12058-0.2067 0-0.0517 0.0689-0.22393 0.0689-0.17226 0.0689-0.20671 0-0.0344-0.08613-0.17225-0.08613-0.13781-0.08613-0.25838 0-0.13781 0.10335-0.34451 0.10335-0.20671 0.10335-0.27561 0-0.15503-0.03445-0.25838-0.2067-0.10335-0.2067-0.24116v-0.0689l0.03445-0.1378-0.03445-0.22393 0.0689-0.20671q-0.10335-0.31006-0.17226-0.60289-0.0689-0.31006-0.24116-0.48231-0.15503-0.18948-0.15503-0.25838v-0.0344l0.08613-0.24116q0-0.0344-0.12058-0.0689-0.8785-1.1713-2.3254-1.7742t-1.4814-0.60289l-0.37896 0.0344q-0.29283-0.13781-0.32728-0.13781l-0.17225 0.0345q-0.03445 0.0344-0.0689 0.0344-0.0689 0-0.31006-0.13781l-0.43064 0.0344-0.43064-0.0344q-0.8096-0.0689-1.2919 0.0689l-1.378 0.22394q-0.0689 0-0.56844 0.17225-0.27561 0.17225-1.1369 0.34451h-0.41341q-0.03445 0-0.2067 0.17225-0.17225 0.17226-1.1024 0.43064-0.24116 0.24116-0.41341 0.29283-0.15503 0.0344-0.22393 0.12058-0.0689 0.0861-0.1378 0.0861h-0.24116q-0.18948 0-0.41341 0.2756-0.22393 0.27561-1.0335 0.63734l-0.18948 0.17226-0.34451 0.18948q-0.10335 0.0344-0.17226 0.1378l-0.0689 0.0689q-0.43064 0.12058-0.55121 0.39619t-0.32728 0.32728q-0.18948 0.0517-0.24116 0.25838-0.05168 0.20671-0.25838 0.34451-0.20671 0.13781-0.67179 0.8096-0.46509 0.65457-0.46509 0.96462 0 0.22393 0.2067 0.63734 0.2067 0.41342 0.60289 0.41342 0.32728 0 0.49954 0.0861 0.17225 0.0689 0.31006 0.0689 0.56844 0 0.93017-0.22393zm19.671 3.2212 0.25838-0.0689 0.10335-0.22393q0.84405-0.49954 1.2058-0.9474 0.034451-0.0689 0.15503-0.1378 0.12058-0.0689 0.25838-0.24116 0.63734-0.63734 1.5158-0.63734 1.0335 0 1.1024 1.2574l0.10335 0.25839q0.1378 0.24115 0.37896 0.98185 0.25838 0.74069 0.25838 0.91294 0 0.46509-0.29283 0.93018-0.24116 0.12058-1.1541 1.2919l-0.17225 0.12057q-0.1378 0.31006-0.36173 0.62012-0.34451 0.12058-0.34451 0.25838v0.31006q0 0.0344-0.086127 0.1378-0.068902 0.10336-0.20671 0.39619l-0.1378 0.2067q-0.068902 0.0689-0.1378 0.29284-0.068902 0.2067-0.20671 0.37896-0.12058 0.17225-0.12058 0.2756 0 0.25838 0.67179 0.25838 0.034451 0 0.25838-0.10335l0.24116 0.0689q0.034451 0 0.17225-0.10335 0.1378-0.12058 0.41341-0.18948 0.29283-0.0689 0.49954-0.2067 0.22393-0.13781 0.51676-0.24116 0.31006-0.10335 0.58566-0.32728 0.27561-0.24116 0.53399-0.34451 0.27561-0.10336 0.49954-0.31006 0.24116-0.22393 0.53399-0.41341 0.29283-0.18948 0.93017-0.82682 0.41341-0.32729 0.56844-0.36174 0.034451 0 0.29283-0.44786 0.27561-0.46508 0.62012-0.46508 0.36173 0 0.36173 0.3445 0 0.18948-0.17225 0.36174v0.10335l0.034451 0.27561q0.034451 0.0517 0.034451 0.15503 0 0.0689-0.1378 0.2067-0.12058 0.13781-0.17225 0.36174-0.051676 0.2067-0.32728 0.2756-0.10335 0.37896-0.27561 0.43064-0.15503 0.0517-0.44786 0.34451-0.29283 0.29283-0.82682 0.68902-0.53399 0.39618-0.74069 0.62011-0.18948 0.20671-0.25838 0.20671-0.034451 0-0.1378-0.0689-0.10335-0.0689-0.1378-0.0689-0.10335 0-0.1378 0.24116l-0.068902 0.17225q-0.22393 0.1378-0.25838 0.1378l-0.10335-0.0345h-0.068902q-0.20671 0-0.20671 0.15503l0.10335 0.17225v0.0345q0 0.24116-0.27561 0.24116-0.18948 0-1.1024 0.63734l-0.49954 0.10335-0.41341 0.22393q-0.20671-0.12058-0.25838-0.12058l-0.27561 0.0861-0.49954 0.0344q-0.017225 0-0.63734-0.34451-0.60289-0.34451-0.72347-0.68901-0.12058-0.34451-0.31006-0.68902-0.18948-0.36174-0.18948-0.49954 0-0.82682 0.1378-1.1713 0.1378-0.36173 0.17225-0.53399 0.034451-0.17225 0.18948-0.36173 0.17225-0.20671 0.27561-0.65457 0.49954-0.99907 0.68902-1.223 0.18948-0.22393 0.29283-0.55121l0.22393-0.31006q0.034451-0.0344 0.10335-0.25838 0.068902-0.24116 0.17225-0.27561 0.1378-0.24115 0.1378-0.31005 0-0.49954-0.44786-0.49954-0.086127 0-0.18948 0.18948-0.10335 0.17225-0.48231 0.34451-0.36173 0.17225-0.44786 0.25838-0.086127 0.0861-0.37896 0.22393-0.27561 0.12058-0.48231 0.39618l-0.29283 0.13781q-0.1378 0.32728-0.24116 0.36173-0.10335 0.0344-0.63734 0.17226-0.034451 0.0172-0.17225 0.2067-0.1378 0.18948-0.39619 0.18948-0.20671 0.20671-0.41341 0.48231-0.068902 0-0.36173 0.13781l-0.34451 0.0861q-0.1378 0.10336-0.31006 0.32729-0.15503 0.22393-0.60289 0.22393-0.25838 0-0.25838-0.41341 0-0.84405 0.58567-1.3436 0.60289-0.49953 0.8785-0.53398 0.27561-0.0345 0.34451-0.20671 0.068902-0.17225 0.32728-0.27561 0.27561-0.12058 0.62012-0.49953 0.36173-0.39619 0.77514-0.53399zm14.108 7.338 0.32728 0.24115q0.24116 0.13781 0.24116 0.60289 0 0.10336-0.086127 0.24116t-0.15503 0.29283q-0.60289 1.1886-1.4125 1.1886-0.25838 0-0.8096-0.46509-0.55121-0.46509-0.70624-0.84405-0.1378-0.37896-0.24116-0.48231-0.086127-0.10335-0.086127-0.17225 0-0.18948 0.1378-0.41341 0.15503-0.22393 0.22393-0.55122 0.068902-0.34451 0.36173-0.49953 0.31006-0.17226 0.44786-0.32729t0.36173-0.15503q0.1378 0 0.27561 0.12058t0.37896 0.25838q0.25838 0.12058 0.51676 0.55122zm16.519-12.282 0.10335-0.37896 0.43064-0.46509q0.03445-0.0344 0.03445-0.0689v-0.10335q0-0.25838 0.53399-0.56844 0.03445-0.43064 0.58566-0.63734l0.08613-0.0689v-0.13781q0-0.25838 0.36173-0.34451 0.37896-0.0861 0.58566-0.32728 0.31006-0.0689 0.98185-0.74069 0.0689-0.13781 0.17226-0.13781l0.39618-0.0344q0.49954-0.53399 0.63734-0.55121 0.1378-0.0172 0.29283-0.12058 0.15503-0.10335 0.44786-0.15503 0.08613-0.12058 1.223-0.70624h0.36173q0.0689 0 0.22393-0.13781 0.17225-0.1378 0.49954-0.18948 0.34451-0.0517 0.89572-0.22393 0.56844-0.18948 0.91295-0.25838l0.32728-0.17225h0.53399l0.17225-0.13781 1.0852-0.1378 1.1024-0.25838 0.31006 0.0344 0.22393-0.0344 0.37896 0.0861q0.0689 0 0.22393-0.0689 0.17225-0.0861 0.31006-0.0861 0.51676 0 0.93017 0.12058 0.43064 0.12057 0.65457 0.15502 0.22393 0.0172 0.36173 0.0861 0.1378 0.0689 0.17226 0.0689l0.44786-0.0344q0.03445 0 0.1378 0.12058 0.12058 0.12058 0.32728 0.18948h0.31006q0.03445 0.0345 0.10335 0.0345 0.20671 0.17226 0.74069 0.43064 0.37896 0.29283 0.39618 0.31006 0.1378-0.0517 1.068 0.72346 0.93017 0.77515 1.1886 1.1886l0.36173 0.46509 0.17225 0.44786 0.17226 0.29283q0.27561 0.70624 0.49954 1.6536l0.1378 0.34451q0.03445 0.0344 0.03445 0.15503l-0.10335 0.48231 0.1378 0.63734q0 0.20671-0.1378 0.60289 0.0689 0.17226 0.0689 0.20671 0 0.0345-0.1378 0.55121-0.1378 0.49954-0.1378 0.58567l0.0689 0.34451q0 0.0689-0.15503 0.22393-0.1378 0.1378-0.1378 0.2067 0 0.22393-0.12058 0.43064-0.12058 0.2067-0.15503 0.27561l-0.29283 0.48231q-0.0689 0.25838-0.17225 0.29283-0.10335 0.0344-0.10335 0.24116-0.03445 0.0345-0.24116 0.2067l-0.17226 0.25838-0.70624 0.7407q-0.10335 0.37896-0.82682 0.87849l-0.2067 0.20671q-0.93017 0.75792-1.1369 0.89572-0.2067 0.13781-0.34451 0.31006-0.1378 0.17226-0.44786 0.34451-0.05168 0.0861-0.43064 0.36173l-0.24116-0.0344q-0.12058 0.20671-0.29283 0.29284-0.17225 0.0861-0.25838 0.15502-0.08613 0.0689-0.12058 0.0689-0.03445 0-0.15503-0.0344-0.17226 0.25838-0.48231 0.37895-0.29283 0.12058-0.44786 0.22394-0.15503 0.10335-0.18948 0.10335l-0.27561-0.10335q0 0.37896-0.27561 0.41341-0.27561 0.0344-0.46509 0.15502l-0.36173-0.0344q-0.63734 0.63735-1.8259 0.63735-0.22393 0.2756-0.29283 0.2756l-0.31006-0.0689q-0.1378 0.0689-0.24116 0.0689-0.08613 0-0.63734 0.17226-0.2067-0.13781-0.49954-0.13781l0.03445 0.29284q0 0.17225-0.46509 0.17225-0.17225 0-0.37896-0.10335-0.20671 0.0689-0.25838 0.0689-0.10335 0-0.15503-0.12058-0.05168-0.1378-0.08613-0.1378-0.34451 0.56844-1.2058 0.56844-0.08613 0-0.98185 0.22393l-0.2067 0.0345q-0.0689 0-0.1378-0.0345l-0.29283-0.0344q-0.0689 0-0.27561-0.0861-0.10335 0.18948-0.17226 0.18948-0.32728 0-0.8096 0.10335-0.15503-0.0861-0.72347-0.12058-0.55121-0.0517-0.68902-0.2067h-0.03445q-0.03445 0-0.12058 0.0344h-0.0689q-0.0689 0-0.17225-0.0517-0.10335-0.0517-0.34451-0.0861-0.22393-0.0344-0.46509-0.36174-0.24116-0.34451-0.24116-0.58566 0-0.32729 0.27561-0.60289 0.27561-0.27561 0.56844-0.27561 0.1378 0 0.37896 0.10335h0.18948l0.27561 0.0345 0.10335-0.0345q-0.0689-0.24115-0.0689-0.25838 0-0.51676 0.36173-0.8785l0.24116-0.67179q0.03445-0.0689 0.20671-0.18948 0.17225-0.12058 0.17225-0.32728l0.15503-0.36174 0.03445-0.24115 0.17225-0.24116q0.1378-0.18948 0.17226-0.36173 0.03445-0.17226 0.24116-0.24116 0-0.36173 0.24116-0.58566 0.25838-0.22393 0.25838-0.34451 0-0.34451 0.24116-0.37896 0.08613-0.0689 0.08613-0.13781 0-0.0689-0.08613-0.22393 0.12058-0.34451 0.32728-0.37896 0.22393-0.0344 0.27561-0.0689-0.1378-0.0344-0.1378-0.17225 0-0.15503 0.10335-0.29283l0.17225-0.44787q0.08613-0.22393 0.43064-0.43063-0.10335-0.10335-0.10335-0.17226 0-0.0344 0.10335-0.1378l0.24116 0.0689q0-0.0345 0.03445-0.0345l0.03445-0.39618-0.03445-0.24116q0-0.0344 0.39618-0.22393l0.0689-0.17226q-0.24116 0-0.46509-0.0689-0.32728 0.13781-0.48231 0.24116-0.03445 0.0517-0.29283 0.0517h-0.10335q-0.03445 0-0.31006-0.0861-0.0689 0.0344-0.15503 0.17225-0.0689 0.12058-0.10335 0.12058l-0.51676-0.17225q-0.0689 0-0.27561 0.18948-0.18948 0.18948-0.36173 0.18948-0.08613 0-0.29283-0.10336-0.1378 0.10336-0.65457 0.10336-0.22393 0-0.46509 0.10335l-0.27561-0.0345-0.22393 0.0345q-0.0689 0-0.51676-0.31006-0.25838 0.0689-0.32728 0.0689l-0.27561-0.1378q-0.27561-0.1378-0.44786-0.15503-0.15503-0.0172-0.31006-0.0861-0.1378-0.0689-0.15503-0.0689-0.01723-0.0172-0.15503-0.17225-0.1378-0.15503-0.31006-0.22393-0.17226-0.0689-0.17226-0.29284l-0.0689-0.77514q0-0.10335 0.08613-0.27561 0.08613-0.17225 0.08613-0.31006 0-0.22393 0.27561-0.36173zm4.0997 1.7225h0.0689q0.27561 0 0.27561 0.22393 0 0.0689-0.0689 0.17226 0.0689 0.0344 0.10335 0.0344 0.0689 0 0.24116-0.25838 0.17226-0.27561 0.89572-0.27561 0.03445 0 0.08613 0.0344t0.08613 0.0344 0.15503-0.10335q0.12058-0.10335 0.18948-0.10335l0.77514-0.17226q1.1024-0.17225 1.1024-0.43063l-0.03445-0.24116q0.0689-0.1378 0.31006-0.41341 0.25838-0.29283 0.25838-0.60289l0.10335-0.39619v-0.17225q0-0.46509 0.63734-0.56844v-0.0344l-0.17226-0.53399 0.03445-0.0689q0.24116-0.12058 0.24116-0.17225 0-0.0345-0.17225-0.20671-0.15503-0.18948-0.15503-1.068 0-0.49953 0.56844-0.49953 0.74069 0 1.3264 0.65456 0.58566 0.65457 0.58566 1.4642 0 0.60289-0.60289 1.8087l-0.10335 0.37895h0.27561l0.43064-0.0689 0.31006 0.0344q0.22393 0 0.51676-0.1378 0.29283-0.1378 0.53399-0.17225 0.25838-0.0344 0.49954-0.20671 0.49954-0.12058 0.84405-0.17225 0.36173-0.0517 0.67179-0.22393h0.08613q0.03445 0 0.1378 0.1378h0.03445q0.03445 0 0.10335-0.0344 0.10335-0.24116 0.44786-0.36174 0.36173-0.1378 0.46509-0.2756l0.29283-0.31006q0-0.0344 0.55121-0.36174 0.56844-0.3445 0.84405-0.3445 0.53399 0 0.63734 0.41341l0.10335 0.29283v0.0345q0 0.43064-0.68902 1.0508-0.67179 0.62012-1.7914 0.89572-1.1197 0.27561-1.3608 0.27561-0.10335 0-0.2067-0.17225l-0.36173 0.10335-0.10335 0.17225q0 0.0345-0.0689 0.0345l-0.20671-0.13781h-0.0689q-0.17226 0.15503-0.65457 0.31006-0.46509 0.15503-0.72347 0.25838h-0.34451q-0.27561 0-0.75792 0.17226l-0.31006 0.0345q-0.60289 0.10335-0.67179 0.1378-0.0689 0.0344-0.25838 0.46509l-0.43064 0.9474q-0.08613 0.2067-0.29283 0.53398l-0.25838 0.41341q-0.03445 0-0.03445 0.0345l0.08613 0.25838v0.0344q-1.068 1.4297-1.4642 2.4805t-0.8785 1.912q-0.46509 0.84404-0.58566 1.1713-0.12058 0.32728-0.22393 0.51676-0.10335 0.18948-0.10335 0.22393 0 0.0861 0.10335 0.0861h0.1378q0.18948-0.15503 0.37896-0.17226 0.18948-0.0172 0.39618-0.0517l0.18948 0.0689h0.27561q0.01722 0 0.29283-0.17226l0.1378 0.0344 0.31006-0.0344 0.29283 0.0344q0.03445 0 0.12058-0.0517 0.08613-0.0517 0.22393-0.0689 0.1378-0.0172 0.2067-0.0689 0.0689-0.0517 0.10335-0.0517l0.15503 0.0344q0.03445 0.0345 0.0689 0.0345 0.10335 0 0.2067-0.27561l0.31006 0.10335q0-0.25838 0.15503-0.25838 0.48231 0 0.55121-0.0344l0.18948 0.0344h0.03445q0.03445 0 0.2067-0.10335l1.8776-0.70624q0.2067-0.0345 0.77514-0.44786l0.34451-0.15503q0.36173-0.17226 0.46509-0.27561t0.17225-0.10335q0.49954 0 0.67179-0.43064 0.0689-0.0344 0.27561-0.2067l0.17226-0.0345q0.25838-0.0689 0.56844-0.31006l0.32728-0.25838q0.10335-0.10336 0.37896-0.13781 0.63734-0.77514 0.91295-0.91295l0.25838-0.1378q0.03445-0.29283 0.24116-0.46509 0.20671-0.17225 0.25838-0.37896 0.0689-0.22393 0.2067-0.22393h0.10335q0.0689 0 0.0689-0.0689l-0.03445-0.31006q0-0.29283 0.34451-0.29283v-0.10335l-0.03445-0.27561v-0.0345q0-0.29283 0.25838-0.37896 0.27561-0.0861 0.27561-0.32728 0-0.18948-0.05168-0.39619-0.05168-0.2067-0.05168-0.24115 0-0.32729 0.46509-0.53399l0.03445-0.0689q0-0.0345-0.1378-0.13781-0.12058-0.10335-0.12058-0.2067 0-0.0517 0.0689-0.22393 0.0689-0.17226 0.0689-0.20671 0-0.0344-0.08613-0.17225-0.08613-0.13781-0.08613-0.25838 0-0.13781 0.10335-0.34451 0.10335-0.20671 0.10335-0.27561 0-0.15503-0.03445-0.25838-0.2067-0.10335-0.2067-0.24116v-0.0689l0.03445-0.1378-0.03445-0.22393 0.0689-0.20671q-0.10335-0.31006-0.17226-0.60289-0.0689-0.31006-0.24116-0.48231-0.15503-0.18948-0.15503-0.25838v-0.0344l0.08613-0.24116q0-0.0344-0.12058-0.0689-0.8785-1.1713-2.3254-1.7742t-1.4814-0.60289l-0.37896 0.0344q-0.29283-0.13781-0.32728-0.13781l-0.17225 0.0345q-0.03445 0.0344-0.0689 0.0344-0.0689 0-0.31006-0.13781l-0.43064 0.0344-0.43064-0.0344q-0.8096-0.0689-1.2919 0.0689l-1.378 0.22394q-0.0689 0-0.56844 0.17225-0.27561 0.17225-1.1369 0.34451h-0.41341q-0.03445 0-0.2067 0.17225-0.17225 0.17226-1.1024 0.43064-0.24116 0.24116-0.41341 0.29283-0.15503 0.0344-0.22393 0.12058-0.0689 0.0861-0.1378 0.0861h-0.24116q-0.18948 0-0.41341 0.2756-0.22393 0.27561-1.0335 0.63734l-0.18948 0.17226-0.34451 0.18948q-0.10335 0.0344-0.17226 0.1378l-0.0689 0.0689q-0.43064 0.12058-0.55121 0.39619-0.12058 0.27561-0.32728 0.32728-0.18948 0.0517-0.24116 0.25838-0.05168 0.20671-0.25838 0.34451-0.20671 0.13781-0.67179 0.8096-0.46509 0.65457-0.46509 0.96462 0 0.22393 0.2067 0.63734 0.2067 0.41342 0.60289 0.41342 0.32728 0 0.49954 0.0861 0.17225 0.0689 0.31006 0.0689 0.56844 0 0.93017-0.22393zm23.771-2.9972-0.10335-0.6718v-0.10335q0-0.80959 0.55121-0.89572 0.12058-0.0172 0.72347-0.22393 0.31006 0.0689 0.63734 0.55121 0.34451 0.46509 0.34451 0.82682 0 0.0344-0.05168 0.15503-0.05168 0.12058-0.0689 0.46509-0.01723 0.32728-0.34451 0.58566-0.31006 0.24116-0.67179 0.24116-0.24116 0-0.62012-0.32728-0.36173-0.34451-0.39618-0.60289zm-7.4414 8.6127 0.27561-0.24116h0.10335q0.12058 0 0.36173-0.25838l0.17226-0.0689q0.34451-0.51677 0.60289-0.60289l0.27561-0.20671q0.0689-0.0689 0.18948-0.12058 0.1378-0.0517 0.41341-0.32728 0.29283-0.29283 0.46509-0.29283 0.17226 0 0.27561 0.0344 0.10335-0.20671 0.41341-0.39619 0.31006-0.2067 0.49954-0.48231l0.22393-0.10335q0.27561-0.13781 0.48231-0.34451 0.22393-0.22393 0.56844-0.22393 0.49954 0 1.0335 0.51676 0.55121 0.49954 0.55121 0.96463l-0.29283 1.3436q-0.29283 1.4814-0.65457 1.5503l-0.0689 0.36173q-0.24116 0.17226-0.24116 0.27561l0.10335 0.41341q0 0.0861-0.18948 0.25838-0.03445 0-0.03445 0.10336v0.70624q0 0.18948-0.24116 0.31006 0.03445 0.0344 0.10335 0.0689 0.10335-0.10335 0.46509-0.10335l0.27561 0.0344 0.37896-0.37896q0.12058-0.0344 0.32728-0.15503 0.22393-0.1378 0.74069-0.34451l2.2565-1.7225q0.46509-0.46509 0.70624-0.46509 0.25838 0 0.25838 0.32728 0 0.37896-0.15503 0.63734-0.1378 0.24116-0.25838 0.60289-0.12058 0.34451-0.29283 0.48232-0.15503 0.1378-0.25838 0.31005-0.10335 0.15503-0.56844 0.46509-0.44786 0.31006-0.77514 0.63734-0.31006 0.31006-0.51676 0.44786l-0.74069 0.53399-0.10335 0.17226q-0.03445 0.0345-0.32728 0.15503-0.27561 0.10335-0.49954 0.2756l-0.31006 0.17226q-0.10335 0.0689-0.34451 0.0861-0.22393 0.0172-0.39618 0.20671-0.17225 0.17225-0.27561 0.17225l-0.25838-0.0344-0.34451 0.10336q-0.29283 0-0.72347-0.34451-0.41341-0.36174-0.41341-0.75792v-0.10336l0.03445-0.24115q0-0.0689-0.10335-0.34451-0.10335-0.29283-0.10335-0.32728l0.03445-0.24116-0.03445-0.10335q0-0.46509 0.0689-0.58567t0.10335-0.32728q0.03445-0.22393 0.0689-0.36173l0.08613-0.43064q0.0689-0.20671 0.17225-0.27561 0.03445-0.1378 0.1378-0.46508l0.0689-0.31006 0.17226-0.24116q0.1378-0.1378 0.15503-0.36173 0.03445-0.24116 0.18948-0.49954 0.15503-0.25838 0.15503-0.31006 0-0.2067-0.20671-0.2067-0.0689 0-0.43064 0.2756l-0.31006-0.10335q-0.03445 0-0.18948 0.17226 0 0.0689-0.15503 0.10335-0.15503 0.0345-0.29283 0.25838l-0.1378 0.0344-0.22393-0.10335h-0.0689q-0.17225 0-0.2067 0.37896-0.18948 0.2756-0.49954 0.36173l-0.37896 0.10335q-0.18948 0.0689-0.27561 0.31006-0.08613 0.24116-0.34451 0.44786-0.25838 0.18948-0.34451 0.18948-0.48231 0-0.48231-0.53399l0.1378-0.80959zm17.742-1.8604 0.48231-0.22393q0.24116-0.15503 0.46509-0.44786l0.60289-0.43064q0.51676-0.34451 0.67179-0.34451l0.27561 0.10335q0.03445 0 0.2067-0.2067 0.18948-0.22393 0.43064-0.22393 0.31006 0 0.84405 0.46509 0.53399 0.46508 0.53399 0.82682l-0.0689 0.58566q0 0.13781 0.1378 0.77515v0.1378l-0.0689 0.41341 0.0689 0.43064-0.18948 0.84404q0 0.32729 0.22393 0.32729 0.29283-0.27561 0.49954-0.32729l0.24116-0.24115q0.1378-0.13781 0.2067-0.13781 0.0689 0 0.17225-0.15503 0.12058-0.17225 0.29283-0.24115t0.24116-0.24116q0.96462-1.0508 1.4814-1.2058 0.0689 0 0.22393-0.17225 0.17226-0.17226 0.27561-0.20671l0.37896-0.29283 0.15503 0.0689h0.03445q0.03445 0 0.27561-0.17225 0.24116-0.17226 0.34451-0.17226 0.65457 0 1.068 0.44786 0.43064 0.43064 0.43064 0.6718l-0.08613 0.39618 0.12058 0.53399v0.34451l-0.08613 0.36173q0 0.10336 0.1378 0.29283 0.15503 0.18948 0.15503 0.25839-0.2067 0.22393-0.2067 0.29283l0.03445 0.31006-0.08613 0.9474q0 0.12057 0.22393 0.39618 0.10335-0.0689 0.29283-0.12058 0.18948-0.0517 0.29283-0.10335 0.10335-0.0689 0.10335-0.0689 0-0.0172-0.01723-0.0172 0.03445 0 0.20671 0.0689h0.0689q0.1378 0 0.15503-0.25838 0.01723-0.2756 0.34451-0.44786l0.41341 0.0344q0.03445-0.0344 0.1378-0.2756 0.12058-0.25839 0.72347-0.7407 0.62012-0.49954 0.9474-0.49954 0.27561 0 0.27561 0.24116 0 0.0689-0.0689 0.36173 0.1378 0.24116 0.1378 0.41342 0 0.32728-0.56844 0.70624-0.55121 0.37896-0.84405 0.9474l-0.0689 0.0689-0.34451-0.0345q-0.03445 0-0.17225 0.27561-0.12058 0.25838-0.29283 0.29283-0.17225 0.0344-0.24116 0.10335l-0.36173 0.22393q-0.10335 0.0689-0.68902 0.70624-0.56844 0.62012-0.96462 0.62012-0.17226 0-0.62012-0.17225-0.44786-0.18948-0.60289-0.37896-0.15503-0.18948-0.44786-0.43064-0.27561-0.24116-0.27561-0.91295 0-0.0344 0.08613-0.12058 0.10335-0.0861 0.10335-0.1378-0.39618-0.51676-0.39618-0.74069 0-0.10336 0.03445-0.22393 0.03445-0.12058 0.03445-0.22394l-0.03445-0.60289 0.0689-0.31005-0.03445-0.18948 0.10335-0.8785q0-0.20671-0.24116-0.20671-0.0689 0-0.18948 0.13781-0.12058 0.1378-0.31006 0.22393-0.17225 0.0689-0.37896 0.48231-0.31006 0.17225-0.43064 0.34451-0.10335 0.15503-0.17226 0.15503-0.03445 0-0.1378-0.0344-0.2067 0.1378-0.2067 0.31006v0.0689l0.03445 0.1378q0 0.15503-0.25838 0.29283-0.25838 0.13781-0.63734 0.70625-0.17226 0-0.24116 0.0344l-0.2067 0.41341q-0.17225 0.10335-0.32728 0.36173l-0.2067 0.10335q-0.12058 0.22393-0.24116 0.37896l-0.10335 0.18948q-0.74069 0.8785-1.0335 0.8785-0.29283 0-0.70624-0.77514-0.41341-0.77515-0.41341-1.2058l0.0689-0.63735q0-0.0344-0.1378-0.2756v-0.0689q0-0.0345 0.1378-0.39619v-0.51676q0-0.0345-0.03445-0.10336v-0.0861q0-0.0345 0.1378-0.27561l-0.10335-0.49954 0.0689-0.2756-0.03445-0.60289 0.0689-0.53399q0-0.0517-0.10335-0.17226-0.08613-0.1378-0.12058-0.1378-0.12058 0-0.72347 0.39618-0.58566 0.39619-0.79237 0.62012t-0.55121 0.53399q-0.36173 0.17225-0.49954 0.8785 0 0.0344-0.0689 0.0344 0-0.0344-0.10335-0.0689h-0.0689q-0.08613 0-0.53399 0.7407l-0.0689 0.0689-0.32728-0.0689q-0.41341 0-0.41341 0.8785 0 0.15502-0.22393 0.2067-0.2067 0.0517-0.32728 0.29283-0.12058 0.24116-0.32728 0.49954-0.39619 0.17226-0.44786 0.25838 0 0.0172-0.37896 0.51677-0.37896 0.49953-0.41341 0.58566-0.03445 0.0861-0.24116 0.20671-0.18948 0.10335-0.18948 0.18948l0.05168 0.29283q0 0.27561-0.53399 0.27561-1.0335 0-1.0335-2.1532 0-0.24116 0.20671-0.53399 0.22393-0.31006 0.43064-0.7407 0.32728-0.32728 0.77514-0.9474 0.44786-0.62011 0.67179-0.84404l0.22393-0.36174q0-0.2067 0.08613-0.31005 0.08613-0.10336 0.08613-0.25839 0-0.2756-0.1378-0.2756-0.32728 0-0.51676 0.17225-0.18948 0.15503-0.43064 0.22393-0.22393 0.0689-0.29283 0.24116-0.24116 0.10335-0.51676 0.44786-0.25838 0.32728-0.34451 0.41341-0.08613 0.0861-0.17226 0.24116-0.0689 0.1378-0.18948 0.15503-0.12058 0.0172-0.22393 0.12057-0.10335 0.10336-0.32728 0.10336-0.15503 0-0.29283-0.31006-0.12058-0.32729-0.12058-0.39619 0-1.2574 1.6709-2.1704 0.22393-0.12058 0.34451-0.24116 0.1378-0.12058 0.27561-0.18948l0.0689-0.12058q0.1378-0.2067 1.0335-0.58566h0.24116l1.1541-0.29283q0.74069-0.17226 0.74069 1.6709l-0.03445 0.31006 0.0689 0.13781q0.29283-0.27561 0.58566-0.48232 0.31006-0.22393 0.44786-0.39618 0.1378-0.17226 0.53399-0.34451zm24.15 6.0289-0.8096 0.70625q-0.0689-0.0689-0.1378-0.0689-0.17225 0-0.43064 0.31006-0.24116 0.31006-0.34451 0.31006l-0.17225-0.0344q-0.43064 0.32728-0.62012 0.37896-0.18948 0.0517-0.46509 0.18948-0.25838 0.1378-0.48231 0.15503-0.2067 0.0172-0.34451 0.15503-0.1378 0.12057-0.67179 0.12057l-0.27561-0.0344q-0.22393 0.10336-0.29283 0.10336-0.1378 0-0.29283-0.13781-0.15503-0.15503-0.34451-0.17225-0.17225-0.0172-0.36173-0.24116-0.18948-0.22393-0.36173-0.31006-0.15503-0.0861-0.25838-0.24115l-0.24116-0.20671q-0.29283-0.2067-0.56844-0.75792-0.27561-0.55121-0.27561-0.86127v-0.0689l0.03445-0.32728-0.03445-0.37896q0.0689-0.0689 0.17225-0.29284v-0.55132l0.41341-1.378q0.03445-0.0861-0.1378-0.22394-0.17225 0.25839-0.34451 0.31006-0.17225 0.0517-0.24116 0.24116-0.05168 0.18948-0.18948 0.18948l-0.2067-0.0689q-0.03445 0.0345-0.15503 0.36173-0.12058 0.31006-0.41341 0.31006-0.31006 0-0.31006-0.24116l0.03445-0.31006-0.10335-0.43063q0-0.1378 0.27561-0.53399 0.27561-0.41341 0.49954-0.46509 0.24116-0.0689 0.39618-0.32728 0.17225-0.27561 0.72347-0.65457 0.31006-0.0689 0.53399-0.44786 0.24116-0.18948 0.62012-0.31006 0.39618-0.12057 0.58566-0.34451 0.20671-0.24115 1.1713-0.72346 0.98185-0.49954 1.4297-0.49954 0.1378 0 0.37896-0.0689 0.24116-0.0861 0.44786-0.13781 0.2067-0.0689 0.43064-0.18948 0.22393-0.1378 0.36173-0.1378l0.49954 0.17225q0.55121 0.15503 0.67179 0.22394 0.03445 0.0344 0.34451 0.15502 0.32728 0.10336 0.65457 0.29284 0.34451 0.18948 0.34451 0.70624-0.29283 0.43064-0.29283 0.46509 0 0.0689 0.39618 0.2067 0.1378 0.25838 0.41341 0.67179l0.18948 0.60289 0.03445 1.4125-0.03445 0.1378q-0.18948 0.17226-0.18948 0.22393l0.05168 0.34451-0.1378 0.48232q-0.05168 0.22393-0.17225 0.29283-0.12058 0.0689-0.15503 0.17225l-0.10335 0.13781q-0.03445 0.0517-0.15503 0.31005-0.10335 0.24116-0.24116 0.37896-0.1378 0.13781-0.17225 0.32729t-0.17226 0.2756q-0.1378 0.0861-0.2067 0.18948-0.05168 0.0861-0.18948 0.15503zm-5.3571 0.44786 0.0689 0.39619 0.03445 0.0344h0.27561l0.08613 0.0345q0.34451 0.0689 0.51676 0.0689 0.53399 0 0.84405-0.25838 0.32728-0.27561 0.51676-0.27561t0.31006-0.25838q0.1378-0.25838 0.17226-0.25838h0.24116l0.0689-0.0344q0-0.39619 0.34451-0.56844 0.36173-0.17225 0.49954-0.44786 0.15503-0.29283 0.34451-0.43064 0.18948-0.15503 0.25838-0.39618l0.1378-0.20671q0.0689-0.0689 0.0689-0.25838l0.32728-0.62011q0.10335-0.43064 0.10335-0.6718 0-0.36173-0.37896-0.56844-0.36173-0.2067-0.36173-0.80959 0-0.39619 0.39618-0.72347 0.41341-0.34451 0.41341-0.41341 0-0.10335-0.10335-0.10335-0.05168 0-0.39618 0.1378-0.12058 0.24116-1.223 0.63734-0.36173-0.17225-0.39618-0.17225-0.10335 0-0.2067 0.2067-0.10335 0.20671-0.2067 0.29283h-0.22393q-0.03445 0-0.22393 0.22394-0.18948 0.22393-0.48231 0.22393l-0.2067 0.2067q0.01723 0.27561-0.34451 0.56844l-0.18948 0.22393q-0.17225 0.20671-0.44786 0.48231l-0.31006 0.77515q-0.18948 0.44786-0.18948 0.67179-0.05168 0.10335-0.24116 0.22393-0.17225 0.10335-0.17225 0.27561 0 0.0345 0.12058 0.17225 0.12058 0.13781 0.12058 0.20671l-0.0689 0.22393-0.0689 0.63734zm12.402-7.0108 0.25838-0.0689 0.10335-0.22393q0.84405-0.49954 1.2058-0.9474 0.03445-0.0689 0.15503-0.1378 0.12058-0.0689 0.25838-0.24116 0.63734-0.63734 1.5158-0.63734 1.0335 0 1.1024 1.2574l0.10335 0.25839q0.1378 0.24115 0.37896 0.98185 0.25838 0.74069 0.25838 0.91294 0 0.46509-0.29283 0.93018-0.24116 0.12058-1.1541 1.2919l-0.17225 0.12057q-0.1378 0.31006-0.36173 0.62012-0.34451 0.12058-0.34451 0.25838v0.31006q0 0.0344-0.08613 0.1378-0.0689 0.10336-0.20671 0.39619l-0.1378 0.2067q-0.0689 0.0689-0.1378 0.29284-0.0689 0.2067-0.2067 0.37896-0.12058 0.17225-0.12058 0.2756 0 0.25838 0.67179 0.25838 0.03445 0 0.25838-0.10335l0.24116 0.0689q0.03445 0 0.17225-0.10335 0.1378-0.12058 0.41341-0.18948 0.29283-0.0689 0.49954-0.2067 0.22393-0.13781 0.51676-0.24116 0.31006-0.10335 0.58566-0.32728 0.27561-0.24116 0.53399-0.34451 0.27561-0.10336 0.49954-0.31006 0.24116-0.22393 0.53399-0.41341 0.29284-0.18948 0.93018-0.82682 0.41341-0.32729 0.56844-0.36174 0.0345 0 0.29283-0.44786 0.27561-0.46508 0.62011-0.46508 0.36174 0 0.36174 0.3445 0 0.18948-0.17226 0.36174v0.10335l0.0345 0.27561q0.0345 0.0517 0.0345 0.15503 0 0.0689-0.13781 0.2067-0.12058 0.13781-0.17225 0.36174-0.0517 0.2067-0.32729 0.2756-0.10335 0.37896-0.2756 0.43064-0.15503 0.0517-0.44786 0.34451-0.29284 0.29283-0.82683 0.68902-0.53398 0.39618-0.74069 0.62011-0.18948 0.20671-0.25838 0.20671-0.03445 0-0.1378-0.0689t-0.1378-0.0689q-0.10335 0-0.1378 0.24116l-0.0689 0.17225q-0.22393 0.13781-0.25838 0.13781l-0.10335-0.0345h-0.0689q-0.2067 0-0.2067 0.15503l0.10335 0.17225v0.0345q0 0.24116-0.27561 0.24116-0.18948 0-1.1024 0.63734l-0.49954 0.10335-0.41341 0.22393q-0.2067-0.12058-0.25838-0.12058l-0.27561 0.0861-0.49954 0.0344q-0.01723 0-0.63734-0.34451-0.60289-0.34451-0.72347-0.68901-0.12058-0.34451-0.31006-0.68902-0.18948-0.36174-0.18948-0.49954 0-0.82682 0.1378-1.1713 0.1378-0.36173 0.17225-0.53399 0.03445-0.17225 0.18948-0.36173 0.17226-0.20671 0.27561-0.65457 0.49954-0.99907 0.68902-1.223 0.18948-0.22393 0.29283-0.55121l0.22393-0.31006q0.03445-0.0344 0.10335-0.25838 0.0689-0.24116 0.17225-0.27561 0.1378-0.24115 0.1378-0.31005 0-0.49954-0.44786-0.49954-0.08613 0-0.18948 0.18948-0.10335 0.17225-0.48231 0.34451-0.36173 0.17225-0.44786 0.25838-0.08613 0.0861-0.37896 0.22393-0.27561 0.12058-0.48231 0.39618l-0.29283 0.13781q-0.1378 0.32728-0.24116 0.36173-0.10335 0.0344-0.63734 0.17226-0.03445 0.0172-0.17226 0.2067-0.1378 0.18948-0.39618 0.18948-0.2067 0.20671-0.41341 0.48231-0.0689 0-0.36173 0.13781l-0.34451 0.0861q-0.1378 0.10336-0.31006 0.32729-0.15503 0.22393-0.60289 0.22393-0.25838 0-0.25838-0.41341 0-0.84405 0.58566-1.3436 0.60289-0.49953 0.8785-0.53398 0.27561-0.0345 0.34451-0.20671 0.0689-0.17225 0.32728-0.27561 0.27561-0.12058 0.62012-0.49953 0.36173-0.39619 0.77514-0.53399zm24.563 4.9782h0.0689l0.17226 0.0689q0.0345 0 0.0689-0.0344 0-0.29283 0.27561-0.49953 0.0861-0.32729 0.37896-0.49954 0.31005-0.17226 0.96462-0.56844l0.43064-0.37896 0.2067-0.10335 0.13781-0.17226q0.18948-0.22393 0.36173-0.22393 0.25838 0 0.25838 0.18948l-0.15503 0.34451 0.0689 0.56844q0 0.31006-0.22393 0.55121-0.2067 0.24116-0.65456 0.70625l-0.8785 0.93017-0.46509 0.24116q-0.17225 0.10335-0.31006 0.24115l-0.67179 0.56844q0 0.24116-0.15503 0.36174h-0.2756l-0.13781 0.0689q-0.12057 0.32728-0.70624 0.63734l-0.24116 0.17225q-0.12057 0.10336-0.22393 0.10336l-0.48231-0.0689-0.32728 0.0689q-0.13781 0-0.37896-0.13781-0.22393-0.1378-0.46509-0.2067-0.24115-0.0861-0.62011-0.63734-0.36174-0.56844-0.39619-0.7407 0-0.0689-0.0861-0.22393-0.0689-0.17225-0.0689-0.2067 0-0.0345 0.15503-0.34451v-0.0344q0-0.0517-0.10335-0.24116-0.0861-0.18948-0.0861-0.46509 0-0.15503-0.10335-0.39618 0.1378-0.13781 0.1378-0.20671t-0.0517-0.18948q-0.0517-0.1378-0.0517-0.2067l0.10335-0.84405-0.0689-0.43063 0.0344-0.41342q0-0.36173-0.31006-0.36173-0.1378 0-0.34451 0.18948l-0.12057 0.0344q-0.46509 0.22393-0.65457 0.37896-0.18948 0.1378-0.39619 0.1378-0.10335 0.10336-0.39618 0.18948l-0.1378 0.10336q-0.0689 0.0689-0.27561 0.2067 0 0.0517-0.65457 0.58567-0.63734 0.51676-1.1541 0.98185-0.51677 0.46508-0.75792 0.51676-0.22393 0.0344-0.22393 0.43064 0 0.0689-0.31006 0.2756-0.0345 0-0.36173 0.37896-0.27561-0.2067-0.31006-0.2067-0.22393 0-0.32729 0.56844-0.10335 0.22393-0.55121 0.2756-0.0344 0.0172-0.12058 0.25839l-0.0689 0.0689h-0.17225q-0.0345 0-0.24116 0.2067-0.20671 0.18948-0.36173 0.24116-0.22394 0.46509-0.37896 0.46509-0.0689 0-0.20671-0.0689-0.12058-0.0689-0.31006-0.12057-0.18948-0.0517-0.43063-0.41341-0.22393-0.37896-0.22393-0.63735 0-1.912 0.74069-2.0843l0.0345-0.0689v-0.1378q0-0.22393 0.18948-0.31006 0.20671-0.10335 0.41341-0.37896 0.20671-0.29283 0.27561-0.32728h0.22393q0.0689 0 0.0689-0.36173 0-0.10336 0.0861-0.18948 0.0861-0.0861 0.10335-0.24116 0.0172-0.17225 0.24116-0.53399 0.24115-0.37896 0.24115-0.44786l-0.0345-0.0689q-0.43063 0.39618-0.62011 0.43063-0.18948 0.0344-0.51677 0.49954l-0.2756-0.0517q-0.72347 0.53398-0.89573 0.60289-0.17225 0.0689-0.37896 0.39618 0 0.10335-0.12057 0.1378-0.12058 0.0345-0.44787 0.27561h-0.10335q-0.43063 0-0.43063-0.62011l0.36173-0.98185q0.15503-0.46509 0.72347-0.77515 0.58566-0.32728 0.98185-0.62012 0.39618-0.29283 0.79237-0.31005l0.12058-0.17226q0.58566-0.22393 0.79237-0.70624 0.2067-0.48231 0.56844-0.48231 0.94739 0 1.4469 0.70624 0.49954 0.68902 0.49954 1.1024l0.0344 0.46509q0 0.24115-0.10335 0.67179-0.20671 0.31006-0.20671 0.46508 0 0.13781 0.17226 0.13781 0.10335 0 0.2756-0.13781 0.17226-0.15502 0.37896-0.2756 0.22394-0.12058 0.25839-0.20671 0.17225-0.41341 0.60289-0.56844 0.43063-0.15503 0.53398-0.25838l0.17226-0.1378 0.1378-0.25838q0.46509-0.20671 0.62012-0.37896 0.15503-0.17226 0.41341-0.22393 0.25838-0.0517 0.58566-0.31006l0.25839-0.0689 0.24115-0.13781q0.0345-0.0344 0.20671-0.0861 0.17225-0.0517 0.49953-0.17225 0.34451-0.1378 0.46509-0.1378 0.8785 0 1.378 0.70624 0.51676 0.70624 0.51676 1.1369l-0.0345 0.31006 0.0689 0.46508v0.0689l-0.1378 0.94739 0.0345 0.32729q0 0.80959-0.34451 1.1196-0.0861 0.0344-0.0861 0.17226v0.15502l0.34451 0.72347q0.15503 0.37896 0.24116 0.37896l0.55121-0.15503q0.24116-0.0689 0.39619-0.36173 0.1378-0.0689 0.48231-0.41341 0.10335-0.27561 0.32728-0.27561zm2.3254 13.815-0.2756 0.18948q-0.17226 0.10336-0.36174 0.10336-0.43063 0-0.82682-0.56844-0.41341-0.56844-0.41341-1.1713 0-1.0852 0.22393-1.5503 0.20671-0.44786 0.24116-0.67179 0-0.0172 0.37896-0.86128 0.36173-0.82682 0.68901-1.2574 0.32729-0.43064 0.55122-0.8096l0.0689-0.1378q0.25838-0.41341 0.49954-0.56844 0-0.10335 0.65456-0.72347 0.6718-0.60289 1.2575-1.0335l0.17226-0.24115q0.41341-0.25838 0.48231-0.25838l0.99907-0.27561q0.13781-0.1378 0.6718-0.53399h0.1378l0.46509-0.1378q0.37896-0.17226 1.1713-0.31006 0.80959-0.15503 0.91294-0.34451 0.12058-0.20671 0.18948-0.37896 0.0861-0.17225 0.39619-0.72347 0.0689-0.29283 0.12058-0.46509 0.0517-0.17225 0.10335-0.2067 0.0689-0.0345 0.20671-0.32728 0.1378-0.31006 0.2756-0.51677 0.0344 0 0.0344-0.0344l-0.10335-0.29283q0.1378-0.41341 0.27561-0.49954 0.15503-0.10335 0.15503-0.1378l-0.12058-0.31006 0.29283-0.63734q0-0.0689-0.0689-0.0689-0.91295 0.63734-1.068 0.63734-0.0861 0.12058-0.37896 0.41341-0.29283 0.10335-0.39618 0.36173l-0.13781 0.0345-0.10335 0.17226q0 0.0344-0.12058 0.0861t-0.48231 0.2756l-0.2067-0.0344q-0.0689 0-0.17226 0.34451-0.29283 0.34451-0.56844 0.43064-0.25838 0.0689-0.32728 0.17225l-0.13781 0.17226-0.17225-0.0345q-0.36173 0-0.36173 0.27561 0 0.15503-0.20671 0.36174-0.1378 0-0.34451 0.10335h-0.25838q-0.17225 0.37896-0.62012 0.46509l-0.49953 0.3445-0.29284 0.10336q-0.2067 0.10335-0.41341 0.25838-0.2067 0.1378-0.70624 0.17225-0.24116-0.1378-0.74069-0.25838-0.49954-0.1378-0.70625-1.6881h-0.0345q-0.1378 0-0.29283 0.10335-0.17225 0.10335-0.24116 0.10335-0.41341 0-0.41341-0.34451 0-0.77514 0.58567-1.0163l0.43063-0.53398 1.1024-1.0852q1.1541-1.1541 1.5503-1.4814 0.39619-0.32729 0.86127-0.63735l0.8785-0.58566q0.44786-0.29283 0.55122-0.31006 0.10335-0.0344 0.2067-0.12058 0.12058-0.0861 0.63734-0.25838l0.31006-0.1378q0.96462-0.32729 1.2402-0.32729l0.24116 0.0345q0.18948 0 0.36173-0.13781 0.24116 0 0.7407-0.37896l0.62011-0.17225q0.25838-0.0861 0.43064-0.0861h0.32728q0.36174 0 0.46509 0.56844 0.12058 0.56844 0.2067 0.56844 0.0344 0 0.20671-0.25838l0.24115-0.17226q0.25839-0.17225 0.32729-0.17225 0.41341 0 0.51676 0.34451v0.0344l0.0689 0.0861q0.15503 0.82682 0.15503 1.0163 0 0.82682-0.36173 1.2919-0.34451 0.46509-0.41341 0.65457-0.34451 1.3953-0.68902 2.1015-0.0861 0.18947-0.41341 0.99907l-0.17226 0.17225q-0.0689 0.0345-0.0689 0.10336l0.0344 0.24115q-0.29283 0.46509-0.29283 0.7407 0 0.15503-0.27561 0.63734 0.0345 0.0344 0.29284 0.18948 0.2756 0.1378 0.60289 0.55121 0.34451 0.39619 0.34451 0.60289 0 0.0517-0.18948 0.6718-0.62012 0.46508-1.0508 0.46508-0.17225 0-0.49953-0.22393l-0.10336 0.0344v-0.0689q-0.22393-0.0517-0.36173-0.1378-0.12058-0.0689-0.24116-0.0689-0.1378 0-0.1378 0.1378 0 0.0689 0.0344 0.1378-0.10335 0.0861-0.27561 0.25838 0 0.0517-0.24115 0.49954-0.24116 0.46509-0.43064 0.62012-0.37896 0.0172-0.51676 0.56844-0.1378 0.55121-0.32728 0.70624l-0.17226-0.0689q-0.58566 1.1713-1.1713 1.6881-0.36173 0.0861-0.37896 0.12058 0 0.0517-0.0344 0.22393-0.0172 0.18948-0.41341 0.56844-0.37896 0.39618-0.44786 0.39618l-0.17226 0.0345-0.10335 0.10335q0.0172 0.34451-0.91295 1.1024-0.49953 0.2756-0.53399 0.37896-0.1378 0.32728-1.0163 0.77514l-0.32728 0.29283q-0.22393 0.20671-0.44786 0.29284zm5.9256-14.349 0.20671-0.29283q0.10335-0.1378 0.34451-0.2067 0.25838-0.0689 0.41341-0.29284 0.41341-0.58566 0.98185-0.86127l0.17225-0.12058q0.25838-0.49953 0.46509-0.53399 0.20671-0.0517 0.36173-0.31005 0.15503-0.27561 0.15503-0.44786 0-0.0689-0.10335-0.0689-0.24116 0-0.43064 0.13781-0.17225 0.1378-0.24115 0.1378l-0.34451-0.0344q-0.31006 0.17225-0.86127 0.41341l-0.31006 0.25838q-0.20671 0.13781-0.37896 0.17226-0.15503 0.0344-0.24116 0.22393-0.0861 0.17225-0.22393 0.17225l-0.1378 0.0689q-0.0689 0.0689-0.39619 0.0689-0.17225 0.10335-0.36173 0.29283-0.17225 0.18948-0.2067 0.18948-0.39619 0.43063-0.68902 0.53399-0.27561 0.10335-0.36174 0.29283-0.32728 0.0861-0.55121 0.39618-0.22393 0.29284-0.41341 0.41341-0.17226 0.10336-0.31006 0.27561l-0.17225 0.1378q-0.10336 0.0689-0.29284 0.46509-0.17225 0.37896-0.17225 0.53399 0 0.10335 0.12058 0.10335 0.17225 0 0.63734-0.24115 0.48231-0.25839 0.62011-0.39619 0.13781-0.1378 0.18948-0.1378l0.65457 0.0344q0.10335-0.22393 0.34451-0.29283 0.25838-0.0689 0.39619-0.29284 0.1378-0.22393 0.77514-0.48231l0.18948-0.31006zm0.31006 5.4949-0.51676 0.0689q-0.18948-0.1378-0.29283-0.1378-0.0689 0-0.10336 0.10335-0.2067 0.27561-0.91294 0.46509-0.70625 0.18948-0.96463 0.37896-0.24116 0.2067-0.41341 0.22393-0.17225 0.0172-0.17225 0.0689-0.17226 0.1378-0.25839 0.24115-0.17225 0.0689-0.3445 0.20671-0.17226 0.15503-0.36174 0.18948-0.31006 0.67179-0.44786 0.67179-0.0344 0-0.17225-0.0344h-0.0345q-0.22393 0.44786-0.3445 0.51676-0.12058 0.0689-0.20671 0.18948-0.0861 0.13781-0.32728 0.29284-0.25838 0.15503-0.34451 0.51676-0.0861 0.37896-0.20671 0.49954-0.1378 0.1378-0.17225 0.58566l-0.10335 0.24116q-0.0517 0.10335-0.13781 0.58566-0.10335 0.49954-0.10335 0.51677 0 0.24115 0.20671 0.43063 0.0689-0.0861 0.29283-0.12058l1.0163-0.41341q0.0517-0.0345 0.37896-0.32728 0.32728-0.27561 0.56844-0.36173 0.25838-0.0861 0.46508-0.31006 0.13781-0.20671 0.32729-0.34451 0.2067-0.1378 0.24115-0.34451 0.39619-0.34451 0.72347-0.65457 0.32729-0.29283 0.41341-0.49953 0.10336-0.18948 0.31006-0.32729l0.0689-0.22393q0.0345-0.0172 0.13781-0.0517 0.12057-0.0172 0.37896-0.55122l0.46508-0.77514q0.41341-0.41341 0.67179-1.0508l0.24116-0.20671q0.0689-0.0344 0.0689-0.15503z" stroke-width="8.899" aria-label="Dr. Dimorng"/>
 </g>
</svg>
