<svg version="1.1" viewBox="0 0 15.086 15.088" xmlns="http://www.w3.org/2000/svg" xmlns:cc="http://creativecommons.org/ns#" xmlns:dc="http://purl.org/dc/elements/1.1/" xmlns:rdf="http://www.w3.org/1999/02/22-rdf-syntax-ns#">
 <title>សូម​ស្វាគមន៍​មក​កាន់ Blog របស់ខ្ញុំ​ ! 👏</title>
 <metadata>
  <rdf:RDF>
   <cc:Work rdf:about="">
    <dc:format>image/svg+xml</dc:format>
    <dc:type rdf:resource="http://purl.org/dc/dcmitype/StillImage"/>
    <dc:title>សូម​ស្វាគមន៍​មក​កាន់ Blog របស់ខ្ញុំ​ ! 👏</dc:title>
   </cc:Work>
  </rdf:RDF>
 </metadata>
 <g>
  <path id="logo-border" d="m7.543 0c-4.1608 0-7.543 3.3841-7.543 7.5449s3.3822 7.543 7.543 7.543 7.543-3.3822 7.543-7.543-3.3822-7.5449-7.543-7.5449z" fill="#fff" style="font-feature-settings:normal;font-variant-alternates:normal;font-variant-caps:normal;font-variant-east-asian:normal;font-variant-ligatures:normal;font-variant-numeric:normal;font-variant-position:normal;font-variation-settings:normal;inline-size:0;isolation:auto;mix-blend-mode:normal;shape-margin:0;shape-padding:0;text-decoration-color:#000000;text-decoration-line:none;text-decoration-style:solid;text-indent:0;text-orientation:mixed;text-transform:none;white-space:normal"/>
  <path id="inner_logo" d="m7.543 0.94141c3.6517 0 6.6016 2.952 6.6016 6.6035 0 3.6517-2.9501 6.6016-6.6016 6.6016-3.6517 0-6.6016-2.9501-6.6016-6.6016 0-3.6517 2.9501-6.6035 6.6016-6.6035z" style="font-feature-settings:normal;font-variant-alternates:normal;font-variant-caps:normal;font-variant-east-asian:normal;font-variant-ligatures:normal;font-variant-numeric:normal;font-variant-position:normal;font-variation-settings:normal;inline-size:0;isolation:auto;mix-blend-mode:normal;shape-margin:0;shape-padding:0;text-decoration-color:#000000;text-decoration-line:none;text-decoration-style:solid;text-indent:0;text-orientation:mixed;text-transform:none;white-space:normal"/>
  <path id="logo-text" d="m7.5137 3.7695c-1.1528 0-2.1352 0.41095-2.877 1.2129-0.68166 0.72175-0.99219 1.5634-0.99219 2.666 0 2.1653 1.4229 3.6582 3.498 3.6582 0.6115 0 1.2225-0.14953 1.6836-0.41016 0.25061-0.15037 0.41048-0.28128 0.70117-0.58203l0.49219 0.98242h0.53125v-2.0645c0-0.63153 1.44e-4 -0.68152 0.07031-0.76172 0.09021-0.10024 0.25086-0.1306 0.82226-0.14062v-0.54102h-3.5586v0.54102h0.18945c0.832 0 0.83203 0.029909 0.83203 0.76172 0 1.0826-0.59026 1.6934-1.4824 1.6934-0.6115 0-1.1127-0.32-1.3633-0.86133-0.27067-0.58141-0.41211-1.3937-0.41211-2.3359 0-1.0626 0.20136-1.9435 0.57227-2.5449 0.29069-0.47114 0.82067-0.75195 1.4121-0.75195 1.1829 0 2.056 0.87082 2.3867 2.3945h0.53125l-0.08984-2.877h-0.44141l-0.5918 0.50195c-0.70169-0.40097-1.1923-0.54102-1.9141-0.54102z" fill="#fff" style="font-feature-settings:normal;font-variant-alternates:normal;font-variant-caps:normal;font-variant-east-asian:normal;font-variant-ligatures:normal;font-variant-numeric:normal;font-variant-position:normal;font-variation-settings:normal;inline-size:0;isolation:auto;mix-blend-mode:normal;shape-margin:0;shape-padding:0;text-decoration-color:#000000;text-decoration-line:none;text-decoration-style:solid;text-indent:0;text-orientation:mixed;text-transform:none;white-space:normal"/>
 </g>
</svg>
