<svg
            width="15.088mm"
            height="15.088mm"
            version="1.1"
            viewBox="0 0 15.088 15.088"
            xmlns="http://www.w3.org/2000/svg"
            xmlns:cc="http://creativecommons.org/ns#"
            xmlns:dc="http://purl.org/dc/elements/1.1/"
            xmlns:rdf="http://www.w3.org/1999/02/22-rdf-syntax-ns#"
          >
            <title>សូម​ស្វាគមន៍​មក​កាន់ Googoraa ! 👏</title>
            <metadata>
              <rdf:RDF>
                <cc:Work rdf:about="">
                  <dc:format>image/svg+xml</dc:format>
                  <dc:type
                    rdf:resource="http://purl.org/dc/dcmitype/StillImage"
                  />
                  <dc:title />
                </cc:Work>
              </rdf:RDF>
            </metadata>
            <g transform="translate(-55.179 -152.45)">
              <circle
                cx="62.722"
                cy="160"
                r="7.0728"
                fill="none"
                stroke-width=".942"
              />
              <g transform="matrix(.81188 0 0 .81188 10.783 28.856)">
                <path
                  d="m68.777 162.5v-0.66675h-4.3833v0.66675h0.2346c1.0248 0 1.0248 0.037 1.0248 0.93839 0 1.3335-0.72848 2.0867-1.8274 2.0867-0.75318 0-1.3705-0.39511-1.6792-1.0619-0.33337-0.71613-0.50624-1.7163-0.50624-2.8769 0-1.3088 0.24694-2.3954 0.70379-3.1362 0.35807-0.58032 1.0125-0.92604 1.741-0.92604 1.457 0 2.5312 1.0742 2.9386 2.951h0.6544l-0.11112-3.5436h-0.54328l-0.72848 0.61736c-0.8643-0.49389-1.4693-0.66675-2.3583-0.66675-1.4199 0-2.63 0.50624-3.5436 1.494-0.83961 0.889-1.2224 1.9262-1.2224 3.2844 0 2.667 1.7533 4.5067 4.3092 4.5067 0.75318 0 1.5064-0.18521 2.0743-0.50624 0.30868-0.18521 0.50624-0.34572 0.8643-0.71614l0.60501 1.21h0.6544v-2.5435c0-0.77788 0-0.83961 0.08643-0.93839 0.11112-0.12347 0.30868-0.16051 1.0125-0.17286z"
                  stroke="none"
                />
              </g>
            </g>
          </svg>